<svg width="188" height="181" viewBox="0 0 188 181" fill="none" xmlns="http://www.w3.org/2000/svg">
<g clip-path="url(#clip0_149_379)">
<path d="M3.55914 152.44C3.55914 152.075 3.55914 151.793 3.57575 151.577C3.59235 151.361 3.64217 151.195 3.69198 151.096C3.7418 150.979 3.82482 150.913 3.94106 150.863C4.04069 150.813 4.19014 150.78 4.35619 150.747L4.78793 150.664C4.83775 150.631 4.87096 150.581 4.87096 150.515C4.88756 150.432 4.88756 150.365 4.87096 150.282C4.87096 150.216 4.83775 150.166 4.78793 150.133C4.3728 150.15 3.97427 150.15 3.57575 150.166C3.19382 150.166 2.8119 150.183 2.44659 150.183C2.08127 150.183 1.69935 150.166 1.31743 150.166C0.918904 150.15 0.520377 150.15 0.105246 150.133C0.0554301 150.166 0.0222196 150.216 0.0222196 150.282C0.00561431 150.365 0.00561431 150.432 0.0222196 150.515C0.0222196 150.581 0.0554301 150.631 0.105246 150.664L0.536983 150.747C0.703035 150.78 0.852483 150.813 0.952114 150.863C1.06835 150.913 1.15138 150.979 1.20119 151.096C1.25101 151.195 1.30082 151.361 1.31743 151.577C1.33404 151.793 1.33404 152.075 1.33404 152.44V158.132C1.33404 158.497 1.33404 158.779 1.31743 158.995C1.30082 159.21 1.25101 159.376 1.20119 159.476C1.15138 159.592 1.06835 159.659 0.952114 159.708C0.852483 159.758 0.703035 159.791 0.536983 159.824L0.105246 159.907C0.0554301 159.941 0.0222196 159.99 0.0222196 160.057C0.00561431 160.14 0.00561431 160.206 0.0222196 160.289C0.0222196 160.356 0.0554301 160.405 0.105246 160.438C0.520377 160.422 0.918904 160.422 1.31743 160.405C1.69935 160.405 2.08127 160.405 2.44659 160.405C2.8119 160.405 3.19382 160.405 3.57575 160.405C3.95767 160.422 4.35619 160.422 4.77132 160.438C4.82114 160.405 4.85435 160.356 4.87096 160.289C4.88756 160.206 4.88756 160.14 4.87096 160.057C4.85435 159.99 4.83775 159.941 4.78793 159.907L4.35619 159.824C4.19014 159.791 4.04069 159.758 3.94106 159.708C3.82482 159.659 3.7418 159.592 3.69198 159.476C3.64217 159.376 3.59235 159.21 3.57575 158.995C3.55914 158.779 3.55914 158.497 3.55914 158.132V152.44ZM161.11 156.904C161.293 156.887 161.425 156.904 161.525 156.92C161.625 156.92 161.691 156.954 161.741 156.987C161.791 157.037 161.824 157.086 161.857 157.169L162.272 158.513C162.372 158.796 162.438 159.028 162.488 159.21C162.538 159.393 162.571 159.509 162.571 159.559C162.571 159.592 162.555 159.625 162.538 159.659C162.521 159.692 162.471 159.725 162.405 159.741C162.355 159.775 162.272 159.808 162.139 159.824L161.658 159.907C161.591 159.941 161.558 160.007 161.542 160.073C161.525 160.156 161.542 160.223 161.558 160.289C161.591 160.356 161.625 160.405 161.674 160.438C161.924 160.438 162.139 160.422 162.372 160.422C162.588 160.405 162.82 160.405 163.053 160.405C163.269 160.405 163.518 160.405 163.767 160.405C164.182 160.405 164.58 160.405 164.995 160.405C165.394 160.422 165.793 160.422 166.158 160.438C166.208 160.405 166.241 160.356 166.241 160.273C166.257 160.206 166.257 160.123 166.241 160.057C166.224 159.974 166.208 159.924 166.174 159.907L165.593 159.808C165.394 159.775 165.245 159.708 165.128 159.625C165.029 159.509 164.929 159.376 164.829 159.177C164.746 158.995 164.663 158.729 164.547 158.431L162.438 152.357C162.305 151.992 162.206 151.676 162.123 151.411C162.023 151.162 161.957 150.93 161.89 150.747C161.84 150.548 161.791 150.382 161.741 150.233C161.708 150.117 161.674 150.034 161.625 150C161.558 149.951 161.492 149.917 161.392 149.934C161.376 149.934 161.342 149.967 161.276 150.05C161.193 150.133 161.093 150.216 160.977 150.332C160.861 150.432 160.711 150.548 160.562 150.648C160.396 150.731 160.23 150.813 160.047 150.863C160.047 150.996 160.031 151.162 159.997 151.345C159.947 151.527 159.881 151.743 159.781 151.975C159.698 152.224 159.582 152.506 159.466 152.821L158.054 156.605C157.922 156.97 157.789 157.302 157.673 157.601C157.556 157.899 157.457 158.165 157.357 158.414C157.257 158.646 157.174 158.879 157.075 159.078C156.992 159.277 156.892 159.426 156.792 159.542C156.709 159.642 156.593 159.725 156.477 159.775C156.377 159.808 156.261 159.841 156.128 159.858L155.713 159.907C155.68 159.941 155.647 160.007 155.647 160.073C155.63 160.156 155.63 160.223 155.647 160.289C155.663 160.356 155.697 160.405 155.763 160.438C155.995 160.438 156.195 160.438 156.377 160.438C156.543 160.422 156.709 160.422 156.859 160.405C157.025 160.405 157.191 160.405 157.357 160.405C157.673 160.405 157.988 160.405 158.27 160.422C158.569 160.422 158.835 160.422 159.117 160.438C159.167 160.422 159.184 160.356 159.2 160.289C159.217 160.223 159.217 160.14 159.2 160.073C159.2 159.99 159.167 159.941 159.134 159.907L158.669 159.824C158.453 159.791 158.304 159.741 158.187 159.692C158.088 159.659 158.038 159.609 158.038 159.559C158.038 159.509 158.038 159.426 158.054 159.36C158.071 159.277 158.104 159.161 158.154 159.011L158.752 157.202C158.785 157.103 158.818 157.037 158.835 156.987C158.885 156.954 158.918 156.92 158.984 156.92C159.051 156.904 159.15 156.887 159.267 156.904H161.11ZM159.582 156.074C159.449 156.074 159.35 156.074 159.283 156.041C159.217 156.024 159.184 155.991 159.184 155.925C159.184 155.858 159.2 155.742 159.25 155.609L159.632 154.448C159.715 154.215 159.798 153.966 159.881 153.718C159.964 153.469 160.047 153.236 160.13 153.037C160.197 152.838 160.263 152.672 160.296 152.539C160.346 152.656 160.412 152.805 160.479 153.021C160.545 153.22 160.628 153.435 160.711 153.668C160.794 153.917 160.861 154.149 160.944 154.365L161.342 155.626C161.376 155.759 161.392 155.858 161.392 155.925C161.392 155.991 161.359 156.024 161.293 156.057C161.243 156.074 161.143 156.074 161.027 156.074H159.582ZM176.27 154.066C176.27 153.635 176.287 153.236 176.304 152.855C176.32 152.49 176.337 152.158 176.37 151.876C176.403 151.577 176.453 151.378 176.503 151.228C176.586 151.062 176.686 150.946 176.835 150.88C176.968 150.797 177.151 150.747 177.35 150.714L177.632 150.664C177.665 150.631 177.699 150.565 177.699 150.498C177.715 150.415 177.715 150.349 177.699 150.282C177.682 150.216 177.665 150.166 177.632 150.133C177.333 150.15 177.034 150.15 176.752 150.166C176.453 150.166 176.171 150.183 175.889 150.183C175.689 150.183 175.473 150.166 175.258 150.166C175.042 150.166 174.826 150.166 174.577 150.15C174.344 150.15 174.095 150.133 173.813 150.133C173.78 150.166 173.763 150.216 173.746 150.282C173.73 150.349 173.73 150.415 173.746 150.498C173.746 150.565 173.78 150.631 173.813 150.664L174.228 150.731C174.444 150.764 174.627 150.813 174.793 150.88C174.942 150.946 175.058 151.062 175.125 151.228C175.191 151.378 175.241 151.577 175.274 151.876C175.307 152.158 175.324 152.49 175.341 152.855C175.357 153.236 175.357 153.635 175.357 154.066V156.207C175.374 156.34 175.357 156.472 175.357 156.588C175.357 156.721 175.341 156.821 175.307 156.904C175.125 156.721 174.925 156.489 174.676 156.207C174.444 155.941 174.145 155.593 173.813 155.195L172.518 153.668C172.036 153.104 171.621 152.606 171.272 152.158C170.907 151.71 170.608 151.328 170.376 150.979C170.143 150.648 170.01 150.365 169.96 150.133C169.794 150.15 169.595 150.15 169.379 150.166C169.163 150.166 168.914 150.183 168.649 150.183C168.333 150.183 167.984 150.166 167.619 150.166C167.254 150.15 166.888 150.15 166.507 150.133C166.457 150.15 166.424 150.199 166.407 150.266C166.39 150.332 166.374 150.399 166.39 150.482C166.39 150.565 166.424 150.631 166.457 150.664L166.888 150.731C167.071 150.764 167.221 150.797 167.32 150.847C167.436 150.896 167.536 150.946 167.603 151.029C167.669 151.096 167.735 151.179 167.769 151.262C167.802 151.328 167.818 151.411 167.835 151.51C167.852 151.61 167.868 151.743 167.868 151.909C167.868 152.075 167.885 152.29 167.885 152.573V156.506C167.885 156.937 167.868 157.335 167.868 157.717C167.852 158.082 167.818 158.414 167.785 158.696C167.769 158.995 167.719 159.194 167.669 159.343C167.603 159.509 167.486 159.625 167.353 159.692C167.204 159.775 167.021 159.824 166.805 159.858L166.54 159.907C166.507 159.941 166.473 160.007 166.473 160.073C166.457 160.156 166.457 160.223 166.473 160.289C166.49 160.356 166.507 160.405 166.54 160.438C166.839 160.422 167.138 160.422 167.42 160.405C167.702 160.405 168.001 160.405 168.283 160.405C168.483 160.405 168.698 160.405 168.914 160.405C169.13 160.405 169.346 160.405 169.579 160.422C169.828 160.422 170.077 160.438 170.359 160.438C170.392 160.405 170.409 160.356 170.425 160.289C170.442 160.223 170.442 160.156 170.425 160.073C170.425 160.007 170.392 159.941 170.359 159.907L169.927 159.841C169.728 159.808 169.529 159.758 169.379 159.692C169.213 159.625 169.097 159.509 169.031 159.343C168.964 159.194 168.931 158.995 168.881 158.696C168.848 158.414 168.831 158.082 168.815 157.717C168.798 157.335 168.798 156.937 168.798 156.506V153.502C168.798 153.22 168.798 153.004 168.798 152.855C168.815 152.705 168.831 152.589 168.865 152.506C169.014 152.622 169.213 152.855 169.479 153.187C169.761 153.502 170.11 153.95 170.558 154.498L174.145 158.928C174.377 159.227 174.593 159.509 174.793 159.758C174.975 160.024 175.125 160.223 175.224 160.372C175.324 160.538 175.39 160.604 175.39 160.621C175.523 160.621 175.639 160.604 175.772 160.555C175.905 160.521 176.005 160.488 176.104 160.438C176.204 160.372 176.27 160.322 176.304 160.256C176.304 160.09 176.287 159.874 176.287 159.609C176.287 159.343 176.287 159.061 176.287 158.746C176.27 158.431 176.27 158.099 176.27 157.767V154.066ZM183.876 157.086C183.876 156.871 183.876 156.671 183.892 156.506C183.909 156.34 183.942 156.174 183.975 156.024C184.009 155.875 184.058 155.726 184.125 155.576C184.191 155.427 184.274 155.261 184.374 155.078L185.354 153.319C185.603 152.871 185.818 152.506 185.985 152.207C186.151 151.925 186.3 151.693 186.416 151.527C186.533 151.345 186.632 151.212 186.699 151.112C186.765 151.046 186.831 150.979 186.931 150.93C187.014 150.88 187.114 150.847 187.213 150.813C187.313 150.78 187.413 150.764 187.512 150.747L187.911 150.664C187.961 150.631 187.977 150.565 187.994 150.498C188.01 150.415 188.01 150.349 187.977 150.266C187.961 150.199 187.911 150.15 187.844 150.133C187.628 150.15 187.396 150.15 187.147 150.166C186.898 150.166 186.632 150.183 186.333 150.183C186.051 150.183 185.769 150.166 185.486 150.166C185.204 150.15 184.905 150.15 184.59 150.133C184.54 150.15 184.507 150.216 184.49 150.282C184.473 150.365 184.473 150.432 184.49 150.515C184.507 150.581 184.54 150.648 184.59 150.664L184.872 150.731C185.071 150.764 185.221 150.797 185.32 150.847C185.437 150.88 185.486 150.93 185.503 150.979C185.503 151.046 185.47 151.145 185.42 151.278C185.387 151.411 185.304 151.593 185.188 151.826C185.088 152.058 184.938 152.373 184.756 152.738C184.623 153.004 184.473 153.27 184.324 153.568C184.175 153.867 184.025 154.166 183.876 154.464C183.726 154.746 183.577 155.029 183.427 155.277C183.361 155.161 183.278 154.995 183.195 154.813C183.095 154.63 182.996 154.431 182.913 154.232C182.813 154.033 182.73 153.85 182.647 153.668L181.916 152.025C181.817 151.776 181.717 151.577 181.667 151.444C181.601 151.295 181.568 151.179 181.551 151.112C181.518 151.029 181.518 150.979 181.518 150.93C181.518 150.93 181.534 150.913 181.601 150.88C181.651 150.847 181.75 150.83 181.883 150.797L182.414 150.664C182.464 150.631 182.481 150.565 182.497 150.482C182.514 150.415 182.497 150.332 182.481 150.266C182.464 150.199 182.431 150.15 182.381 150.133C182.116 150.15 181.783 150.15 181.401 150.166C181.02 150.166 180.588 150.183 180.123 150.183C179.824 150.183 179.542 150.166 179.293 150.166C179.06 150.166 178.828 150.166 178.612 150.15C178.396 150.15 178.163 150.133 177.931 150.133C177.865 150.15 177.831 150.199 177.798 150.266C177.782 150.332 177.765 150.399 177.782 150.482C177.798 150.565 177.831 150.631 177.865 150.664L178.396 150.764C178.579 150.797 178.711 150.847 178.828 150.913C178.944 150.996 179.027 151.096 179.11 151.228C179.193 151.361 179.293 151.527 179.392 151.743L181.235 155.543C181.335 155.742 181.418 155.925 181.468 156.074C181.534 156.223 181.568 156.356 181.601 156.489C181.617 156.622 181.634 156.754 181.651 156.887C181.651 157.037 181.651 157.202 181.651 157.385V158.165C181.651 158.53 181.651 158.812 181.634 159.011C181.601 159.227 181.568 159.393 181.518 159.493C181.468 159.609 181.385 159.675 181.285 159.725C181.169 159.775 181.036 159.808 180.87 159.824L180.339 159.907C180.289 159.941 180.272 159.99 180.256 160.057C180.239 160.14 180.239 160.206 180.256 160.289C180.272 160.356 180.289 160.405 180.339 160.438C180.787 160.422 181.219 160.422 181.617 160.405C182.016 160.405 182.398 160.405 182.763 160.405C183.012 160.405 183.261 160.405 183.527 160.405C183.793 160.405 184.058 160.405 184.341 160.422C184.64 160.422 184.938 160.438 185.287 160.438C185.32 160.405 185.337 160.356 185.354 160.289C185.37 160.206 185.37 160.14 185.354 160.057C185.337 159.99 185.32 159.941 185.287 159.907L184.656 159.824C184.49 159.808 184.341 159.775 184.241 159.725C184.141 159.692 184.058 159.609 184.009 159.509C183.942 159.393 183.909 159.227 183.892 159.028C183.876 158.812 183.859 158.53 183.876 158.165V157.086ZM77.7847 156.904C77.9673 156.887 78.1168 156.904 78.1998 156.92C78.316 156.92 78.3824 156.954 78.4323 156.987C78.4821 157.037 78.5153 157.086 78.5319 157.169L78.947 158.513C79.0467 158.796 79.1131 159.028 79.1795 159.21C79.2293 159.393 79.2459 159.509 79.2459 159.559C79.2459 159.592 79.2459 159.625 79.2127 159.659C79.1961 159.692 79.1629 159.725 79.0965 159.741C79.0301 159.775 78.947 159.808 78.8308 159.824L78.3326 159.907C78.2828 159.941 78.2496 160.007 78.233 160.073C78.2164 160.156 78.2164 160.223 78.2496 160.289C78.2662 160.356 78.316 160.405 78.3658 160.438C78.5983 160.438 78.8308 160.422 79.0467 160.422C79.2791 160.405 79.495 160.405 79.7275 160.405C79.9599 160.405 80.209 160.405 80.4581 160.405C80.8566 160.405 81.2718 160.405 81.6703 160.405C82.0854 160.422 82.4673 160.422 82.8493 160.438C82.8825 160.405 82.9157 160.356 82.9323 160.273C82.9489 160.206 82.9489 160.123 82.9323 160.057C82.9157 159.974 82.8825 159.924 82.8659 159.907L82.2681 159.808C82.0854 159.775 81.936 159.708 81.8197 159.625C81.7035 159.509 81.6039 159.376 81.5208 159.177C81.4378 158.995 81.3382 158.729 81.2386 158.431L79.1297 152.357C78.9968 151.992 78.8806 151.676 78.7976 151.411C78.7146 151.162 78.6315 150.93 78.5817 150.747C78.5153 150.548 78.4655 150.382 78.4323 150.233C78.3991 150.117 78.3492 150.034 78.2994 150C78.2496 149.951 78.1666 149.917 78.0669 149.934C78.0669 149.934 78.0171 149.967 77.9507 150.05C77.8843 150.133 77.7847 150.216 77.6684 150.332C77.5356 150.432 77.4027 150.548 77.2367 150.648C77.0872 150.731 76.9046 150.813 76.7219 150.863C76.7385 150.996 76.7219 151.162 76.6721 151.345C76.6223 151.527 76.5559 151.743 76.4728 151.975C76.3732 152.224 76.2736 152.506 76.1573 152.821L74.7459 156.605C74.5965 156.97 74.4802 157.302 74.364 157.601C74.2477 157.899 74.1315 158.165 74.0319 158.414C73.9488 158.646 73.8492 158.879 73.7662 159.078C73.6666 159.277 73.5835 159.426 73.4839 159.542C73.3843 159.642 73.2846 159.725 73.1684 159.775C73.0522 159.808 72.9359 159.841 72.8197 159.858L72.4046 159.907C72.3547 159.941 72.3381 160.007 72.3215 160.073C72.3049 160.156 72.3215 160.223 72.3381 160.289C72.3547 160.356 72.3879 160.405 72.4378 160.438C72.6868 160.438 72.8861 160.438 73.0522 160.438C73.2348 160.422 73.4009 160.422 73.5503 160.405C73.6998 160.405 73.8658 160.405 74.0485 160.405C74.364 160.405 74.6795 160.405 74.9618 160.422C75.2441 160.422 75.5263 160.422 75.792 160.438C75.8418 160.422 75.8751 160.356 75.8917 160.289C75.9083 160.223 75.9083 160.14 75.8917 160.073C75.8751 159.99 75.8585 159.941 75.8252 159.907L75.3603 159.824C75.1444 159.791 74.9784 159.741 74.8787 159.692C74.7791 159.659 74.7293 159.609 74.7293 159.559C74.7127 159.509 74.7293 159.426 74.7459 159.36C74.7625 159.277 74.7791 159.161 74.8289 159.011L75.4433 157.202C75.4599 157.103 75.4931 157.037 75.5263 156.987C75.5596 156.954 75.6094 156.92 75.6758 156.92C75.7256 156.904 75.8252 156.887 75.9415 156.904H77.7847ZM76.257 156.074C76.1241 156.074 76.0411 156.074 75.9747 156.041C75.9083 156.024 75.8751 155.991 75.8751 155.925C75.8585 155.858 75.8917 155.742 75.9249 155.609L76.3234 154.448C76.4064 154.215 76.4894 153.966 76.5725 153.718C76.6555 153.469 76.7385 153.236 76.8049 153.037C76.888 152.838 76.9378 152.672 76.9876 152.539C77.0374 152.656 77.0872 152.805 77.1703 153.021C77.2367 153.22 77.3031 153.435 77.3861 153.668C77.4692 153.917 77.5522 154.149 77.6186 154.365L78.0171 155.626C78.0669 155.759 78.0836 155.858 78.0836 155.925C78.0669 155.991 78.0337 156.024 77.9839 156.057C77.9175 156.074 77.8345 156.074 77.7182 156.074H76.257ZM90.2552 157.501C90.2386 157.07 90.1722 156.705 90.0393 156.373C89.9065 156.041 89.7404 155.742 89.5246 155.493C89.3087 155.244 89.0596 155.029 88.8106 154.846C88.5615 154.663 88.3124 154.514 88.0633 154.381L87.0338 153.85C86.7847 153.701 86.5356 153.552 86.3364 153.369C86.1205 153.187 85.9545 152.987 85.8216 152.772C85.7054 152.539 85.6389 152.324 85.6389 152.075C85.6389 151.826 85.6888 151.577 85.8216 151.361C85.9378 151.145 86.1039 150.979 86.353 150.847C86.5854 150.714 86.8677 150.648 87.2164 150.648C87.4821 150.648 87.7478 150.714 87.9637 150.83C88.1962 150.946 88.3788 151.112 88.5615 151.295C88.7275 151.494 88.8604 151.71 88.9766 151.925C89.0928 152.141 89.1925 152.357 89.2589 152.556C89.3087 152.606 89.3751 152.639 89.4582 152.656C89.5412 152.672 89.6242 152.672 89.7072 152.639C89.7737 152.622 89.8401 152.573 89.8567 152.506C89.8567 152.158 89.8401 151.842 89.8235 151.56C89.7903 151.262 89.7571 151.013 89.7072 150.797C89.674 150.581 89.6242 150.415 89.591 150.299C89.4914 150.282 89.4083 150.266 89.3253 150.249C89.2423 150.233 89.1593 150.199 89.0596 150.183C88.7441 150.083 88.4286 150.017 88.1297 149.984C87.8308 149.934 87.5486 149.917 87.2829 149.934C86.5356 149.934 85.888 150.05 85.3567 150.299C84.8087 150.548 84.4102 150.896 84.1279 151.345C83.829 151.776 83.6961 152.29 83.6961 152.888C83.6961 153.27 83.7626 153.618 83.8954 153.933C84.0448 154.232 84.2109 154.514 84.4434 154.763C84.6758 155.012 84.9249 155.228 85.1906 155.41C85.4729 155.609 85.7552 155.759 86.0375 155.908C86.27 156.024 86.519 156.157 86.7515 156.306C87.0006 156.456 87.2331 156.638 87.4323 156.837C87.6482 157.037 87.8142 157.269 87.9471 157.518C88.0799 157.767 88.1463 158.049 88.1463 158.364C88.1463 158.563 88.1131 158.762 88.0467 158.945C87.9803 159.127 87.8807 159.293 87.7312 159.443C87.5984 159.592 87.4157 159.708 87.2164 159.791C87.0006 159.891 86.7515 159.924 86.4692 159.941C86.2035 159.924 85.9545 159.874 85.7054 159.775C85.4729 159.675 85.257 159.542 85.0578 159.36C84.8419 159.194 84.6592 159.011 84.4932 158.796C84.3271 158.58 84.1943 158.364 84.0781 158.148C83.9618 157.916 83.8622 157.7 83.7958 157.501C83.7626 157.451 83.6961 157.402 83.6131 157.385C83.5467 157.385 83.4637 157.385 83.3806 157.402C83.3142 157.435 83.2478 157.485 83.2146 157.551C83.2146 157.816 83.2312 158.082 83.2478 158.331C83.2644 158.596 83.3142 158.845 83.3474 159.078C83.3972 159.293 83.4471 159.493 83.5135 159.675C83.5633 159.841 83.6297 159.974 83.7127 160.057C83.8124 160.123 83.995 160.206 84.2275 160.289C84.46 160.389 84.7423 160.472 85.091 160.538C85.4563 160.604 85.8714 160.638 86.3364 160.638C86.9342 160.638 87.4655 160.571 87.9471 160.422C88.412 160.273 88.8272 160.057 89.1759 159.791C89.5246 159.509 89.7737 159.177 89.9729 158.796C90.1556 158.414 90.2386 157.982 90.2552 157.501ZM95.104 152.44C95.0873 152.075 95.104 151.793 95.1206 151.577C95.1372 151.361 95.1704 151.195 95.2368 151.096C95.2866 150.979 95.3696 150.913 95.4693 150.863C95.5855 150.813 95.7349 150.78 95.901 150.747L96.3327 150.664C96.3826 150.631 96.3992 150.581 96.4158 150.515C96.4324 150.432 96.4324 150.365 96.4158 150.282C96.3992 150.216 96.3826 150.166 96.3327 150.133C95.9176 150.15 95.5191 150.15 95.1206 150.166C94.7386 150.166 94.3567 150.183 93.9914 150.183C93.6261 150.183 93.2442 150.166 92.8622 150.166C92.4637 150.15 92.0652 150.15 91.6334 150.133C91.6002 150.166 91.567 150.216 91.5504 150.282C91.5504 150.365 91.5504 150.432 91.5504 150.515C91.567 150.581 91.6002 150.631 91.6334 150.664L92.0818 150.747C92.2478 150.78 92.3973 150.813 92.4969 150.863C92.6132 150.913 92.6962 150.979 92.746 151.096C92.7958 151.195 92.829 151.361 92.8622 151.577C92.8788 151.793 92.8788 152.075 92.8788 152.44V158.132C92.8788 158.497 92.8788 158.779 92.8622 158.995C92.829 159.21 92.7958 159.376 92.746 159.476C92.6962 159.592 92.6132 159.659 92.4969 159.708C92.3973 159.758 92.2478 159.791 92.0818 159.824L91.6334 159.907C91.6002 159.941 91.567 159.99 91.5504 160.057C91.5504 160.14 91.5504 160.206 91.5504 160.289C91.567 160.356 91.6002 160.405 91.6334 160.438C92.0652 160.422 92.4637 160.422 92.8622 160.405C93.2442 160.405 93.6261 160.405 93.9914 160.405C94.3567 160.405 94.7386 160.405 95.1206 160.405C95.5025 160.422 95.901 160.422 96.3161 160.438C96.366 160.405 96.3992 160.356 96.4158 160.289C96.4324 160.206 96.4324 160.14 96.4158 160.057C96.3992 159.99 96.3826 159.941 96.3327 159.907L95.901 159.824C95.7349 159.791 95.5855 159.758 95.4693 159.708C95.3696 159.659 95.2866 159.592 95.2368 159.476C95.1704 159.376 95.1372 159.21 95.1206 158.995C95.104 158.779 95.0873 158.497 95.104 158.132V152.44ZM102.294 156.904C102.477 156.887 102.626 156.904 102.709 156.92C102.825 156.92 102.892 156.954 102.942 156.987C102.991 157.037 103.025 157.086 103.041 157.169L103.456 158.513C103.556 158.796 103.622 159.028 103.689 159.21C103.739 159.393 103.755 159.509 103.755 159.559C103.755 159.592 103.755 159.625 103.722 159.659C103.705 159.692 103.672 159.725 103.606 159.741C103.539 159.775 103.456 159.808 103.34 159.824L102.842 159.907C102.792 159.941 102.759 160.007 102.742 160.073C102.726 160.156 102.726 160.223 102.759 160.289C102.776 160.356 102.825 160.405 102.875 160.438C103.108 160.438 103.34 160.422 103.556 160.422C103.788 160.405 104.004 160.405 104.237 160.405C104.469 160.405 104.718 160.405 104.967 160.405C105.366 160.405 105.781 160.405 106.18 160.405C106.595 160.422 106.977 160.422 107.359 160.438C107.392 160.405 107.425 160.356 107.442 160.273C107.458 160.206 107.458 160.123 107.442 160.057C107.425 159.974 107.392 159.924 107.375 159.907L106.777 159.808C106.595 159.775 106.445 159.708 106.329 159.625C106.213 159.509 106.113 159.376 106.03 159.177C105.947 158.995 105.848 158.729 105.748 158.431L103.639 152.357C103.506 151.992 103.39 151.676 103.307 151.411C103.224 151.162 103.141 150.93 103.091 150.747C103.025 150.548 102.975 150.382 102.942 150.233C102.908 150.117 102.859 150.034 102.809 150C102.759 149.951 102.676 149.917 102.576 149.934C102.576 149.934 102.526 149.967 102.46 150.05C102.394 150.133 102.294 150.216 102.178 150.332C102.045 150.432 101.912 150.548 101.746 150.648C101.597 150.731 101.414 150.813 101.231 150.863C101.248 150.996 101.231 151.162 101.181 151.345C101.132 151.527 101.065 151.743 100.982 151.975C100.883 152.224 100.783 152.506 100.65 152.821L99.2553 156.605C99.1058 156.97 98.9896 157.302 98.8733 157.601C98.7571 157.899 98.6409 158.165 98.5412 158.414C98.4582 158.646 98.3586 158.879 98.2756 159.078C98.1759 159.277 98.0929 159.426 97.9933 159.542C97.8936 159.642 97.794 159.725 97.6778 159.775C97.5615 159.808 97.4453 159.841 97.3291 159.858L96.9139 159.907C96.8641 159.941 96.8475 160.007 96.8309 160.073C96.8143 160.156 96.8309 160.223 96.8475 160.289C96.8641 160.356 96.8973 160.405 96.9471 160.438C97.1962 160.438 97.3955 160.438 97.5615 160.438C97.7442 160.422 97.9102 160.422 98.0597 160.405C98.2091 160.405 98.3752 160.405 98.5578 160.405C98.8733 160.405 99.1722 160.405 99.4711 160.422C99.7534 160.422 100.036 160.422 100.301 160.438C100.351 160.422 100.384 160.356 100.401 160.289C100.418 160.223 100.418 160.14 100.401 160.073C100.384 159.99 100.368 159.941 100.335 159.907L99.8697 159.824C99.6538 159.791 99.4877 159.741 99.3881 159.692C99.2885 159.659 99.2387 159.609 99.2387 159.559C99.2221 159.509 99.2387 159.426 99.2553 159.36C99.2719 159.277 99.2885 159.161 99.3383 159.011L99.9527 157.202C99.9693 157.103 100.003 157.037 100.036 156.987C100.069 156.954 100.119 156.92 100.185 156.92C100.235 156.904 100.335 156.887 100.451 156.904H102.294ZM100.766 156.074C100.633 156.074 100.55 156.074 100.484 156.041C100.418 156.024 100.384 155.991 100.384 155.925C100.368 155.858 100.401 155.742 100.434 155.609L100.833 154.448C100.916 154.215 100.999 153.966 101.082 153.718C101.165 153.469 101.248 153.236 101.314 153.037C101.397 152.838 101.447 152.672 101.497 152.539C101.547 152.656 101.597 152.805 101.68 153.021C101.746 153.22 101.812 153.435 101.896 153.668C101.979 153.917 102.062 154.149 102.128 154.365L102.526 155.626C102.576 155.759 102.593 155.858 102.593 155.925C102.576 155.991 102.543 156.024 102.493 156.057C102.427 156.074 102.344 156.074 102.228 156.074H100.766ZM116.575 149.934C116.043 149.934 115.512 149.984 114.997 150.083C114.482 150.183 113.984 150.332 113.536 150.548C113.071 150.747 112.656 150.996 112.29 151.311C111.925 151.593 111.61 151.942 111.327 152.34C111.045 152.738 110.813 153.187 110.663 153.701C110.497 154.215 110.414 154.78 110.414 155.41C110.414 156.041 110.497 156.622 110.68 157.12C110.846 157.634 111.078 158.082 111.377 158.464C111.676 158.845 112.008 159.194 112.373 159.476C112.755 159.741 113.154 159.957 113.602 160.14C114.067 160.306 114.532 160.438 115.03 160.521C115.528 160.604 116.043 160.638 116.541 160.638C116.956 160.638 117.338 160.604 117.72 160.555C118.086 160.488 118.434 160.405 118.766 160.322C119.115 160.239 119.414 160.156 119.696 160.073C119.763 159.957 119.846 159.775 119.912 159.542C119.995 159.31 120.062 159.028 120.128 158.696C120.194 158.381 120.244 158.032 120.278 157.634C120.244 157.584 120.194 157.534 120.111 157.501C120.045 157.468 119.962 157.451 119.879 157.468C119.796 157.468 119.73 157.485 119.696 157.534C119.597 157.8 119.464 158.065 119.281 158.348C119.115 158.63 118.916 158.895 118.65 159.127C118.401 159.36 118.102 159.559 117.754 159.708C117.405 159.858 117.006 159.924 116.525 159.941C116.159 159.941 115.794 159.858 115.445 159.741C115.08 159.609 114.748 159.41 114.449 159.161C114.134 158.895 113.868 158.58 113.635 158.198C113.403 157.816 113.22 157.368 113.087 156.871C112.955 156.373 112.888 155.809 112.888 155.195C112.888 154.581 112.955 154.016 113.104 153.535C113.237 153.054 113.42 152.622 113.652 152.257C113.884 151.892 114.15 151.593 114.449 151.361C114.765 151.112 115.08 150.93 115.429 150.813C115.761 150.697 116.11 150.648 116.458 150.648C117.206 150.648 117.837 150.83 118.318 151.212C118.8 151.577 119.148 152.124 119.364 152.855C119.414 152.904 119.464 152.921 119.547 152.921C119.647 152.938 119.73 152.921 119.796 152.888C119.879 152.855 119.929 152.805 119.962 152.738C119.929 152.523 119.896 152.274 119.862 152.025C119.846 151.776 119.829 151.544 119.813 151.311C119.796 151.079 119.779 150.863 119.779 150.697C119.779 150.531 119.763 150.399 119.763 150.332C119.647 150.316 119.497 150.299 119.298 150.249C119.099 150.216 118.866 150.166 118.6 150.117C118.318 150.067 118.019 150.017 117.671 149.984C117.338 149.951 116.973 149.934 116.575 149.934ZM126.853 149.934C126.206 149.934 125.591 150.017 125.027 150.199C124.462 150.382 123.964 150.631 123.499 150.963C123.051 151.278 122.652 151.676 122.337 152.124C122.004 152.573 121.755 153.07 121.573 153.618C121.407 154.166 121.324 154.746 121.324 155.36C121.324 156.174 121.456 156.904 121.722 157.551C121.988 158.198 122.353 158.762 122.835 159.21C123.316 159.675 123.881 160.024 124.545 160.273C125.193 160.521 125.907 160.638 126.687 160.638C127.534 160.638 128.298 160.521 128.979 160.273C129.66 160.024 130.257 159.675 130.739 159.21C131.237 158.746 131.619 158.182 131.885 157.501C132.15 156.837 132.283 156.091 132.283 155.244C132.283 154.448 132.15 153.734 131.901 153.087C131.636 152.44 131.27 151.876 130.772 151.411C130.29 150.93 129.726 150.565 129.062 150.316C128.397 150.05 127.667 149.934 126.853 149.934ZM129.809 155.443C129.809 156.074 129.759 156.655 129.66 157.202C129.56 157.75 129.394 158.215 129.161 158.63C128.945 159.045 128.647 159.36 128.281 159.592C127.933 159.808 127.501 159.924 126.986 159.941C126.571 159.924 126.206 159.858 125.873 159.692C125.558 159.542 125.276 159.343 125.043 159.078C124.811 158.812 124.611 158.513 124.445 158.182C124.279 157.85 124.163 157.485 124.064 157.12C123.964 156.754 123.897 156.389 123.864 156.024C123.814 155.659 123.798 155.327 123.798 155.012C123.798 154.348 123.864 153.767 123.98 153.236C124.113 152.705 124.296 152.241 124.545 151.859C124.794 151.461 125.093 151.162 125.458 150.963C125.824 150.747 126.255 150.648 126.72 150.648C127.119 150.648 127.468 150.714 127.783 150.88C128.099 151.046 128.397 151.278 128.647 151.56C128.896 151.859 129.112 152.207 129.278 152.606C129.444 153.004 129.576 153.452 129.676 153.917C129.759 154.398 129.809 154.912 129.809 155.443ZM134.193 150.731C134.409 150.764 134.575 150.813 134.724 150.896C134.857 150.979 134.973 151.112 135.04 151.262C135.123 151.444 135.156 151.66 135.156 151.959C135.156 152.241 135.156 152.556 135.139 152.904C135.139 153.253 135.123 153.618 135.106 154C135.106 154.365 135.089 154.73 135.056 155.078C135.023 155.576 135.006 156.057 134.973 156.489C134.957 156.954 134.94 157.352 134.907 157.734C134.89 158.099 134.874 158.414 134.84 158.663C134.824 158.895 134.791 159.094 134.757 159.227C134.724 159.376 134.691 159.493 134.624 159.559C134.558 159.642 134.458 159.708 134.342 159.741C134.226 159.791 134.06 159.824 133.861 159.858L133.595 159.907C133.545 159.941 133.512 159.99 133.495 160.057C133.479 160.14 133.495 160.223 133.512 160.289C133.545 160.372 133.578 160.422 133.645 160.438C133.96 160.422 134.259 160.422 134.558 160.405C134.84 160.405 135.106 160.405 135.355 160.405C135.654 160.405 135.953 160.405 136.268 160.405C136.584 160.422 136.899 160.422 137.182 160.438C137.231 160.422 137.265 160.356 137.281 160.289C137.298 160.223 137.298 160.14 137.298 160.073C137.281 159.99 137.265 159.941 137.215 159.907L136.617 159.808C136.401 159.775 136.252 159.725 136.152 159.659C136.053 159.592 135.986 159.476 135.953 159.327C135.903 159.177 135.903 158.978 135.903 158.729C135.903 158.497 135.903 158.231 135.903 157.933C135.903 157.634 135.903 157.335 135.903 157.003C135.903 156.688 135.92 156.389 135.92 156.074C135.92 155.775 135.92 155.493 135.936 155.244C135.936 154.979 135.936 154.713 135.953 154.464C135.953 154.199 135.969 153.933 135.969 153.668C135.986 153.386 136.003 153.07 136.019 152.738H136.053C136.202 153.087 136.368 153.469 136.567 153.884C136.75 154.315 136.966 154.763 137.182 155.228C137.398 155.709 137.613 156.174 137.846 156.671C138.062 157.153 138.278 157.634 138.477 158.099C138.693 158.563 138.875 159.011 139.025 159.426C139.191 159.824 139.324 160.206 139.44 160.521C139.473 160.555 139.54 160.571 139.623 160.588C139.689 160.604 139.755 160.621 139.839 160.621C139.905 160.621 139.955 160.604 140.005 160.588C140.054 160.555 140.104 160.538 140.137 160.505C140.486 159.625 140.851 158.762 141.233 157.899C141.615 157.037 141.997 156.174 142.396 155.327C142.778 154.481 143.176 153.651 143.558 152.821H143.591V154.597L143.625 158.613C143.625 158.845 143.608 159.045 143.608 159.194C143.591 159.343 143.575 159.459 143.525 159.542C143.492 159.625 143.409 159.692 143.309 159.741C143.226 159.791 143.077 159.824 142.91 159.841L142.446 159.907C142.379 159.941 142.346 159.99 142.346 160.073C142.329 160.14 142.329 160.223 142.363 160.289C142.379 160.356 142.429 160.422 142.479 160.438C142.728 160.438 142.994 160.422 143.259 160.422C143.525 160.405 143.774 160.405 144.04 160.405C144.305 160.405 144.554 160.405 144.787 160.405C145.152 160.405 145.518 160.405 145.866 160.405C146.215 160.422 146.564 160.422 146.912 160.438C146.962 160.422 147.012 160.372 147.029 160.306C147.045 160.239 147.045 160.156 147.029 160.09C147.012 160.007 146.995 159.941 146.946 159.907L146.447 159.841C146.248 159.808 146.099 159.758 146.016 159.659C145.916 159.576 145.85 159.443 145.816 159.277C145.783 159.111 145.767 158.912 145.75 158.679C145.733 158.298 145.717 157.899 145.7 157.534C145.7 157.153 145.684 156.754 145.667 156.356C145.667 155.958 145.65 155.526 145.65 155.078C145.634 154.63 145.634 154.132 145.634 153.618C145.634 153.087 145.634 152.506 145.634 151.859C145.634 151.593 145.667 151.378 145.733 151.228C145.8 151.079 145.916 150.979 146.049 150.896C146.182 150.83 146.364 150.78 146.58 150.747L147.029 150.664C147.062 150.614 147.095 150.548 147.112 150.482C147.112 150.415 147.112 150.332 147.095 150.282C147.078 150.216 147.029 150.166 146.979 150.133C146.796 150.133 146.597 150.15 146.381 150.15C146.182 150.166 145.966 150.166 145.767 150.166C145.551 150.166 145.368 150.183 145.202 150.183C145.053 150.183 144.903 150.183 144.754 150.183C144.604 150.183 144.455 150.183 144.272 150.166C144.106 150.166 143.89 150.15 143.658 150.133C143.575 150.465 143.492 150.764 143.392 151.046C143.292 151.328 143.193 151.627 143.077 151.909C142.96 152.191 142.827 152.49 142.695 152.805C142.545 153.12 142.379 153.485 142.196 153.884L141.399 155.576C141.267 155.875 141.134 156.14 141.034 156.356C140.934 156.572 140.835 156.771 140.752 156.92C140.669 157.086 140.602 157.219 140.536 157.352C140.47 157.252 140.403 157.12 140.32 156.97C140.237 156.804 140.137 156.655 140.054 156.489C139.955 156.306 139.872 156.157 139.789 156.008C139.706 155.875 139.656 155.759 139.623 155.676L138.593 153.485C138.361 153.004 138.161 152.573 137.979 152.191C137.796 151.793 137.647 151.427 137.53 151.096C137.431 150.764 137.381 150.448 137.364 150.133C137.099 150.15 136.833 150.166 136.6 150.166C136.351 150.183 136.102 150.183 135.853 150.183C135.471 150.183 135.123 150.166 134.791 150.166C134.458 150.15 134.16 150.15 133.894 150.133C133.844 150.15 133.811 150.199 133.778 150.266C133.761 150.332 133.761 150.399 133.778 150.482C133.778 150.565 133.811 150.631 133.861 150.664L134.193 150.731ZM149.586 158.165C149.586 158.53 149.569 158.812 149.553 159.011C149.536 159.227 149.503 159.393 149.453 159.493C149.387 159.609 149.32 159.675 149.204 159.725C149.104 159.775 148.955 159.808 148.789 159.841L148.357 159.924C148.291 159.941 148.257 159.99 148.257 160.073C148.241 160.14 148.241 160.206 148.257 160.289C148.291 160.356 148.324 160.405 148.39 160.438C148.805 160.422 149.204 160.422 149.586 160.405C149.968 160.405 150.35 160.405 150.715 160.405C151.08 160.405 151.462 160.405 151.844 160.405C152.243 160.422 152.658 160.422 153.09 160.438C153.139 160.405 153.173 160.356 153.189 160.289C153.222 160.206 153.222 160.14 153.189 160.073C153.173 159.99 153.139 159.941 153.09 159.924L152.591 159.841C152.409 159.824 152.276 159.775 152.176 159.741C152.06 159.692 151.977 159.609 151.927 159.509C151.877 159.393 151.844 159.227 151.828 159.028C151.811 158.812 151.794 158.53 151.794 158.165V151.627C151.794 151.427 151.811 151.262 151.828 151.145C151.844 151.029 151.894 150.946 151.994 150.913C152.077 150.863 152.209 150.83 152.409 150.847C152.757 150.847 153.056 150.913 153.305 151.046C153.554 151.195 153.754 151.378 153.92 151.61C154.069 151.826 154.185 152.091 154.268 152.373C154.352 152.656 154.385 152.938 154.385 153.22C154.385 153.518 154.368 153.784 154.318 154.033C154.285 154.298 154.202 154.531 154.086 154.73C153.986 154.946 153.82 155.128 153.621 155.294C153.422 155.46 153.156 155.593 152.84 155.692C152.791 155.726 152.774 155.759 152.774 155.825C152.757 155.875 152.774 155.925 152.791 155.991C152.807 156.041 152.84 156.074 152.874 156.107C152.957 156.107 153.04 156.124 153.123 156.124C153.206 156.124 153.289 156.124 153.372 156.124C153.521 156.124 153.687 156.107 153.92 156.091C154.136 156.057 154.368 156.008 154.617 155.925C154.866 155.858 155.115 155.759 155.381 155.626C155.63 155.477 155.846 155.311 156.062 155.095C156.278 154.879 156.444 154.614 156.56 154.315C156.693 154 156.759 153.635 156.759 153.203C156.759 152.838 156.693 152.506 156.593 152.207C156.494 151.909 156.344 151.66 156.161 151.444C155.979 151.228 155.78 151.046 155.564 150.88C155.331 150.731 155.099 150.614 154.866 150.531C154.65 150.448 154.401 150.382 154.136 150.316C153.853 150.249 153.554 150.216 153.206 150.183C152.857 150.15 152.459 150.133 152.027 150.133C151.363 150.133 150.715 150.15 150.117 150.166C149.519 150.199 148.955 150.233 148.457 150.266C148.39 150.299 148.357 150.365 148.34 150.432C148.307 150.515 148.307 150.581 148.324 150.648C148.34 150.714 148.374 150.764 148.423 150.797L148.905 150.863C149.054 150.863 149.187 150.913 149.287 150.946C149.37 150.996 149.436 151.096 149.486 151.212C149.519 151.328 149.553 151.51 149.569 151.743C149.586 151.992 149.586 152.29 149.586 152.689V158.165ZM7.51119 158.165C7.51119 158.513 7.49459 158.779 7.47798 158.995C7.46138 159.194 7.42817 159.36 7.36175 159.459C7.31193 159.559 7.24551 159.642 7.12927 159.692C7.02964 159.741 6.88019 159.775 6.71414 159.808L6.2658 159.907C6.21598 159.924 6.19938 159.974 6.18277 160.04C6.16617 160.123 6.16617 160.19 6.18277 160.273C6.19938 160.356 6.21598 160.405 6.2658 160.438C6.69753 160.422 7.11267 160.422 7.51119 160.405C7.90972 160.405 8.29164 160.405 8.67356 160.405C8.88943 160.405 9.13851 160.405 9.4208 160.422C9.70309 160.438 9.98538 160.455 10.2677 160.455C10.5832 160.455 10.9153 160.455 11.264 160.438C11.6127 160.422 11.9614 160.372 12.3267 160.322C12.6754 160.273 13.0241 160.19 13.3396 160.073C13.5887 159.99 13.8212 159.874 14.0371 159.725C14.2695 159.576 14.4522 159.393 14.6182 159.177C14.8009 158.962 14.9171 158.713 15.0168 158.431C15.1164 158.148 15.1662 157.833 15.1662 157.468C15.1496 157.103 15.0832 156.754 14.967 156.472C14.8507 156.174 14.6847 155.925 14.4688 155.726C14.2695 155.51 14.0205 155.327 13.7548 155.195C13.4725 155.062 13.1902 154.962 12.8747 154.896C12.8083 154.879 12.7585 154.863 12.7252 154.846C12.692 154.813 12.6588 154.796 12.6588 154.78C12.6588 154.73 12.692 154.697 12.7585 154.663C12.8249 154.647 12.8913 154.614 12.9743 154.597C13.074 154.581 13.1902 154.547 13.323 154.481C13.4559 154.415 13.5887 154.348 13.7382 154.249C13.8876 154.149 14.0205 154.016 14.1367 153.884C14.2529 153.734 14.3692 153.552 14.4356 153.352C14.5186 153.153 14.5518 152.921 14.5518 152.672C14.5518 152.207 14.4522 151.826 14.2695 151.494C14.0869 151.162 13.8212 150.896 13.4891 150.697C13.157 150.498 12.7252 150.349 12.2105 150.266C11.6957 150.166 11.0647 150.133 10.3175 150.133C9.80272 150.133 9.33777 150.133 8.88943 150.15C8.45769 150.166 8.04256 150.183 7.64403 150.199C7.24551 150.216 6.84698 150.249 6.46506 150.266C6.41525 150.266 6.36543 150.299 6.33222 150.349C6.31561 150.399 6.29901 150.448 6.29901 150.515C6.29901 150.581 6.29901 150.648 6.31561 150.714C6.34882 150.764 6.36543 150.797 6.39864 150.83L6.81377 150.88C6.97982 150.913 7.11267 150.946 7.19569 150.996C7.29532 151.029 7.36175 151.129 7.41156 151.245C7.44477 151.361 7.47798 151.544 7.49459 151.776C7.49459 152.008 7.51119 152.307 7.51119 152.705V158.165ZM9.63667 151.643C9.63667 151.477 9.63667 151.345 9.65327 151.228C9.66988 151.129 9.70309 151.046 9.7363 150.996C9.78611 150.93 9.86914 150.896 9.96877 150.863C10.0684 150.847 10.2012 150.83 10.3839 150.847C10.7492 150.847 11.0647 150.913 11.347 151.062C11.6459 151.212 11.8618 151.427 12.0444 151.726C12.2105 152.025 12.2935 152.407 12.2935 152.855C12.2935 153.087 12.2603 153.319 12.1939 153.518C12.1275 153.734 12.0278 153.933 11.8784 154.099C11.7289 154.265 11.5463 154.398 11.3138 154.481C11.0813 154.581 10.799 154.63 10.4669 154.63C10.2677 154.63 10.1016 154.63 10.002 154.63C9.88575 154.614 9.80272 154.597 9.7529 154.564C9.70309 154.547 9.66988 154.498 9.65327 154.431C9.63667 154.381 9.63667 154.298 9.63667 154.199V151.643ZM9.63667 155.958C9.63667 155.792 9.63667 155.676 9.65327 155.593C9.66988 155.51 9.70309 155.443 9.7529 155.41C9.80272 155.36 9.88575 155.344 10.002 155.327C10.1182 155.327 10.2843 155.311 10.5001 155.311C10.9983 155.327 11.4134 155.41 11.7455 155.609C12.0776 155.809 12.3267 156.074 12.5094 156.423C12.6754 156.754 12.7585 157.153 12.7585 157.617C12.7585 158.032 12.692 158.397 12.5592 158.729C12.4263 159.045 12.2271 159.293 11.9614 159.476C11.7123 159.659 11.3802 159.741 10.9983 159.741C10.6994 159.741 10.4669 159.692 10.2843 159.609C10.1016 159.526 9.96877 159.393 9.86914 159.21C9.78611 159.045 9.71969 158.845 9.68648 158.596C9.65327 158.348 9.63667 158.082 9.63667 157.783V155.958ZM17.7566 158.165C17.7566 158.513 17.7566 158.796 17.74 159.011C17.7234 159.21 17.6736 159.376 17.6238 159.476C17.574 159.592 17.491 159.659 17.3913 159.708C17.2751 159.758 17.1422 159.791 16.9762 159.824L16.5445 159.907C16.5112 159.924 16.478 159.974 16.4614 160.057C16.4614 160.123 16.4614 160.206 16.4614 160.273C16.478 160.356 16.5112 160.405 16.5445 160.438C16.8267 160.438 17.0758 160.422 17.3249 160.422C17.574 160.405 17.8231 160.405 18.0555 160.405C18.3046 160.405 18.5537 160.405 18.8194 160.405C19.1847 160.405 19.55 160.405 19.9319 160.405C20.2972 160.422 20.6792 160.422 21.0943 160.438C21.1275 160.405 21.1441 160.356 21.1607 160.273C21.1773 160.206 21.1773 160.123 21.1607 160.057C21.1441 159.974 21.1275 159.924 21.0943 159.907L20.6792 159.824C20.4965 159.791 20.3637 159.758 20.2474 159.708C20.1478 159.659 20.0648 159.592 20.015 159.476C19.9651 159.376 19.9319 159.21 19.9153 159.011C19.8987 158.796 19.8821 158.513 19.8821 158.165V156.257C19.8821 156.157 19.8821 156.091 19.9153 156.041C19.9319 155.991 19.9817 155.958 20.0648 155.941C20.1478 155.925 20.2806 155.925 20.4633 155.925C20.646 155.925 20.812 155.958 20.9448 156.041C21.0777 156.107 21.1939 156.257 21.277 156.456C21.4596 156.871 21.6423 157.269 21.8249 157.667C22.0242 158.049 22.2401 158.464 22.4891 158.862C22.705 159.227 22.9707 159.542 23.253 159.775C23.5353 160.024 23.8674 160.206 24.2327 160.322C24.598 160.438 25.0131 160.488 25.4947 160.488C25.6607 160.488 25.8102 160.488 25.9762 160.472C26.1257 160.472 26.2751 160.455 26.3914 160.438C26.5242 160.422 26.6405 160.389 26.7235 160.356C26.7401 160.322 26.7567 160.273 26.7733 160.223C26.7733 160.173 26.7733 160.123 26.7567 160.073C26.7401 160.007 26.7069 159.974 26.6571 159.941C26.5408 159.941 26.3914 159.907 26.2087 159.841C26.0261 159.791 25.8268 159.675 25.6109 159.509C25.3785 159.31 25.1294 159.028 24.8969 158.696C24.6478 158.348 24.3987 157.933 24.1331 157.435C23.8508 156.92 23.5519 156.34 23.2198 155.643C23.17 155.56 23.1533 155.493 23.17 155.443C23.17 155.377 23.2198 155.344 23.2862 155.294C23.4688 155.211 23.6681 155.112 23.8508 154.979C24.05 154.863 24.2161 154.697 24.3821 154.514C24.5482 154.348 24.681 154.132 24.7807 153.867C24.8803 153.618 24.9301 153.319 24.9301 152.971C24.9301 152.49 24.8139 152.042 24.598 151.66C24.3655 151.278 24.0168 150.946 23.5685 150.681C23.3692 150.565 23.1201 150.465 22.8212 150.382C22.5057 150.299 22.157 150.233 21.7751 150.199C21.3932 150.15 20.9781 150.133 20.5297 150.133C20.0482 150.133 19.5832 150.133 19.1349 150.15C18.7031 150.166 18.288 150.183 17.8729 150.199C17.4743 150.216 17.0758 150.249 16.6939 150.266C16.6275 150.299 16.5943 150.349 16.5611 150.432C16.5445 150.498 16.5445 150.581 16.5611 150.648C16.5777 150.731 16.6109 150.78 16.6607 150.813L17.0758 150.863C17.2419 150.896 17.3747 150.93 17.4577 150.979C17.5574 151.029 17.6238 151.112 17.657 151.228C17.7068 151.345 17.74 151.527 17.74 151.759C17.7566 151.992 17.7566 152.307 17.7566 152.689V158.165ZM19.8821 151.627C19.8821 151.378 19.8987 151.212 19.9153 151.096C19.9485 150.979 19.9984 150.913 20.098 150.88C20.1976 150.847 20.3471 150.83 20.5463 150.847C20.9615 150.847 21.3102 150.946 21.6091 151.129C21.9246 151.311 22.157 151.577 22.3231 151.925C22.4891 152.257 22.5722 152.672 22.5722 153.137C22.5722 153.435 22.5556 153.701 22.4891 153.917C22.4393 154.132 22.3729 154.315 22.2899 154.464C22.2069 154.597 22.1072 154.713 22.0242 154.813C21.8747 154.946 21.7087 155.062 21.526 155.128C21.3434 155.211 21.1109 155.244 20.8452 155.244C20.6127 155.244 20.4467 155.228 20.3138 155.228C20.181 155.211 20.0814 155.195 20.015 155.145C19.9651 155.112 19.9153 155.045 19.8987 154.979C19.8821 154.896 19.8821 154.78 19.8821 154.647V151.627ZM31.7217 156.904C31.9043 156.887 32.0372 156.904 32.1368 156.92C32.2364 156.92 32.3028 156.954 32.3527 156.987C32.4025 157.037 32.4357 157.086 32.4689 157.169L32.884 158.513C32.9837 158.796 33.0501 159.028 33.0999 159.21C33.1497 159.393 33.1829 159.509 33.1829 159.559C33.1829 159.592 33.1663 159.625 33.1497 159.659C33.1331 159.692 33.0833 159.725 33.0335 159.741C32.9671 159.775 32.884 159.808 32.7678 159.824L32.2696 159.907C32.2032 159.941 32.17 160.007 32.1534 160.073C32.1534 160.156 32.1534 160.223 32.17 160.289C32.2032 160.356 32.2364 160.405 32.3028 160.438C32.5353 160.438 32.7678 160.422 32.9837 160.422C33.1995 160.405 33.432 160.405 33.6645 160.405C33.897 160.405 34.1294 160.405 34.3951 160.405C34.7936 160.405 35.1922 160.405 35.6073 160.405C36.0058 160.422 36.4043 160.422 36.7697 160.438C36.8195 160.405 36.8527 160.356 36.8693 160.273C36.8693 160.206 36.8693 160.123 36.8527 160.057C36.8361 159.974 36.8195 159.924 36.7863 159.907L36.2051 159.808C36.0224 159.775 35.8564 159.708 35.7567 159.625C35.6405 159.509 35.5409 159.376 35.4412 159.177C35.3582 158.995 35.2752 158.729 35.159 158.431L33.0501 152.357C32.9338 151.992 32.8176 151.676 32.7346 151.411C32.635 151.162 32.5685 150.93 32.5021 150.747C32.4523 150.548 32.4025 150.382 32.3527 150.233C32.3361 150.117 32.2862 150.034 32.2364 150C32.17 149.951 32.1036 149.917 32.004 149.934C31.9873 149.934 31.9541 149.967 31.8877 150.05C31.8047 150.133 31.7217 150.216 31.5888 150.332C31.4726 150.432 31.3397 150.548 31.1737 150.648C31.0076 150.731 30.8416 150.813 30.6589 150.863C30.6755 150.996 30.6423 151.162 30.6091 151.345C30.5593 151.527 30.4929 151.743 30.3932 151.975C30.3102 152.224 30.194 152.506 30.0777 152.821L28.6663 156.605C28.5335 156.97 28.4006 157.302 28.2844 157.601C28.1681 157.899 28.0685 158.165 27.9689 158.414C27.8692 158.646 27.7862 158.879 27.6866 159.078C27.6036 159.277 27.5039 159.426 27.4209 159.542C27.3213 159.642 27.205 159.725 27.1054 159.775C26.9892 159.808 26.8729 159.841 26.7401 159.858L26.325 159.907C26.2917 159.941 26.2585 160.007 26.2585 160.073C26.2419 160.156 26.2419 160.223 26.2585 160.289C26.2751 160.356 26.325 160.405 26.3748 160.438C26.6072 160.438 26.8065 160.438 26.9892 160.438C27.1552 160.422 27.3213 160.422 27.4873 160.405C27.6368 160.405 27.8028 160.405 27.9689 160.405C28.301 160.405 28.5999 160.405 28.8822 160.422C29.1811 160.422 29.4467 160.422 29.729 160.438C29.7788 160.422 29.8121 160.356 29.8121 160.289C29.8287 160.223 29.8287 160.14 29.8121 160.073C29.8121 159.99 29.7788 159.941 29.7456 159.907L29.2807 159.824C29.0648 159.791 28.9154 159.741 28.8157 159.692C28.6995 159.659 28.6497 159.609 28.6497 159.559C28.6497 159.509 28.6663 159.426 28.6663 159.36C28.6829 159.277 28.7161 159.161 28.7659 159.011L29.3637 157.202C29.3969 157.103 29.4301 157.037 29.4633 156.987C29.4966 156.954 29.5298 156.92 29.5962 156.92C29.6626 156.904 29.7622 156.887 29.8785 156.904H31.7217ZM30.194 156.074C30.0611 156.074 29.9615 156.074 29.8951 156.041C29.8287 156.024 29.7955 155.991 29.7955 155.925C29.7955 155.858 29.8121 155.742 29.8619 155.609L30.2438 154.448C30.3268 154.215 30.4098 153.966 30.4929 153.718C30.5925 153.469 30.6589 153.236 30.742 153.037C30.8084 152.838 30.8748 152.672 30.908 152.539C30.9578 152.656 31.0242 152.805 31.0907 153.021C31.1737 153.22 31.2401 153.435 31.3231 153.668C31.4062 153.917 31.4726 154.149 31.5556 154.365L31.9541 155.626C32.004 155.759 32.0206 155.858 32.004 155.925C32.004 155.991 31.9707 156.024 31.9043 156.057C31.8545 156.074 31.7549 156.074 31.6386 156.074H30.194ZM44.6406 155.493C44.8564 155.477 45.0059 155.493 45.1055 155.51C45.1885 155.526 45.255 155.56 45.2716 155.626C45.2882 155.692 45.3048 155.792 45.2882 155.941V158.165C45.3048 158.53 45.2882 158.812 45.2716 159.028C45.255 159.244 45.2217 159.41 45.1719 159.509C45.1221 159.625 45.0391 159.708 44.9228 159.758C44.8232 159.808 44.6904 159.841 44.5077 159.858L44.159 159.907C44.1258 159.941 44.0926 159.99 44.076 160.057C44.076 160.14 44.076 160.206 44.076 160.289C44.0926 160.356 44.1258 160.405 44.159 160.438C44.9062 160.405 45.6701 160.405 46.4339 160.405C46.7992 160.405 47.1646 160.405 47.5465 160.405C47.9118 160.422 48.2937 160.422 48.6922 160.438C48.7255 160.405 48.7587 160.356 48.7753 160.289C48.7919 160.206 48.7919 160.14 48.7753 160.057C48.7587 159.99 48.7255 159.941 48.6922 159.907L48.3103 159.841C48.1443 159.808 47.9948 159.775 47.8952 159.725C47.779 159.675 47.6959 159.609 47.6461 159.493C47.5963 159.393 47.5631 159.227 47.5299 159.011C47.5133 158.812 47.5133 158.53 47.5133 158.165V152.407C47.5133 152.042 47.5133 151.759 47.5299 151.544C47.5631 151.328 47.5963 151.179 47.6461 151.062C47.6959 150.946 47.779 150.863 47.8952 150.83C47.9948 150.78 48.1443 150.747 48.3103 150.714L48.6258 150.664C48.6756 150.631 48.6922 150.581 48.7088 150.515C48.7255 150.432 48.7255 150.365 48.7088 150.282C48.6922 150.216 48.6756 150.166 48.6258 150.133C48.2771 150.15 47.9118 150.15 47.5465 150.166C47.1978 150.166 46.8158 150.183 46.4339 150.183C46.0686 150.183 45.6867 150.166 45.3048 150.166C44.9228 150.15 44.5077 150.15 44.0926 150.133C44.0428 150.166 44.0096 150.216 44.0096 150.282C43.993 150.365 43.993 150.432 44.0096 150.515C44.0096 150.581 44.0428 150.631 44.0926 150.664L44.5077 150.731C44.6904 150.764 44.8232 150.797 44.9228 150.83C45.0391 150.88 45.1221 150.963 45.1719 151.062C45.2217 151.179 45.255 151.345 45.2716 151.544C45.2882 151.759 45.3048 152.042 45.2882 152.407V154.199C45.3048 154.348 45.2882 154.448 45.2716 154.514C45.255 154.597 45.1885 154.63 45.1055 154.647C45.0059 154.663 44.8564 154.663 44.6406 154.663H41.4191C41.2033 154.663 41.0538 154.663 40.9708 154.647C40.8712 154.63 40.8213 154.597 40.8047 154.514C40.7715 154.448 40.7715 154.348 40.7715 154.199V152.407C40.7715 152.042 40.7715 151.759 40.7881 151.544C40.8213 151.328 40.8546 151.162 40.9044 151.062C40.9542 150.946 41.0206 150.863 41.1202 150.813C41.2365 150.764 41.3693 150.731 41.5354 150.714L41.8509 150.664C41.9007 150.631 41.9173 150.581 41.9339 150.515C41.9505 150.432 41.9505 150.365 41.9339 150.282C41.9173 150.216 41.9007 150.166 41.8509 150.133C41.5188 150.15 41.1535 150.15 40.7881 150.166C40.4062 150.166 40.0575 150.183 39.6922 150.183C39.3269 150.183 38.945 150.166 38.5464 150.166C38.1645 150.15 37.766 150.15 37.3841 150.133C37.3508 150.166 37.3176 150.216 37.301 150.282C37.301 150.365 37.301 150.432 37.301 150.515C37.3176 150.581 37.3508 150.631 37.3841 150.664L37.766 150.714C37.9486 150.731 38.0815 150.764 38.1811 150.813C38.2973 150.863 38.3804 150.946 38.4302 151.062C38.48 151.162 38.5132 151.328 38.5298 151.544C38.5464 151.759 38.563 152.042 38.5464 152.407V158.165C38.563 158.53 38.5464 158.812 38.5298 159.028C38.5132 159.244 38.48 159.41 38.4302 159.509C38.3804 159.625 38.2973 159.708 38.1811 159.758C38.0815 159.808 37.9486 159.841 37.766 159.858L37.3841 159.907C37.3508 159.941 37.3176 159.99 37.301 160.057C37.301 160.14 37.301 160.206 37.301 160.289C37.3176 160.356 37.3508 160.405 37.3841 160.438C37.7826 160.422 38.1811 160.422 38.563 160.405C38.945 160.405 39.3269 160.405 39.6922 160.405C40.0409 160.405 40.4228 160.405 40.8047 160.405C41.2033 160.422 41.6184 160.422 42.0501 160.438C42.1 160.405 42.1332 160.356 42.1332 160.289C42.1498 160.206 42.1498 160.14 42.1332 160.057C42.1332 159.99 42.1 159.941 42.0501 159.907L41.552 159.841C41.3859 159.824 41.2531 159.791 41.1368 159.741C41.0372 159.692 40.9542 159.625 40.9044 159.509C40.8546 159.393 40.8213 159.227 40.7881 159.028C40.7715 158.812 40.7715 158.53 40.7715 158.165V155.941C40.7715 155.792 40.7715 155.692 40.8047 155.626C40.8213 155.56 40.8712 155.526 40.9708 155.51C41.0538 155.493 41.2033 155.477 41.4191 155.493H44.6406ZM53.6738 152.44C53.6738 152.075 53.6904 151.793 53.707 151.577C53.7236 151.361 53.7568 151.195 53.8067 151.096C53.8731 150.979 53.9395 150.913 54.0557 150.863C54.172 150.813 54.3048 150.78 54.4875 150.747L54.9192 150.664C54.9524 150.631 54.9856 150.581 55.0022 150.515C55.0188 150.432 55.0188 150.365 55.0022 150.282C54.9856 150.216 54.9524 150.166 54.9192 150.133C54.5041 150.15 54.089 150.15 53.707 150.166C53.3251 150.166 52.9432 150.183 52.5779 150.183C52.196 150.183 51.8306 150.166 51.4321 150.166C51.0336 150.15 50.6351 150.15 50.2199 150.133C50.1867 150.166 50.1535 150.216 50.1369 150.282C50.1203 150.365 50.1203 150.432 50.1369 150.515C50.1535 150.581 50.1867 150.631 50.2199 150.664L50.6517 150.747C50.8343 150.78 50.9672 150.813 51.0834 150.863C51.183 150.913 51.2661 150.979 51.3325 151.096C51.3823 151.195 51.4155 151.361 51.4321 151.577C51.4487 151.793 51.4653 152.075 51.4653 152.44V158.132C51.4653 158.497 51.4487 158.779 51.4321 158.995C51.4155 159.21 51.3823 159.376 51.3325 159.476C51.2661 159.592 51.183 159.659 51.0834 159.708C50.9672 159.758 50.8343 159.791 50.6517 159.824L50.2199 159.907C50.1867 159.941 50.1535 159.99 50.1369 160.057C50.1203 160.14 50.1203 160.206 50.1369 160.289C50.1535 160.356 50.1867 160.405 50.2199 160.438C50.6351 160.422 51.0336 160.422 51.4321 160.405C51.8306 160.405 52.196 160.405 52.5779 160.405C52.9432 160.405 53.3085 160.405 53.6904 160.405C54.089 160.422 54.4875 160.422 54.9026 160.438C54.9358 160.405 54.969 160.356 54.9856 160.289C55.0022 160.206 55.0022 160.14 54.9856 160.057C54.9856 159.99 54.9524 159.941 54.9192 159.907L54.4875 159.824C54.3048 159.791 54.172 159.758 54.0557 159.708C53.9395 159.659 53.8731 159.592 53.8067 159.476C53.7568 159.376 53.7236 159.21 53.707 158.995C53.6904 158.779 53.6738 158.497 53.6738 158.132V152.44ZM56.7292 150.731C56.9285 150.764 57.1111 150.813 57.2439 150.896C57.3934 150.979 57.493 151.112 57.5761 151.262C57.6591 151.444 57.6923 151.66 57.6923 151.959C57.6923 152.241 57.6923 152.556 57.6757 152.904C57.6757 153.253 57.6591 153.618 57.6425 154C57.6259 154.365 57.6093 154.73 57.5927 155.078C57.5595 155.576 57.5428 156.057 57.5096 156.489C57.493 156.954 57.4598 157.352 57.4432 157.734C57.4266 158.099 57.41 158.414 57.3768 158.663C57.3602 158.895 57.327 159.094 57.2938 159.227C57.2606 159.376 57.2107 159.493 57.1443 159.559C57.0779 159.642 56.9949 159.708 56.8786 159.741C56.7624 159.791 56.5963 159.824 56.3971 159.858L56.1148 159.907C56.0816 159.941 56.0484 159.99 56.0318 160.057C56.0152 160.14 56.0318 160.223 56.0484 160.289C56.065 160.372 56.1148 160.422 56.1812 160.438C56.4967 160.422 56.7956 160.422 57.0779 160.405C57.3768 160.405 57.6425 160.405 57.8916 160.405C58.1905 160.405 58.4893 160.405 58.8048 160.405C59.1203 160.422 59.4358 160.422 59.7181 160.438C59.7513 160.422 59.7846 160.356 59.8012 160.289C59.8178 160.223 59.8344 160.14 59.8178 160.073C59.8178 159.99 59.7846 159.941 59.7513 159.907L59.137 159.808C58.9377 159.775 58.7882 159.725 58.6886 159.659C58.589 159.592 58.506 159.476 58.4727 159.327C58.4395 159.177 58.4229 158.978 58.4229 158.729C58.4229 158.497 58.4229 158.231 58.4395 157.933C58.4395 157.634 58.4395 157.335 58.4395 157.003C58.4395 156.688 58.4395 156.389 58.4561 156.074C58.4561 155.775 58.4561 155.493 58.4561 155.244C58.4727 154.979 58.4727 154.713 58.4727 154.464C58.4893 154.199 58.4893 153.933 58.506 153.668C58.5226 153.386 58.5392 153.07 58.5558 152.738H58.589C58.7384 153.087 58.9045 153.469 59.0871 153.884C59.2864 154.315 59.5023 154.763 59.7181 155.228C59.934 155.709 60.1499 156.174 60.3657 156.671C60.5982 157.153 60.8141 157.634 61.0133 158.099C61.2126 158.563 61.3953 159.011 61.5613 159.426C61.7274 159.824 61.8602 160.206 61.9598 160.521C62.0097 160.555 62.0761 160.571 62.1425 160.588C62.2255 160.604 62.292 160.621 62.375 160.621C62.4248 160.621 62.4912 160.604 62.541 160.588C62.5908 160.555 62.6407 160.538 62.6739 160.505C63.0226 159.625 63.3879 158.762 63.7698 157.899C64.1351 157.037 64.5337 156.174 64.9156 155.327C65.3141 154.481 65.696 153.651 66.0946 152.821H66.1112V154.597L66.1444 158.613C66.1444 158.845 66.1444 159.045 66.1444 159.194C66.1278 159.343 66.1112 159.459 66.0613 159.542C66.0115 159.625 65.9451 159.692 65.8455 159.741C65.7458 159.791 65.613 159.824 65.4303 159.841L64.9654 159.907C64.9156 159.941 64.8824 159.99 64.8658 160.073C64.8658 160.14 64.8658 160.223 64.8824 160.289C64.9156 160.356 64.9488 160.422 65.0152 160.438C65.2643 160.438 65.53 160.422 65.7957 160.422C66.0613 160.405 66.3104 160.405 66.5761 160.405C66.8252 160.405 67.0743 160.405 67.3067 160.405C67.6887 160.405 68.054 160.405 68.4027 160.405C68.7514 160.422 69.1001 160.422 69.4488 160.438C69.4986 160.422 69.5318 160.372 69.5484 160.306C69.5817 160.239 69.5817 160.156 69.5651 160.09C69.5484 160.007 69.5152 159.941 69.482 159.907L68.9839 159.841C68.7846 159.808 68.6352 159.758 68.5355 159.659C68.4525 159.576 68.3861 159.443 68.3529 159.277C68.3197 159.111 68.3031 158.912 68.2865 158.679C68.2698 158.298 68.2532 157.899 68.2366 157.534C68.22 157.153 68.22 156.754 68.2034 156.356C68.1868 155.958 68.1868 155.526 68.1868 155.078C68.1702 154.63 68.1702 154.132 68.1702 153.618C68.1702 153.087 68.1702 152.506 68.1702 151.859C68.1702 151.593 68.2034 151.378 68.2698 151.228C68.3363 151.079 68.4359 150.979 68.5853 150.896C68.7182 150.83 68.9008 150.78 69.1167 150.747L69.5651 150.664C69.5983 150.614 69.6315 150.548 69.6315 150.482C69.6481 150.415 69.6481 150.332 69.6315 150.282C69.6149 150.216 69.5651 150.166 69.5152 150.133C69.316 150.133 69.1333 150.15 68.9174 150.15C68.7016 150.166 68.5023 150.166 68.3031 150.166C68.0872 150.166 67.9045 150.183 67.7219 150.183C67.5724 150.183 67.423 150.183 67.2901 150.183C67.1407 150.183 66.9746 150.183 66.8086 150.166C66.6425 150.166 66.4267 150.15 66.1942 150.133C66.1112 150.465 66.0281 150.764 65.9285 151.046C65.8289 151.328 65.7292 151.627 65.613 151.909C65.4968 152.191 65.3639 152.49 65.2145 152.805C65.0816 153.12 64.9156 153.485 64.7163 153.884L63.9359 155.576C63.7864 155.875 63.6702 156.14 63.5706 156.356C63.4543 156.572 63.3713 156.771 63.2883 156.92C63.2052 157.086 63.1388 157.219 63.0724 157.352C63.006 157.252 62.9396 157.12 62.8565 156.97C62.7569 156.804 62.6739 156.655 62.5742 156.489C62.4912 156.306 62.3916 156.157 62.3252 156.008C62.2421 155.875 62.1923 155.759 62.1591 155.676L61.1296 153.485C60.8971 153.004 60.6978 152.573 60.5152 152.191C60.3325 151.793 60.1831 151.427 60.0668 151.096C59.9672 150.764 59.9008 150.448 59.9008 150.133C59.6351 150.15 59.3694 150.166 59.1203 150.166C58.8879 150.183 58.6388 150.183 58.3897 150.183C58.0078 150.183 57.6425 150.166 57.327 150.166C56.9949 150.15 56.696 150.15 56.4303 150.133C56.3805 150.15 56.3307 150.199 56.3141 150.266C56.2975 150.332 56.2975 150.399 56.2975 150.482C56.3141 150.565 56.3473 150.631 56.3805 150.664L56.7292 150.731Z" fill="white"/>
<path d="M123.017 54.2811C109.169 64.2712 91.3013 69.3492 74.3639 66.4119C67.1406 65.1673 60.1166 62.4292 53.6405 58.0315C49.7383 55.3764 46.6829 52.3063 44.3748 48.9874C41.8674 45.3697 40.2733 41.4865 39.4928 37.5203C38.9449 34.6992 38.7954 31.8449 39.0445 29.0569C39.2936 26.2026 39.9412 23.3981 40.9375 20.7263C41.9172 18.1209 43.2622 15.6151 44.9228 13.3084C46.5501 11.0515 48.4929 8.97718 50.7014 7.16834C53.9228 4.54635 57.742 2.48859 61.993 1.26057C65.945 0.132122 70.279 -0.282749 74.9119 0.198501C80.6407 0.795916 85.7219 2.17329 90.637 4.03191C95.3695 5.82415 100.019 8.08105 104.934 10.4873L108.405 12.1634C110.696 13.2752 112.971 14.3539 114.997 15.2666C117.056 16.1793 119.198 17.0589 121.39 17.8222V17.8388C123.366 18.5192 125.408 19.1 127.501 19.5149C129.527 19.9132 131.552 20.1455 133.545 20.1289C143.741 20.0957 152.807 17.4074 161.077 11.4166C150.848 25.124 136.75 44.4072 123.017 54.2811Z" fill="url(#paint0_linear_149_379)"/>
<path d="M146.082 29.1234C133.728 34.5168 116.79 37.8357 98.0928 37.8357C74.2975 37.8357 53.325 32.4424 41.0537 24.2445C41.3194 23.1991 41.6515 22.1536 42.0334 21.1413C42.515 19.8967 43.0629 18.6521 43.7106 17.4572C44.3582 16.2624 45.0722 15.1174 45.8692 14.0055C46.6497 12.9103 47.5298 11.8648 48.4597 10.8525C49.3729 9.89 50.3859 8.96069 51.4486 8.08116C53.0261 6.78676 54.7365 5.65831 56.5796 4.69581C58.373 3.7499 60.2826 2.98654 62.3251 2.40572C64.2513 1.8415 66.2937 1.45982 68.4192 1.29387C70.4616 1.11132 72.6037 1.12792 74.7956 1.36025C77.5853 1.65895 80.2421 2.1402 82.7994 2.7874C85.3566 3.4346 87.8141 4.23115 90.2219 5.12728C92.5466 6.0068 94.8714 7.01909 97.2293 8.09775C99.4544 9.12663 101.895 10.3049 104.419 11.5329L107.89 13.2256C109.069 13.7898 110.231 14.354 111.294 14.8519C112.373 15.3663 113.453 15.8641 114.515 16.3288C115.578 16.81 116.641 17.2581 117.704 17.6896C118.434 17.9883 119.181 18.2704 119.945 18.5525V18.5691L121.008 18.9508C122.038 19.2993 123.067 19.6312 124.08 19.9133C125.159 20.1954 126.222 20.4609 127.285 20.6766C128.314 20.8758 129.361 21.0251 130.423 21.1413C131.453 21.2575 132.499 21.3073 133.545 21.3073C138.776 21.2907 143.707 20.5937 148.39 19.1333C151.13 18.287 153.787 17.1585 156.361 15.7646C153.172 20.0294 149.719 24.593 146.082 29.1234Z" fill="#009846"/>
<path d="M152.493 81.0816V76.8997H154.269C154.718 76.8997 155.033 76.9329 155.233 77.0158C155.432 77.0822 155.598 77.215 155.731 77.4141C155.847 77.5967 155.913 77.829 155.913 78.0613C155.913 78.3766 155.814 78.6421 155.631 78.8413C155.448 79.0404 155.166 79.1732 154.801 79.2229C155.482 79.6212 155.814 80.3348 156.03 81.0816H155.017C154.851 80.4012 154.519 79.9033 154.186 79.5548C154.103 79.4719 154.02 79.4055 153.921 79.3723C153.838 79.3391 153.688 79.3225 153.506 79.3225H153.34V81.0816H152.493ZM154.186 75.1074C155.249 75.1074 156.229 75.5389 156.926 76.2359C157.624 76.9495 158.072 77.912 158.072 78.9906C158.072 80.0527 157.624 81.0318 156.926 81.7288C156.229 82.4258 155.249 82.8572 154.186 82.8572C153.107 82.8572 152.144 82.4258 151.43 81.7288C150.733 81.0318 150.301 80.0527 150.301 78.9906C150.301 77.912 150.733 76.9495 151.43 76.2359C152.144 75.5389 153.107 75.1074 154.186 75.1074ZM156.412 76.7669C155.83 76.2027 155.05 75.8376 154.186 75.8376C153.323 75.8376 152.526 76.2027 151.961 76.7669C151.397 77.3311 151.048 78.1111 151.048 78.9906C151.048 79.8536 151.397 80.6335 151.961 81.2143C152.526 81.7786 153.323 82.127 154.186 82.127C155.05 82.127 155.83 81.7786 156.412 81.2143C156.976 80.6335 157.325 79.8536 157.325 78.9906C157.325 78.1111 156.976 77.3311 156.412 76.7669ZM153.34 78.6587H153.954C154.352 78.6587 154.618 78.6421 154.718 78.6089C154.817 78.5757 154.9 78.526 154.95 78.443C155 78.36 155.033 78.2439 155.033 78.1277C155.033 77.9783 155 77.8622 154.917 77.7792C154.851 77.6962 154.734 77.6464 154.602 77.6132C154.535 77.6132 154.336 77.5967 153.987 77.5967H153.34V78.6587Z" fill="#1D462D"/>
<path d="M75.7416 39.1305C73.7822 40.4415 71.6401 40.7402 69.6807 40.3087C68.8172 40.1096 67.9869 39.7611 67.2397 39.313C67.7545 39.5453 68.2858 39.7279 68.8338 39.8441C70.7766 40.2755 72.9353 39.9934 74.8947 38.6824L72.7527 35.4796C72.8855 35.4132 73.0183 35.3303 73.1512 35.2473L75.7416 39.1305ZM77.6346 24.444C79.4944 25.3568 81.1383 26.7839 82.3007 28.6591C83.6789 30.8994 84.3597 33.7703 83.9446 37.1225C83.7453 38.7322 83.297 40.3585 82.583 41.8852C81.9022 43.3124 81.0055 44.64 79.8431 45.7684C78.4815 47.1126 76.7877 48.1415 74.9944 48.8053C73.201 49.4525 71.2582 49.7512 69.3652 49.6018C66.8578 49.3861 64.5331 48.6393 62.4906 47.4611C64.3172 48.3738 66.343 48.9712 68.5183 49.1372C70.3947 49.2865 72.3541 49.0044 74.1475 48.3406C75.9409 47.6934 77.618 46.6645 78.9962 45.3204C80.142 44.1919 81.0553 42.8477 81.7361 41.4206C82.4501 39.9104 82.8985 38.2675 83.0977 36.6744C83.5129 33.3223 82.8321 30.4514 81.4538 28.2111C80.4741 26.618 79.1457 25.3568 77.6346 24.444ZM58.6216 19.532L58.8707 19.2996L61.9592 22.8011C61.4279 23.2658 60.9297 23.7636 60.5146 24.3113C60.0994 24.8423 59.7341 25.4065 59.402 26.0205C58.8707 27.0328 58.5219 28.1447 58.3227 29.3063C58.1068 30.5343 58.0736 31.8121 58.2231 33.0734C58.5718 36.2098 59.95 39.1471 62.0755 41.3044C62.8559 42.101 63.7194 42.7813 64.6825 43.3456C63.3873 42.715 62.2249 41.8686 61.2286 40.8563C59.1031 38.6824 57.7249 35.7617 57.3762 32.6253H57.3596C57.2267 31.3641 57.2599 30.0863 57.4592 28.8583H57.4758C57.6751 27.6966 58.0238 26.5848 58.5552 25.5725C58.8707 24.9585 59.2526 24.3777 59.6677 23.8632C60.0828 23.3156 60.581 22.8011 61.0958 22.3365L58.6216 19.532ZM75.4427 28.5927C75.094 28.4268 74.7287 28.3106 74.3634 28.2111C73.0349 27.8792 71.8892 27.9787 70.9759 28.3438C69.9298 28.7753 69.1161 29.5553 68.6179 30.468C68.0202 31.53 67.9371 32.5423 68.1862 33.3887V33.4053C68.3689 33.9861 68.701 34.5171 69.1327 34.9154C69.2323 35.015 69.3486 35.0979 69.4648 35.1809C69.0331 35.015 68.6346 34.766 68.2858 34.4507V34.4673C67.8541 34.069 67.5054 33.538 67.3393 32.9572V32.9406C67.0903 32.0943 67.1733 31.082 67.7545 30.0199C68.2692 29.1072 69.0829 28.3106 70.129 27.8958C71.0423 27.5141 72.1881 27.4311 73.5165 27.763C74.1973 27.929 74.8449 28.2111 75.4427 28.5927ZM85.0904 55.7917C87.8634 56.1568 90.3874 54.182 90.7196 51.4273C91.0184 49.1206 89.7066 46.9964 87.6642 46.1335C89.2085 47.1624 90.1218 49.0044 89.8727 50.9626C89.524 53.7339 87.0166 55.6921 84.2435 55.3436C83.7786 55.2773 83.3302 55.1611 82.9151 54.9952C83.5461 55.41 84.2933 55.6921 85.0904 55.7917ZM86.2195 48.8551C86.1365 48.8385 86.0535 48.8219 85.9704 48.8053C84.8745 48.6725 83.8782 49.4525 83.7287 50.5477C83.6457 51.2115 83.9114 51.8587 84.3763 52.2736C83.4132 52.0247 82.7656 51.0954 82.8819 50.0997C83.0313 48.9878 84.0276 48.2245 85.1236 48.3572C85.5387 48.407 85.9206 48.5895 86.2195 48.8551ZM97.1624 26.9499C99.0554 27.1988 100.799 25.8546 101.031 23.9462C101.231 22.3199 100.268 20.8098 98.7897 20.2621C99.7694 20.9923 100.351 22.2037 100.185 23.4981C99.9355 25.3899 98.2085 26.7341 96.3155 26.5018C96.0498 26.4686 95.7842 26.4022 95.5517 26.3193C96 26.6512 96.548 26.8835 97.1624 26.9499ZM64.6991 21.0255C66.2932 21.2246 67.7379 20.1128 67.9371 18.5197C68.1198 17.1257 67.2729 15.8313 65.9943 15.4164C66.7748 16.0139 67.2231 17.0095 67.0903 18.0716C66.891 19.6481 65.4463 20.7766 63.8522 20.5774C63.653 20.5608 63.4703 20.5111 63.2877 20.4447C63.6862 20.76 64.1677 20.9591 64.6991 21.0255ZM82.4667 16.827C83.6789 17.441 84.8247 18.1712 85.904 19.0175C89.1919 21.6561 91.7159 25.4563 92.7288 30.468C93.7417 35.3966 93.9078 42.101 97.7934 44.6068C93.0775 42.5656 92.9613 35.2805 91.8819 30.0033C90.869 25.0083 88.345 21.208 85.0406 18.5695C84.2269 17.9223 83.3634 17.3414 82.4667 16.827ZM103.638 44.7893C103.306 44.64 102.974 44.4574 102.659 44.2749C103.041 44.4574 103.456 44.6068 103.888 44.7395L103.638 44.7893ZM138.925 33.3223C139.39 33.2725 139.855 33.1895 140.336 33.1065C128.513 47.5773 116.341 58.032 97.4945 62.2803C85.0738 65.0682 72.2047 63.9564 60.7471 57.6669C71.9888 63.5581 84.5424 64.5538 96.6476 61.8156V61.8322C115.196 57.6337 127.284 47.4445 138.925 33.3223ZM147.725 22.3863C148.257 22.2369 148.805 22.071 149.353 21.905L144.554 27.6634C141.249 28.5264 137.995 29.1902 134.425 29.2068C129.244 29.2234 124.246 28.1115 119.397 26.4188C114.598 24.7427 110.031 22.5688 105.498 20.3949L101.995 18.6856C92.7952 14.205 84.642 10.2223 74.8615 9.20997C67.7379 8.4632 61.5773 10.5873 57.0109 14.3046C53.7728 16.9598 51.3153 20.4281 49.8706 24.2615C48.4259 28.0617 48.0108 32.2436 48.8079 36.3094C49.8872 41.8022 53.2083 47.179 59.319 51.3277C60.5146 52.1408 61.7102 52.871 62.9389 53.5514C61.4279 52.7548 59.9334 51.8587 58.4721 50.8796C52.3614 46.7143 49.0403 41.3542 47.961 35.8613C47.1639 31.779 47.5791 27.6137 49.0071 23.7968C50.4518 19.98 52.926 16.4951 56.164 13.8565C60.7304 10.1393 66.8744 8.01514 74.0147 8.76191C83.7952 9.77419 91.9483 13.7404 101.148 18.2376L104.651 19.9302V19.9468C109.185 22.1208 113.751 24.2947 118.55 25.9708C123.399 27.6468 128.38 28.7753 133.578 28.7587C137.131 28.7421 140.402 28.0783 143.707 27.1988L147.725 22.3863ZM128.729 38.085C127.533 37.9688 126.338 37.7863 125.192 37.554C121.771 36.857 118.683 35.7617 115.511 34.4175C110.198 32.1772 105.947 30.385 103.555 34.2682C102.891 35.3303 102.792 36.5583 103.09 37.6535C103.306 38.4169 103.721 39.1139 104.286 39.6781C104.585 39.9768 104.95 40.2589 105.349 40.5078C104.618 40.1925 103.954 39.7279 103.423 39.2135C102.875 38.6658 102.459 37.9522 102.244 37.2055C101.928 36.0936 102.044 34.8822 102.709 33.8201C105.1 29.9369 109.351 31.7292 114.648 33.9695C117.836 35.3137 120.925 36.4089 124.345 37.0893C125.873 37.4046 127.45 37.6203 129.061 37.7531L128.729 38.085ZM116.591 42.0678L117.52 42.4328C112.406 48.4236 101.945 52.423 95.1698 48.3904C101.895 51.6098 111.642 47.7764 116.591 42.0678ZM80.2748 20.9425C77.9003 19.7643 75.2434 19.1835 72.6032 19.1503C71.939 19.1503 71.2748 19.1835 70.6438 19.2499L70.5774 18.7354C70.9759 18.7022 71.3578 18.7022 71.7563 18.7022C74.7121 18.7354 77.701 19.4656 80.2748 20.9425Z" fill="url(#paint1_linear_149_379)"/>
<path d="M74.8956 38.6816C72.9362 39.9925 70.7775 40.2747 68.8347 39.8432C67.4399 39.5445 66.1613 38.8475 65.1151 37.9016L65.1317 37.885C64.0856 36.9225 63.2886 35.6779 62.8734 34.2839C62.2756 32.3091 62.4251 30.019 63.6871 27.7456C64.7 25.9533 66.2941 24.4266 68.3698 23.5802C70.1631 22.8501 72.3052 22.6343 74.6632 23.2318C77.3864 23.9121 79.8606 25.638 81.4547 28.2102C82.833 30.4505 83.5138 33.3214 83.0986 36.6736C82.8994 38.2667 82.451 39.9096 81.737 41.4197C81.0562 42.8469 80.1429 44.191 78.9971 45.3195C77.6189 46.6637 75.9418 47.6926 74.1484 48.3398C72.355 49.0036 70.3956 49.2857 68.5192 49.1363C64.3015 48.8044 60.6483 46.9126 57.9085 44.1081C55.0523 41.204 53.176 37.2876 52.7276 33.1389V33.1223C52.5449 31.4462 52.5782 29.7369 52.8604 28.0609C53.1427 26.4677 53.6575 24.8912 54.4213 23.4143L54.438 23.3977C54.8863 22.5514 55.4011 21.7382 55.9988 20.9749C56.6132 20.1949 57.2941 19.4813 58.0247 18.8507L61.0967 22.3356C60.5819 22.8003 60.0837 23.3147 59.6686 23.8624C59.2535 24.3768 58.8716 24.9576 58.5561 25.5716C58.0247 26.5839 57.676 27.6958 57.4767 28.8574H57.4601C57.2608 30.0854 57.2276 31.3632 57.3605 32.6244H57.3771C57.7258 35.7609 59.104 38.6816 61.2295 40.8555C63.2221 42.8801 65.8624 44.2408 68.9011 44.4898C70.0967 44.5893 71.3753 44.4068 72.5543 43.9753C73.7333 43.5273 74.8458 42.8469 75.7259 41.9839H75.7425C76.4731 41.2704 77.0543 40.3908 77.5027 39.4449V39.4283C78.0008 38.3828 78.3163 37.2212 78.4658 36.0762C78.7481 33.8525 78.3329 32.027 77.4861 30.6496C76.5728 29.1561 75.1115 28.1604 73.5174 27.7621C72.189 27.4302 71.0432 27.5132 70.1299 27.8949C69.0838 28.3098 68.2701 29.1063 67.7554 30.019C67.1742 31.0811 67.0912 32.0934 67.3402 32.9397V32.9563C67.5063 33.5372 67.855 34.0682 68.2867 34.4665V34.4499C68.7351 34.8647 69.2831 35.1634 69.8642 35.2962C70.6281 35.4622 71.4916 35.3294 72.3052 34.7984L74.8956 38.6816ZM84.2444 55.3428C87.0175 55.6913 89.5249 53.7331 89.8736 50.9617C90.2389 48.207 88.2795 45.6846 85.5064 45.3361C82.7333 44.9876 80.2093 46.9458 79.8606 49.7171C79.5119 52.4719 81.4713 54.9943 84.2444 55.3428ZM84.6263 52.3225C85.7223 52.4553 86.7186 51.6753 86.8514 50.5801C87.0009 49.5014 86.2204 48.4891 85.1245 48.3564C84.0285 48.2236 83.0322 48.987 82.8828 50.0988C82.7499 51.1775 83.5304 52.1898 84.6263 52.3225ZM96.3164 26.5009C98.2094 26.7333 99.9364 25.3891 100.185 23.4973C100.418 21.5889 99.0729 19.863 97.1799 19.6307C95.2703 19.3817 93.5434 20.7259 93.3109 22.6343C93.0618 24.5261 94.4068 26.252 96.3164 26.5009ZM63.8531 20.5766C65.4472 20.7757 66.8919 19.6473 67.0912 18.0708C67.2904 16.4776 66.1613 15.0173 64.5672 14.8182C62.9897 14.619 61.5284 15.7475 61.3291 17.3406C61.1299 18.9337 62.259 20.3774 63.8531 20.5766ZM69.3163 14.1544C70.1465 14.0714 70.9768 14.0382 71.8071 14.0382C76.5063 14.0714 81.2721 15.5483 85.0415 18.5686C88.3459 21.2072 90.8699 25.0074 91.8828 30.0025C93.2943 36.9557 93.0618 47.4104 103.888 44.7387C102.427 44.3072 101.165 43.5273 100.152 42.5316C99.0231 41.4031 98.1928 39.9925 97.7611 38.4658C95.9843 32.1598 100.634 26.0031 107.326 26.7333C110.115 27.032 113.187 28.2766 116.492 29.6706L117.322 30.0356C119.78 31.0645 122.47 31.9606 125.276 32.5249C130.39 33.5703 134.675 33.4708 139.474 32.6576C127.667 47.1283 115.496 57.5665 96.6485 61.8314V61.8148C82.7499 64.9512 68.2701 63.1756 55.866 54.7454C48.6427 49.8333 44.6907 43.3945 43.3788 36.7566C42.3991 31.7947 42.9139 26.7499 44.6408 22.1365C46.3678 17.5729 49.3235 13.4242 53.2092 10.238C58.6723 5.79057 66.0284 3.25156 74.4971 4.13108C85.1079 5.22634 93.6098 9.37505 103.191 14.0382L106.678 15.7309C111.128 17.8716 115.612 20.0124 120.079 21.5723C124.462 23.099 128.962 24.1113 133.562 24.0947C138.793 24.0781 143.525 22.9828 148.507 21.4395L143.708 27.1979C140.403 28.0774 137.132 28.7412 133.579 28.7578C128.381 28.7744 123.4 27.646 118.551 25.9699C113.752 24.2938 109.186 22.1199 104.652 19.946V19.9294L101.149 18.2367C91.9492 13.7395 83.7961 9.77333 74.0156 8.76104C66.8753 8.01428 60.7313 10.1384 56.1649 13.8557C52.9269 16.4942 50.4527 19.9792 49.008 23.796C47.58 27.6128 47.1648 31.7781 47.9619 35.8604C49.0412 41.3533 52.3623 46.7135 58.473 50.8788C69.748 58.529 82.9492 60.1387 95.619 57.2844V57.2678C107.973 54.4799 119.846 47.4934 129.062 37.7522C127.451 37.6195 125.874 37.4038 124.346 37.0885C120.925 36.4081 117.837 35.3128 114.649 33.9686C109.352 31.7283 105.101 29.9361 102.709 33.8193C102.045 34.8813 101.929 36.0928 102.245 37.2046C102.46 37.9514 102.876 38.665 103.423 39.2126C105.184 40.9551 108.422 41.9673 111.079 39.8432L116.674 41.9673C110.431 49.2691 96.2998 53.6003 90.5212 44.1247C88.3625 40.5568 88.3459 35.7775 87.2998 30.8322C86.5027 27.0486 84.6097 24.1777 82.1355 22.2195C79.213 19.8796 75.4768 18.7345 71.7572 18.7014C71.093 18.7014 70.4288 18.718 69.7812 18.7843L69.3163 14.1544Z" fill="#E1EFE2"/>
<path d="M63.0552 34.8481C62.9888 34.6656 62.9223 34.4665 62.8725 34.2839C62.2747 32.3091 62.4242 30.019 63.6862 27.7455C64.6991 25.9533 66.2932 24.4266 68.3689 23.5802C70.1622 22.8501 72.3043 22.6343 74.6623 23.2317C77.3855 23.9121 79.8597 25.638 81.4538 28.2102C82.8321 30.4505 83.5129 33.3214 83.0977 36.6736C83.0313 37.188 82.9317 37.7024 82.8154 38.2169C81.2379 38.0675 79.6771 37.885 78.1494 37.6859C78.2822 37.1548 78.3984 36.6072 78.4649 36.0762C78.7472 33.8524 78.332 32.027 77.4852 30.6496C76.5719 29.1561 75.1106 28.1604 73.5165 27.7621C72.1881 27.4302 71.0423 27.5132 70.129 27.8949C69.0829 28.3098 68.2692 29.1063 67.7545 30.019C67.1733 31.0811 67.0903 32.0934 67.3393 32.9397V32.9563C67.5054 33.5371 67.8541 34.0682 68.2858 34.4665V34.4499C68.7342 34.8647 69.2822 35.1634 69.8633 35.2962C70.6272 35.4621 71.4907 35.3294 72.3043 34.7984L73.8154 37.0552C70.0792 36.4578 66.4759 35.7111 63.0552 34.8481ZM52.6271 31.6287C52.5939 30.4339 52.6603 29.2391 52.8596 28.0608C53.1419 26.4677 53.6566 24.8912 54.4205 23.4143L54.4371 23.3977C54.8854 22.5514 55.4002 21.7382 55.998 20.9748C56.6123 20.1949 57.2932 19.4813 58.0238 18.8507L61.0958 22.3356C60.581 22.8003 60.0828 23.3147 59.6677 23.8624C59.2526 24.3768 58.8707 24.9576 58.5552 25.5716C58.0238 26.5839 57.6751 27.6958 57.4758 28.8574H57.4592C57.26 30.0854 57.2267 31.3632 57.3596 32.6244H57.3762C57.3928 32.8402 57.426 33.0559 57.4592 33.2716C55.7987 32.7572 54.188 32.2096 52.6271 31.6287ZM139.057 33.1721C134.242 34.6988 128.995 35.9434 123.399 36.8893C120.343 36.2089 117.554 35.18 114.648 33.9686C109.351 31.7283 105.1 29.9361 102.709 33.8193C102.044 34.8813 101.928 36.0927 102.244 37.2046C102.41 37.802 102.709 38.3828 103.124 38.8807C101.463 38.9305 99.786 38.9637 98.0923 38.9637H97.9096C97.8598 38.7977 97.81 38.6318 97.7602 38.4658C95.9834 32.1598 100.633 26.0031 107.325 26.7333C110.114 27.032 113.186 28.2766 116.491 29.6705L117.321 30.0356C119.779 31.0645 122.469 31.9606 125.275 32.5249C130.39 33.5703 134.674 33.4708 139.473 32.6576L139.057 33.1721ZM93.5757 38.8973C91.9151 38.8475 90.2546 38.7645 88.6273 38.6815C88.1457 36.2255 87.8634 33.5537 87.2989 30.8322C86.5018 27.0486 84.6088 24.1777 82.1346 22.2195C79.2121 19.8796 75.4759 18.7345 71.7563 18.7014C71.0921 18.7014 70.4279 18.7179 69.7803 18.7843L69.3154 14.1544C70.1456 14.0714 70.9759 14.0382 71.8062 14.0382C76.5054 14.0714 81.2712 15.5483 85.0406 18.5686C88.345 21.2072 90.869 25.0074 91.8819 30.0024C92.4465 32.7572 92.7454 36.0762 93.5757 38.8973ZM47.6621 29.6042C46.1178 28.9072 44.64 28.1936 43.2451 27.4302C43.5274 25.6214 44.009 23.8458 44.64 22.1365C46.3669 17.5729 49.3226 13.4242 53.2083 10.238C58.6714 5.79057 66.0275 3.25156 74.4962 4.13108C85.107 5.22634 93.6089 9.37505 103.19 14.0382L106.677 15.7309C111.127 17.8716 115.611 20.0123 120.078 21.5723C124.461 23.099 128.961 24.1113 133.561 24.0947C138.792 24.0781 143.524 22.9828 148.506 21.4395L143.707 27.1979C140.402 28.0774 137.131 28.7412 133.578 28.7578C128.38 28.7744 123.399 27.646 118.55 25.9699C113.751 24.2938 109.185 22.1199 104.651 19.946V19.9294L101.148 18.2367C91.9483 13.7395 83.7952 9.77333 74.0147 8.76104C66.8744 8.01428 60.7305 10.1384 56.164 13.8557C52.926 16.4942 50.4518 19.9792 49.0071 23.796C48.3097 25.6712 47.8614 27.6294 47.6621 29.6042ZM96.3155 26.5009C98.2085 26.7333 99.9355 25.3891 100.185 23.4973C100.417 21.5889 99.072 19.863 97.179 19.6307C95.2694 19.3817 93.5424 20.7259 93.31 22.6343C93.0609 24.5261 94.4059 26.252 96.3155 26.5009ZM63.8522 20.5766C65.4463 20.7757 66.891 19.6473 67.0903 18.0708C67.2895 16.4776 66.1604 15.0173 64.5663 14.8182C62.9888 14.619 61.5275 15.7475 61.3282 17.3406C61.129 18.9337 62.2581 20.3774 63.8522 20.5766Z" fill="#FEFEFE"/>
<path fill-rule="evenodd" clip-rule="evenodd" d="M84.8589 48.2734C85.9548 48.2734 86.8681 49.1696 86.8681 50.2814C86.8681 51.3933 85.9548 52.2894 84.8589 52.2894C83.7463 52.2894 82.833 51.3933 82.833 50.2814C82.833 49.1696 83.7463 48.2734 84.8589 48.2734Z" fill="#125F39"/>
<path d="M112.69 133.92C105.035 133.92 97.3629 133.92 89.6912 133.92C89.6912 131.481 97.5787 135.895 94.0086 126.951L90.5713 117.375H75.1948L71.9236 126.32C69.1007 135.215 77.8185 132.095 77.3369 133.92C71.4753 133.92 65.6136 133.92 59.752 133.92C59.752 131.415 66.1118 136.625 70.2631 125.606L81.5879 94.2918C82.7669 91.0227 81.8536 89.6951 81.6543 88.3675L89.027 81.8457L103.756 122.918C104.071 123.797 104.37 124.577 104.619 125.241H104.636C104.902 125.922 105.167 126.536 105.416 127.05C108.621 135.862 112.69 131.514 112.69 133.92ZM75.6764 115.616H90.0732L83.0159 94.7897L75.6764 115.616Z" fill="white"/>
<path d="M58.3238 133.92H33.9971C34.0469 131.398 41.1373 136.161 41.0377 123.731H41.0211V92.0349H41.0377C41.0377 90.3589 40.9713 89.0479 40.8218 88.0854C40.8218 80.4683 33.9971 84.2022 33.9971 81.8457C42.1004 81.8457 50.2204 81.8457 58.3238 81.8457C58.3238 84.1026 51.582 80.7007 51.582 88.0688C51.5156 88.5666 51.4492 89.1308 51.416 89.7946C51.3828 90.4584 51.3662 91.2052 51.3828 92.0349V123.731C51.2831 136.658 58.3238 131.166 58.3238 133.92Z" fill="white"/>
<path d="M152.592 123.265L148.374 132.857L148.274 133.173L147.959 133.256C141.665 134.733 136.368 135.529 130.091 134.467C123.748 133.372 118.003 130.219 114.001 123.448C113.337 122.32 112.755 121.158 112.257 119.98C111.759 118.785 111.361 117.557 111.029 116.296C110.398 113.773 110.065 111.218 110.065 108.645H110.082C110.082 106.554 110.265 104.546 110.597 102.638C110.946 100.73 111.46 98.9208 112.124 97.2116C115.147 89.5282 120.294 85.0476 126.388 82.7907C133.844 80.0193 140.951 80.6167 149.005 82.7741L149.403 82.8736L149.453 83.2719L152.276 94.4402L151.579 94.573C147.925 76.3519 129.66 81.3967 123.316 94.3739C122.868 95.2866 122.47 96.2491 122.154 97.2282C121.822 98.2073 121.54 99.2361 121.307 100.315C121.075 101.393 120.892 102.489 120.792 103.601C120.676 104.712 120.61 105.857 120.61 107.036C120.626 108.795 120.726 110.487 120.942 112.097C121.158 113.69 121.457 115.2 121.872 116.644C126.305 131.895 144.77 141.072 151.894 123L152.592 123.265Z" fill="white"/>
</g>
<defs>
<linearGradient id="paint0_linear_149_379" x1="100" y1="67.2258" x2="99.9989" y2="-0.00196376" gradientUnits="userSpaceOnUse">
<stop stop-color="#003E27"/>
<stop offset="1" stop-color="#009846"/>
</linearGradient>
<linearGradient id="paint1_linear_149_379" x1="98.4581" y1="63.7216" x2="98.4581" y2="8.60958" gradientUnits="userSpaceOnUse">
<stop stop-color="#004028"/>
<stop offset="1" stop-color="#008842"/>
</linearGradient>
<clipPath id="clip0_149_379">
<rect width="188" height="181" fill="white"/>
</clipPath>
</defs>
</svg>
