<svg width="200" height="166" viewBox="0 0 200 166" fill="none" xmlns="http://www.w3.org/2000/svg">
<path d="M142.881 37.4985H141.46C141.179 37.4985 140.952 37.7253 140.952 38.005V57.0297C140.952 57.3094 141.179 57.5361 141.46 57.5361H142.881C143.161 57.5361 143.388 57.3094 143.388 57.0297V38.005C143.388 37.7253 143.161 37.4985 142.881 37.4985Z" fill="#3F3D56"/>
<path d="M133.627 0H69.4103C64.6387 0 60.7705 3.86059 60.7705 8.62287V156.681C60.7705 161.443 64.6387 165.304 69.4103 165.304H133.627C138.398 165.304 142.267 161.443 142.267 156.681V8.62287C142.267 3.86059 138.398 0 133.627 0Z" fill="#3F3D56"/>
<path d="M130.923 4.30566H121.575V5.42803C121.575 6.12666 121.437 6.81844 121.169 7.46386C120.901 8.10927 120.508 8.69566 120.013 9.18953C119.518 9.68341 118.93 10.0751 118.283 10.3422C117.636 10.6093 116.943 10.7465 116.243 10.7462H86.5127C85.8127 10.7465 85.1195 10.6093 84.4727 10.3422C83.8259 10.0751 83.2381 9.68341 82.743 9.18953C82.2479 8.69566 81.8551 8.10927 81.5872 7.46386C81.3192 6.81844 81.1813 6.12666 81.1813 5.42803V4.30566H72.4285C70.7119 4.30566 69.0656 4.98624 67.8518 6.19768C66.638 7.40911 65.9561 9.05217 65.9561 10.7654V154.55C65.9561 156.263 66.638 157.906 67.8518 159.118C69.0656 160.329 70.7119 161.01 72.4285 161.01H130.923C132.64 161.01 134.286 160.329 135.5 159.118C136.714 157.906 137.396 156.263 137.396 154.55V10.7765C137.397 9.92723 137.231 9.08604 136.906 8.30103C136.581 7.51602 136.105 6.8026 135.504 6.20159C134.903 5.60057 134.189 5.12376 133.403 4.79844C132.617 4.47312 131.774 4.30566 130.923 4.30566Z" fill="white"/>
<path d="M104.18 4.93652H94.5148C94.0412 4.93652 93.6572 5.31971 93.6572 5.7924V6.38576C93.6572 6.85844 94.0412 7.24163 94.5148 7.24163H104.18C104.654 7.24163 105.037 6.85844 105.037 6.38576V5.7924C105.037 5.31971 104.654 4.93652 104.18 4.93652Z" fill="#E6E8EC"/>
<path d="M108.07 7.39832C108.795 7.39832 109.382 6.81225 109.382 6.08929C109.382 5.36634 108.795 4.78027 108.07 4.78027C107.346 4.78027 106.759 5.36634 106.759 6.08929C106.759 6.81225 107.346 7.39832 108.07 7.39832Z" fill="#E6E8EC"/>
<path d="M102.016 100.068C110.531 100.068 117.433 93.1791 117.433 84.6814C117.433 76.1837 110.531 69.2949 102.016 69.2949C93.5019 69.2949 86.5996 76.1837 86.5996 84.6814C86.5996 93.1791 93.5019 100.068 102.016 100.068Z" fill="white"/>
<path d="M122.293 82.533C122.293 86.6003 121.084 90.5763 118.82 93.958C116.556 97.3398 113.338 99.9755 109.573 101.532C105.807 103.088 101.664 103.495 97.6675 102.702C93.6706 101.908 89.9992 99.9494 87.1176 97.0733C84.236 94.1972 82.2737 90.5329 81.4788 86.5437C80.6839 82.5545 81.0921 78.4197 82.6517 74.662C84.2114 70.9044 86.8525 67.6927 90.241 65.4332C93.6296 63.1736 97.6134 61.9676 101.689 61.9678C104.395 61.9679 107.074 62.4999 109.574 63.5334C112.074 64.567 114.345 66.0818 116.258 67.9915C118.172 69.9011 119.689 72.1682 120.725 74.6633C121.76 77.1583 122.293 79.8325 122.293 82.533ZM99.3068 93.4183L114.591 78.1637C114.715 78.0406 114.813 77.8943 114.88 77.7332C114.947 77.5722 114.982 77.3996 114.982 77.2252C114.982 77.0508 114.947 76.8782 114.88 76.7172C114.813 76.5561 114.715 76.4098 114.591 76.2867L112.711 74.4235C112.588 74.3001 112.441 74.2022 112.28 74.1354C112.119 74.0686 111.946 74.0342 111.772 74.0342C111.597 74.0342 111.425 74.0686 111.263 74.1354C111.102 74.2022 110.956 74.3001 110.833 74.4235L98.3666 86.8655L92.5459 81.0425C92.296 80.7945 91.9579 80.6553 91.6055 80.6553C91.2532 80.6553 90.9151 80.7945 90.6652 81.0425L88.7846 82.9305C88.5361 83.1798 88.3966 83.5172 88.3966 83.8689C88.3966 84.2206 88.5361 84.558 88.7846 84.8074L97.4266 93.4294C97.55 93.5528 97.6965 93.6508 97.8579 93.7176C98.0192 93.7845 98.1922 93.8189 98.3669 93.8189C98.5416 93.8189 98.7146 93.7845 98.876 93.7176C99.0373 93.6508 99.1839 93.5528 99.3072 93.4294L99.3068 93.4183Z" fill="#00814F"/>
<path d="M63.3224 32.5889H63.109C62.8288 32.5889 62.6016 32.8156 62.6016 33.0953V38.0123C62.6016 38.292 62.8288 38.5187 63.109 38.5187H63.3224C63.6027 38.5187 63.8298 38.292 63.8298 38.0123V33.0953C63.8298 32.8156 63.6027 32.5889 63.3224 32.5889Z" fill="#3F3D56"/>
<path d="M63.4333 43.4468H63.0641C62.7838 43.4468 62.5566 43.6735 62.5566 43.9532V53.2608C62.5566 53.5405 62.7838 53.7672 63.0641 53.7672H63.4333C63.7135 53.7672 63.9407 53.5405 63.9407 53.2608V43.9532C63.9407 43.6735 63.7135 43.4468 63.4333 43.4468Z" fill="#3F3D56"/>
<path d="M63.389 57.3789H63.0865C62.8063 57.3789 62.5791 57.6057 62.5791 57.8854V67.2816C62.5791 67.5613 62.8063 67.788 63.0865 67.788H63.389C63.6693 67.788 63.8965 67.5613 63.8965 67.2816V57.8854C63.8965 57.6057 63.6693 57.3789 63.389 57.3789Z" fill="#3F3D56"/>
<path d="M46.2549 84.9038C46.2901 84.9377 46.3353 84.9594 46.3839 84.9656C46.4324 84.9718 46.4817 84.9623 46.5243 84.9383C46.4333 84.9397 46.3426 84.9281 46.2549 84.9038Z" fill="url(#paint0_linear_1025_121)"/>
<path d="M56.4402 88.8804L56.1743 90.3258L55.9691 91.4316L55.596 93.4543L51.9776 95.9826C51.9776 95.9826 51.6515 95.7039 51.1134 95.2647C49.6306 94.0461 46.5139 91.5648 44.2253 90.2327C43.6366 89.8583 42.9997 89.5654 42.332 89.3621L56.4402 88.8804Z" fill="#FEB9B9"/>
<path d="M53.7853 89.9554C53.7853 89.9554 58.0042 90.6781 58.2512 88.8799C58.4983 87.0817 56.0797 86.1099 54.03 85.9889C51.9802 85.8679 39.678 86.7117 39.678 86.7117C39.678 86.7117 37.508 89.6002 45.3452 90.0836L53.7853 89.9554Z" fill="#3F3D56"/>
<path d="M63.0118 30.6177H40.9414V56.7371H63.0118V30.6177Z" fill="#2F2E41"/>
<path opacity="0.1" d="M63.0118 30.7368H40.9414V56.8562H63.0118V30.7368Z" fill="black"/>
<path d="M15.0747 75.3305C14.7113 75.4219 14.2469 75.7728 13.7304 76.2802C11.506 78.478 8.32023 83.6358 8.32023 83.6358C4.24718 78.7936 8.75432 74.9678 10.6755 73.6531C11.1426 73.3348 11.4564 73.1597 11.4564 73.1597L15.0747 75.3305Z" fill="#FEB9B9"/>
<path d="M56.1975 38.8613C56.1975 38.8613 57.2833 46.4439 61.0218 48.2494C64.7602 50.0549 56.1975 53.4293 56.1975 53.4293L44.5 49.0929C44.5 49.0929 51.1335 46.9256 49.8062 40.5459L56.1975 38.8613Z" fill="#FEB9B9"/>
<path d="M43.6551 84.4795L43.3905 85.9201L43.1756 87.0301L42.8024 89.0528L39.1841 91.5786C39.1841 91.5786 38.8579 91.3024 38.3199 90.8634C36.837 89.6448 33.7206 87.1634 31.4284 85.8314C30.84 85.4564 30.203 85.1635 29.5352 84.9607L43.6551 84.4795Z" fill="#FEB9B9"/>
<path d="M40.5247 86.2563C40.5247 86.2563 44.311 86.283 44.5388 84.4798C44.7666 82.6765 42.4754 81.7098 40.5247 81.5888C38.574 81.4679 26.7221 82.3677 26.7221 82.3677C26.7221 82.3677 25.0406 85.7735 32.4956 86.2561L40.5247 86.2563Z" fill="#2F2E41"/>
<path d="M67.0723 114.585C66.9067 114.504 66.741 114.42 66.5779 114.339L66.1329 113.779L60.2978 106.394V106.522C60.2584 107.755 59.8382 117.528 56.5609 118.431C53.0638 119.393 48.8449 119.635 46.9217 113.135C44.9985 106.635 41.4846 92.4324 37.876 91.589L43.244 87.1959C43.244 87.1959 46.7981 91.3448 48.2462 95.3161C48.1919 95.0695 45.7376 83.6242 47.7518 81.5991H65.3627C65.3627 81.5991 68.0814 89.3272 69.9447 93.1554C71.3955 96.1277 73.5728 103.155 74.9748 107.911C76.3627 112.607 71.4863 116.753 67.0723 114.585Z" fill="#3F3D56"/>
<path opacity="0.1" d="M66.5702 83.7571C63.8515 85.3629 51.9167 84.7091 48.034 84.4477L46.9761 84.3712C46.8624 84.3712 46.9934 84.3071 46.9934 84.3071L47.1022 83.2143L49.9964 75.8735L65.4926 66.9048C65.1786 67.8496 65.0749 69.295 65.0997 70.9502C65.1713 76.2683 66.5702 83.7571 66.5702 83.7571Z" fill="black"/>
<path d="M66.5704 83.3946C63.8517 85.0004 51.9169 84.3467 48.0341 84.0853L46.9763 84.0112L46.8008 83.9963L46.9936 83.947L47.9475 83.7004L49.9963 75.5161L65.4926 66.5498C65.1788 67.4946 65.0749 68.9401 65.0997 70.5952C65.1715 75.9082 66.5704 83.3946 66.5704 83.3946Z" fill="#EFEFEF"/>
<path opacity="0.1" d="M65.0904 70.5901C61.9392 71.3153 55.0043 73.443 52.3399 78.582C50.563 82.0033 49.0677 83.4709 48.0247 84.085L46.9668 84.0109C46.9737 83.9899 46.9795 83.9685 46.9841 83.9468L47.938 83.7002L49.9868 75.5159L65.4831 66.5498C65.1729 67.4895 65.0656 68.935 65.0904 70.5901Z" fill="black"/>
<path opacity="0.1" d="M11.4567 73.1655L15.075 75.3313C14.7116 75.4226 14.2471 75.7736 13.7306 76.281C13.429 75.4027 11.5369 74.1769 10.6758 73.6541C11.1427 73.3407 11.4567 73.1655 11.4567 73.1655Z" fill="black"/>
<path opacity="0.1" d="M46.3213 84.1517C46.2816 84.1723 46.2365 84.1801 46.1922 84.1739C46.1479 84.1677 46.1067 84.1479 46.0742 84.1172C46.1545 84.1406 46.2377 84.1523 46.3213 84.1517Z" fill="black"/>
<path d="M54.5101 47.7684C54.5101 47.7684 51.2527 48.1285 48.9617 45.7212C48.9617 45.7212 39.3225 48.4912 36.0581 54.749C32.7936 61.0068 10.6016 73.2858 10.6016 73.2858C10.6016 73.2858 14.4621 75.4516 14.0987 76.5344L28.6929 68.1084C28.6929 68.1084 33.8829 64.3788 35.3239 63.5353C36.7649 62.6918 44.7329 57.5168 46.421 71.5989C48.109 85.681 46.421 83.9962 46.421 83.9962C46.421 83.9962 48.8332 84.8399 52.3303 78.0984C55.8275 71.3569 66.6798 69.7931 66.6798 69.7931L67.2828 62.694C67.2828 62.694 69.4355 57.9876 67.7771 56.0341C67.2747 55.4557 66.9405 54.7511 66.8108 53.9966C66.5365 52.1935 66.8108 49.1891 70.6514 46.693C76.5608 42.84 78.8518 39.7124 78.8518 39.7124C78.8518 39.7124 78.9728 37.4234 75.3546 36.3404C71.7365 35.2574 57.0236 29.3599 57.0236 29.3599L56.5292 31.4071L68.1379 39.5841C68.1379 39.5841 62.3497 44.2706 57.7577 44.1572C57.7575 44.1572 58.6102 47.6475 54.5101 47.7684Z" fill="#00814F"/>
<path opacity="0.1" d="M56.7434 42.1619C56.4582 41.1971 56.2353 40.215 56.0762 39.2217L49.6849 40.9069C49.9666 42.1246 49.9163 43.3954 49.5391 44.5871C50.8458 44.9351 52.2263 44.8906 53.5078 44.4593C54.7893 44.0279 55.9148 43.2287 56.7434 42.1619Z" fill="black"/>
<path d="M51.4348 44.4584C55.2308 44.4584 58.3081 41.3871 58.3081 37.5986C58.3081 33.81 55.2308 30.7388 51.4348 30.7388C47.6388 30.7388 44.5615 33.81 44.5615 37.5986C44.5615 41.3871 47.6388 44.4584 51.4348 44.4584Z" fill="#FEB9B9"/>
<path opacity="0.1" d="M58.9121 92.8438C58.9121 92.8438 62.8912 100.668 61.6851 103.073L58.9121 92.8438Z" fill="black"/>
<path d="M55.0902 21.7553C56.9981 21.9725 58.8098 22.7888 60.6882 23.2353C61.1577 23.381 61.6574 23.3997 62.1365 23.2895C62.8656 23.065 63.4587 22.3029 64.215 22.325C64.6804 22.3399 65.0923 22.6557 65.4754 22.9589C66.0898 23.4282 66.668 23.9427 67.2054 24.4981C68.5004 25.9016 69.3036 27.7911 70.4849 29.318C71.6662 30.8449 73.351 32.6353 75.0291 31.9352C73.8874 36.3751 70.3267 39.1526 66.2811 39.429C64.6673 39.5396 63.0138 39.2045 61.4518 39.6756C61.0628 39.8348 60.6519 39.9345 60.2331 39.9715C59.3334 39.9715 58.6092 39.1477 58.0482 38.346C56.7333 36.4615 55.6929 34.323 54.2125 32.6037C53.7181 32.034 53.1473 31.4937 52.4552 31.3902C51.7632 31.2867 51.1281 31.6171 50.5128 31.9354C49.497 32.4608 48.4591 33.0033 47.6707 33.9087C46.8822 34.8142 46.3854 36.1508 46.7116 37.3621C46.8871 38.0183 47.2878 38.6103 47.2948 39.2959C47.3097 40.391 46.3409 41.1903 46.1506 42.2558C46.1076 42.7034 46.0919 43.1532 46.1036 43.6027C46.0196 45.0623 45.0621 46.2565 44.065 47.1768C43.6745 47.5319 43.2451 47.9168 43.1307 48.4668C43.0541 48.8441 43.1307 49.2408 43.0813 49.6236C42.9355 50.5708 41.9889 51.0519 41.151 51.1753C40.1721 51.3199 39.1723 51.2016 38.2544 50.8325C39.426 50.2796 40.1477 48.7063 39.8758 47.2977C39.5026 45.3441 37.5354 43.9406 37.7042 41.9526C37.7967 41.3427 37.98 40.7499 38.248 40.194C38.6767 39.1197 38.9883 38.0025 39.1773 36.8616C39.3256 35.981 39.3974 35.0461 39.1204 34.2051C38.8733 33.4403 38.3568 32.8313 37.9191 32.1848C37.3261 31.3054 36.8579 30.3483 36.5278 29.3408C36.4082 29.0419 36.3626 28.7186 36.3948 28.3984C36.4939 28.0202 36.705 27.6807 37.0004 27.424C38.0756 26.2961 39.2248 25.1251 40.6658 24.802C41.3533 24.6881 42.0525 24.6615 42.7467 24.723C43.9541 24.7608 45.1626 24.7097 46.3624 24.57C47.3509 24.4541 49.0215 24.4689 49.8595 23.83C50.6404 23.2329 51.0805 22.4832 52.0418 22.1034C53.0153 21.7433 54.0617 21.6239 55.0915 21.7556L55.0902 21.7553Z" fill="#2F2E41"/>
<path d="M182.803 164.893C188.31 164.893 192.774 164.14 192.774 163.211C192.774 162.281 188.31 161.528 182.803 161.528C177.297 161.528 172.833 162.281 172.833 163.211C172.833 164.14 177.297 164.893 182.803 164.893Z" fill="#00814F"/>
<path d="M186.927 160.459C187.382 160.088 187.713 159.588 187.877 159.026C188.001 158.459 187.758 157.787 187.212 157.568C186.602 157.335 185.949 157.759 185.456 158.184C184.964 158.61 184.395 159.097 183.748 159.006C184.081 158.705 184.331 158.324 184.472 157.898C184.614 157.473 184.642 157.018 184.555 156.578C184.526 156.396 184.448 156.225 184.329 156.083C183.992 155.722 183.376 155.875 182.973 156.162C181.683 157.066 181.324 158.816 181.317 160.386C181.185 159.82 181.297 159.228 181.292 158.654C181.287 158.08 181.131 157.416 180.637 157.112C180.333 156.949 179.991 156.869 179.645 156.88C179.065 156.858 178.42 156.917 178.024 157.34C177.528 157.865 177.662 158.746 178.088 159.32C178.515 159.894 179.167 160.263 179.767 160.661C180.247 160.947 180.656 161.337 180.964 161.802C181 161.867 181.03 161.936 181.052 162.008H184.675C185.492 161.595 186.249 161.074 186.927 160.459L186.927 160.459Z" fill="#00814F"/>
<path d="M47.2459 165.636C50.8799 165.636 53.8258 165.139 53.8258 164.525C53.8258 163.912 50.8799 163.415 47.2459 163.415C43.6119 163.415 40.666 163.912 40.666 164.525C40.666 165.139 43.6119 165.636 47.2459 165.636Z" fill="#EFEFEF"/>
<path d="M49.9668 162.709C50.2667 162.465 50.4852 162.135 50.5935 161.764C50.6412 161.577 50.6237 161.381 50.544 161.206C50.4642 161.031 50.327 160.888 50.1549 160.802C49.7523 160.648 49.322 160.927 48.9965 161.208C48.6709 161.489 48.296 161.811 47.869 161.751C48.0888 161.552 48.2533 161.3 48.3465 161.02C48.4397 160.739 48.4584 160.439 48.4008 160.149C48.3817 160.028 48.3302 159.915 48.2519 159.822C48.0303 159.584 47.6235 159.685 47.3569 159.874C46.506 160.471 46.2687 161.625 46.2638 162.662C46.1772 162.288 46.2507 161.898 46.2474 161.519C46.2441 161.14 46.1411 160.702 45.8153 160.502C45.6144 160.394 45.3886 160.341 45.1607 160.348C44.7778 160.333 44.3524 160.373 44.0905 160.652C43.7632 160.998 43.8516 161.58 44.133 161.959C44.4144 162.337 44.8447 162.581 45.241 162.843C45.5577 163.031 45.8278 163.288 46.0314 163.595C46.0559 163.638 46.0756 163.683 46.0903 163.731H48.481C49.0201 163.458 49.5199 163.114 49.9668 162.708V162.709Z" fill="#EFEFEF"/>
<path d="M10.034 165.636C13.668 165.636 16.6139 165.139 16.6139 164.525C16.6139 163.912 13.668 163.415 10.034 163.415C6.40002 163.415 3.4541 163.912 3.4541 164.525C3.4541 165.139 6.40002 165.636 10.034 165.636Z" fill="#EFEFEF"/>
<path d="M12.7549 162.709C13.0547 162.465 13.2732 162.135 13.3816 161.764C13.4293 161.577 13.4118 161.381 13.332 161.206C13.2523 161.031 13.115 160.888 12.943 160.802C12.5404 160.648 12.1101 160.927 11.7845 161.208C11.459 161.489 11.0841 161.811 10.6571 161.751C10.8769 161.552 11.0414 161.3 11.1346 161.02C11.2278 160.739 11.2465 160.439 11.1889 160.149C11.1697 160.028 11.1183 159.915 11.04 159.822C10.8184 159.584 10.4116 159.685 10.145 159.874C9.2941 160.471 9.05678 161.625 9.0519 162.662C8.96526 162.288 9.03882 161.898 9.0355 161.519C9.03217 161.14 8.92915 160.702 8.60341 160.502C8.40249 160.394 8.17673 160.341 7.94882 160.348C7.56591 160.333 7.14047 160.373 6.87855 160.652C6.55126 160.998 6.63967 161.58 6.92109 161.959C7.20251 162.337 7.63283 162.581 8.02904 162.843C8.34574 163.031 8.61589 163.288 8.81945 163.595C8.84397 163.638 8.86373 163.683 8.87839 163.731H11.2691C11.8082 163.458 12.308 163.114 12.7549 162.708V162.709Z" fill="#EFEFEF"/>
<path d="M200 165.002H0V165.405H200V165.002Z" fill="#2F2E41"/>
<path d="M190.237 11.1736C190.237 11.1736 169.359 9.91635 171.819 24.5175C171.819 24.5175 171.323 27.0986 173.673 28.2692C173.673 28.2692 173.711 27.1877 175.816 27.5564C176.565 27.6804 177.327 27.7169 178.085 27.6652C179.107 27.5981 180.08 27.2011 180.857 26.5342C180.857 26.5342 186.726 24.1139 189.007 14.5416C189.007 14.5416 190.696 12.453 190.629 11.9158L187.105 13.4179C187.105 13.4179 188.31 15.9546 187.353 18.0622C187.353 18.0622 187.239 13.5086 186.562 13.6077C186.426 13.6276 184.732 14.4861 184.732 14.4861C184.732 14.4861 186.803 18.9035 185.241 22.116C185.241 22.116 185.833 16.6716 184.085 14.8054L181.606 16.2507C181.606 16.2507 184.026 20.8142 182.384 24.5387C182.384 24.5387 182.805 18.8269 181.082 16.6021L178.836 18.3517C178.836 18.3517 181.11 22.8482 179.724 25.9373C179.724 25.9373 179.543 19.29 178.35 18.7878C178.35 18.7878 176.383 20.5201 176.083 21.2278C176.083 21.2278 177.64 24.4945 176.673 26.2169C176.673 26.2169 176.081 21.7871 175.595 21.7623C175.595 21.7623 173.636 24.6973 173.432 26.7118C173.432 26.7118 173.517 23.7198 175.121 21.4852C175.121 21.4852 173.227 21.8094 172.121 23.0333C172.121 23.0333 172.426 20.9595 175.605 20.7764C175.605 20.7764 177.224 18.5492 177.655 18.4156C177.655 18.4156 174.496 18.1502 172.579 18.9997C172.579 18.9997 174.265 17.0422 178.235 17.933L180.455 16.124C180.455 16.124 176.294 15.5571 174.528 16.1835C174.528 16.1835 176.559 14.4512 181.052 15.7133L183.468 14.2729C183.468 14.2729 179.919 13.5106 177.807 13.778C177.807 13.778 180.038 12.5777 184.177 13.8795L185.912 13.1054C185.912 13.1054 183.314 12.5957 182.552 12.514C181.791 12.4324 181.752 12.2246 181.752 12.2246C183.398 11.9506 185.088 12.1383 186.634 12.7666C186.634 12.7666 190.299 11.4038 190.237 11.1736Z" fill="#00814F"/>
<path d="M161.631 3.44334C161.631 3.44334 152.208 2.87652 153.309 9.47426C153.309 9.47426 153.088 10.64 154.147 11.1694C154.147 11.1694 154.165 10.6745 155.117 10.8452C155.455 10.902 155.799 10.9186 156.141 10.8947C156.603 10.8642 157.043 10.6834 157.393 10.3799C157.393 10.3799 160.046 9.28606 161.077 4.96025C161.077 4.96025 161.839 4.01746 161.809 3.77485L160.217 4.45292C160.217 4.45292 160.76 5.59872 160.333 6.55146C160.333 6.55146 160.281 4.49471 159.976 4.54204C159.914 4.54204 159.148 4.94012 159.148 4.94012C159.148 4.94012 160.085 6.93716 159.379 8.3875C159.379 8.3875 159.646 5.92758 158.856 5.08365L157.735 5.74712C157.735 5.74712 158.828 7.80851 158.087 9.49151C158.087 9.49151 158.278 6.9104 157.499 5.90569L156.485 6.69765C156.485 6.69765 157.512 8.7294 156.887 10.1256C156.887 10.1256 156.803 7.12116 156.264 6.89359C156.264 6.89359 155.377 7.6756 155.24 7.99738C155.24 7.99738 155.944 9.48222 155.508 10.2518C155.508 10.2518 155.24 8.24972 155.012 8.23932C155.012 8.23932 154.127 9.56626 154.035 10.4666C154.079 9.62669 154.343 8.81291 154.799 8.10575C154.288 8.20232 153.817 8.44577 153.443 8.80615C153.443 8.80615 153.582 7.86823 155.017 7.78662C155.017 7.78662 155.761 6.77948 155.945 6.71755C155.945 6.71755 154.516 6.59879 153.651 6.98294C153.651 6.98294 154.412 6.09942 156.205 6.50037L157.197 5.68365C157.197 5.68365 155.315 5.43374 154.518 5.7093C154.518 5.7093 155.435 4.92729 157.466 5.49655L158.557 4.84569C158.557 4.84569 156.953 4.50179 155.998 4.62453C155.998 4.62453 157.007 4.08248 158.877 4.66876L159.658 4.31978C159.658 4.31978 158.484 4.08956 158.138 4.0524C157.792 4.01525 157.776 3.92126 157.776 3.92126C158.52 3.79767 159.285 3.88336 159.983 4.16873C159.983 4.16873 161.66 3.5464 161.631 3.44334Z" fill="#3F3D56"/>
<path d="M16.3251 104.166C16.3251 104.166 6.90266 103.599 8.00352 110.197C8.00352 110.197 7.78193 111.363 8.84158 111.892C8.84158 111.892 8.85886 111.397 9.81103 111.568C10.1492 111.625 10.4929 111.641 10.835 111.617C11.2975 111.587 11.7373 111.406 12.0872 111.103C12.0872 111.103 14.7403 110.009 15.7718 105.683C15.7718 105.683 16.533 104.74 16.5031 104.498L14.9111 105.176C14.9111 105.176 15.4543 106.321 15.0277 107.274C15.0277 107.274 14.9756 105.217 14.6707 105.265C14.6087 105.265 13.8424 105.663 13.8424 105.663C13.8424 105.663 14.7798 107.66 14.0731 109.11C14.0731 109.11 14.3408 106.65 13.5499 105.806L12.4291 106.47C12.4291 106.47 13.5227 108.531 12.7812 110.214C12.7812 110.214 12.9722 107.633 12.1936 106.628L11.1793 107.42C11.1793 107.42 12.206 109.452 11.5811 110.848C11.5811 110.848 11.4969 107.844 10.9587 107.616C10.9587 107.616 10.071 108.398 9.93446 108.72C9.93446 108.72 10.6387 110.205 10.2024 110.974C10.2024 110.974 9.93446 108.972 9.70644 108.962C9.70644 108.962 8.82119 110.289 8.72945 111.189C8.77379 110.349 9.03707 109.536 9.49327 108.828C8.98243 108.925 8.511 109.168 8.13692 109.529C8.13692 109.529 8.27586 108.591 9.71154 108.509C9.71154 108.509 10.4554 107.502 10.6389 107.44C10.6389 107.44 9.21075 107.321 8.34522 107.706C8.34522 107.706 9.10638 106.822 10.8993 107.223L11.8911 106.406C11.8911 106.406 10.0098 106.156 9.21207 106.432C9.21207 106.432 10.1295 105.65 12.1603 106.219L13.2514 105.568C13.2514 105.568 11.6471 105.224 10.6925 105.347C10.6925 105.347 11.7016 104.805 13.5714 105.391L14.3525 105.042C14.3525 105.042 13.1781 104.812 12.8324 104.775C12.4867 104.738 12.4703 104.644 12.4703 104.644C13.2147 104.52 13.9788 104.606 14.6772 104.891C14.6772 104.891 16.3541 104.269 16.3251 104.166Z" fill="#3F3D56"/>
<defs>
<linearGradient id="paint0_linear_1025_121" x1="46.391" y1="84.9679" x2="46.391" y2="84.9038" gradientUnits="userSpaceOnUse">
<stop stop-color="#808080" stop-opacity="0.251"/>
<stop offset="0.54" stop-color="#808080" stop-opacity="0.122"/>
<stop offset="1" stop-color="#808080" stop-opacity="0.102"/>
</linearGradient>
</defs>
</svg>
