<svg width="203" height="155" viewBox="0 0 203 155" fill="none" xmlns="http://www.w3.org/2000/svg">
<g clip-path="url(#clip0_1025_1224)">
<path opacity="0.1" d="M200 44.9613C199.964 45.1262 199.931 45.291 199.892 45.4541C198.678 51.0578 196.693 56.4577 193.741 61.4168C193.643 61.5816 193.545 61.7465 193.445 61.9114C191.499 65.102 189.171 68.0426 186.511 70.668C185.041 72.1203 183.438 73.5004 181.531 74.4952C178.859 75.8919 175.736 76.4588 172.666 76.9219C169.478 77.4054 166.245 77.8092 163.021 78.2445C161.876 78.3964 160.737 78.5576 159.605 78.728C156.491 79.1893 153.399 79.7228 150.381 80.4305C146.65 81.303 143.034 82.4459 139.618 84.0539C139.346 84.1774 139.076 84.3083 138.809 84.4466C138.543 84.58 138.274 84.7152 138.011 84.8523C137.748 84.9894 137.489 85.1264 137.232 85.2672C137.099 85.3395 136.965 85.4117 136.834 85.4877C136.702 85.5636 136.573 85.6303 136.445 85.7044C136.06 85.9193 135.682 86.1397 135.304 86.362L135.29 86.3713C135.04 86.5177 134.793 86.6677 134.549 86.8178C133.153 87.6662 131.787 88.5517 130.42 89.4427L129.561 89.9984L128.23 90.8598C127.971 91.0284 127.706 91.197 127.445 91.3637C127.26 91.486 127.075 91.6082 126.873 91.7342C125.903 92.3455 124.919 92.9457 123.91 93.5181C123.672 93.6552 123.431 93.7923 123.188 93.9257C121.15 95.0636 119.018 96.0254 116.815 96.8007L116.786 96.8118C115.678 97.1985 114.548 97.5177 113.401 97.7677C112.74 97.9122 112.077 98.0307 111.407 98.1215C109.616 98.3756 107.799 98.4012 106.001 98.1974C102.47 97.788 99.1614 96.432 95.6324 95.9745C88.3672 95.0482 81.3111 98.0326 74.4791 100.37C72.7991 100.945 71.1069 101.482 69.4023 101.984C68.2692 102.319 67.1323 102.636 65.9863 102.942C58.9646 104.798 51.7983 106.055 44.5644 106.7C41.5405 106.997 38.4984 107.064 35.4643 106.902C34.3108 106.832 33.1703 106.717 32.0502 106.532C28.2176 105.939 24.6442 104.696 21.7595 102.419C19.397 100.55 17.7066 98.1141 16.4198 95.5651C15.1026 92.9641 14.1725 90.1844 13.6592 87.3142C13.5889 86.9233 13.5259 86.5306 13.4741 86.1379C13.3815 85.4661 13.3124 84.7905 13.2667 84.1113C13.0176 80.4909 13.4497 76.8558 14.5405 73.3948C15.7625 69.5194 17.7992 65.7997 18.6953 61.8947C18.7323 61.7292 18.7675 61.5643 18.8008 61.4001C18.9232 60.807 19.0141 60.2078 19.073 59.605C19.5303 54.8072 17.777 50.1297 16.4013 45.4374C16.3532 45.2744 16.305 45.1095 16.2587 44.9446C16.1106 44.4235 15.9687 43.9029 15.8329 43.383C14.5591 38.4221 14.2054 33.1111 15.3404 28.1595C15.3756 27.9946 15.4181 27.8297 15.4589 27.6667C16.2187 24.5367 17.6475 21.6087 19.647 19.0842C21.7725 16.4167 24.5627 14.1956 27.5436 12.2449C28.9964 11.294 30.4986 10.4054 32.0502 9.57923C33.161 8.98644 34.2991 8.42515 35.4643 7.89534C44.8051 3.63467 55.4605 1.55436 65.9974 2.01377C66.5528 2.03785 67.1083 2.06749 67.6637 2.10824C68.2192 2.149 68.8265 2.19716 69.4078 2.25088C76.1954 2.91036 82.7997 4.50163 89.3577 6.24109C91.5554 6.82462 93.7495 7.42296 95.9416 8.0102C96.9174 8.26954 97.8913 8.52889 98.867 8.78082C103.646 10.0164 108.495 11.1353 113.405 11.9708C114.542 12.1671 115.68 12.3462 116.819 12.508C120.775 13.0896 124.762 13.428 128.759 13.5213C130.313 13.5522 131.868 13.5386 133.423 13.4805C134.208 13.4521 134.994 13.4095 135.78 13.3527C143.899 12.7803 151.746 10.8648 159.605 9.07536C160.742 8.81602 161.881 8.56038 163.021 8.30844C164.517 7.9787 166.013 7.66008 167.517 7.36554C176.872 5.52604 185.212 6.5838 193.91 10.3795C195.887 11.2409 197.863 12.282 199.074 13.8992C200.285 15.5164 200.588 17.5022 200.814 19.4195C201.134 22.1501 201.344 24.9158 201.423 27.6963C201.423 27.8594 201.423 28.0242 201.434 28.1891C201.56 33.8058 201.142 39.4762 200 44.9613Z" fill="#00814F"/>
<path opacity="0.1" d="M137.941 61.4171H137.33V61.6357V61.9117H138.023L137.941 61.4171ZM131.011 61.4171C131.01 61.4214 131.01 61.4258 131.011 61.43C130.995 61.5653 130.976 61.7005 130.958 61.8376V61.8746V61.9117H136.253V61.882L136.623 61.4171H131.011ZM116.82 61.4171V45.4544H122.911C122.846 45.4118 122.78 45.3673 122.711 45.3266L122.622 45.2691L122.507 45.1987C122.441 45.1598 122.374 45.1209 122.304 45.0839C122.233 45.0468 122.191 45.0209 122.132 44.9894L122.091 44.9672H122.082H116.82V44.0873L116.677 44.1428L116.527 44.2132H116.516L116.484 44.2299L116.39 44.2799L116.296 44.3299C116.203 44.38 116.11 44.4355 116.018 44.493L115.929 44.5522L115.744 44.6708C115.505 44.8301 115.27 44.9968 115.027 45.1524C114.966 45.1913 114.905 45.2302 114.842 45.2654C114.711 45.3432 114.576 45.4173 114.437 45.484C114.377 45.5137 114.32 45.5396 114.252 45.5637L114.152 45.6026L114.059 45.6341C113.842 45.7097 113.619 45.7679 113.392 45.8082V61.4134H104.259C104.259 61.4319 104.272 61.4467 104.278 61.4652C104.328 61.6134 104.378 61.7598 104.426 61.908H113.405V79.0173C113.452 79.0173 113.499 79.0173 113.544 79.0173L113.705 79.0266L113.996 79.0433L114.461 79.0989L114.674 79.1192L114.905 79.1433H114.94L115.349 79.1933L115.437 79.2044L115.635 79.2322L115.918 79.273L116.597 79.2433L116.69 79.26C116.727 79.26 116.766 79.2711 116.805 79.2785V61.9117H130.939V61.8746V61.8376C130.958 61.7005 130.976 61.5653 130.993 61.43C130.992 61.4258 130.992 61.4214 130.993 61.4171H116.82ZM137.941 61.4171H137.33V61.6357V61.9117H138.023L137.941 61.4171ZM130.63 61.4171C130.608 61.5819 130.587 61.7468 130.565 61.9117H136.47L136.871 61.4171H130.63ZM116.82 61.4171V45.4544H122.911C122.846 45.4118 122.78 45.3673 122.711 45.3266L122.622 45.2691L122.507 45.1987C122.441 45.1598 122.374 45.1209 122.304 45.0839C122.233 45.0468 122.191 45.0209 122.132 44.9894L122.091 44.9672H122.078H116.82V44.0873L116.677 44.1428L116.527 44.2132H116.516L116.484 44.2299L116.39 44.2799L116.296 44.3299C116.203 44.38 116.11 44.4355 116.018 44.493L115.929 44.5522L115.744 44.6708C115.505 44.8301 115.27 44.9968 115.027 45.1524C114.966 45.1913 114.905 45.2302 114.842 45.2654C114.711 45.3432 114.576 45.4173 114.437 45.484C114.377 45.5137 114.32 45.5396 114.252 45.5637L114.152 45.6026L114.059 45.6341C113.842 45.7097 113.619 45.7679 113.392 45.8082V61.4134H104.259C104.259 61.4319 104.272 61.4467 104.278 61.4652C104.328 61.6116 104.379 61.7598 104.428 61.908H113.405V79.0155H113.544L113.705 79.0248L113.996 79.0414L114.461 79.0989L114.674 79.1192L114.905 79.1433H114.94L115.349 79.1933L115.437 79.2044L115.635 79.2322L115.918 79.273L116.597 79.2433L116.69 79.26C116.727 79.26 116.766 79.2711 116.805 79.2785V61.9117H130.569C130.591 61.7468 130.611 61.5819 130.634 61.4171H116.82ZM163.022 28.1765H201.435C201.435 28.0116 201.435 27.8467 201.424 27.6837H163.022V8.30321C161.881 8.5502 160.743 8.80584 159.606 9.07013V27.6837H117.829L117.723 27.5892L117.882 27.4484L133.422 13.4771C131.867 13.5364 130.312 13.55 128.758 13.5179L116.818 24.2511V12.5083C115.677 12.3465 114.539 12.1674 113.404 11.9711V23.7102L95.9458 8.01052C93.7536 7.42329 91.5596 6.82494 89.3619 6.24141L113.104 27.5892L112.998 27.6837H69.4138V2.26788C68.8325 2.21354 68.2511 2.16599 67.6697 2.12524C67.1143 2.08448 66.5588 2.05484 66.0034 2.03076V27.6837H35.4648V7.91234C34.3119 8.44091 33.1738 9.0022 32.0506 9.59623V27.6837H15.4593C15.4186 27.8467 15.376 28.0116 15.3408 28.1765H32.0506V44.9616H16.2592C16.3055 45.1265 16.3536 45.2914 16.4017 45.4544H32.0506V61.4171H18.8013C18.7679 61.5813 18.7328 61.7462 18.6957 61.9117H32.0506V106.543C33.1615 106.715 34.3113 106.836 35.4648 106.914V61.9117H65.9978V102.949C67.1439 102.644 68.2807 102.327 69.4138 101.992V61.9117H113.405V97.7662C114.552 97.5162 115.682 97.1969 116.79 96.8103L116.82 96.7992V61.9117H159.606V78.7284C160.741 78.5616 161.88 78.4017 163.022 78.2486V61.9117H193.446C193.546 61.7468 193.644 61.5819 193.742 61.4171H163.022V45.4544H199.893C199.931 45.2914 199.965 45.1265 200 44.9616H163.022V28.1765ZM35.4648 28.1765H65.9978V44.9616H35.4648V28.1765ZM35.4648 61.4171V45.4544H65.9978V61.4171H35.4648ZM69.4138 28.1765H113.405V44.9616H69.4138V28.1765ZM69.4138 61.4171V45.4544H113.405V61.4171H69.4138ZM159.606 61.4171H116.82V45.4544H159.606V61.4171ZM159.606 44.9616H116.82V28.6266L117.419 28.1765H159.606V44.9616ZM131.011 61.4171C131.01 61.4214 131.01 61.4258 131.011 61.43C130.995 61.5653 130.976 61.7005 130.958 61.8376V61.8746V61.9117H136.253V61.882L136.623 61.4171H131.011ZM137.941 61.4171H137.33V61.6357V61.9117H138.023L137.941 61.4171ZM116.82 61.4171V45.4544H122.911C122.846 45.4118 122.78 45.3673 122.711 45.3266L122.622 45.2691L122.507 45.1987C122.441 45.1598 122.374 45.1209 122.304 45.0839C122.233 45.0468 122.191 45.0209 122.132 44.9894L122.091 44.9672H122.082H116.82V44.0873L116.677 44.1428L116.527 44.2132H116.516L116.484 44.2299L116.39 44.2799L116.296 44.3299C116.203 44.38 116.11 44.4355 116.018 44.493L115.929 44.5522L115.744 44.6708C115.505 44.8301 115.27 44.9968 115.027 45.1524C114.966 45.1913 114.905 45.2302 114.842 45.2654C114.711 45.3432 114.576 45.4173 114.437 45.484C114.377 45.5137 114.32 45.5396 114.252 45.5637L114.152 45.6026L114.059 45.6341C113.842 45.7097 113.619 45.7679 113.392 45.8082V61.4134H104.259C104.259 61.4319 104.272 61.4467 104.278 61.4652C104.328 61.6134 104.378 61.7598 104.426 61.908H113.405V79.0173C113.452 79.0173 113.499 79.0173 113.544 79.0173L113.705 79.0266L113.996 79.0433L114.461 79.0989L114.674 79.1192L114.905 79.1433H114.94L115.349 79.1933L115.437 79.2044L115.635 79.2322L115.918 79.273L116.597 79.2433L116.69 79.26C116.727 79.26 116.766 79.2711 116.805 79.2785V61.9117H130.939V61.8746V61.8376C130.958 61.7005 130.976 61.5653 130.993 61.43C130.992 61.4258 130.992 61.4214 130.993 61.4171H116.82Z" fill="#00814F"/>
<path opacity="0.1" d="M50.145 16.6207H50.4098C50.3225 16.5837 50.2466 16.5243 50.1897 16.4485C50.1328 16.3727 50.0969 16.2832 50.0858 16.189V16.189C50.0858 15.8482 50.595 15.5703 51.2171 15.5703H59.1341C59.7562 15.5703 60.2635 15.8482 60.2635 16.189C60.2635 16.528 59.7562 16.8078 59.1341 16.8078H58.8693C58.9566 16.8441 59.0327 16.903 59.0897 16.9786C59.1466 17.0541 59.1824 17.1435 59.1933 17.2375C59.1933 17.5284 58.823 17.7729 58.3287 17.8377H60.6079C61.2281 17.8377 61.7373 18.1156 61.7373 18.4565C61.7373 18.7973 61.2281 19.0752 60.6079 19.0752H52.689C52.0687 19.0752 51.5596 18.7955 51.5596 18.4565C51.5596 18.1656 51.9299 17.9229 52.4242 17.8563H50.145C49.5229 17.8563 49.0156 17.5784 49.0156 17.2375C49.0156 16.8967 49.5229 16.6207 50.145 16.6207Z" fill="#00814F"/>
<path opacity="0.1" d="M135.951 22.5054H136.215C136.129 22.4682 136.053 22.4087 135.996 22.3329C135.94 22.2571 135.904 22.1678 135.893 22.0738V22.0738C135.893 21.7329 136.401 21.4551 137.023 21.4551H144.94C145.562 21.4551 146.071 21.7329 146.071 22.0738C146.071 22.4128 145.562 22.6907 144.94 22.6907H144.677C144.764 22.7279 144.839 22.7874 144.896 22.8632C144.952 22.939 144.988 23.0283 144.999 23.1223C144.999 23.4131 144.629 23.6577 144.134 23.7225H146.414C147.036 23.7225 147.543 24.0004 147.543 24.3412C147.543 24.6821 147.036 24.9599 146.414 24.9599H138.497C137.874 24.9599 137.365 24.6802 137.365 24.3412C137.365 24.0504 137.736 23.8059 138.23 23.741H135.951C135.33 23.741 134.821 23.4632 134.821 23.1223C134.821 22.7814 135.33 22.5054 135.951 22.5054Z" fill="#00814F"/>
<path opacity="0.1" d="M37.9936 47.6919H38.2565C38.1694 47.6549 38.0938 47.5954 38.0372 47.5196C37.9806 47.4438 37.9451 47.3543 37.9343 47.2603V47.2603C37.9343 46.9213 38.4435 46.6416 39.0637 46.6416H46.9826C47.6028 46.6416 48.112 46.9213 48.112 47.2603C48.112 47.6012 47.6028 47.879 46.9826 47.879H46.7178C46.8049 47.9154 46.8807 47.9745 46.9374 48.05C46.994 48.1256 47.0294 48.2149 47.04 48.3088C47.04 48.5997 46.6697 48.8442 46.1753 48.909H48.4545C49.0766 48.909 49.5858 49.1887 49.5858 49.5277C49.5858 49.8667 49.0766 50.1465 48.4545 50.1465H40.5449C39.9228 50.1465 39.4155 49.8686 39.4155 49.5277C39.4155 49.2387 39.7858 48.9942 40.2802 48.9275H37.9936C37.3715 48.9275 36.8623 48.6497 36.8623 48.3088C36.8623 47.968 37.3789 47.6919 37.9936 47.6919Z" fill="#00814F"/>
<path opacity="0.1" d="M187.068 113.705C188.398 107.194 172.114 98.3652 150.698 93.9862C129.281 89.6072 110.842 91.3359 109.512 97.8473C108.182 104.359 124.465 113.187 145.882 117.566C167.298 121.945 185.738 120.216 187.068 113.705Z" fill="#00814F"/>
<path d="M143.818 71.9831C143.818 71.9831 145.924 61.6445 153.961 62.6022C153.961 62.6022 159.515 62.9838 160.658 66.6221V74.6636L143.818 71.9831Z" fill="#3A3768"/>
<path d="M187.834 75.8141L116.26 69.877L107.075 71.7924L107.649 84.6207L108.275 84.6967L108.988 103.96L179.221 116.596L186.686 110.277V89.3945L187.641 88.8332L187.834 75.8141Z" fill="#D48A9B"/>
<path opacity="0.05" d="M187.93 75.814L187.737 88.8331L179.987 92.4713L179.891 78.8761L187.93 75.814Z" fill="black"/>
<path opacity="0.05" d="M186.685 89.4077L186.78 109.896L179.316 116.215L179.796 92.4717L186.685 89.4077Z" fill="black"/>
<path opacity="0.05" d="M108.371 85.4636L179.854 94.1906L179.891 92.5345L108.317 84.8115L108.371 85.4636Z" fill="black"/>
<path opacity="0.05" d="M186.685 90.1598V89.4077L179.604 92.5347V94.1945L186.685 90.1598Z" fill="black"/>
<path d="M106.979 71.7924L116.164 69.877L187.737 75.8141L179.7 78.8762L106.979 71.7924Z" fill="#EFC6CD"/>
<path opacity="0.1" d="M180.113 76.1826L183.625 76.4123L177.804 78.1555L174.84 77.9425L180.113 76.1826Z" fill="black"/>
<path d="M180.113 76.0288L183.625 76.2585L177.804 78.0035L174.84 77.7886L180.113 76.0288Z" fill="white"/>
<path d="M179.692 76.4237C179.831 76.3644 179.978 76.4774 180.126 76.5052C180.211 76.5219 180.298 76.5052 180.383 76.5219C180.555 76.5441 180.726 76.659 180.89 76.6015" fill="#D3DAE1"/>
<path d="M179.512 76.5289C179.649 76.4696 179.797 76.5807 179.945 76.6104C180.03 76.6252 180.117 76.6104 180.202 76.6252C180.374 76.6493 180.545 76.7641 180.71 76.7067" fill="#D3DAE1"/>
<path d="M179.093 76.7403C179.232 76.681 179.38 76.7922 179.528 76.82C179.611 76.8366 179.7 76.82 179.783 76.8366C179.957 76.8607 180.128 76.9756 180.291 76.9163" fill="#D3DAE1"/>
<path opacity="0.1" d="M164.93 74.4526L168.443 74.6842L162.621 76.4274L159.657 76.2125L164.93 74.4526Z" fill="black"/>
<path d="M164.93 74.3008L168.443 74.5305L162.621 76.2737L159.657 76.0606L164.93 74.3008Z" fill="white"/>
<path d="M164.511 74.6949C164.65 74.6356 164.796 74.7467 164.944 74.7764C165.029 74.7912 165.116 74.7764 165.201 74.7912C165.374 74.8153 165.544 74.9301 165.709 74.8727" fill="#D3DAE1"/>
<path d="M164.329 74.8008C164.466 74.7416 164.614 74.8527 164.762 74.8805C164.848 74.8972 164.935 74.8805 165.02 74.8972C165.192 74.9213 165.362 75.0361 165.527 74.9768" fill="#D3DAE1"/>
<path d="M163.91 75.0101C164.049 74.9508 164.197 75.0638 164.345 75.0916C164.429 75.1083 164.517 75.0916 164.601 75.1083C164.775 75.1305 164.945 75.2472 165.108 75.188" fill="#D3DAE1"/>
<path opacity="0.1" d="M172.213 75.3179L175.727 75.5476L169.906 77.2926L166.939 77.0777L172.213 75.3179Z" fill="black"/>
<path d="M172.213 75.1655L175.727 75.3952L169.906 77.1384L166.939 76.9235L172.213 75.1655Z" fill="white"/>
<path d="M171.792 75.5601C171.931 75.5009 172.079 75.612 172.227 75.6398C172.31 75.6564 172.397 75.6398 172.483 75.6564C172.655 75.6787 172.827 75.7954 172.99 75.7361" fill="#D3DAE1"/>
<path d="M171.61 75.6639C171.749 75.6046 171.897 75.7177 172.045 75.7454C172.129 75.7621 172.216 75.7454 172.301 75.7621C172.473 75.7843 172.645 75.9011 172.808 75.8418" fill="#D3DAE1"/>
<path d="M171.194 75.8755C171.331 75.8163 171.479 75.9274 171.628 75.9571C171.713 75.9719 171.8 75.957 171.885 75.9719C172.057 75.996 172.227 76.1108 172.392 76.0534" fill="#D3DAE1"/>
<path opacity="0.1" d="M92.6923 147.286C113.397 147.286 130.181 143.829 130.181 139.565C130.181 135.301 113.397 131.844 92.6923 131.844C71.9876 131.844 55.2031 135.301 55.2031 139.565C55.2031 143.829 71.9876 147.286 92.6923 147.286Z" fill="#00814F"/>
<path d="M133.746 76.3364C133.346 72.8204 131.763 69.4656 131.763 69.4656L131.883 68.2801C131.883 68.2801 131.909 67.6873 131.87 66.7981C131.875 66.2429 131.947 65.6904 132.087 65.1531C132.411 64.125 131.682 62.8616 131.6 62.7449C131.519 62.6282 131.641 60.3737 130.911 59.2678C130.182 58.1619 125.324 56.1057 125.324 56.1057C125.324 56.1057 125.063 55.5592 124.694 54.9201L124.727 54.8552C124.426 54.3081 124.052 53.804 123.617 53.3566C123.318 53.038 123.031 52.8564 122.8 52.9454C122.706 52.6379 122.634 52.324 122.585 52.0062C122.633 52.0191 122.683 52.0321 122.731 52.0414C122.932 52.0879 123.14 52.0929 123.342 52.0562C123.794 51.9543 124.094 51.5486 124.346 51.167C125.601 49.2589 126.683 47.1657 126.903 44.9075C126.962 44.4466 126.94 43.9789 126.838 43.5256C126.734 43.1731 126.589 42.8342 126.405 42.516C126.08 41.8629 125.669 41.2567 125.183 40.7135C124.318 39.8021 123.126 39.2445 121.9 38.9148C120.519 38.5433 119.081 38.4358 117.66 38.598C117.29 38.6406 116.92 38.7018 116.549 38.7258C116.08 38.7465 115.609 38.7385 115.14 38.7018L112.717 38.561L112.706 38.5239L112.302 38.4998C112.143 38.8166 112.302 39.1927 112.5 39.489C112.698 39.7854 112.926 40.0948 112.909 40.4449C112.893 40.795 112.639 41.0766 112.441 41.3712C112.243 41.6657 112.093 42.051 112.291 42.34C112.319 42.38 112.352 42.4161 112.389 42.4474C112.598 42.6642 112.963 42.6883 113.28 42.6846H113.335C112.538 43.7352 112.107 45.0184 112.108 46.3376C112.113 47.465 112.428 48.5691 113.019 49.529C113.61 50.489 114.453 51.2678 115.457 51.7802C115.492 51.9006 115.527 52.0247 115.561 52.1506C115.928 53.4518 116.059 54.8081 115.949 56.1557L115.907 56.2483L115.881 56.1501C115.881 56.1501 113.026 58.0878 112.178 58.6009C111.33 59.1141 110.478 60.8535 110.438 61.3278C110.397 61.802 109.06 68.9544 109.06 68.9544C108.788 69.6749 108.564 70.4125 108.39 71.1625L106.685 72.6611C106.685 72.6611 103.167 72.9779 102.148 72.7408L102.178 72.9371C101.28 72.732 100.365 72.608 99.4452 72.5667C98.9426 72.502 98.4319 72.5704 97.964 72.7649L97.9288 72.7815L97.901 72.7945C97.365 72.8678 96.8416 73.0149 96.3458 73.2317C96.2865 73.2558 96.2328 73.2799 96.181 73.3039L96.1921 73.0613L92.3854 72.8649L90.4414 72.4703C90.4414 72.4703 89.7526 71.9146 89.3471 71.9961C88.9416 72.0776 88.0918 71.5219 88.0918 71.5219C87.8979 71.3699 87.6881 71.2394 87.466 71.1329C87.4012 70.6846 87.3605 70.4122 87.3605 70.4122C87.3605 70.4122 85.8478 64.4066 84.7147 60.8758C83.9556 58.5176 82.8632 57.3561 82.2189 56.8503C81.9319 56.3502 81.743 56.0279 81.743 56.0279C81.619 55.5944 80.9376 54.6181 80.7636 54.594C80.7358 54.5496 80.7154 54.5274 80.7043 54.5274C80.6671 54.5234 80.6295 54.5291 80.5951 54.544C80.2766 52.9583 80.0915 50.9706 80.5784 49.2386C81.245 48.6905 81.7822 48.0017 82.1516 47.2216C82.521 46.4414 82.7134 45.5892 82.7151 44.726C82.7151 44.7 82.7151 44.6741 82.7151 44.6482C82.7151 44.6222 82.7151 44.5944 82.7151 44.5685C82.7147 43.1918 82.2274 41.8597 81.3394 40.808L81.2764 40.7376C81.2933 40.7257 81.3094 40.7127 81.3246 40.6987C81.4637 40.5858 81.5697 40.4373 81.6313 40.2691C81.6929 40.1008 81.7078 39.9189 81.6745 39.7428C81.5912 39.3872 81.3135 39.1074 81.1709 38.7703C81.0853 38.5108 81.0166 38.2459 80.9654 37.9774C80.8563 37.5961 80.6561 37.2471 80.3822 36.9604L80.4099 37.0345C79.6842 36.2176 78.4362 35.8119 77.3124 35.9934C76.4774 36.1268 75.6997 36.5158 74.861 36.6363C74.2593 36.7215 73.6464 36.6659 73.041 36.727C72.4792 36.7848 71.9324 36.9429 71.4265 37.1938C71.2943 37.2501 71.177 37.3364 71.0839 37.4458C70.9978 37.5924 70.94 37.7539 70.9136 37.9219C70.7081 38.6721 70.0564 39.2075 69.5842 39.8336C69.0449 40.549 68.7327 41.4099 68.6881 42.3048C68.6697 42.5322 68.6916 42.7612 68.7529 42.9809C68.7936 43.1125 68.8566 43.2366 68.8862 43.37C68.9788 43.7775 68.7659 44.1832 68.6622 44.587C68.5316 45.1022 68.5779 45.6463 68.7936 46.132C69.525 47.7696 71.9264 48.316 72.4263 50.0351C72.8088 50.211 73.2128 50.3356 73.6279 50.4056C73.6612 50.576 73.6909 50.7483 73.7149 50.9225C73.7037 50.9272 73.6931 50.9335 73.6835 50.941C73.0354 51.5727 72.8743 52.7935 72.8743 52.7935L72.7966 52.8564C72.5318 53.075 71.6264 53.8086 70.8081 54.3736C69.836 55.046 68.216 57.2986 67.0829 57.9711C65.9497 58.6435 65.0166 62.7875 65.261 64.2935C65.5054 65.7996 66.5163 70.0232 66.1108 71.5645C65.7053 73.1057 66.7181 80.1395 66.7181 80.1395C67.3977 80.269 68.0627 80.4664 68.7029 80.7286L68.6826 81.0361L68.6215 81.9624C68.6215 81.9624 66.7866 88.6016 67.4883 93.7125C68.1901 98.8235 67.1643 99.3496 67.1643 99.3496C67.1643 99.3496 67.3791 101.615 66.8403 102.406C66.3015 103.197 66.1923 104.935 66.1923 104.935C66.1923 104.935 66.1386 108.834 66.246 109.936C66.3534 111.039 66.4071 113.047 66.0294 113.521C65.6517 113.995 64.9499 117.102 65.0036 118.05C65.0573 118.999 63.6539 121.161 64.4093 123.952C65.1647 126.744 62.1875 126.798 62.1875 126.798C62.1875 126.798 62.5671 131.058 63.3762 132.277L63.4947 132.451C63.4743 132.522 63.4539 132.596 63.4317 132.675C63.1262 133.787 62.7078 135.541 62.9985 135.965C63.4299 136.599 63.6465 136.491 63.6465 136.491L63.8076 139.337C63.8076 139.337 67.0477 142.077 69.5324 141.973C72.0171 141.869 71.5302 139.337 71.5302 139.337L69.4139 133.846L69.3417 133.661L71.6931 129.215C71.6931 129.215 72.3411 127.266 72.5022 126.581C72.6633 125.895 73.5427 123.467 73.5427 123.467C73.5427 123.467 75.7645 118.198 75.8108 117.565C75.8571 116.931 76.0274 113.51 76.4588 112.823C76.8902 112.135 78.0789 108.191 78.0789 108.191L78.1085 108.217C78.3102 108.416 78.4542 108.665 78.5253 108.939C78.5964 109.212 78.5919 109.5 78.5122 109.772C78.24 110.772 78.4029 112.826 78.4029 112.826C78.4029 112.826 78.2955 114.566 78.0789 115.462C77.8623 116.359 77.8104 123.682 78.1881 125.419C78.4899 126.811 78.4807 129.415 78.4659 130.401C78.2122 131.447 77.99 132.748 78.4029 132.901C79.1065 133.166 82.6706 133.113 82.6706 133.113C82.6706 133.113 84.1814 132.585 86.2348 134.43C88.2881 136.275 94.6035 133.904 94.6035 133.904C94.6035 133.904 96.5476 133.376 92.7131 131.849C90.0377 130.784 88.3103 130.075 87.1809 129.315C87.2068 129.265 87.2346 129.215 87.2586 129.161C87.2586 129.161 85.6923 127.679 86.9883 125.053C88.2844 122.426 88.2307 120.205 88.2307 120.205L88.4473 111.352L87.7993 99.5997L87.2975 87.266L87.3864 87.2363C87.4716 89.5037 87.9141 94.9018 90.2303 93.8552C93.1464 92.5381 90.6617 89.1129 90.6617 89.1129L89.3527 86.5602L89.7433 86.4268L88.2788 81.6919C88.1383 80.7678 88.1196 79.8292 88.2233 78.9002C88.2523 78.3568 88.2411 77.8119 88.1899 77.2701C90.1081 76.9348 91.9448 76.5791 92.2743 76.6606C92.6632 76.7551 94.8387 76.7736 95.6941 76.7773C95.4145 76.9959 95.1904 77.2126 95.1904 77.2126L98.6731 79.5579C98.6731 79.5579 99.8544 78.9114 100.101 78.2259C100.343 78.1646 100.567 78.0451 100.752 77.8777C100.789 78.6872 101.004 79.5634 101.752 79.5838C101.939 79.5877 102.125 79.5511 102.297 79.4764L107.992 78.3482L107.503 81.4029L107.844 82.0087C107.671 84.5854 107.473 87.3215 107.299 89.7279L107.22 90.254L107.26 90.2633C106.99 93.9682 106.773 96.7747 106.773 96.7747C107.092 96.1665 107.587 95.6687 108.194 95.3464L108.231 100.845C108.231 100.845 108.516 109.538 108.516 110.724C108.516 111.909 108.555 114.556 108.555 114.556C108.555 114.556 109.164 117.796 109.527 118.863C109.889 119.93 110.175 124.791 110.175 124.791C110.175 124.791 111.026 126.134 110.662 126.644C110.297 127.153 112.08 128.263 112.08 128.263C112.08 128.263 110.945 129.804 110.863 130.832C110.854 130.951 110.971 131.077 111.182 131.203C111.115 131.256 111.047 131.31 110.971 131.362C110.445 131.714 109.675 131.959 108.516 131.858C105.355 131.581 103.128 134.506 105.072 135.098C107.016 135.691 112.848 135.81 112.848 135.81C112.848 135.81 114.615 134.708 115.996 135.204C115.975 136.364 116.033 137.427 116.042 137.568L116.025 137.581C115.2 138.322 113.618 139.596 112.074 140.117C109.852 140.867 109.36 143.911 112.235 144.305C115.111 144.7 119.323 143.831 119.323 143.831C119.323 143.831 121.509 142.212 123.17 141.856C124.831 141.501 126.249 140.71 125.966 139.761C125.781 139.155 125.305 137.568 124.983 136.501C124.964 136.437 124.946 136.375 124.927 136.316C124.977 136.204 125.027 136.09 125.074 135.971C125.074 135.971 124.224 131.545 124.913 130.44C125.601 129.334 125.237 118.267 125.237 118.267C125.237 118.267 124.061 115.462 124.67 113.764C125.279 112.065 123.698 109.653 123.698 109.653C123.698 109.653 123.87 104.82 124.333 102.126C124.354 102.012 124.374 101.9 124.394 101.793C125.169 101.563 125.924 101.271 126.653 100.92C126.653 100.92 127.058 94.8333 127.301 93.4513C127.325 93.3217 127.358 93.1123 127.399 92.84L127.584 91.8638L127.803 90.7523L128.543 86.964L129.88 85.2338L133.324 81.7141C133.324 81.7141 134.152 79.8543 133.746 76.3364ZM80.6377 54.6015L80.6118 54.62C80.6078 54.6066 80.6047 54.593 80.6025 54.5792C80.6133 54.5881 80.6251 54.5955 80.6377 54.6015V54.6015ZM114.663 58.9158L114.529 59.2067L115.016 58.7213L114.355 59.4623L114.577 58.9955L114.663 58.9158ZM111.374 65.7144C111.247 66.0534 111.11 66.4202 110.967 66.8018L111.228 66.0219L111.374 65.7144Z" fill="url(#paint0_linear_1025_1224)"/>
<path d="M100.748 76.7975C100.748 76.7975 100.295 79.8189 101.656 79.8578C103.016 79.8967 103.925 77.5274 103.925 77.5274L103.37 75.6323L100.748 76.7975Z" fill="#585B8A"/>
<path opacity="0.2" d="M100.748 76.7975C100.748 76.7975 100.295 79.8189 101.656 79.8578C103.016 79.8967 103.925 77.5274 103.925 77.5274L103.37 75.6323L100.748 76.7975Z" fill="black"/>
<path d="M70.2666 142.197C67.8448 142.303 64.6862 139.565 64.6862 139.565L64.5288 136.721C64.5288 136.721 64.3196 136.827 63.8974 136.195C63.6142 135.771 64.0215 134.013 64.3196 132.907C64.464 132.366 64.5825 131.981 64.5825 131.981L69.8963 133.404L70.1499 134.076L72.2125 139.563C72.2125 139.563 72.6865 142.092 70.2666 142.197Z" fill="#636992"/>
<path d="M94.6826 134.143C94.6826 134.143 88.5263 136.512 86.536 134.669C84.5456 132.826 83.0626 133.352 83.0626 133.352C83.0626 133.352 79.5891 133.405 78.9041 133.14C78.5005 132.987 78.7189 131.67 78.9707 130.621C79.1411 129.897 79.3262 129.298 79.3262 129.298C79.3262 129.298 85.3769 127.244 86.3249 128.507C86.6096 128.879 86.95 129.204 87.334 129.471C88.43 130.264 90.1427 130.982 92.8514 132.088C96.5766 133.615 94.6826 134.143 94.6826 134.143Z" fill="#636992"/>
<path d="M89.1585 86.0176L90.8415 89.3872C90.8415 89.3872 93.2633 92.8106 90.4212 94.1258C87.5792 95.4411 87.6329 86.5455 87.6329 86.5455L89.1585 86.0176Z" fill="#FFD6D6"/>
<path d="M82.1055 56.7969C82.1055 56.7969 83.9477 57.6398 85.0531 61.1668C86.1584 64.6939 87.6322 70.6978 87.6322 70.6978C87.6322 70.6978 88.632 77.4889 88.4728 79.1746C88.3715 80.103 88.3895 81.0406 88.5265 81.9644L89.9466 86.703L87.1045 87.7034L82.7368 70.9608L82.1055 56.7969Z" fill="#DCE6F2"/>
<path opacity="0.05" d="M82.1055 56.7969C82.1055 56.7969 83.9477 57.6398 85.0531 61.1668C86.1584 64.6939 87.6322 70.6978 87.6322 70.6978C87.6322 70.6978 88.632 77.4889 88.4728 79.1746C88.3715 80.103 88.3895 81.0406 88.5265 81.9644L89.9466 86.703L87.1045 87.7034L82.7368 70.9608L82.1055 56.7969Z" fill="black"/>
<path opacity="0.1" d="M69.8967 133.405L70.1504 134.078L69.8393 134.672C68.6284 135.198 65.629 134.778 65.629 134.778C65.629 134.778 65.0736 134.072 64.3145 132.911C64.4589 132.37 64.5774 131.984 64.5774 131.984L69.8967 133.405Z" fill="black"/>
<path opacity="0.1" d="M87.5265 129.719C85.9917 133.198 80.7741 131.907 79.3244 131.471C79.0856 131.399 78.9541 131.351 78.9541 131.351C78.9541 131.351 78.9634 131.068 78.9671 130.621C79.1374 129.897 79.3225 129.298 79.3225 129.298C79.3225 129.298 85.3732 127.244 86.3212 128.507C86.606 128.879 86.9463 129.204 87.3303 129.471C87.3882 129.559 87.4539 129.642 87.5265 129.719V129.719Z" fill="black"/>
<path d="M87.2619 125.297C85.9991 127.928 87.5266 129.404 87.5266 129.404C85.9917 132.881 80.7742 131.592 79.3245 131.155C79.0857 131.084 78.9542 131.036 78.9542 131.036C78.9542 131.036 79.0597 127.402 78.6913 125.664C78.3228 123.927 78.3747 116.609 78.5857 115.715C78.7968 114.82 78.9005 113.08 78.9005 113.08C78.9005 113.08 78.7431 111.028 79.006 110.027C79.0852 109.757 79.0905 109.471 79.0214 109.198C78.9524 108.925 78.8116 108.675 78.6135 108.475L78.5857 108.447C78.5857 108.447 77.4286 112.397 77.0064 113.079C76.5843 113.76 76.4288 117.185 76.3751 117.817C76.3214 118.449 74.1644 123.715 74.1644 123.715C74.1644 123.715 73.3238 126.137 73.1664 126.82C73.009 127.504 72.3758 129.454 72.3758 129.454L69.8393 134.352C68.6284 134.878 65.629 134.458 65.629 134.458C65.629 134.458 65.0513 133.717 64.2607 132.509C63.4701 131.301 63.1035 127.035 63.1035 127.035C63.1035 127.035 65.9974 126.981 65.2605 124.191C64.5236 121.402 65.8919 119.242 65.84 118.293C65.7882 117.345 66.4714 114.24 66.8398 113.766C67.2083 113.292 67.1546 111.291 67.0491 110.185C66.9435 109.079 66.9972 105.183 66.9972 105.183C66.9972 105.183 67.1028 103.446 67.6286 102.657C68.1544 101.867 67.9452 99.6018 67.9452 99.6018C67.9452 99.6018 68.9431 99.0757 68.2599 93.9685C67.5767 88.8612 69.3708 82.2275 69.3708 82.2275L69.4319 81.3013L69.5282 79.8008C69.5282 79.8008 84.5791 78.8523 85.7899 80.0101C86.1064 80.3315 86.3662 80.7042 86.5583 81.1123C86.9726 82.0034 87.2653 82.9461 87.4285 83.9151L88.0599 99.8686L88.6912 111.61L88.4802 120.455C88.4802 120.455 88.5264 122.663 87.2619 125.297Z" fill="#565988"/>
<path opacity="0.1" d="M82.7999 93.811L81.2206 128.033L79.3247 131.153C79.0858 131.083 78.9544 131.034 78.9544 131.034C78.9544 131.034 79.0599 127.4 78.6915 125.662C78.323 123.925 78.3748 116.607 78.5859 115.713C78.797 114.818 78.9007 113.079 78.9007 113.079C78.9007 113.079 78.7433 111.026 79.0062 110.026C79.0853 109.755 79.0906 109.469 79.0216 109.196C78.9526 108.923 78.8117 108.673 78.6137 108.473L78.6396 108.288L82.7999 93.811Z" fill="black"/>
<path opacity="0.1" d="M65.7922 130.562C65.7922 130.562 69.8969 128.93 70.5283 129.45C71.1596 129.971 65.6885 130.765 65.6885 130.765L65.7922 130.562Z" fill="black"/>
<path opacity="0.1" d="M86.0533 126.244C85.896 126.297 81.8967 127.726 82.2652 129.245C82.6336 130.764 86.0533 126.244 86.0533 126.244Z" fill="black"/>
<path d="M73.5557 48.3477C73.5557 48.3477 74.8962 51.5858 74.187 53.2456C73.4779 54.9054 81.843 57.7471 81.843 57.7471C81.843 57.7471 79.3971 51.4283 81.7652 47.8734C84.1333 44.3186 73.5557 48.3477 73.5557 48.3477Z" fill="#FFD6D6"/>
<path d="M122.535 142.091C120.917 142.447 118.786 144.066 118.786 144.066C118.786 144.066 114.681 144.935 111.878 144.54C109.075 144.146 109.551 141.104 111.721 140.354C113.226 139.835 114.768 138.555 115.574 137.821C115.929 137.494 116.14 137.266 116.14 137.266L123.996 135.686C123.996 135.686 124.124 136.125 124.302 136.73C124.616 137.799 125.081 139.385 125.259 139.989C125.535 140.947 124.154 141.736 122.535 142.091Z" fill="#505484"/>
<path d="M120.523 136.01C120.523 136.01 117.207 136.365 115.825 135.576C114.444 134.787 112.47 136.05 112.47 136.05C112.47 136.05 106.786 135.932 104.892 135.339C102.998 134.746 105.168 131.819 108.247 132.101C109.369 132.203 110.128 131.956 110.641 131.604C111.177 131.237 111.55 130.677 111.684 130.041L118.349 130.436L119.275 132.799L120.523 136.01Z" fill="#505484"/>
<path opacity="0.1" d="M119.376 133.877C119.376 133.877 111.629 132.61 110.641 131.604C111.176 131.237 111.55 130.677 111.683 130.041L118.348 130.436L119.274 132.799L119.376 133.877Z" fill="black"/>
<path d="M107.892 89.5336L107.971 101.102C107.971 101.102 108.247 109.79 108.247 110.976C108.247 112.161 108.286 114.805 108.286 114.805C108.286 114.805 108.878 118.043 109.234 119.11C109.589 120.177 109.865 125.038 109.865 125.038C109.865 125.038 110.695 126.381 110.339 126.89C109.984 127.4 111.72 128.509 111.72 128.509C111.72 128.509 110.61 130.051 110.537 131.077C110.465 132.103 119.376 133.561 119.376 133.561L115.905 97.9438L113.141 89.0205L107.892 89.5336Z" fill="#575988"/>
<path opacity="0.1" d="M107.892 89.5336L107.971 101.102C107.971 101.102 108.247 109.79 108.247 110.976C108.247 112.161 108.286 114.805 108.286 114.805C108.286 114.805 108.878 118.043 109.234 119.11C109.589 120.177 109.865 125.038 109.865 125.038C109.865 125.038 110.695 126.381 110.339 126.89C109.984 127.4 111.72 128.509 111.72 128.509C111.72 128.509 110.61 130.051 110.537 131.077C110.465 132.103 119.376 133.561 119.376 133.561L115.905 97.9438L113.141 89.0205L107.892 89.5336Z" fill="black"/>
<path opacity="0.1" d="M124.301 136.74C121.722 142.892 115.588 138.144 115.588 138.144C115.588 138.144 115.588 138.025 115.573 137.821C115.929 137.494 116.14 137.266 116.14 137.266L123.996 135.686C123.996 135.686 124.123 136.134 124.301 136.74Z" fill="black"/>
<path d="M124.39 136.208C121.863 142.692 115.588 137.827 115.588 137.827C115.588 137.827 115.39 134.471 115.786 132.931C116.182 131.392 115.351 126.77 115.351 126.77C115.351 126.77 114.877 122.663 114.444 121.716C114.011 120.77 114.049 118.873 114.049 118.715C114.049 118.558 114.207 117.293 113.851 116.424C113.496 115.555 113.296 113.423 113.296 113.423C113.296 113.423 113.296 110.422 112.94 108.645L111.717 102.532L109.506 90.0133L110.196 89.8947L122.57 87.7236C122.57 87.7236 124.899 99.5794 124.109 100.795C123.938 101.061 123.788 101.645 123.664 102.397C123.213 105.087 123.044 109.916 123.044 109.916C123.044 109.916 124.583 112.324 123.992 114.023C123.401 115.722 124.547 118.525 124.547 118.525C124.547 118.525 124.903 129.582 124.231 130.688C123.559 131.794 124.39 136.208 124.39 136.208Z" fill="#575988"/>
<path d="M123.205 55.3761C123.205 55.3761 111.996 63.2731 114.522 59.3237C115.882 57.1971 115.632 54.4887 115.099 52.4436C114.83 51.4034 114.457 50.3926 113.988 49.426C113.988 49.426 123.512 45.3728 122.25 49.0054C121.954 49.8518 121.828 50.7482 121.879 51.6434C121.955 52.9889 122.415 54.2845 123.205 55.3761V55.3761Z" fill="#D28690"/>
<path d="M103.023 73.4614C103.023 73.4614 98.2872 72.0924 97.4985 73.4355C96.7097 74.7785 97.7355 77.7258 99.1648 78.2C100.594 78.6742 103.875 76.5939 103.875 76.5939L103.023 73.4614Z" fill="#D28690"/>
<path d="M108.445 71.1328L106.471 72.9501C106.471 72.9501 103.036 73.265 102.05 73.0279C102.05 73.0279 102.959 79.1095 101.655 79.8597L109.628 78.2407L108.445 71.1328Z" fill="#585B8A"/>
<path opacity="0.1" d="M108.445 71.1328L106.471 72.9501C106.471 72.9501 103.036 73.265 102.05 73.0279C102.05 73.0279 102.959 79.1095 101.655 79.8597L109.628 78.2407L108.445 71.1328Z" fill="black"/>
<path opacity="0.1" d="M83.1052 45.0298C83.1052 46.602 82.481 48.1098 81.3699 49.2215C80.2587 50.3332 78.7517 50.9577 77.1804 50.9577C74.1402 49.4961 71.2556 48.3069 71.2556 45.0298C71.2241 44.2323 71.3539 43.4366 71.6372 42.6904C71.9205 41.9443 72.3515 41.263 72.9043 40.6876C73.4572 40.1121 74.1205 39.6543 74.8545 39.3416C75.5885 39.0289 76.378 38.8677 77.1758 38.8677C77.9735 38.8677 78.7631 39.0289 79.4971 39.3416C80.2311 39.6543 80.8944 40.1121 81.4472 40.6876C82.0001 41.263 82.4311 41.9443 82.7144 42.6904C82.9977 43.4366 83.1275 44.2323 83.0959 45.0298H83.1052Z" fill="black"/>
<path d="M83.1057 44.8706C83.1066 46.2647 82.6154 47.6143 81.7188 48.6815C80.8223 49.7487 79.5779 50.4648 78.2051 50.7036C76.8323 50.9424 75.4193 50.6886 74.2153 49.9869C73.0113 49.2851 72.0937 48.1806 71.6242 46.868C71.1546 45.5554 71.1634 44.1191 71.649 42.8124C72.1346 41.5057 73.0657 40.4125 74.2783 39.7256C75.4908 39.0387 76.9068 38.8022 78.2765 39.0579C79.6463 39.3135 80.8818 40.0449 81.7652 41.123C82.6304 42.1803 83.1039 43.5041 83.1057 44.8706V44.8706Z" fill="#FFD6D6"/>
<path opacity="0.1" d="M86.5582 81.1177C85.972 81.4819 85.3586 81.8003 84.7234 82.0699C84.7234 82.0699 81.7239 81.6345 81.2907 82.1477C80.8574 82.6608 77.0322 82.859 77.0322 82.859C77.0322 82.859 71.1908 82.583 70.3224 81.8328C70.0539 81.6152 69.7552 81.438 69.4355 81.3067L69.5318 79.8062C69.5318 79.8062 84.5827 78.8577 85.7935 80.0155C86.1087 80.3371 86.3673 80.7098 86.5582 81.1177Z" fill="black"/>
<path d="M87.2898 80.0561C87.1714 80.7267 84.7237 81.753 84.7237 81.753C84.7237 81.753 81.7243 81.3195 81.291 81.8326C80.8577 82.3458 77.0326 82.544 77.0326 82.544C77.0326 82.544 71.1911 82.2661 70.3227 81.5158C69.4544 80.7656 67.5196 80.4044 67.5196 80.4044C67.5196 80.4044 66.5327 73.3761 66.9289 71.8367C67.3252 70.2973 66.3365 66.07 66.0995 64.5695C65.8625 63.069 66.7697 58.9232 67.8751 58.2526C68.9804 57.582 70.5597 55.3294 71.5058 54.6588C72.3038 54.0938 73.1851 53.3621 73.4425 53.1416L73.5184 53.0787C73.5184 53.0787 73.6776 51.8542 74.309 51.2262C74.9404 50.5982 80.7411 55.2146 80.7411 55.2146C80.7411 55.2146 80.7818 55.5702 81.1762 54.8996C81.2651 54.7496 82.0297 55.8537 82.1631 56.3205C82.1631 56.3205 85.3199 61.8501 85.518 62.9893C85.7161 64.1286 86.5437 67.8465 86.7011 68.7542C86.7418 68.9876 86.8085 69.8064 86.8862 70.9031C86.901 71.118 86.914 71.3458 86.9307 71.5829C87.0473 73.4021 87.1732 75.725 87.2491 77.4812C87.2491 77.6812 87.2658 77.8739 87.2713 78.0592C87.3113 78.7241 87.3175 79.3906 87.2898 80.0561V80.0561Z" fill="#DCE6F2"/>
<path opacity="0.1" d="M67.2471 65.7998C67.2471 65.7998 69.417 68.4451 70.128 68.4451C70.839 68.4451 67.2471 65.7998 67.2471 65.7998Z" fill="black"/>
<path opacity="0.1" d="M71.8188 71.4868C71.8188 71.4868 68.2658 75.3566 68.7398 76.068C69.2138 76.7793 71.8188 71.4868 71.8188 71.4868Z" fill="black"/>
<path opacity="0.1" d="M69.2139 79.1875C69.2139 79.1875 73.2872 74.7249 73.4723 73.1855L69.2139 79.1875Z" fill="black"/>
<path opacity="0.1" d="M74.3438 79.5026C74.3438 79.5026 79.041 77.0148 79.4354 75.04C79.8297 73.0653 74.3438 79.5026 74.3438 79.5026Z" fill="black"/>
<path opacity="0.1" d="M80.3041 55.4945L79.6523 57.0728L80.7373 57.5859L81.8038 60.5684C81.8038 60.5684 84.744 66.4518 84.6255 69.5121C84.507 72.5724 85.1587 77.172 85.1587 77.172L86.8547 76.8571L86.0548 67.856C85.9303 66.4623 85.5814 65.098 85.0217 63.8158C83.6664 60.711 81.1447 54.9795 80.9854 54.9795C80.7688 54.9795 80.9206 55.0592 80.9206 55.0592L80.3041 55.4945Z" fill="black"/>
<path d="M80.4613 55.3349L79.8096 56.9151L80.8964 57.4282L81.961 60.4107C81.961 60.4107 84.9012 66.2941 84.7827 69.3544C84.6642 72.4146 85.3159 77.0143 85.3159 77.0143L87.0137 76.6994L86.212 67.6983C86.089 66.3046 85.7407 64.9401 85.1808 63.658C83.8255 60.5514 81.3037 54.8218 81.1464 54.8218C80.9279 54.8218 81.0797 54.9014 81.0797 54.9014L80.4613 55.3349Z" fill="#575989"/>
<path d="M99.6819 78.5427C98.8562 78.4797 96.8751 77.4775 96.0882 77.0607L95.7549 76.8754L95.7956 73.817C95.9902 73.7025 96.1918 73.6004 96.3992 73.5114C97.4509 73.0519 99.6079 72.4277 100.689 74.4376C102.148 77.1329 100.728 78.6131 99.6819 78.5427Z" fill="#FFD6D6"/>
<path opacity="0.1" d="M81.7647 41.123C81.6799 41.1761 81.5866 41.2143 81.4888 41.236C80.8019 41.386 80.0206 40.7951 79.4318 41.1748C79.0726 41.4082 78.9893 41.8917 78.9412 42.3178C78.8572 43.0588 78.7733 43.7948 78.6894 44.5259C78.6717 44.7862 78.6169 45.0426 78.5264 45.2873C78.2357 45.9523 77.4377 46.2654 76.7101 46.2543C76.4251 46.2746 76.1436 46.1814 75.9269 45.9949C75.7992 45.8653 75.7307 45.6837 75.5899 45.5652C74.6642 44.789 74.3828 46.6915 74.6272 47.2324C75.0197 48.116 76.4139 48.9681 75.8288 50.0907C75.7304 50.2732 75.5812 50.4231 75.3992 50.5224C74.5176 50.2461 73.7127 49.7674 73.0489 49.1244C72.3851 48.4814 71.8807 47.692 71.5762 46.8193C71.2717 45.9466 71.1754 45.0147 71.295 44.098C71.4146 43.1814 71.7468 42.3055 72.265 41.5402C72.7833 40.775 73.4732 40.1416 74.2797 39.6906C75.0863 39.2397 75.987 38.9837 76.9101 38.9432C77.8331 38.9027 78.7528 39.0787 79.5957 39.4571C80.4386 39.8356 81.1814 40.4061 81.7647 41.123Z" fill="black"/>
<path d="M75.4329 45.5577C75.5718 45.6744 75.6421 45.8559 75.7699 45.9856C75.9866 46.1719 76.268 46.2651 76.5531 46.245C77.2807 46.2561 78.0787 45.9449 78.3675 45.2761C78.4596 45.0325 78.5152 44.7765 78.5323 44.5166L78.7841 42.3085C78.8322 41.8824 78.9137 41.3989 79.2748 41.1655C79.8635 40.795 80.6449 41.3767 81.3318 41.2266C81.5794 41.1637 81.7937 41.0087 81.9313 40.7934C82.0688 40.578 82.1193 40.3183 82.0724 40.067C81.9927 39.7132 81.7224 39.4334 81.5836 39.0963C81.4994 38.8372 81.432 38.573 81.3818 38.3053C80.9985 36.8678 79.3118 36.0601 77.8454 36.3009C77.0307 36.4362 76.2735 36.8252 75.457 36.9437C74.8719 37.0289 74.2739 36.9734 73.6832 37.0364C73.1345 37.093 72.6009 37.2506 72.1095 37.5013C71.9804 37.5585 71.8664 37.6447 71.7762 37.7533C71.6923 37.8999 71.6359 38.0606 71.6096 38.2275C71.4115 38.9685 70.7745 39.515 70.3135 40.1392C69.7862 40.8575 69.4811 41.7148 69.4359 42.6049C69.4177 42.8322 69.439 43.061 69.4989 43.281C69.5377 43.4107 69.5988 43.5367 69.6285 43.67C69.7192 44.0757 69.5118 44.4814 69.41 44.8853C69.2835 45.4006 69.329 45.9432 69.5396 46.4302C70.2506 48.0659 72.5927 48.6124 73.0796 50.3297C73.5121 50.5371 73.9791 50.6627 74.4572 50.7001C74.9348 50.7094 75.4496 50.5038 75.6717 50.0796C76.255 48.9681 74.8626 48.1048 74.4701 47.2231C74.2239 46.6803 74.4997 44.7797 75.4329 45.5577Z" fill="#353045"/>
<path opacity="0.1" d="M122.259 49.0054C121.963 49.8518 121.838 50.7482 121.889 51.6434C121.604 51.886 121.293 51.1599 120.963 51.347C120.06 51.8694 119.015 53.1124 117.897 53.1124C116.927 53.113 115.971 52.8838 115.107 52.4436C114.837 51.4034 114.465 50.3926 113.996 49.426C113.996 49.426 123.522 45.3728 122.259 49.0054Z" fill="black"/>
<path d="M124.048 46.6359C124.048 47.8545 123.686 49.0457 123.01 50.0589C122.333 51.0722 121.371 51.8619 120.246 52.3282C119.121 52.7945 117.883 52.9166 116.688 52.6788C115.494 52.4411 114.396 51.8543 113.535 50.9926C112.674 50.1309 112.087 49.0331 111.85 47.8379C111.612 46.6427 111.734 45.4039 112.2 44.2781C112.666 43.1523 113.456 42.19 114.468 41.513C115.481 40.836 116.672 40.4746 117.89 40.4746C118.698 40.4744 119.499 40.6336 120.246 40.9431C120.994 41.2527 121.673 41.7065 122.245 42.2787C122.816 42.8509 123.27 43.5302 123.579 44.2778C123.889 45.0254 124.048 45.8267 124.048 46.6359Z" fill="#D28690"/>
<path d="M123.784 56.7452C123.784 56.7452 122.625 58.0086 122.468 58.1124C122.31 58.2161 118.95 72.3763 118.891 72.5412C118.831 72.7061 114.89 85.4918 114.89 85.4918L108.574 88.5984L109.102 72.9599L113.731 60.063C113.731 60.063 115.258 58.3254 115.73 57.6937C116.202 57.062 122.098 53.27 122.098 53.27L123.105 55.3466L123.784 56.7452Z" fill="#F0F3F7"/>
<path opacity="0.1" d="M122.95 55.663L115.688 60.8648L115.571 58.0083C116.045 57.3766 121.939 53.5864 121.939 53.5864L122.95 55.663Z" fill="black"/>
<path d="M123.107 55.3466L115.845 60.5483L115.732 57.6937C116.206 57.0602 122.1 53.27 122.1 53.27L123.107 55.3466Z" fill="#F0F3F7"/>
<path d="M115.49 56.4224L115.732 57.6932L114.108 59.3437L115.404 56.4409C115.404 56.4409 112.627 58.3767 111.794 58.8898C110.961 59.403 110.128 61.1406 110.096 61.6148C110.065 62.0891 108.754 69.2359 108.754 69.2359C108.754 69.2359 107.767 71.8812 108.045 72.6314C108.322 73.3817 106.545 97.0358 106.545 97.0358C106.783 96.5765 107.118 96.1751 107.529 95.8604C107.939 95.5456 108.413 95.3252 108.919 95.2149L108.285 81.2361C108.285 81.2361 109.056 71.9368 109.094 71.8182C109.133 71.6997 110.89 66.309 110.89 66.309L115.49 56.4224Z" fill="#585B8A"/>
<path opacity="0.1" d="M115.892 57.8511L115.766 60.4445C115.766 60.4445 114.009 65.9927 113.418 66.9004C112.827 67.8081 111.03 73.2191 111.03 73.2191L110.017 82.6185L108.28 83.4095L107.425 81.8331L108.847 72.756C108.847 72.756 111.53 65.0961 111.926 64.3051L113.905 60.1333L115.892 57.8511Z" fill="black"/>
<path d="M115.732 57.6934L115.608 60.2868C115.608 60.2868 113.851 65.8349 113.259 66.7426C112.666 67.6504 110.872 73.0614 110.872 73.0614L109.865 82.459L108.128 83.2481L107.26 81.6698L108.682 72.5927C108.682 72.5927 111.365 64.9309 111.759 64.1418L113.753 59.9756L115.732 57.6934Z" fill="#663D5C"/>
<path d="M95.2627 77.4884L98.6565 79.8391C98.6565 79.8391 101.05 78.4961 99.6563 77.6273C98.2621 76.7585 97.0253 76.627 96.5773 76.627C96.1292 76.627 95.2627 77.4884 95.2627 77.4884Z" fill="#D28690"/>
<path d="M97.797 73.143C97.7213 73.1901 97.6589 73.2559 97.6158 73.3341C97.5727 73.4122 97.5503 73.5002 97.5508 73.5894C97.5508 74.31 97.6323 76.2181 98.2358 75.3567C98.9764 74.3026 98.8413 73.356 99.9725 74.0396C100.676 74.4777 101.291 75.0431 101.787 75.7068L101.472 73.4431C101.472 73.4431 99.1468 72.2945 97.797 73.143Z" fill="#D28690"/>
<path opacity="0.1" d="M124.112 100.787C123.942 101.054 123.792 101.638 123.668 102.39C116.747 104.466 111.683 100.076 111.683 100.076C111.071 97.9987 110.57 95.8901 110.184 93.7591C110.06 93.0292 110.087 91.6139 110.202 89.8874L122.576 87.7163C122.576 87.7163 124.903 99.5628 124.112 100.787Z" fill="black"/>
<path d="M131.216 65.444C130.902 66.4721 131.02 68.5635 131.02 68.5635L128.178 81.9902C128.178 81.9902 126.797 92.3362 126.56 93.7182C126.323 95.1001 125.929 101.182 125.929 101.182C117.876 105.131 111.672 99.7609 111.672 99.7609C111.059 97.683 110.559 95.5737 110.172 93.4421C109.776 91.0969 110.943 81.7012 111.494 77.5276C111.659 76.292 111.77 75.514 111.77 75.514L113.842 67.8133C113.842 67.8133 116.388 61.3167 117.336 59.4216C118.284 57.5266 122.09 53.2696 122.09 53.2696C122.563 52.9695 123.318 54.0291 123.879 54.9942C124.303 55.7241 124.62 56.4021 124.62 56.4021C124.62 56.4021 129.356 58.4546 130.065 59.5513C130.774 60.648 130.657 62.908 130.737 63.0265C130.817 63.1451 131.533 64.4177 131.216 65.444Z" fill="#585B8A"/>
<path opacity="0.1" d="M120.048 60.6663C120.048 60.6663 120.404 62.7595 119.493 63.3912C118.613 64.0026 112.067 76.8828 111.659 77.6867C111.824 76.4493 111.935 75.6712 111.935 75.6712L114.007 67.9724C114.007 67.9724 116.555 61.4758 117.501 59.5789C118.447 57.6819 122.257 53.4268 122.257 53.4268C122.729 53.1267 123.483 54.1863 124.044 55.1515C123.198 56.9095 121.433 60.2328 120.048 60.6663Z" fill="black"/>
<path d="M119.891 60.509C119.891 60.509 120.245 62.6023 119.335 63.234C118.426 63.8657 111.911 76.7237 111.498 77.5276C111.663 76.292 111.774 75.514 111.774 75.514L113.846 67.8133C113.846 67.8133 116.392 61.3167 117.34 59.4216C118.287 57.5266 122.094 53.2696 122.094 53.2696C122.566 52.9695 123.322 54.0291 123.883 54.9942C123.04 56.7504 121.274 60.0756 119.891 60.509Z" fill="#585B8A"/>
<path d="M129.284 79.4248L127.056 91.0194V91.0213L126.844 92.1309V92.1327L126.364 94.628L124.318 94.1945L123.365 93.9926L110.169 91.1954L109.199 90.9898L106.984 90.5211L107.418 87.6424L107.597 86.4457L109.195 75.8311L129.284 79.4248Z" fill="#00814F"/>
<path d="M116.969 88.9019C116.969 88.9019 111.72 90.7969 112.864 93.0477C114.009 95.2984 121.35 91.3101 121.35 91.3101L116.969 88.9019Z" fill="#D28690"/>
<path opacity="0.1" d="M120.719 105.052C120.719 105.209 120.917 107.225 121.706 107.934C122.494 108.644 120.719 105.052 120.719 105.052Z" fill="black"/>
<path opacity="0.1" d="M115.431 112.199C115.431 112.199 116.377 114.805 120.126 115.872C123.875 116.939 115.431 112.199 115.431 112.199Z" fill="black"/>
<path opacity="0.1" d="M124.048 46.6356C124.048 47.7187 123.763 48.7827 123.221 49.7204C122.679 50.658 121.9 51.4361 120.961 51.9762C120.608 51.7782 120.294 51.5163 120.036 51.2038C119.767 50.8777 119.558 50.4331 119.719 50.0441C119.849 49.7311 120.191 49.5328 120.275 49.2087C120.314 49.0104 120.304 48.8055 120.245 48.6122C120.176 48.3065 120.112 48.0008 120.045 47.697C119.988 47.4377 119.886 47.132 119.628 47.0691C119.371 47.0061 119.156 47.221 118.954 47.3803C118.46 47.7711 117.512 48.036 116.918 47.7156C116.323 47.3951 116.49 46.3225 116.394 45.7427C116.393 45.6923 116.38 45.6428 116.358 45.5977C116.336 45.5526 116.304 45.5129 116.264 45.4815C116.178 45.4528 116.085 45.4464 115.996 45.463C115.675 45.463 115.418 45.1758 115.326 44.8683C115.26 44.5544 115.224 44.235 115.218 43.9143C115.183 43.5938 115.066 43.2548 114.792 43.09C114.573 42.988 114.331 42.9483 114.091 42.9751L112.93 42.9881C113.7 41.9464 114.779 41.1741 116.013 40.781C117.247 40.388 118.573 40.3942 119.803 40.7988C121.034 41.2033 122.105 41.9857 122.866 43.0345C123.626 44.0834 124.036 45.3454 124.039 46.6411L124.048 46.6356Z" fill="black"/>
<path d="M119.119 47.3807C119.32 47.2214 119.543 47.0102 119.792 47.0713C120.042 47.1324 120.15 47.4418 120.207 47.6974L120.407 48.6107C120.466 48.8046 120.477 49.01 120.439 49.2091C120.344 49.5351 120.004 49.7315 119.872 50.0445C119.711 50.4335 119.922 50.8781 120.189 51.2023C120.675 51.7887 121.347 52.1908 122.094 52.3416C122.289 52.3884 122.491 52.3929 122.688 52.3545C123.129 52.2527 123.429 51.847 123.666 51.4672C124.89 49.5592 125.943 47.4677 126.158 45.2114C126.217 44.7512 126.196 44.2843 126.095 43.8314C125.995 43.4793 125.853 43.1404 125.673 42.8218C125.358 42.1708 124.957 41.5646 124.482 41.0193C123.64 40.1116 122.477 39.554 121.283 39.2243C119.94 38.8514 118.537 38.7413 117.152 38.9001C116.782 38.9427 116.426 39.0038 116.062 39.0279C115.604 39.0492 115.145 39.0418 114.688 39.0057L111.962 38.8427C111.807 39.1594 111.962 39.5355 112.148 39.8319C112.333 40.1283 112.562 40.4358 112.548 40.7878C112.533 41.1397 112.283 41.4176 112.09 41.714C111.898 42.0104 111.751 42.3938 111.944 42.6828C112.137 42.9718 112.529 42.9903 112.87 42.9866L114.244 42.9718C114.483 42.9472 114.724 42.9889 114.942 43.0922C115.216 43.2571 115.332 43.5979 115.367 43.9166C115.375 44.2371 115.411 44.5564 115.475 44.8706C115.569 45.1781 115.825 45.4689 116.145 45.4652C116.235 45.4473 116.328 45.4544 116.413 45.4856C116.453 45.5166 116.485 45.556 116.507 45.6008C116.53 45.6456 116.542 45.6948 116.543 45.745C116.639 46.3248 116.462 47.3955 117.067 47.7178C117.673 48.0402 118.624 47.7715 119.119 47.3807Z" fill="#663D5C"/>
<path opacity="0.1" d="M126.946 59.5496C126.265 59.4773 125.58 59.6386 125.003 60.0072C124.426 60.3758 123.991 60.9297 123.77 61.5781C123.03 63.688 121.795 67.4948 122.104 68.999C122.539 71.1312 123.052 74.6861 123.052 74.6861C123.052 74.6861 125.302 75.9828 124.163 77.2906C123.024 78.5985 122.702 80.4509 122.702 80.4509C122.702 80.4509 121.241 81.0826 120.927 82.4257C120.612 83.7687 118.479 85.623 118.479 85.623L115.283 88.8222C115.283 88.8222 120.571 94.1944 121.638 94.4685L124.913 90.6376L128.781 85.5045L132.136 81.9848C132.136 81.9848 132.924 80.1323 132.53 76.6126C132.136 73.093 130.595 69.7419 130.595 69.7419L130.714 68.5563C130.714 68.5563 131.077 60.0627 126.946 59.5496Z" fill="black"/>
<path d="M127.26 59.5492C126.58 59.4778 125.896 59.6396 125.32 60.0081C124.743 60.3766 124.309 60.9301 124.089 61.5777C123.348 63.6876 122.113 67.4945 122.422 68.9987C122.856 71.1308 123.368 74.6857 123.368 74.6857C123.368 74.6857 125.618 75.9824 124.479 77.2903C123.341 78.5981 123.02 80.4506 123.02 80.4506C123.02 80.4506 121.56 81.0823 121.243 82.4253C120.926 83.7684 118.797 85.6227 118.797 85.6227L115.6 88.8219C115.6 88.8219 120.887 94.194 121.954 94.4682L125.229 90.6373L129.088 85.5041L132.443 81.9844C132.443 81.9844 133.233 80.132 132.837 76.6123C132.441 73.0926 130.904 69.7415 130.904 69.7415L131.023 68.5559C131.023 68.5559 131.391 60.0624 127.26 59.5492Z" fill="#585B8A"/>
<path opacity="0.1" d="M123.955 71.5664C123.955 71.5664 127.31 75.6715 128.732 74.7638C130.154 73.8561 123.955 71.5664 123.955 71.5664Z" fill="black"/>
<path opacity="0.1" d="M125.218 68.4062C125.573 68.5248 128.495 72.5928 129.995 72.1112C131.494 71.6295 125.218 68.4062 125.218 68.4062Z" fill="black"/>
<path opacity="0.1" d="M126.047 75.3936C126.047 75.3936 126.245 77.724 128.652 77.4072C131.059 77.0904 126.047 75.3936 126.047 75.3936Z" fill="black"/>
<path opacity="0.1" d="M115.411 56.5986L114.109 59.5014L115.735 57.8509L115.411 56.5986Z" fill="black"/>
<path d="M115.411 56.4409L114.109 59.3437L115.735 57.6932L115.411 56.4409Z" fill="#F0F3F7"/>
<path opacity="0.3" d="M110.169 91.195L109.199 90.9894L107.418 87.642L107.598 86.4453L110.169 91.195Z" fill="black"/>
<path opacity="0.3" d="M127.056 91.021L126.843 92.1306V92.1325L124.318 94.1943L123.364 93.9924L127.056 91.021Z" fill="black"/>
<path opacity="0.1" d="M87.2662 78.0667C86.7774 78.1482 86.3034 78.2223 85.8702 78.2779C83.4632 78.5947 77.7384 75.7511 77.7384 75.7511C77.7384 75.7511 70.7527 69.9066 68.7401 64.3789C66.7275 58.8511 71.1471 58.0212 71.1471 58.0212C72.8134 57.0727 76.4368 59.7181 76.9497 60.1534C77.4625 60.5887 77.8976 61.6928 77.8569 62.4041C77.8162 63.1155 79.0419 64.0232 79.0419 64.0232C79.0419 64.0232 81.134 67.6559 81.6469 68.0504C82.1598 68.445 82.2783 68.8007 82.4356 69.4731C82.593 70.1456 83.9742 70.6976 84.5667 70.6569C85.1592 70.6161 85.8628 70.8551 85.8628 71.17C85.8628 71.4238 86.4423 71.5498 86.9181 71.5905C87.0588 73.6152 87.1977 76.268 87.2662 78.0667Z" fill="black"/>
<path opacity="0.1" d="M87.2438 77.4886C86.8735 77.5479 86.518 77.6016 86.1847 77.6461C83.7778 77.9628 78.0548 75.1193 78.0548 75.1193C78.0548 75.1193 71.0691 69.2748 69.0565 63.747C67.0439 58.2193 71.4635 57.3894 71.4635 57.3894C73.1298 56.4409 76.7514 59.0862 77.2642 59.5215C77.7771 59.9569 78.2122 61.0609 78.1733 61.7723C78.1344 62.4836 79.3564 63.3913 79.3564 63.3913C79.3564 63.3913 81.4486 67.024 81.9615 67.4186C82.4743 67.8132 82.5928 68.1688 82.7521 68.8413C82.9113 69.5137 84.2907 70.0639 84.8831 70.025C85.4756 69.9861 86.1792 70.2232 86.1792 70.5382C86.1792 70.7234 86.5088 70.8475 86.8754 70.9086C86.8902 71.1235 86.9031 71.3514 86.9198 71.5885C87.042 73.4095 87.1679 75.7325 87.2438 77.4886Z" fill="black"/>
<path opacity="0.1" d="M96.3992 73.5117L96.2492 77.061H96.0882L95.7549 76.8758L95.7956 73.8174C95.9902 73.7029 96.1918 73.6008 96.3992 73.5117V73.5117Z" fill="black"/>
<path d="M71.1471 57.7042C71.1471 57.7042 66.7275 58.5341 68.7401 64.0618C70.7527 69.5896 77.7384 75.436 77.7384 75.436C77.7384 75.436 83.4614 78.2777 85.8702 77.9627C88.279 77.6478 91.9468 76.8179 92.4208 76.9365C92.8948 77.055 96.0923 77.055 96.0923 77.055L96.2497 73.3501L92.5467 73.1519L90.6526 72.7573C90.6526 72.7573 89.9805 72.2016 89.5861 72.2831C89.1918 72.3646 88.3642 71.8089 88.3642 71.8089C88.3642 71.8089 87.7309 71.2957 87.2533 71.2957C86.7756 71.2957 85.872 71.1772 85.872 70.8622C85.872 70.5473 85.1611 70.3065 84.576 70.3491C83.9909 70.3917 82.593 69.836 82.4301 69.1561C82.2672 68.4763 82.1542 68.1299 81.6414 67.7353C81.1285 67.3407 79.0363 63.7062 79.0363 63.7062C79.0363 63.7062 77.8125 62.7985 77.8513 62.089C77.8902 61.3795 77.457 60.2717 76.9441 59.8364C76.4312 59.401 72.8023 56.7576 71.1471 57.7042Z" fill="#DCE6F2"/>
<path opacity="0.1" d="M82.515 70.4199C82.515 70.4199 80.8172 72.1186 81.2505 72.4336L82.515 70.4199Z" fill="black"/>
<path opacity="0.1" d="M84.3294 71.7627C84.3294 71.7627 82.1188 73.4614 82.7112 73.58C83.3037 73.6985 84.3294 71.7627 84.3294 71.7627Z" fill="black"/>
<path opacity="0.1" d="M80.5781 74.2822C80.8947 74.4415 85.5901 77.2462 87.3676 77.2054L80.5781 74.2822Z" fill="black"/>
<path opacity="0.1" d="M80.8963 55.5332C80.8963 55.5332 80.0668 58.2581 79.7502 58.2581C79.5021 58.2581 75.3362 54.8829 73.5977 53.464L73.6736 53.401C73.6736 53.401 73.8309 52.1765 74.4623 51.5485C75.0937 50.9205 80.8963 55.5332 80.8963 55.5332Z" fill="black"/>
<path d="M80.737 55.2163C80.737 55.2163 79.9094 57.9412 79.5928 57.9412C79.3429 57.9412 75.177 54.5661 73.4385 53.1471L73.5144 53.0841C73.5144 53.0841 73.6736 51.8596 74.305 51.2316C74.9363 50.6036 80.737 55.2163 80.737 55.2163Z" fill="#DCE6F2"/>
<g opacity="0.15">
<path opacity="0.15" d="M69.5605 46.4102C70.116 47.6791 71.6453 48.2941 72.5322 49.3056C72.0045 48.0626 70.4622 47.4531 69.5605 46.4102Z" fill="black"/>
<path opacity="0.15" d="M75.22 49.3329C74.9996 49.7571 74.4794 49.9628 74.0054 49.9535C73.584 49.9233 73.1714 49.8179 72.7871 49.6423C72.9265 49.8479 73.0327 50.0742 73.1019 50.3129C73.5341 50.5207 74.0012 50.6464 74.4794 50.6834C74.9589 50.6945 75.4736 50.4889 75.6939 50.0628C76.0476 49.3867 75.6791 48.8087 75.2477 48.2622C75.3281 48.4301 75.3675 48.6148 75.3627 48.8009C75.3579 48.9871 75.309 49.1694 75.22 49.3329V49.3329Z" fill="black"/>
<path opacity="0.15" d="M82.0919 40.0486C82.0123 39.6929 81.742 39.4132 81.6031 39.0779C81.5181 38.8185 81.4507 38.5536 81.4013 38.2851C81.2961 37.9054 81.1012 37.5565 80.8329 37.2681C80.8702 37.3592 80.9017 37.4527 80.9273 37.5478C80.9792 37.8175 81.0485 38.0836 81.1347 38.3443C81.2736 38.6796 81.5439 38.9594 81.6235 39.315C81.6704 39.5663 81.62 39.826 81.4824 40.0414C81.3449 40.2568 81.1305 40.4117 80.8829 40.4747C80.1979 40.6247 79.4165 40.0319 78.8277 40.4135C78.4667 40.6451 78.3834 41.1286 78.3353 41.5547C78.2526 42.2956 78.1686 43.0323 78.0834 43.7647C78.0667 44.0245 78.0118 44.2804 77.9205 44.5242C77.6298 45.191 76.8318 45.5041 76.1042 45.493C75.8199 45.512 75.5394 45.4189 75.3229 45.2337C75.2176 45.0845 75.1045 44.941 74.984 44.8039C74.0583 44.0258 73.7769 45.9283 74.0213 46.4711C74.1436 46.7153 74.2954 46.9436 74.473 47.151C74.2694 46.5396 74.5545 44.7798 75.458 45.5338C75.5784 45.6705 75.6909 45.814 75.795 45.9635C76.0124 46.1485 76.2934 46.2416 76.5782 46.2229C77.3058 46.234 78.1038 45.9209 78.3945 45.254C78.486 45.0097 78.5409 44.7531 78.5574 44.4927C78.6414 43.7517 78.7253 43.0156 78.8092 42.2845C78.8574 41.8585 78.9407 41.375 79.2999 41.1434C79.8905 40.7618 80.6718 41.3546 81.3569 41.2027C81.6026 41.139 81.815 40.9845 81.9514 40.7704C82.0878 40.5562 82.138 40.2983 82.0919 40.0486V40.0486Z" fill="black"/>
</g>
<path opacity="0.1" d="M123.083 51.882C122.886 51.9188 122.684 51.9137 122.489 51.8672C121.743 51.7165 121.072 51.3151 120.585 50.7298C120.317 50.4038 120.106 49.9592 120.269 49.5701C120.398 49.2571 120.739 49.0607 120.824 48.7347C120.863 48.5357 120.852 48.3302 120.793 48.1363L120.593 47.2231C120.535 46.9637 120.435 46.6581 120.178 46.5969C119.921 46.5358 119.706 46.747 119.504 46.9063C119.01 47.2972 118.06 47.5639 117.468 47.2416C116.875 46.9193 117.04 45.8485 116.944 45.2687C116.942 45.2187 116.93 45.1696 116.907 45.1248C116.885 45.0801 116.853 45.0407 116.814 45.0094C116.727 44.9791 116.634 44.9721 116.544 44.989C116.223 44.989 115.968 44.7019 115.873 44.3944C115.809 44.0802 115.774 43.7609 115.768 43.4403C115.731 43.1217 115.616 42.7809 115.34 42.616C115.123 42.5135 114.881 42.4719 114.642 42.4956L113.268 42.5104C112.929 42.5104 112.528 42.4882 112.343 42.2066C112.157 41.925 112.294 41.5249 112.489 41.2378C112.683 40.9506 112.929 40.6653 112.946 40.3115C112.963 39.9577 112.733 39.652 112.546 39.3556C112.439 39.1936 112.36 39.0144 112.313 38.8258L111.919 38.8018C111.765 39.1167 111.919 39.4927 112.104 39.791C112.289 40.0892 112.52 40.3949 112.504 40.745C112.487 41.0951 112.241 41.3767 112.046 41.6712C111.852 41.9658 111.709 42.3511 111.902 42.6401C112.094 42.9291 112.485 42.9494 112.828 42.9457L114.201 42.9291C114.441 42.9059 114.682 42.9481 114.899 43.0513C115.175 43.2162 115.292 43.557 115.327 43.8757C115.333 44.1963 115.369 44.5157 115.435 44.8297C115.527 45.1353 115.784 45.428 116.105 45.4225C116.195 45.4066 116.287 45.4136 116.373 45.4429C116.412 45.4744 116.444 45.5141 116.467 45.5592C116.489 45.6043 116.501 45.6537 116.503 45.704C116.599 46.282 116.421 47.3546 117.027 47.6769C117.632 47.9993 118.577 47.7325 119.064 47.3416C119.265 47.1823 119.489 46.9711 119.739 47.0304C119.989 47.0897 120.097 47.4009 120.152 47.6565L120.354 48.5717C120.413 48.7657 120.423 48.9711 120.384 49.17C120.291 49.4942 119.949 49.6924 119.819 50.0036C119.658 50.3926 119.867 50.8391 120.136 51.1633C120.625 51.7511 121.302 52.1527 122.052 52.3007C122.247 52.3472 122.449 52.3522 122.646 52.3155C122.964 52.2184 123.238 52.0108 123.416 51.7301C123.315 51.8003 123.202 51.8517 123.083 51.882Z" fill="black"/>
<path opacity="0.1" d="M38.1421 133.694C40.6136 133.694 42.6171 133.387 42.6171 133.007C42.6171 132.628 40.6136 132.32 38.1421 132.32C35.6705 132.32 33.667 132.628 33.667 133.007C33.667 133.387 35.6705 133.694 38.1421 133.694Z" fill="#00814F"/>
<path opacity="0.1" d="M194.394 115.825C196.866 115.825 198.869 115.518 198.869 115.138C198.869 114.758 196.866 114.451 194.394 114.451C191.923 114.451 189.919 114.758 189.919 115.138C189.919 115.518 191.923 115.825 194.394 115.825Z" fill="#00814F"/>
<path opacity="0.1" d="M148.771 144.822C155.929 144.822 161.732 143.931 161.732 142.832C161.732 141.734 155.929 140.843 148.771 140.843C141.613 140.843 135.811 141.734 135.811 142.832C135.811 143.931 141.613 144.822 148.771 144.822Z" fill="#00814F"/>
<path opacity="0.1" d="M185.614 135.956C191.197 135.956 195.723 135.261 195.723 134.404C195.723 133.547 191.197 132.852 185.614 132.852C180.031 132.852 175.505 133.547 175.505 134.404C175.505 135.261 180.031 135.956 185.614 135.956Z" fill="#00814F"/>
<path opacity="0.1" d="M183.949 152.504C193.416 152.504 201.092 151.326 201.092 149.872C201.092 148.418 193.416 147.24 183.949 147.24C174.481 147.24 166.806 148.418 166.806 149.872C166.806 151.326 174.481 152.504 183.949 152.504Z" fill="#00814F"/>
<path opacity="0.1" d="M18.9878 154.177C26.1457 154.177 31.9483 153.287 31.9483 152.188C31.9483 151.089 26.1457 150.198 18.9878 150.198C11.83 150.198 6.02734 151.089 6.02734 152.188C6.02734 153.287 11.83 154.177 18.9878 154.177Z" fill="#00814F"/>
<path d="M38.3457 111.118C38.3457 111.118 38.853 111.781 38.1124 112.785C37.3718 113.789 36.7608 114.638 37.0015 115.257C37.0015 115.257 38.1124 113.404 39.0382 113.371C39.9639 113.337 39.3474 112.237 38.3457 111.118Z" fill="#00814F"/>
<path opacity="0.1" d="M38.346 111.118C38.3912 111.181 38.4262 111.251 38.4497 111.326C39.3384 112.37 39.8105 113.343 38.957 113.363C38.1627 113.386 37.2092 114.808 36.9814 115.168C36.9884 115.195 36.9971 115.223 37.0074 115.249C37.0074 115.249 38.1183 113.397 39.044 113.363C39.9698 113.33 39.3477 112.237 38.346 111.118Z" fill="black"/>
<path d="M39.2894 111.963C39.2894 112.196 39.2616 112.385 39.2301 112.385C39.1987 112.385 39.1709 112.2 39.1709 111.963C39.1709 111.726 39.2042 111.841 39.2357 111.841C39.2672 111.841 39.2894 111.73 39.2894 111.963Z" fill="#FFD037"/>
<path d="M39.612 112.243C39.4083 112.354 39.2287 112.428 39.2139 112.393C39.1991 112.358 39.3509 112.252 39.5564 112.139C39.7619 112.026 39.6805 112.109 39.6953 112.139C39.7101 112.169 39.8175 112.13 39.612 112.243Z" fill="#FFD037"/>
<path d="M35.6682 111.118C35.6682 111.118 35.1609 111.781 35.9015 112.785C36.6421 113.789 37.2549 114.638 37.0124 115.257C37.0124 115.257 35.9015 113.404 34.985 113.371C34.0685 113.337 34.661 112.237 35.6682 111.118Z" fill="#00814F"/>
<path opacity="0.1" d="M35.6683 111.118C35.624 111.182 35.5891 111.252 35.5646 111.326C34.6759 112.37 34.2038 113.343 35.0573 113.363C35.8516 113.386 36.8051 114.808 37.0347 115.168C37.0271 115.195 37.0178 115.223 37.0069 115.249C37.0069 115.249 35.896 113.397 34.9795 113.363C34.063 113.33 34.6611 112.237 35.6683 111.118Z" fill="black"/>
<path d="M34.7266 111.963C34.7266 112.196 34.7525 112.385 34.784 112.385C34.8154 112.385 34.8432 112.2 34.8432 111.963C34.8432 111.726 34.8099 111.841 34.7784 111.841C34.7469 111.841 34.7266 111.73 34.7266 111.963Z" fill="#FFD037"/>
<path d="M34.4019 112.243C34.6074 112.354 34.7851 112.428 34.8018 112.393C34.8185 112.358 34.6629 112.252 34.4574 112.139C34.2519 112.026 34.3334 112.109 34.3185 112.139C34.3037 112.169 34.1963 112.13 34.4019 112.243Z" fill="#FFD037"/>
<path opacity="0.1" d="M37.0069 120.329C39.9345 120.329 42.3077 119.965 42.3077 119.515C42.3077 119.066 39.9345 118.702 37.0069 118.702C34.0793 118.702 31.7061 119.066 31.7061 119.515C31.7061 119.965 34.0793 120.329 37.0069 120.329Z" fill="#00814F"/>
<path d="M39.7357 114.36L39.7098 114.568L39.6746 114.86L39.6598 114.983L39.6246 115.275L39.6079 115.398L39.5728 115.69L39.1673 119.025C39.1321 119.321 38.647 119.553 38.0564 119.553H35.9568C35.3717 119.553 34.8866 119.321 34.8459 119.025L34.4404 115.69L34.4052 115.398L34.3904 115.275L34.3534 114.983L34.3386 114.86L34.3034 114.568L34.2775 114.36C34.2571 114.192 34.52 114.051 34.8514 114.051H39.1636C39.4931 114.051 39.7561 114.192 39.7357 114.36Z" fill="#65617D"/>
<path d="M39.7101 114.568L39.6749 114.861H34.3389L34.3037 114.568H39.7101Z" fill="#9D9CB5"/>
<path d="M39.6599 114.982L39.6247 115.275H34.3905L34.3535 114.982H39.6599Z" fill="#9D9CB5"/>
<path d="M39.6098 115.397L39.5728 115.69H34.4405L34.4053 115.397H39.6098Z" fill="#9D9CB5"/>
<path d="M190.867 108.553C190.867 108.553 190.233 111.502 193.05 111.85L193.224 111.522C193.224 111.522 191.041 109.468 190.867 108.553Z" fill="#00814F"/>
<path d="M194.12 111.498L193.464 111.637L193.4 111.652C193.4 111.652 191.652 110.233 191.674 107.065C191.908 107.532 192.187 107.975 192.509 108.386C193.202 109.303 193.988 110.526 194.12 111.498Z" fill="#00814F"/>
<path d="M194.34 111.802C194.289 111.835 194.23 111.857 194.169 111.865C194.109 111.873 194.047 111.867 193.988 111.848C192.307 111.456 192.877 105.974 192.877 105.974C192.97 106.017 193.063 106.715 193.459 107.615C194.135 109.196 194.881 111.406 194.34 111.802Z" fill="#00814F"/>
<path d="M198.068 108.553C198.068 108.553 198.178 111.502 195.361 111.85L195.186 111.517C195.186 111.517 197.894 109.468 198.068 108.553Z" fill="#00814F"/>
<path d="M197.262 107.071C197.284 110.239 195.014 111.658 195.014 111.658L194.948 111.643L194.294 111.504C194.424 110.531 195.22 109.309 195.903 108.392C196.295 107.893 196.752 107.449 197.262 107.071V107.071Z" fill="#00814F"/>
<path d="M194.938 111.517C194.839 111.64 194.712 111.738 194.568 111.804V111.804C194.523 111.824 194.477 111.84 194.429 111.85C194.016 111.947 193.874 111.648 193.896 111.141C193.935 110.239 194.501 108.673 195.007 107.501C195.25 106.925 195.609 106.406 196.062 105.976C196.062 105.976 196.036 110.242 194.938 111.517Z" fill="#00814F"/>
<path d="M194.467 104.051C194.467 104.051 192.59 110.72 194.206 111.717C195.823 112.713 194.882 104.64 194.467 104.051Z" fill="#00814F"/>
<path opacity="0.1" d="M190.867 108.553C190.867 108.553 190.233 111.502 193.05 111.85L193.224 111.522C193.224 111.522 191.041 109.468 190.867 108.553Z" fill="black"/>
<path opacity="0.1" d="M194.12 111.498L193.464 111.637L193.4 111.652C193.4 111.652 191.652 110.233 191.674 107.065C191.908 107.532 192.187 107.975 192.509 108.386C193.202 109.303 193.988 110.526 194.12 111.498Z" fill="black"/>
<path opacity="0.1" d="M194.34 111.802C194.289 111.835 194.23 111.857 194.169 111.865C194.109 111.873 194.047 111.867 193.988 111.848C192.307 111.456 192.877 105.974 192.877 105.974C192.97 106.017 193.063 106.715 193.459 107.615C194.135 109.196 194.881 111.406 194.34 111.802Z" fill="black"/>
<path opacity="0.1" d="M198.068 108.553C198.068 108.553 198.178 111.502 195.361 111.85L195.186 111.517C195.186 111.517 197.894 109.468 198.068 108.553Z" fill="black"/>
<path opacity="0.1" d="M197.262 107.071C197.284 110.239 195.014 111.658 195.014 111.658L194.948 111.643L194.294 111.504C194.424 110.531 195.22 109.309 195.903 108.392C196.295 107.893 196.752 107.449 197.262 107.071V107.071Z" fill="black"/>
<path opacity="0.1" d="M194.938 111.517C194.839 111.64 194.712 111.738 194.568 111.804V111.804C194.523 111.824 194.477 111.84 194.429 111.85C194.016 111.947 193.874 111.648 193.896 111.141C193.935 110.239 194.501 108.673 195.007 107.501C195.25 106.925 195.609 106.406 196.062 105.976C196.062 105.976 196.036 110.242 194.938 111.517Z" fill="black"/>
<path opacity="0.1" d="M194.467 104.051C194.467 104.051 192.59 110.72 194.206 111.717C195.823 112.713 194.882 104.64 194.467 104.051Z" fill="black"/>
<path d="M190.867 108.553C190.867 108.553 190.496 111.502 193.311 111.85L193.485 111.522C193.485 111.522 191.041 109.468 190.867 108.553Z" fill="#00814F"/>
<path d="M194.38 111.498L193.725 111.637L193.66 111.652C193.66 111.652 191.651 110.233 191.668 107.071C191.668 107.071 192.183 107.627 192.764 108.392C193.462 109.303 194.249 110.526 194.38 111.498Z" fill="#00814F"/>
<path opacity="0.1" d="M194.38 111.498L193.725 111.637C193.105 111.092 192.858 109.669 192.77 108.386C193.462 109.303 194.249 110.525 194.38 111.498Z" fill="black"/>
<path d="M194.603 111.802C194.551 111.836 194.493 111.857 194.431 111.865C194.37 111.873 194.308 111.867 194.249 111.848C192.568 111.456 192.876 105.974 192.876 105.974C192.968 106.017 193.331 106.715 193.718 107.615C194.397 109.196 195.142 111.406 194.603 111.802Z" fill="#00814F"/>
<path d="M198.069 108.553C198.069 108.553 198.439 111.502 195.625 111.85L195.451 111.522C195.451 111.522 197.895 109.468 198.069 108.553Z" fill="#00814F"/>
<path d="M197.262 107.071C197.284 110.239 195.275 111.658 195.275 111.658L195.21 111.643L194.555 111.504C194.684 110.531 195.48 109.309 196.166 108.392C196.747 107.627 197.262 107.071 197.262 107.071Z" fill="#00814F"/>
<path opacity="0.1" d="M196.165 108.386C196.08 109.582 195.862 110.9 195.33 111.515C195.294 111.559 195.254 111.6 195.21 111.637L194.555 111.498C194.684 110.525 195.473 109.303 196.165 108.386Z" fill="black"/>
<path d="M195.199 111.517C195.1 111.64 194.973 111.739 194.828 111.804V111.804C194.784 111.824 194.738 111.839 194.691 111.85C194.277 111.947 194.136 111.648 194.156 111.141C194.197 110.239 194.763 108.673 195.267 107.501C195.637 106.658 195.972 106.019 196.061 105.976C196.061 105.974 196.296 110.242 195.199 111.517Z" fill="#00814F"/>
<path opacity="0.1" d="M194.603 111.802C194.507 111.803 194.413 111.773 194.336 111.717C193.546 111.224 193.529 109.375 193.718 107.615C194.397 109.195 195.141 111.405 194.603 111.802Z" fill="black"/>
<path opacity="0.1" d="M195.199 111.517C195.108 111.715 194.986 111.819 194.828 111.804C194.748 111.794 194.671 111.765 194.604 111.719C194.398 111.577 194.242 111.375 194.156 111.141C194.197 110.238 194.764 108.673 195.267 107.5C195.449 109.125 195.51 110.848 195.199 111.517Z" fill="black"/>
<path d="M194.468 104.051C194.468 104.051 192.853 110.72 194.468 111.717C196.082 112.713 194.882 104.64 194.468 104.051Z" fill="#00814F"/>
<path d="M197.567 111.391H190.844V112.504H191.869L191.895 112.635L192.306 114.797H196.215L196.626 112.635L196.65 112.504H197.567V111.391Z" fill="#4B4770"/>
<path opacity="0.1" d="M197.567 111.391H190.844V112.504H191.869L191.895 112.635L192.306 114.797H196.215L196.626 112.635L196.65 112.504H197.567V111.391Z" fill="black"/>
<path d="M197 112.044L196.887 112.635L196.476 114.797H192.568L192.157 112.635L192.044 112.044H197Z" fill="#4B4770"/>
<path opacity="0.1" d="M197 112.044L196.887 112.635H192.157L192.044 112.044H197Z" fill="black"/>
<path d="M197.828 111.391H191.105V112.504H197.828V111.391Z" fill="#4B4770"/>
<path d="M26.2367 130.441C26.0594 130.686 25.9173 130.954 25.8145 131.238C25.7886 131.306 25.7627 131.386 25.7367 131.462C25.6898 131.44 25.6408 131.423 25.5905 131.41C25.3747 131.356 25.1514 131.337 24.9295 131.355C24.9295 131.268 24.9406 131.169 24.9425 131.082C24.9702 130.106 24.8554 128.746 23.9241 129.323C23.0317 129.878 23.6686 130.804 24.2444 131.397C24.2944 131.449 24.3444 131.497 24.3926 131.544C23.8667 131.914 23.7668 132.79 23.6797 133.7C23.5927 134.609 22.8206 135.604 22.3078 136.169C22.2559 136.227 22.2096 136.278 22.1634 136.327C21.956 136.161 21.716 136.041 21.4592 135.975C21.2023 135.909 20.9343 135.898 20.6729 135.943C20.6525 135.864 20.6285 135.78 20.6044 135.693C20.1897 134.194 19.3287 131.599 18.2308 131.03L18.3752 130.845C18.8418 130.236 19.3676 129.328 18.5918 129.097C17.816 128.865 17.7457 129.882 17.7883 130.645C17.7957 130.741 17.8031 130.832 17.8105 130.917C17.6554 130.925 17.5034 130.963 17.3639 131.032C17.2244 131.1 17.1004 131.196 16.9995 131.314L16.8792 131.171C16.2497 130.43 15.0962 129.25 14.7463 130.141C14.4204 130.971 15.4369 132.049 16.1515 132.674L16.196 132.713C15.7164 134.659 17.8105 136.247 18.938 136.942L19.0843 137.031C17.5291 138.865 16.5681 142.303 16.5681 142.303L20.9229 143.081C20.9229 143.081 23.8112 140.587 23.4409 138.246H23.4705C26.357 137.668 27.0124 134.589 26.5625 132.761L26.6144 132.74C27.1403 132.525 27.601 132.177 27.9511 131.729C28.7584 130.608 27.0698 129.341 26.2367 130.441Z" fill="#00814F"/>
<path opacity="0.1" d="M26.2367 130.441C26.0594 130.686 25.9173 130.954 25.8145 131.238C25.7886 131.306 25.7627 131.386 25.7367 131.462C25.6898 131.44 25.6408 131.423 25.5905 131.41C25.3747 131.356 25.1514 131.337 24.9295 131.355C24.9295 131.268 24.9406 131.169 24.9425 131.082C24.9702 130.106 24.8554 128.746 23.9241 129.323C23.0317 129.878 23.6686 130.804 24.2444 131.397C24.2944 131.449 24.3444 131.497 24.3926 131.544C23.8667 131.914 23.7668 132.79 23.6797 133.7C23.5927 134.609 22.8206 135.604 22.3078 136.169C22.2559 136.227 22.2096 136.278 22.1634 136.327C21.956 136.161 21.716 136.041 21.4592 135.975C21.2023 135.909 20.9343 135.898 20.6729 135.943C20.6525 135.864 20.6285 135.78 20.6044 135.693C20.1897 134.194 19.3287 131.599 18.2308 131.03L18.3752 130.845C18.8418 130.236 19.3676 129.328 18.5918 129.097C17.816 128.865 17.7457 129.882 17.7883 130.645C17.7957 130.741 17.8031 130.832 17.8105 130.917C17.6554 130.925 17.5034 130.963 17.3639 131.032C17.2244 131.1 17.1004 131.196 16.9995 131.314L16.8792 131.171C16.2497 130.43 15.0962 129.25 14.7463 130.141C14.4204 130.971 15.4369 132.049 16.1515 132.674L16.196 132.713C15.7164 134.659 17.8105 136.247 18.938 136.942L19.0843 137.031C17.5291 138.865 16.5681 142.303 16.5681 142.303L20.9229 143.081C20.9229 143.081 23.8112 140.587 23.4409 138.246H23.4705C26.357 137.668 27.0124 134.589 26.5625 132.761L26.6144 132.74C27.1403 132.525 27.601 132.177 27.9511 131.729C28.7584 130.608 27.0698 129.341 26.2367 130.441Z" fill="black"/>
<path d="M17.5679 131.708L17.0588 133.19C17.0588 133.19 16.7755 132.99 16.4181 132.675C15.7035 132.051 14.687 130.973 15.0129 130.143C15.3628 129.252 16.5163 130.428 17.1458 131.173C17.3994 131.469 17.5679 131.708 17.5679 131.708Z" fill="#00814F"/>
<path d="M18.6419 130.847C18.4873 131.051 18.3216 131.246 18.1457 131.432C18.1023 131.172 18.072 130.91 18.055 130.647C18.0124 129.884 18.0939 128.87 18.8585 129.098C19.6232 129.326 19.1085 130.237 18.6419 130.847Z" fill="#00814F"/>
<path d="M25.2186 131.083C25.2038 131.573 25.1556 131.966 25.1556 131.966C24.9317 131.791 24.7195 131.601 24.5206 131.397C23.9447 130.799 23.3078 129.877 24.2003 129.323C25.1223 128.745 25.2371 130.106 25.2186 131.083Z" fill="#00814F"/>
<path d="M28.2177 131.725C27.8676 132.173 27.4069 132.521 26.881 132.736C26.735 132.8 26.5854 132.854 26.4329 132.899L25.833 132.056C25.896 131.778 25.9789 131.504 26.0811 131.238C26.1839 130.954 26.326 130.686 26.5033 130.441C27.3327 129.341 29.025 130.608 28.2177 131.725Z" fill="#00814F"/>
<path opacity="0.1" d="M17.1456 131.173C17.3993 131.47 17.5677 131.699 17.5677 131.699L17.0586 133.181C17.0586 133.181 16.7753 132.981 16.418 132.666C16.4974 132.189 16.6946 131.739 16.9919 131.357C17.0419 131.296 17.0956 131.233 17.1456 131.173Z" fill="black"/>
<path opacity="0.1" d="M18.6416 130.847C18.4869 131.051 18.3213 131.246 18.1454 131.432C18.1019 131.172 18.0717 130.91 18.0547 130.647C18.2663 130.651 18.4713 130.721 18.6416 130.847V130.847Z" fill="black"/>
<path d="M21.1446 136.767L19.8782 137.323C19.8782 137.323 19.6023 137.19 19.2042 136.942C17.873 136.123 15.1976 134.061 16.9824 131.631C18.7673 129.2 20.2725 133.559 20.8706 135.691C21.0501 136.34 21.1446 136.767 21.1446 136.767Z" fill="#00814F"/>
<path opacity="0.1" d="M24.5107 131.397C24.695 131.207 24.9445 131.094 25.2088 131.082C25.1939 131.573 25.1458 131.966 25.1458 131.966C24.9219 131.79 24.7097 131.6 24.5107 131.397V131.397Z" fill="black"/>
<path opacity="0.1" d="M26.8849 132.737C26.7389 132.8 26.5893 132.855 26.4368 132.9L25.8369 132.057C25.8999 131.779 25.9828 131.505 26.085 131.238C26.4683 131.464 26.7534 132.027 26.8849 132.737Z" fill="black"/>
<path d="M23.7376 138.242C23.6691 138.257 23.5969 138.27 23.5247 138.281C19.2792 138.926 22.125 136.634 22.125 136.634C22.125 136.634 22.3101 136.449 22.5749 136.169C23.0877 135.604 23.858 134.615 23.9468 133.7C24.0801 132.324 24.2338 131.033 25.8576 131.41C27.4517 131.785 27.7572 137.437 23.7376 138.242Z" fill="#00814F"/>
<path d="M23.6573 148.818H15.5459V150.952H23.6573V148.818Z" fill="#D4DFEC"/>
<path d="M24.8558 141.882H14.2578V149.329H24.8558V141.882Z" fill="#D4DFEC"/>
<path opacity="0.1" d="M23.6573 148.818H15.5459V150.952H23.6573V148.818Z" fill="black"/>
<path opacity="0.1" d="M24.8558 141.882H14.2578V149.329H24.8558V141.882Z" fill="black"/>
<path d="M24.1905 148.818H16.0791V150.952H24.1905V148.818Z" fill="#D4DFEC"/>
<path opacity="0.1" d="M20.8714 135.693C21.0566 136.331 21.1454 136.768 21.1454 136.768L19.879 137.324C19.879 137.324 19.6032 137.19 19.2051 136.942C19.7013 136.314 20.2604 135.84 20.8714 135.693Z" fill="black"/>
<path opacity="0.1" d="M23.7376 138.242C23.6691 138.257 23.5969 138.27 23.5247 138.281C19.2792 138.926 22.125 136.634 22.125 136.634C22.125 136.634 22.3101 136.449 22.5749 136.169C23.3673 136.805 23.695 137.52 23.7376 138.242Z" fill="black"/>
<path d="M16.835 142.305C16.835 142.305 19.2123 133.783 22.5468 136.412C25.8814 139.041 21.1897 143.081 21.1897 143.081L16.835 142.305Z" fill="#00814F"/>
<path opacity="0.1" d="M18.0342 133.233C18.1814 133.233 18.3008 133.114 18.3008 132.966C18.3008 132.819 18.1814 132.7 18.0342 132.7C17.8869 132.7 17.7676 132.819 17.7676 132.966C17.7676 133.114 17.8869 133.233 18.0342 133.233Z" fill="black"/>
<path opacity="0.1" d="M18.0127 134.478C18.16 134.478 18.2793 134.359 18.2793 134.212C18.2793 134.064 18.16 133.945 18.0127 133.945C17.8655 133.945 17.7461 134.064 17.7461 134.212C17.7461 134.359 17.8655 134.478 18.0127 134.478Z" fill="black"/>
<path opacity="0.1" d="M25.7461 133.478C25.8934 133.478 26.0127 133.358 26.0127 133.211C26.0127 133.064 25.8934 132.944 25.7461 132.944C25.5989 132.944 25.4795 133.064 25.4795 133.211C25.4795 133.358 25.5989 133.478 25.7461 133.478Z" fill="black"/>
<path opacity="0.1" d="M19.5254 139.859C19.6727 139.859 19.792 139.74 19.792 139.592C19.792 139.445 19.6727 139.326 19.5254 139.326C19.3782 139.326 19.2588 139.445 19.2588 139.592C19.2588 139.74 19.3782 139.859 19.5254 139.859Z" fill="black"/>
<path opacity="0.1" d="M25.1904 135.545C25.3377 135.545 25.4571 135.425 25.4571 135.278C25.4571 135.131 25.3377 135.011 25.1904 135.011C25.0432 135.011 24.9238 135.131 24.9238 135.278C24.9238 135.425 25.0432 135.545 25.1904 135.545Z" fill="black"/>
<path opacity="0.1" d="M22.4356 138.304C22.5828 138.304 22.7022 138.184 22.7022 138.037C22.7022 137.889 22.5828 137.77 22.4356 137.77C22.2883 137.77 22.1689 137.889 22.1689 138.037C22.1689 138.184 22.2883 138.304 22.4356 138.304Z" fill="black"/>
<path opacity="0.1" d="M18.9453 133.766C19.0926 133.766 19.2119 133.647 19.2119 133.5C19.2119 133.352 19.0926 133.233 18.9453 133.233C18.7981 133.233 18.6787 133.352 18.6787 133.5C18.6787 133.647 18.7981 133.766 18.9453 133.766Z" fill="black"/>
<path opacity="0.1" d="M25.0127 134.278C25.16 134.278 25.2793 134.158 25.2793 134.011C25.2793 133.864 25.16 133.744 25.0127 133.744C24.8655 133.744 24.7461 133.864 24.7461 134.011C24.7461 134.158 24.8655 134.278 25.0127 134.278Z" fill="black"/>
<path opacity="0.1" d="M24.1026 136.346C24.2498 136.346 24.3692 136.226 24.3692 136.079C24.3692 135.931 24.2498 135.812 24.1026 135.812C23.9553 135.812 23.8359 135.931 23.8359 136.079C23.8359 136.226 23.9553 136.346 24.1026 136.346Z" fill="black"/>
<path opacity="0.1" d="M21.3027 139.659C21.45 139.659 21.5694 139.54 21.5694 139.392C21.5694 139.245 21.45 139.125 21.3027 139.125C21.1555 139.125 21.0361 139.245 21.0361 139.392C21.0361 139.54 21.1555 139.659 21.3027 139.659Z" fill="black"/>
<path opacity="0.1" d="M20.7246 138.347C20.8719 138.347 20.9912 138.228 20.9912 138.081C20.9912 137.933 20.8719 137.814 20.7246 137.814C20.5774 137.814 20.458 137.933 20.458 138.081C20.458 138.228 20.5774 138.347 20.7246 138.347Z" fill="black"/>
<path opacity="0.1" d="M19.3457 135.389C19.493 135.389 19.6123 135.27 19.6123 135.123C19.6123 134.975 19.493 134.856 19.3457 134.856C19.1985 134.856 19.0791 134.975 19.0791 135.123C19.0791 135.27 19.1985 135.389 19.3457 135.389Z" fill="black"/>
<path opacity="0.1" d="M24.1905 148.818H16.0791V149.598H24.1905V148.818Z" fill="black"/>
<path d="M25.389 141.882H14.791V149.329H25.389V141.882Z" fill="#D4DFEC"/>
<path opacity="0.1" d="M21.6582 140.86C21.8055 140.86 21.9248 140.74 21.9248 140.593C21.9248 140.446 21.8055 140.326 21.6582 140.326C21.511 140.326 21.3916 140.446 21.3916 140.593C21.3916 140.74 21.511 140.86 21.6582 140.86Z" fill="black"/>
<path opacity="0.1" d="M20.0586 141.193C20.2059 141.193 20.3252 141.074 20.3252 140.926C20.3252 140.779 20.2059 140.66 20.0586 140.66C19.9114 140.66 19.792 140.779 19.792 140.926C19.792 141.074 19.9114 141.193 20.0586 141.193Z" fill="black"/>
<path opacity="0.1" d="M9.68667 12.2562C10.7563 12.2562 11.6233 11.3887 11.6233 10.3185C11.6233 9.24839 10.7563 8.38086 9.68667 8.38086C8.61707 8.38086 7.75 9.24839 7.75 10.3185C7.75 11.3887 8.61707 12.2562 9.68667 12.2562Z" fill="#00814F"/>
<path opacity="0.1" d="M195.682 73.8744C197.114 73.8744 198.274 72.7133 198.274 71.2809C198.274 69.8486 197.114 68.6875 195.682 68.6875C194.25 68.6875 193.09 69.8486 193.09 71.2809C193.09 72.7133 194.25 73.8744 195.682 73.8744Z" fill="#00814F"/>
<path opacity="0.1" d="M200.679 67.617C201.724 67.617 202.572 66.7694 202.572 65.7238C202.572 64.6782 201.724 63.8306 200.679 63.8306C199.634 63.8306 198.787 64.6782 198.787 65.7238C198.787 66.7694 199.634 67.617 200.679 67.617Z" fill="#00814F"/>
<path opacity="0.1" d="M13.0189 5.87245C14.4504 5.87245 15.611 4.71132 15.611 3.279C15.611 1.84667 14.4504 0.685547 13.0189 0.685547C11.5873 0.685547 10.4268 1.84667 10.4268 3.279C10.4268 4.71132 11.5873 5.87245 13.0189 5.87245Z" fill="#00814F"/>
<path opacity="0.1" d="M3.02081 17.7284C4.45238 17.7284 5.61291 16.5673 5.61291 15.135C5.61291 13.7026 4.45238 12.5415 3.02081 12.5415C1.58923 12.5415 0.428711 13.7026 0.428711 15.135C0.428711 16.5673 1.58923 17.7284 3.02081 17.7284Z" fill="#00814F"/>
</g>
<defs>
<linearGradient id="paint0_linear_1025_1224" x1="98.0269" y1="144.409" x2="98.0269" y2="35.9471" gradientUnits="userSpaceOnUse">
<stop stop-color="#808080" stop-opacity="0.25"/>
<stop offset="0.54" stop-color="#808080" stop-opacity="0.12"/>
<stop offset="1" stop-color="#808080" stop-opacity="0.1"/>
</linearGradient>
<clipPath id="clip0_1025_1224">
<rect width="202.143" height="153.492" fill="white" transform="translate(0.428711 0.685547)"/>
</clipPath>
</defs>
</svg>
