<svg width="180" height="154" viewBox="0 0 180 154" fill="none" xmlns="http://www.w3.org/2000/svg">
<g clip-path="url(#clip0_1025_1104)">
<path opacity="0.8" d="M18.1044 150.623L10.8264 139.073L18.1078 151.881L18.1117 153.198C18.6309 153.191 19.1449 153.172 19.6537 153.138L19.06 136.232L19.0678 136.101L19.0545 136.076L18.9979 134.479L26.6077 121.82L18.9901 133.282L18.9673 133.621L18.5189 120.847L25.0609 107.75L18.4677 118.603L18.1611 92.1277L18.1596 92.0396L18.1586 92.1263L18.0093 113L11.758 104.648L18.0148 114.798L18.0438 126.231L12.2436 115.189L18.047 127.912L18.0631 134.269L9.6377 118.895L18.0697 136.487L18.1044 150.623Z" fill="#E2E2E2"/>
<path opacity="0.8" d="M170 150.623L162.722 139.073L170.003 151.881L170.007 153.198C170.526 153.191 171.04 153.172 171.549 153.138L170.956 136.232L170.963 136.101L170.95 136.076L170.893 134.479L178.503 121.82L170.886 133.282L170.863 133.621L170.414 120.847L176.956 107.75L170.363 118.603L170.057 92.1277L170.055 92.0396L170.054 92.1263L169.905 113L163.654 104.648L169.91 114.798L169.939 126.231L164.139 115.189L169.943 127.912L169.959 134.269L161.533 118.895L169.965 136.487L170 150.623Z" fill="#E2E2E2"/>
<path opacity="0.8" d="M11.7578 40.672C13.009 40.6706 14.2185 41.1212 15.1637 41.941C15.9105 41.7371 16.6934 41.7027 17.4552 41.8404C18.0858 40.9251 18.9926 40.2356 20.0431 39.8724C21.0935 39.5092 22.2326 39.4915 23.2939 39.8218C24.3551 40.1521 25.283 40.8131 25.9418 41.7082C26.6006 42.6034 26.956 43.6857 26.9559 44.7972H6.66113C6.90998 43.63 7.55185 42.5836 8.4795 41.8327C9.40715 41.0819 10.5644 40.6722 11.7578 40.672Z" fill="#E2E2E2"/>
<path opacity="0.8" d="M156.4 55.3007C157.631 55.2993 158.821 55.7426 159.75 56.549C160.485 56.3484 161.255 56.3146 162.004 56.45C162.625 55.5497 163.517 54.8714 164.55 54.5142C165.583 54.157 166.704 54.1395 167.748 54.4644C168.791 54.7893 169.704 55.4395 170.352 56.32C171 57.2005 171.35 58.2652 171.35 59.3585H151.387C151.632 58.2104 152.263 57.181 153.175 56.4425C154.088 55.7039 155.226 55.3009 156.4 55.3007Z" fill="#E2E2E2"/>
<path opacity="0.8" d="M82.5137 81.5774V123.136H98.6752V81.0001L94.9235 81.1341V72.6308H92.2023L91.7539 53.7977C92.852 53.0822 93.6248 51.3828 93.6248 49.3985C93.626 48.8289 93.5597 48.261 93.4272 47.707C93.9469 47.1447 94.2654 46.4259 94.3328 45.6632C94.4003 44.9005 94.2128 44.137 93.7999 43.4922C94.1452 43.794 94.547 44.0241 94.982 44.1693C95.417 44.3145 95.8765 44.3719 96.3338 44.3381C96.7911 44.3043 97.2372 44.18 97.6461 43.9724C98.0549 43.7648 98.4185 43.478 98.7157 43.1287C99.0129 42.7795 99.2377 42.3747 99.3772 41.9378C99.5166 41.501 99.5679 41.0408 99.528 40.5839C99.4882 40.1271 99.358 39.6827 99.145 39.2766C98.932 38.8705 98.6405 38.5107 98.2874 38.2182C98.8812 37.999 99.4036 37.6214 99.7978 37.1262C100.192 36.6311 100.443 36.0373 100.524 35.4095C100.604 34.7817 100.511 34.1439 100.255 33.5652C99.9981 32.9866 99.5879 32.4893 99.0687 32.1274C98.5494 31.7655 97.9409 31.5528 97.3092 31.5124C96.6776 31.472 96.0469 31.6055 95.4858 31.8984C94.9247 32.1912 94.4545 32.6322 94.1264 33.1735C93.7983 33.7148 93.6248 34.3356 93.6248 34.9685C93.6248 35.0193 93.6264 35.0696 93.6285 35.1197C93.153 34.9744 92.6518 34.9332 92.1589 34.9988C91.6661 35.0644 91.1931 35.2353 90.7721 35.4999C90.3512 35.7644 89.9921 36.1165 89.7192 36.5321C89.4463 36.9478 89.2661 37.4173 89.1908 37.9087C88.7589 37.6518 88.2762 37.4919 87.7763 37.4402C87.2765 37.3884 86.7713 37.4461 86.296 37.6092C85.8206 37.7723 85.3865 38.0369 85.0237 38.3847C84.6608 38.7324 84.378 39.1549 84.1949 39.6229C84.0117 40.0909 83.9326 40.5931 83.9631 41.0948C83.9935 41.5964 84.1327 42.0854 84.3711 42.5278C84.6095 42.9702 84.9413 43.3554 85.3435 43.6567C85.7457 43.9581 86.2087 44.1682 86.7003 44.2727C86.6996 44.2978 86.6983 44.3227 86.6983 44.348C87.02 45.3187 87.4294 46.258 87.9215 47.1544C87.6809 47.8779 87.5602 48.636 87.5642 49.3985C87.5642 51.3828 88.3369 53.0822 89.4349 53.7977L88.9865 72.6307H86.2655V81.4433L82.5137 81.5774ZM92.6056 41.8947L92.6146 41.8949C92.6646 41.8949 92.7142 41.8933 92.7636 41.8912C92.7947 41.9935 92.8304 42.0937 92.8706 42.1918C92.788 42.0878 92.6996 41.9886 92.6056 41.8947Z" fill="#E2E2E2"/>
<path opacity="0.8" d="M73.6148 152.717H122.677V95.9594H73.6148V152.717Z" fill="#3F3D56"/>
<path opacity="0.8" d="M91.5323 152.717H104.76V141.173H91.5323V152.717Z" fill="#E2E2E2"/>
<path opacity="0.8" d="M57.2641 21.2789C57.2631 21.3208 57.2609 21.3623 57.2609 21.4045C57.2601 22.1764 57.4146 22.9405 57.7153 23.6514C58.016 24.3624 58.4566 25.0055 59.011 25.5426C59.0975 25.7273 59.1939 25.9073 59.2995 26.0817C58.8984 27.2876 58.6972 28.5511 58.7039 29.8219C58.7039 34.2051 60.965 37.7584 63.7544 37.7584C66.5437 37.7584 68.8049 34.2051 68.8049 29.8219C68.807 28.8725 68.6965 27.9261 68.4757 27.0027C69.3418 26.0655 69.8726 24.8675 69.985 23.5964C70.0974 22.3253 69.785 21.0528 69.0968 19.9781C69.6723 20.481 70.342 20.8646 71.0669 21.1065C71.7919 21.3485 72.5577 21.4441 73.3199 21.3877C74.082 21.3313 74.8254 21.1241 75.5069 20.7781C76.1883 20.4321 76.7943 19.9542 77.2895 19.3721C77.7848 18.79 78.1595 18.1154 78.3919 17.3873C78.6243 16.6592 78.7098 15.8923 78.6434 15.1309C78.5771 14.3695 78.3601 13.6289 78.0052 12.9521C77.6503 12.2752 77.1644 11.6756 76.5759 11.188C77.5656 10.8228 78.4362 10.1934 79.0933 9.36812C79.7504 8.54284 80.1688 7.55329 80.303 6.50695C80.4372 5.46061 80.2821 4.3975 79.8546 3.43311C79.4271 2.46871 78.7435 1.6399 77.878 1.03672C77.0126 0.43354 75.9984 0.0790511 74.9456 0.0117585C73.8928 -0.0555341 72.8418 0.166945 71.9066 0.655027C70.9714 1.14311 70.1878 1.87813 69.641 2.78025C69.0941 3.68236 68.805 4.71708 68.8049 5.77199C68.8049 5.8565 68.8077 5.94034 68.8112 6.02395C68.0187 5.78186 67.1833 5.71315 66.3619 5.82247C65.5405 5.93179 64.7522 6.2166 64.0506 6.65754C63.349 7.09849 62.7505 7.68525 62.2957 8.37798C61.8409 9.07071 61.5405 9.8532 61.4149 10.6723C60.6951 10.244 59.8907 9.97753 59.0576 9.89132C58.2244 9.80512 57.3825 9.90127 56.5902 10.1731C55.798 10.4449 55.0744 10.8859 54.4697 11.4655C53.8649 12.045 53.3936 12.7492 53.0884 13.5292C52.7831 14.3092 52.6513 15.1463 52.702 15.9823C52.7527 16.8184 52.9848 17.6334 53.3821 18.3708C53.7794 19.1081 54.3324 19.7502 55.0028 20.2524C55.6731 20.7545 56.4448 21.1048 57.2641 21.2789ZM67.1214 17.316C67.2046 17.316 67.2873 17.3132 67.3697 17.3097C67.4215 17.4803 67.4809 17.6473 67.548 17.8108C67.4104 17.6374 67.263 17.4721 67.1064 17.3156L67.1214 17.316Z" fill="#E2E2E2"/>
<path opacity="0.8" d="M60.8672 77.2001H66.6399L66.4337 68.5428V68.5395L65.6783 36.7949C65.0987 37.1491 64.4327 37.3364 63.7535 37.3364C63.0743 37.3364 62.4084 37.1491 61.8288 36.7949L61.0735 68.5395V68.5428L60.8672 77.2001Z" fill="#00814F"/>
<path opacity="0.8" d="M50.2871 83.452V152.717H77.2209V82.4905L70.9688 82.7134V68.543H56.5389V83.2291L50.2871 83.452Z" fill="#00814F"/>
<path opacity="0.8" d="M126.047 21.2789C126.046 21.3208 126.044 21.3623 126.044 21.4045C126.043 22.1764 126.198 22.9405 126.499 23.6514C126.799 24.3624 127.24 25.0055 127.794 25.5426C127.881 25.7273 127.977 25.9073 128.083 26.0817C127.682 27.2876 127.48 28.5511 127.487 29.8219C127.487 34.2051 129.748 37.7584 132.538 37.7584C135.327 37.7584 137.588 34.2051 137.588 29.8219C137.59 28.8725 137.48 27.9261 137.259 27.0027C138.125 26.0655 138.656 24.8675 138.768 23.5964C138.881 22.3253 138.568 21.0528 137.88 19.9781C138.456 20.481 139.125 20.8646 139.85 21.1066C140.575 21.3485 141.341 21.4441 142.103 21.3877C142.865 21.3314 143.609 21.1242 144.29 20.7781C144.972 20.4321 145.578 19.9542 146.073 19.3722C146.568 18.7901 146.943 18.1154 147.175 17.3873C147.408 16.6593 147.493 15.8923 147.427 15.1309C147.36 14.3695 147.143 13.6289 146.788 12.9521C146.433 12.2752 145.948 11.6756 145.359 11.188C146.349 10.8228 147.219 10.1934 147.877 9.36812C148.534 8.54284 148.952 7.55329 149.086 6.50695C149.22 5.46062 149.065 4.3975 148.638 3.43311C148.21 2.46871 147.527 1.6399 146.661 1.03672C145.796 0.43354 144.782 0.0790512 143.729 0.0117585C142.676 -0.0555342 141.625 0.166944 140.69 0.655027C139.755 1.14311 138.971 1.87813 138.424 2.78025C137.877 3.68236 137.588 4.71708 137.588 5.77199C137.588 5.8565 137.591 5.94034 137.594 6.02395C136.802 5.78186 135.967 5.71315 135.145 5.82247C134.324 5.93179 133.535 6.2166 132.834 6.65754C132.132 7.09849 131.534 7.68525 131.079 8.37798C130.624 9.07071 130.324 9.8532 130.198 10.6723C129.478 10.244 128.674 9.97753 127.841 9.89132C127.008 9.80512 126.166 9.90127 125.373 10.1731C124.581 10.4449 123.858 10.8859 123.253 11.4655C122.648 12.045 122.177 12.7492 121.872 13.5292C121.566 14.3092 121.434 15.1463 121.485 15.9823C121.536 16.8184 121.768 17.6334 122.165 18.3708C122.563 19.1081 123.116 19.7502 123.786 20.2524C124.456 20.7545 125.228 21.1048 126.047 21.2789ZM135.905 17.316C135.988 17.316 136.071 17.3132 136.153 17.3097C136.205 17.4803 136.264 17.6473 136.331 17.8108C136.194 17.6374 136.046 17.4721 135.89 17.3156L135.905 17.316Z" fill="#E2E2E2"/>
<path opacity="0.8" d="M129.651 77.2003H135.423L134.461 36.7964C133.218 37.2433 131.857 37.2433 130.613 36.7964L129.651 77.2003Z" fill="#00814F"/>
<path opacity="0.8" d="M119.069 83.452V152.717H146.006V82.4905L143.794 82.5703L139.751 82.7134V68.543H125.321V83.2291L119.069 83.452Z" fill="#00814F"/>
<path opacity="0.8" d="M105.466 109.464H112.12V102.81H105.466V109.464Z" fill="white"/>
<path opacity="0.8" d="M94.8183 109.464H101.473V102.81H94.8183V109.464Z" fill="white"/>
<path opacity="0.8" d="M84.1718 109.464H90.8262V102.81H84.1718V109.464Z" fill="white"/>
<path opacity="0.8" d="M105.466 120.111H112.12V113.456H105.466V120.111Z" fill="white"/>
<path opacity="0.8" d="M94.8183 120.111H101.473V113.456H94.8183V120.111Z" fill="white"/>
<path opacity="0.8" d="M84.1718 120.111H90.8262V113.456H84.1718V120.111Z" fill="white"/>
<path opacity="0.8" d="M105.466 130.758H112.12V124.103H105.466V130.758Z" fill="white"/>
<path opacity="0.8" d="M94.8183 130.758H101.473V124.103H94.8183V130.758Z" fill="white"/>
<path opacity="0.8" d="M84.1718 130.758H90.8262V124.103H84.1718V130.758Z" fill="white"/>
<path opacity="0.8" d="M60.4277 106.802H67.082V100.148H60.4277V106.802Z" fill="white"/>
<path opacity="0.8" d="M60.4277 117.449H67.082V110.795H60.4277V117.449Z" fill="white"/>
<path opacity="0.8" d="M60.4277 128.096H67.082V121.442H60.4277V128.096Z" fill="white"/>
<path opacity="0.8" d="M60.4277 138.743H67.082V132.089H60.4277V138.743Z" fill="white"/>
<path opacity="0.8" d="M129.154 106.802H135.809V100.148H129.154V106.802Z" fill="white"/>
<path opacity="0.8" d="M129.154 117.449H135.809V110.795H129.154V117.449Z" fill="white"/>
<path opacity="0.8" d="M129.154 128.096H135.809V121.442H129.154V128.096Z" fill="white"/>
<path opacity="0.8" d="M129.154 138.743H135.809V132.089H129.154V138.743Z" fill="white"/>
<path opacity="0.8" d="M180 152.384H6.6543V153.05H180V152.384Z" fill="#3F3D56"/>
<path d="M54.476 64.7974C56.4608 62.731 58.8387 61.0829 61.4696 59.95C64.1005 58.8171 66.9313 58.2224 69.7954 58.2008C72.6595 58.1792 75.4989 58.7312 78.1466 59.8243C80.7943 60.9174 83.1967 62.5294 85.2124 64.5656C93.34 72.7649 93.4776 86.1144 85.5282 94.4808C82.0364 98.161 77.3557 100.486 72.3152 101.043C67.2747 101.601 62.1996 100.355 57.9889 97.5271L42.4663 113.679C42.3713 113.778 42.2577 113.857 42.1319 113.912C42.0062 113.967 41.8708 113.997 41.7335 114C41.5962 114.003 41.4598 113.978 41.3319 113.928C41.2041 113.878 41.0874 113.803 40.9885 113.708L37.1218 109.988C37.0227 109.892 36.9434 109.779 36.8882 109.653C36.8331 109.527 36.8033 109.392 36.8006 109.254C36.7979 109.117 36.8222 108.98 36.8723 108.852C36.9223 108.724 36.9971 108.608 37.0924 108.509L52.615 92.3573C49.6386 88.2773 48.1937 83.2784 48.534 78.2384C48.8743 73.1984 50.9781 68.4395 54.476 64.7974ZM59.311 90.7688C61.5002 92.8761 64.2646 94.2865 67.2548 94.8216C70.2449 95.3567 73.3265 94.9925 76.1098 93.775C78.8931 92.5575 81.2531 90.5414 82.8914 87.9817C84.5297 85.422 85.3728 82.4337 85.3139 79.3945C85.255 76.3554 84.2968 73.402 82.5606 70.9078C80.8244 68.4136 78.388 66.4906 75.5597 65.3819C72.7313 64.2733 69.638 64.0289 66.6708 64.6796C63.7036 65.3303 60.9959 66.8468 58.89 69.0375C57.4917 70.492 56.3934 72.2079 55.6578 74.0872C54.9222 75.9666 54.5638 77.9725 54.6029 79.9904C54.6419 82.0084 55.0779 83.9988 55.8857 85.8482C56.6935 87.6976 57.8574 89.3696 59.311 90.7688Z" fill="url(#paint0_linear_1025_1104)"/>
<path d="M81.5003 75C83.4983 75 83.5015 78 81.5003 78C79.4991 78 79.5007 75 81.5003 75Z" fill="url(#paint1_linear_1025_1104)"/>
<path d="M69.1926 66.6036C73.8927 66.4959 78.1712 68.8816 80.4446 72.4887C81.1868 73.6629 79.0794 74.7007 78.3415 73.5323C76.4584 70.5509 72.8794 68.6519 69.0124 68.7567C64.9566 68.86 61.2656 71.2069 59.3115 74.4638C58.5693 75.6997 56.628 74.5758 57.3645 73.3471C59.7358 69.3897 64.3365 66.7141 69.1926 66.6036Z" fill="url(#paint2_linear_1025_1104)"/>
<path d="M52.6771 63.5972C54.6619 61.5308 57.0397 59.8827 59.6706 58.7498C62.3014 57.6169 65.1322 57.0222 67.9962 57.0006C70.8602 56.979 73.6995 57.531 76.3472 58.6241C78.9948 59.7172 81.3971 61.3292 83.4128 63.3654C91.5402 71.5647 91.6777 84.9142 83.7286 93.2806C80.2369 96.9608 75.5563 99.2855 70.5159 99.8431C65.4755 100.401 60.4006 99.1551 56.19 96.3269L40.6678 112.478C40.5728 112.578 40.4591 112.657 40.3334 112.712C40.2076 112.767 40.0722 112.797 39.935 112.8C39.7977 112.803 39.6612 112.778 39.5334 112.728C39.4056 112.678 39.2889 112.603 39.19 112.508L35.322 108.786C35.2229 108.691 35.1436 108.577 35.0884 108.451C35.0333 108.325 35.0035 108.19 35.0008 108.053C34.9981 107.915 35.0224 107.779 35.0725 107.651C35.1226 107.523 35.1973 107.406 35.2926 107.307L50.8148 91.1557C47.839 87.0757 46.3946 82.077 46.7352 77.0373C47.0757 71.9976 49.1795 67.2391 52.6771 63.5972ZM57.512 89.5686C59.7011 91.6759 62.4655 93.0863 65.4556 93.6214C68.4457 94.1565 71.5272 93.7923 74.3104 92.5748C77.0936 91.3573 79.4536 89.3412 81.0918 86.7815C82.7301 84.2218 83.5731 81.2335 83.5142 78.1943C83.4553 75.1552 82.4972 72.2018 80.761 69.7076C79.0249 67.2134 76.5886 65.2904 73.7603 64.1818C70.932 63.0732 67.8387 62.8287 64.8716 63.4794C61.9045 64.1301 59.1968 65.6466 57.091 67.8373C55.6928 69.2918 54.5945 71.0077 53.8589 72.8871C53.1234 74.7664 52.7649 76.7723 52.804 78.7902C52.8431 80.8082 53.279 82.7986 54.0868 84.648C54.8946 86.4974 56.0585 88.1694 57.512 89.5686Z" fill="#333333"/>
<path d="M79.7005 74.3999C81.6985 74.3999 81.7017 76.7999 79.7005 76.7999C77.6993 76.7999 77.7009 74.3999 79.7005 74.3999Z" fill="#F2F2F2"/>
<path d="M67.3928 65.4034C72.0929 65.2957 76.3714 67.6814 78.6448 71.2885C79.387 72.4627 77.2796 73.5005 76.5417 72.3321C74.6586 69.3507 71.0796 67.4517 67.2126 67.5565C63.1568 67.6598 59.4658 70.0067 57.5117 73.2636C56.7695 74.4995 54.8282 73.3756 55.5647 72.1469C57.936 68.1924 62.5367 65.5154 67.3928 65.4034Z" fill="#F2F2F2"/>
</g>
<defs>
<linearGradient id="paint0_linear_1025_1104" x1="64.0983" y1="114.004" x2="64.0983" y2="58.202" gradientUnits="userSpaceOnUse">
<stop stop-color="#B3B3B3" stop-opacity="0.25"/>
<stop offset="0.54" stop-color="#B3B3B3" stop-opacity="0.1"/>
<stop offset="1" stop-color="#B3B3B3" stop-opacity="0.05"/>
</linearGradient>
<linearGradient id="paint1_linear_1025_1104" x1="81.5003" y1="78.0016" x2="81.5003" y2="75" gradientUnits="userSpaceOnUse">
<stop stop-opacity="0.12"/>
<stop offset="0.55" stop-opacity="0.09"/>
<stop offset="1" stop-opacity="0.02"/>
</linearGradient>
<linearGradient id="paint2_linear_1025_1104" x1="-17612.6" y1="3216.94" x2="-17612.6" y2="2725.7" gradientUnits="userSpaceOnUse">
<stop stop-opacity="0.12"/>
<stop offset="0.55" stop-opacity="0.09"/>
<stop offset="1" stop-opacity="0.02"/>
</linearGradient>
<clipPath id="clip0_1025_1104">
<rect width="180" height="153.383" fill="white"/>
</clipPath>
</defs>
</svg>
