<svg width="180" height="170" viewBox="0 0 180 170" fill="none" xmlns="http://www.w3.org/2000/svg">
<g clip-path="url(#clip0_1025_577)">
<path d="M10.9097 13.5073C8.0173 13.5107 5.24428 14.6805 3.19902 16.7601C1.15376 18.8398 0.00328987 21.6594 0 24.6005V152.4C0.0033182 155.341 1.1538 158.161 3.19906 160.24C5.24432 162.32 8.01732 163.49 10.9097 163.493H103.11C106.002 163.49 108.775 162.32 110.821 160.24C112.866 158.161 114.016 155.341 114.02 152.4V24.6005C114.016 21.6594 112.866 18.8398 110.821 16.7602C108.775 14.6805 106.002 13.5107 103.11 13.5073H10.9097Z" fill="#3F3D56"/>
<path d="M108.346 21.3862H5.67285V155.614H108.346V21.3862Z" fill="white"/>
<path d="M94.9243 45.4458H19.0957V50.511H94.9243V45.4458Z" fill="#00814F"/>
<path d="M94.9243 58.9531H19.0957V64.0183H94.9243V58.9531Z" fill="#00814F"/>
<path d="M94.9243 72.4604H19.0957V77.5256H94.9243V72.4604Z" fill="#00814F"/>
<path d="M94.9243 85.9673H19.0957V91.0325H94.9243V85.9673Z" fill="#00814F"/>
<path d="M94.9243 99.4746H19.0957V104.54H94.9243V99.4746Z" fill="#00814F"/>
<path d="M94.9243 112.982H19.0957V118.047H94.9243V112.982Z" fill="#00814F"/>
<path d="M94.9243 126.489H19.0957V131.554H94.9243V126.489Z" fill="#00814F"/>
<path d="M95.9909 12.8752L20.7998 26.8667L38.4915 125.166L113.683 111.175L95.9909 12.8752Z" fill="#E6E6E6"/>
<path d="M89.3328 32.3239L33.8008 42.6572L34.4684 46.3666L90.0004 36.0333L89.3328 32.3239Z" fill="#00814F"/>
<path d="M91.113 42.2159L35.5811 52.5493L36.2487 56.2587L91.7806 45.9254L91.113 42.2159Z" fill="#00814F"/>
<path d="M92.8933 52.1075L37.3613 62.4409L38.0289 66.1503L93.5609 55.817L92.8933 52.1075Z" fill="#00814F"/>
<path d="M94.6736 61.9996L39.1416 72.333L39.8092 76.0424L95.3412 65.7091L94.6736 61.9996Z" fill="#00814F"/>
<path d="M96.4536 71.8914L40.9219 82.2246L41.5895 85.934L97.1212 75.6008L96.4536 71.8914Z" fill="#00814F"/>
<path d="M98.2351 81.7834L42.7031 92.1167L43.3707 95.8261L98.9027 85.4928L98.2351 81.7834Z" fill="#00814F"/>
<path d="M100.015 91.6749L44.4834 102.008L45.151 105.718L100.683 95.3844L100.015 91.6749Z" fill="#00814F"/>
<path d="M149.213 120.408L127.938 124.367L132.943 152.181L154.219 148.222L149.213 120.408Z" fill="#E6E6E6"/>
<path d="M147.329 125.911L131.616 128.834L131.805 129.884L147.518 126.96L147.329 125.911Z" fill="white"/>
<path d="M147.832 128.709L132.119 131.633L132.308 132.683L148.021 129.759L147.832 128.709Z" fill="white"/>
<path d="M148.336 131.509L132.623 134.433L132.812 135.482L148.525 132.558L148.336 131.509Z" fill="white"/>
<path d="M148.84 134.308L133.127 137.231L133.316 138.281L149.029 135.357L148.84 134.308Z" fill="white"/>
<path d="M149.344 137.106L133.631 140.03L133.82 141.08L149.533 138.156L149.344 137.106Z" fill="white"/>
<path d="M149.848 139.905L134.135 142.829L134.324 143.879L150.037 140.955L149.848 139.905Z" fill="white"/>
<path d="M150.352 142.705L134.639 145.628L134.828 146.678L150.541 143.754L150.352 142.705Z" fill="white"/>
<path d="M76.0201 7.03499H66.9724V5.1516C66.9724 3.78531 66.4387 2.47498 65.4885 1.50887C64.5384 0.542757 63.2497 0 61.906 0H52.1131C50.7694 1.22809e-06 49.4808 0.542759 48.5306 1.50887C47.5805 2.47498 47.0467 3.78531 47.0467 5.1516V7.03499H37.999C37.3337 7.03499 36.6749 7.16824 36.0602 7.42713C35.4455 7.68602 34.887 8.06549 34.4165 8.54386C33.9461 9.02223 33.5729 9.59013 33.3183 10.2152C33.0637 10.8402 32.9326 11.5101 32.9326 12.1866V26.4515H81.0865V12.1866C81.0865 11.5101 80.9555 10.8402 80.7009 10.2152C80.4463 9.59013 80.0731 9.02223 79.6026 8.54386C79.1322 8.06549 78.5736 7.68602 77.959 7.42713C77.3443 7.16824 76.6854 7.03499 76.0201 7.03499Z" fill="#3F3D56"/>
<path d="M53.7617 145.853C55.2576 144.812 56.7951 143.729 58.5715 143.256C60.1923 142.824 62.0534 142.939 63.3354 144.145C64.3699 145.119 64.8067 146.616 64.0402 147.897C63.8758 148.189 63.6523 148.443 63.3846 148.641C63.1168 148.839 62.8108 148.977 62.4867 149.046C62.1736 149.088 61.8552 149.049 61.561 148.932C61.2668 148.815 61.0065 148.625 60.8044 148.378C60.4025 147.927 60.162 147.259 60.3755 146.664C60.6001 146.038 61.2009 145.655 61.7909 145.442C62.4776 145.22 63.185 145.072 63.9017 144.998L66.8373 144.59L78.8526 142.917L92.2333 141.054C92.3391 141.024 92.4288 140.952 92.4831 140.855C92.5373 140.758 92.5518 140.643 92.5233 140.535C92.4916 140.429 92.421 140.339 92.3259 140.284C92.2309 140.229 92.1187 140.214 92.0126 140.24L65.3877 143.947C64.4247 144.081 63.448 144.177 62.495 144.374C61.7448 144.497 61.0334 144.797 60.418 145.251C59.1426 146.278 59.2337 148.094 60.4074 149.168C61.5955 150.255 63.3182 150.068 64.3609 148.867C64.888 148.259 65.2009 147.49 65.2502 146.681C65.2994 145.872 65.0821 145.07 64.6327 144.401C63.4945 142.655 61.4205 141.985 59.4389 142.233C57.1471 142.519 55.2041 143.829 53.3426 145.124C52.9044 145.429 53.3192 146.161 53.7617 145.853Z" fill="#3F3D56"/>
<path d="M147.185 114.567L147.462 117.381C147.462 117.381 145.801 123.572 149.399 123.572C152.997 123.572 150.229 117.381 150.229 117.381L150.506 115.13L147.185 114.567Z" fill="#A0616A"/>
<path d="M172.322 105.192L171.052 107.708C171.052 107.708 166.353 111.991 169.374 113.977C172.396 115.962 173.377 109.235 173.377 109.235L174.811 107.498L172.322 105.192Z" fill="#A0616A"/>
<path d="M151.613 117.1L155.488 143.833L157.425 162.968C157.425 162.968 159.085 167.189 164.62 163.531L163.79 152.556L163.237 142.707C163.237 142.707 162.683 133.14 162.13 131.451C161.576 129.763 162.406 124.135 162.406 124.135L164.62 114.849L151.613 117.1Z" fill="#2F2E41"/>
<path d="M157.978 162.405L155.764 164.938C155.764 164.938 152.443 163.812 151.613 166.063C150.782 168.315 157.978 168.877 157.978 168.877C157.978 168.877 165.45 169.44 165.45 168.877C165.45 168.315 165.25 164.01 164.243 163.771C163.236 163.531 157.978 162.405 157.978 162.405Z" fill="#2F2E41"/>
<path d="M162.129 115.692L166.003 143.832L167.941 162.968C167.941 162.968 169.601 167.189 175.136 163.53L174.306 152.556L173.752 142.707C173.752 142.707 173.199 133.139 172.645 131.451C172.092 129.762 172.922 124.134 172.922 124.134L172.369 113.723L162.129 115.692Z" fill="#2F2E41"/>
<path d="M168.494 162.405L166.28 164.938C166.28 164.938 162.959 163.812 162.129 166.063C161.299 168.315 168.494 168.877 168.494 168.877C168.494 168.877 175.967 169.44 175.967 168.877C175.967 168.315 175.766 164.01 174.759 163.771C173.753 163.531 168.494 162.405 168.494 162.405Z" fill="#2F2E41"/>
<path d="M153.827 71.2319C157.037 71.2319 159.639 68.5861 159.639 65.3225C159.639 62.0588 157.037 59.4131 153.827 59.4131C150.618 59.4131 148.016 62.0588 148.016 65.3225C148.016 68.5861 150.618 71.2319 153.827 71.2319Z" fill="#A0616A"/>
<path d="M158.117 67.9956L160.608 72.2168L154.242 75.0307L153.412 69.9654L158.117 67.9956Z" fill="#A0616A"/>
<path d="M161.299 71.7948C161.299 71.7948 155.487 71.232 153.273 74.8902L147.811 79.1114C147.369 79.4533 147.023 79.908 146.809 80.4294C146.596 80.9509 146.522 81.5206 146.595 82.0806L151.336 118.507L158.255 118.226L169.601 115.975L172.922 115.13L171.262 100.216C171.262 100.216 169.325 94.3068 171.539 90.3672L170.432 76.5786L162.683 73.4832L161.299 71.7948Z" fill="#575A89"/>
<path d="M148.292 80.2367L147.877 79.5332C147.877 79.5332 147.323 79.5332 147.323 80.6588C147.323 81.7844 146.355 106.125 146.355 106.125L146.078 115.412L151.336 115.974L153.274 98.5277L152.443 86.9903L148.292 80.2367Z" fill="#575A89"/>
<path d="M166.558 76.0156L170.432 76.5784C171.942 78.186 173.244 79.9826 174.307 81.925C175.967 85.0204 180.948 90.9298 179.841 95.4322C178.734 99.9346 175.414 108.095 175.414 108.095L170.155 105.844C170.155 105.844 174.307 95.995 174.03 95.1508C173.753 94.3066 170.432 89.2414 170.432 89.2414L166.558 76.0156Z" fill="#575A89"/>
<path d="M149.814 62.0865C149.814 62.0865 145.109 61.8051 148.153 58.7097C148.153 58.7097 150.644 57.5841 151.751 58.1469C151.751 58.1469 153.411 57.0213 153.411 57.5841C153.411 57.5841 159.223 55.8957 160.053 61.8051C160.884 67.7145 159.5 70.5285 159.5 70.5285L155.625 70.2471C155.625 70.2471 156.456 65.4633 153.411 66.0261C153.411 66.0261 150.921 66.8703 150.644 66.0261C150.367 65.1819 149.814 62.0865 149.814 62.0865Z" fill="#2F2E41"/>
<path opacity="0.2" d="M152.028 115.552L154.518 98.6683L152.858 88.2563L153.411 99.5812L151.751 115.552H152.028Z" fill="black"/>
</g>
<defs>
<clipPath id="clip0_1025_577">
<rect width="180" height="169.128" fill="white"/>
</clipPath>
</defs>
</svg>
