<svg width="180" height="131" viewBox="0 0 180 131" fill="none" xmlns="http://www.w3.org/2000/svg">
<g clip-path="url(#clip0_1025_762)">
<path opacity="0.1" d="M176.95 104.63C172.492 113.831 163.434 119.983 154.051 124.04C146.538 127.267 138.597 129.386 130.476 130.331C128.92 130.516 127.36 130.659 125.794 130.761C121.794 131.022 117.78 131.017 113.78 130.747C111.374 130.587 108.977 130.332 106.588 129.98C98.2862 128.769 90.1928 126.412 82.5389 122.977C80.3299 121.982 78.1656 120.896 76.0462 119.719C72.5061 117.757 69.1142 115.539 65.8975 113.082C65.1858 112.538 64.483 111.983 63.7892 111.415L63.5039 111.182C62.9583 110.732 62.4178 110.272 61.8689 109.826C60.9566 109.061 59.9881 108.367 58.9717 107.748C58.9029 107.707 58.8341 107.667 58.7636 107.628C58.5756 107.519 58.3842 107.417 58.1895 107.32C57.7884 107.117 57.3771 106.936 56.9574 106.776C55.0187 106.037 52.9423 105.769 50.8374 105.814C50.4882 105.814 50.1391 105.837 49.7882 105.861C49.2981 105.894 48.8063 105.945 48.3161 106.009L48.1349 106.034C46.573 106.255 45.0287 106.586 43.5137 107.026C41.1738 107.697 38.8759 108.537 36.5628 109.294C35.5808 109.618 34.5972 109.926 33.6051 110.203L33.3869 110.264C31.976 110.661 30.5398 110.961 29.0881 111.163C25.7893 111.585 22.4388 111.315 19.25 110.371L19.1392 110.339L18.9344 110.279L18.6541 110.192C18.1841 110.044 17.718 109.882 17.2558 109.706L16.9755 109.599C16.5279 109.427 16.0898 109.242 15.6612 109.043L15.3809 108.916C14.9333 108.708 14.4952 108.488 14.0666 108.256C13.9121 108.176 13.7594 108.088 13.6083 108.006C13.1517 107.751 12.7041 107.484 12.2654 107.204C11.7999 106.907 11.3445 106.598 10.8991 106.275C10.6932 106.128 10.4895 105.976 10.2881 105.821C9.12693 104.932 8.03958 103.952 7.0367 102.888C6.9813 102.833 6.92927 102.776 6.87723 102.72C6.61034 102.432 6.34848 102.138 6.09502 101.837C6.00102 101.727 5.90702 101.616 5.8147 101.502C5.51367 101.135 5.22328 100.759 4.94352 100.375C4.90155 100.32 4.86127 100.263 4.82098 100.207C3.67408 98.6213 2.72325 96.9023 1.98923 95.0878C1.96573 95.0324 1.94391 94.9753 1.92377 94.92C1.69996 94.3436 1.49573 93.7578 1.31109 93.1625C1.23555 92.9141 1.16337 92.6589 1.09959 92.4105C1.07776 92.3366 1.05762 92.2611 1.03916 92.1872C0.112586 88.5397 0.00683594 84.7478 0.00683594 80.9777C0.00683594 80.5379 0.00683594 80.0987 0.00683594 79.66C0.0336931 73.5618 0.127693 67.3595 1.02741 61.3451C1.02741 61.3032 1.03916 61.2612 1.04587 61.2209C1.347 59.1962 1.7566 57.1891 2.27291 55.2083C2.81327 53.1299 3.50386 51.0934 4.33923 49.1151C6.40891 44.2472 9.41859 39.8175 12.7606 35.7117C16.7892 30.7716 21.4053 26.2126 26.5467 22.4509C27.2853 21.9104 28.034 21.3856 28.7927 20.8764L29.1435 20.6465C29.266 20.5642 29.3886 20.4786 29.5111 20.4064C29.7629 20.2386 30.0147 20.0808 30.2698 19.9213L30.5552 19.7434L31.099 19.4077L31.2669 19.312L31.5573 19.1442L31.8443 18.9763C32.18 18.7782 32.5197 18.5846 32.8632 18.3955C34.3303 17.5775 35.832 16.83 37.3685 16.1529C37.8217 15.9526 38.2777 15.7596 38.7365 15.5738C40.8196 14.7255 42.9594 14.0238 45.1403 13.4739C45.946 13.2703 46.7567 13.0912 47.5725 12.9368C48.5349 12.751 49.5023 12.5972 50.4748 12.4752C52.0223 12.2805 53.5786 12.1645 55.1379 12.1277C66.1023 11.8608 77.1775 15.4295 85.7701 22.2697C89.1944 24.9957 92.2712 28.2236 96.1168 30.3134C99.474 32.1329 103.404 32.8866 106.999 31.4548C109.97 30.2714 111.904 29.6839 115.241 29.8635C122.146 30.2525 128.953 31.6761 135.436 34.0868C135.698 34.1825 135.959 34.2815 136.22 34.3806C153.124 40.8515 167.659 53.7009 175.209 70.213C175.409 70.6495 175.603 71.0893 175.792 71.5324C180.296 82.0487 181.92 94.3778 176.95 104.63Z" fill="#00814F"/>
<path opacity="0.1" d="M33.6003 46.5619V110.207L33.382 110.267C31.9711 110.664 30.5349 110.965 29.0832 111.167C25.7844 111.589 22.4339 111.319 19.2451 110.374L19.1343 110.343L18.9295 110.282L18.6492 110.195C18.1792 110.047 17.7131 109.885 17.251 109.71L16.9706 109.602C16.523 109.43 16.0849 109.245 15.6563 109.047L15.376 108.919C14.9284 108.711 14.4903 108.491 14.0617 108.259C13.9072 108.179 13.7545 108.092 13.6034 108.009C13.1469 107.754 12.6992 107.487 12.2606 107.207C11.795 106.91 11.3396 106.601 10.8942 106.279C10.6883 106.131 10.4846 105.979 10.2832 105.824C9.12205 104.936 8.0347 103.955 7.03181 102.891C6.97642 102.836 6.92438 102.779 6.87235 102.724C6.60546 102.435 6.3436 102.141 6.09013 101.841C5.99613 101.73 5.90213 101.619 5.80981 101.505C5.50879 101.138 5.2184 100.762 4.93863 100.379C4.89667 100.323 4.85638 100.266 4.8161 100.211C3.66919 98.6246 2.71837 96.9056 1.98435 95.0911C1.96085 95.0357 1.93903 94.9786 1.91888 94.9232C1.69507 94.3469 1.49085 93.7611 1.3062 93.1658C1.23067 92.9173 1.15849 92.6622 1.0947 92.4138C1.07288 92.3399 1.05274 92.2644 1.03427 92.1905C0.107703 88.543 0.00195312 84.7511 0.00195312 80.981C0.00195312 80.5412 0.00195312 80.102 0.00195312 79.6633C0.0288103 73.5651 0.12281 67.3627 1.02252 61.3484C1.02252 61.3065 1.03427 61.2645 1.04099 61.2242C1.34212 59.1995 1.75172 57.1924 2.26802 55.2116H19.4096V46.5619H22.8272V39.6143H30.1827V46.5619H33.6003Z" fill="#00814F"/>
<path opacity="0.1" d="M176.95 104.631C172.492 113.831 163.434 119.983 154.051 124.04C146.538 127.267 138.597 129.386 130.475 130.331C128.92 130.516 127.359 130.659 125.794 130.761C121.793 131.022 117.78 131.017 113.78 130.748C111.374 130.587 108.977 130.332 106.587 129.98C98.2858 128.769 90.1924 126.413 82.5385 122.977C80.3295 121.983 78.1652 120.897 76.0458 119.719C72.5057 117.757 69.1138 115.539 65.8971 113.082C65.1854 112.538 64.4826 111.983 63.7888 111.415L63.5035 111.182C62.9579 110.732 62.4174 110.272 61.8685 109.826C60.9562 109.062 59.9877 108.367 58.9713 107.748C58.9025 107.707 58.8337 107.667 58.7632 107.629C58.5752 107.519 58.3838 107.417 58.1891 107.32C57.788 107.117 57.3767 106.936 56.957 106.776V80.7395H88.1097V86.5356H101.782V44.1382H117.874V61.0918H125.834V51.0539H132.411V40.3312H135.432V34.0869C135.694 34.1826 135.956 34.2816 136.216 34.3807V40.3312H139.157V51.0606H145.728V61.0985H155.419V99.3414H170.821V71.5292H175.785C180.295 82.0488 181.92 94.3779 176.95 104.631Z" fill="#00814F"/>
<path opacity="0.1" d="M113.783 50.5181H106.591V57.7108H113.783V50.5181Z" fill="#00814F"/>
<path opacity="0.1" d="M113.783 65.4272H106.591V72.6199H113.783V65.4272Z" fill="#00814F"/>
<path opacity="0.1" d="M113.783 80.3384H106.591V87.5311H113.783V80.3384Z" fill="#00814F"/>
<path opacity="0.1" d="M113.783 95.249H106.591V102.442H113.783V95.249Z" fill="#00814F"/>
<path opacity="0.1" d="M113.783 110.158H106.591V117.351H113.783V110.158Z" fill="#00814F"/>
<path opacity="0.1" d="M113.783 125.065V130.746C111.378 130.586 108.98 130.33 106.591 129.979V125.065H113.783Z" fill="#00814F"/>
<path opacity="0.1" d="M84.506 90.0352H59.3291V93.2933H84.506V90.0352Z" fill="#00814F"/>
<path opacity="0.1" d="M84.506 99.9302H59.3291V103.188H84.506V99.9302Z" fill="#00814F"/>
<path opacity="0.1" d="M84.5059 109.826V113.082H65.9006C65.1889 112.538 64.4862 111.983 63.7924 111.415L63.507 111.182C62.9615 110.732 62.421 110.272 61.8721 109.826H84.5059Z" fill="#00814F"/>
<path opacity="0.1" d="M84.5064 119.719V122.977H82.5425C80.3335 121.983 78.1693 120.896 76.0498 119.719H84.5064Z" fill="#00814F"/>
<path opacity="0.1" d="M130.478 69.9946H125.797V74.6762H130.478V69.9946Z" fill="#00814F"/>
<path opacity="0.1" d="M29.0927 48.1768H24.4111V52.8583H29.0927V48.1768Z" fill="#00814F"/>
<path opacity="0.1" d="M29.0927 59.0537H24.4111V63.7352H29.0927V59.0537Z" fill="#00814F"/>
<path opacity="0.1" d="M29.0927 69.9292H24.4111V74.6107H29.0927V69.9292Z" fill="#00814F"/>
<path opacity="0.1" d="M29.0927 80.8066H24.4111V85.4882H29.0927V80.8066Z" fill="#00814F"/>
<path opacity="0.1" d="M29.0927 91.6836H24.4111V96.3651H29.0927V91.6836Z" fill="#00814F"/>
<path opacity="0.1" d="M29.0927 102.559H24.4111V107.241H29.0927V102.559Z" fill="#00814F"/>
<path opacity="0.1" d="M148.353 69.9946H143.672V74.6762H148.353V69.9946Z" fill="#00814F"/>
<path opacity="0.1" d="M130.478 81.5435H125.797V86.225H130.478V81.5435Z" fill="#00814F"/>
<path opacity="0.1" d="M148.353 81.5435H143.672V86.225H148.353V81.5435Z" fill="#00814F"/>
<path opacity="0.1" d="M130.478 93.0938H125.797V97.7753H130.478V93.0938Z" fill="#00814F"/>
<path opacity="0.1" d="M148.353 93.0938H143.672V97.7753H148.353V93.0938Z" fill="#00814F"/>
<path opacity="0.1" d="M130.478 104.644H125.797V109.326H130.478V104.644Z" fill="#00814F"/>
<path opacity="0.1" d="M148.353 104.644H143.672V109.326H148.353V104.644Z" fill="#00814F"/>
<path opacity="0.1" d="M130.478 116.192H125.797V120.874H130.478V116.192Z" fill="#00814F"/>
<path opacity="0.1" d="M148.353 116.192H143.672V120.874H148.353V116.192Z" fill="#00814F"/>
<path opacity="0.1" d="M125.797 130.761V127.741H130.478V130.331L125.797 130.761Z" fill="#00814F"/>
<path opacity="0.1" d="M1.02441 61.2261V63.9118H18.9297V61.2261H1.02441ZM2.61906 63.7439H1.30474V61.3939H2.61906V63.7439ZM4.2137 63.7439H2.89938V61.3939H4.2137V63.7439ZM5.80834 63.7439H4.49402V61.3939H5.80834V63.7439ZM7.40299 63.7439H6.08867V61.3939H7.40299V63.7439ZM8.99763 63.7439H7.68331V61.3939H8.99763V63.7439ZM10.5923 63.7439H9.27795V61.3939H10.5923V63.7439ZM12.1869 63.7439H10.8726V61.3939H12.1869V63.7439ZM13.7816 63.7439H12.4672V61.3939H13.7816V63.7439ZM15.3762 63.7439H14.0619V61.3939H15.3762V63.7439ZM16.9708 63.7439H15.6565V61.3939H16.9708V63.7439ZM18.6494 63.7439H17.2512V61.3939H18.6494V63.7439Z" fill="#00814F"/>
<path opacity="0.1" d="M1.02441 69.0244V71.7017H18.9297V69.0244H1.02441ZM2.61906 71.5339H1.30474V69.1923H2.61906V71.5339ZM4.2137 71.5339H2.89938V69.1923H4.2137V71.5339ZM5.80834 71.5339H4.49402V69.1923H5.80834V71.5339ZM7.40299 71.5339H6.08867V69.1923H7.40299V71.5339ZM8.99763 71.5339H7.68331V69.1923H8.99763V71.5339ZM10.5923 71.5339H9.27795V69.1923H10.5923V71.5339ZM12.1869 71.5339H10.8726V69.1923H12.1869V71.5339ZM13.7816 71.5339H12.4672V69.1923H13.7816V71.5339ZM15.3762 71.5339H14.0619V69.1923H15.3762V71.5339ZM16.9708 71.5339H15.6565V69.1923H16.9708V71.5339ZM18.6494 71.5339H17.2512V69.1923H18.6494V71.5339Z" fill="#00814F"/>
<path opacity="0.1" d="M1.02441 76.8213V79.4986H18.9297V76.8213H1.02441ZM2.61906 79.3308H1.30474V76.9891H2.61906V79.3308ZM4.2137 79.3308H2.89938V76.9891H4.2137V79.3308ZM5.80834 79.3308H4.49402V76.9891H5.80834V79.3308ZM7.40299 79.3308H6.08867V76.9891H7.40299V79.3308ZM8.99763 79.3308H7.68331V76.9891H8.99763V79.3308ZM10.5923 79.3308H9.27795V76.9891H10.5923V79.3308ZM12.1869 79.3308H10.8726V76.9891H12.1869V79.3308ZM13.7816 79.3308H12.4672V76.9891H13.7816V79.3308ZM15.3762 79.3308H14.0619V76.9891H15.3762V79.3308ZM16.9708 79.3308H15.6565V76.9891H16.9708V79.3308ZM18.6494 79.3308H17.2512V76.9891H18.6494V79.3308Z" fill="#00814F"/>
<path opacity="0.1" d="M1.02441 84.6118V87.2975H18.9297V84.6118H1.02441ZM2.61906 87.1297H1.30474V84.7797H2.61906V87.1297ZM4.2137 87.1297H2.89938V84.7797H4.2137V87.1297ZM5.80834 87.1297H4.49402V84.7797H5.80834V87.1297ZM7.40299 87.1297H6.08867V84.7797H7.40299V87.1297ZM8.99763 87.1297H7.68331V84.7797H8.99763V87.1297ZM10.5923 87.1297H9.27795V84.7797H10.5923V87.1297ZM12.1869 87.1297H10.8726V84.7797H12.1869V87.1297ZM13.7816 87.1297H12.4672V84.7797H13.7816V87.1297ZM15.3762 87.1297H14.0619V84.7797H15.3762V87.1297ZM16.9708 87.1297H15.6565V84.7797H16.9708V87.1297ZM18.6494 87.1297H17.2512V84.7797H18.6494V87.1297Z" fill="#00814F"/>
<path opacity="0.1" d="M1.09277 92.4155C1.15656 92.6673 1.22874 92.9191 1.30427 93.1675V92.5834H2.6186V94.9334H1.91695C1.9371 94.9888 1.95892 95.0459 1.98242 95.1012H18.936V92.4155H1.09277ZM4.21324 94.9334H2.89892V92.5834H4.21324V94.9334ZM5.80788 94.9334H4.49356V92.5834H5.80788V94.9334ZM7.40253 94.9334H6.0882V92.5834H7.40253V94.9334ZM8.99717 94.9334H7.68285V92.5834H8.99717V94.9334ZM10.5918 94.9334H9.27749V92.5834H10.5918V94.9334ZM12.1865 94.9334H10.8721V92.5834H12.1865V94.9334ZM13.7811 94.9334H12.4668V92.5834H13.7811V94.9334ZM15.3757 94.9334H14.0614V92.5834H15.3757V94.9334ZM16.9704 94.9334H15.6561V92.5834H16.9704V94.9334ZM18.649 94.9334H17.2507V92.5834H18.649V94.9334Z" fill="#00814F"/>
<path opacity="0.1" d="M4.81445 100.212C4.85474 100.268 4.89502 100.325 4.93699 100.38H5.80817V101.507C5.90049 101.619 5.99449 101.73 6.08849 101.842V100.382H7.40281V102.732H6.8707C6.92274 102.787 6.97478 102.844 7.03017 102.9H18.9296V100.214L4.81445 100.212ZM8.99745 102.73H7.68313V100.38H8.99745V102.73ZM10.5921 102.73H9.27778V100.38H10.5921V102.73ZM12.1867 102.73H10.8724V100.38H12.1867V102.73ZM13.7814 102.73H12.4671V100.38H13.7814V102.73ZM15.376 102.73H14.0617V100.38H15.376V102.73ZM16.9707 102.73H15.6564V100.38H16.9707V102.73ZM18.6492 102.73H17.251V100.38H18.6492V102.73Z" fill="#00814F"/>
<path opacity="0.1" d="M13.6035 108.009C13.7546 108.095 13.9073 108.177 14.0618 108.259V108.177H15.3761V108.919L15.6564 109.047V108.177H16.9707V109.602L17.2511 109.71V108.177H18.6493V110.191L18.9296 110.279V108.009H13.6035Z" fill="#00814F"/>
<path opacity="0.1" d="M68.8145 37.9759C68.8145 37.9759 64.8127 37.7342 65.2894 40.5374C65.265 40.6799 65.2863 40.8265 65.3502 40.9561C65.4141 41.0858 65.5174 41.1919 65.6453 41.2592C65.6453 41.2592 65.6453 41.0511 66.0549 41.1216C66.1985 41.1452 66.3444 41.1519 66.4896 41.1417C66.686 41.1288 66.8728 41.0522 67.0217 40.9235C67.0217 40.9235 68.1464 40.4585 68.5845 38.6205C68.5845 38.6205 68.9068 38.2193 68.895 38.1169L68.2236 38.4056C68.2236 38.4056 68.4552 38.8924 68.274 39.297C68.274 39.297 68.2521 38.4241 68.1212 38.4443C68.096 38.4443 67.7704 38.6121 67.7704 38.6121C67.7704 38.6121 68.1682 39.4615 67.8677 40.0775C67.8677 40.0775 67.9819 39.0334 67.6478 38.6742L67.1611 38.9545C67.1611 38.9545 67.626 39.8308 67.3104 40.5458C67.3104 40.5458 67.3927 39.4497 67.062 39.0234L66.6306 39.3591C66.6306 39.3591 67.0671 40.2219 66.7985 40.8161C66.7985 40.8161 66.7632 39.5387 66.5349 39.4413C66.3711 39.5794 66.2251 39.7373 66.1002 39.9113C66.1002 39.9113 66.399 40.5374 66.2143 40.8681C66.2143 40.8681 66.1002 40.0188 66.0062 40.0137C66.0062 40.0137 65.6319 40.5777 65.5933 40.9638C65.6105 40.6056 65.7217 40.2583 65.9156 39.9566C65.6993 39.9976 65.4998 40.1008 65.3415 40.2538C65.3415 40.2538 65.4002 39.8559 66.0129 39.8207C66.0129 39.8207 66.3234 39.3943 66.4074 39.3675C66.4074 39.3675 65.8014 39.3171 65.4338 39.4799C65.4338 39.4799 65.7578 39.1039 66.5182 39.2751L66.9428 38.9277C66.9428 38.9277 66.1455 38.8186 65.8081 38.9394C65.8081 38.9394 66.1959 38.6037 67.057 38.8488L67.5203 38.5718C67.1644 38.4939 66.7999 38.4623 66.4359 38.4778C66.4359 38.4778 66.8623 38.2479 67.6562 38.498L67.992 38.3486C67.992 38.3486 67.4884 38.2512 67.3491 38.2361C67.2097 38.221 67.1946 38.1807 67.1946 38.1807C67.5099 38.1281 67.8336 38.1642 68.1296 38.2848C68.1296 38.2848 68.8262 38.0196 68.8145 37.9759Z" fill="#00814F"/>
<path opacity="0.1" d="M58.3099 51.6176C58.3099 51.6176 56.9418 55.3843 59.7652 55.7284C59.8945 55.792 60.0405 55.8131 60.1825 55.7887C60.3245 55.7642 60.4552 55.6956 60.5558 55.5924C60.5558 55.5924 60.3594 55.527 60.5407 55.1593C60.6042 55.0288 60.6526 54.8913 60.685 54.7498C60.7275 54.5575 60.7063 54.3566 60.6246 54.1774C60.6246 54.1774 60.4987 52.9671 58.8604 52.0255C58.8604 52.0255 58.5684 51.6008 58.466 51.584L58.5499 52.3142C58.5499 52.3142 59.082 52.2302 59.4194 52.519C59.4194 52.519 58.5801 52.2923 58.5583 52.4233C58.5583 52.4484 58.6204 52.8077 58.6204 52.8077C58.6204 52.8077 59.547 52.6667 60.0522 53.13C60.0522 53.13 59.082 52.7237 58.6439 52.9436L58.7748 53.4774C58.7748 53.4774 59.7467 53.2827 60.3426 53.7863C60.3426 53.7863 59.3153 53.3985 58.8118 53.5932L59.0115 54.0968C59.0115 54.0968 59.9633 53.929 60.4568 54.3469C60.4568 54.3469 59.2213 54.0112 59.0652 54.2093C59.1512 54.4047 59.2605 54.589 59.3909 54.7582C59.3909 54.7582 60.0774 54.6507 60.3409 54.926C60.3409 54.926 59.4933 54.7934 59.463 54.8807C59.463 54.8807 59.8978 55.4011 60.257 55.5521C59.9197 55.4328 59.6194 55.2273 59.3858 54.9562C59.3636 55.1757 59.4062 55.3969 59.5084 55.5924C59.5084 55.5924 59.1424 55.4246 59.2818 54.8287C59.2818 54.8287 58.9595 54.4107 58.9595 54.3251C58.9595 54.3251 58.7379 54.8908 58.7916 55.2903C58.7916 55.2903 58.523 54.8723 58.9024 54.1925L58.6909 53.6889C58.6909 53.6889 58.3552 54.4225 58.3787 54.7817C58.3787 54.7817 58.1705 54.3133 58.6473 53.5563L58.5147 53.0343C58.339 53.3513 58.2053 53.6899 58.1168 54.0414C58.1168 54.0414 58.0161 53.5664 58.4811 52.8765L58.4324 52.5173C58.4324 52.5173 58.1974 52.9671 58.142 53.1031C58.0866 53.2391 58.0447 53.234 58.0447 53.234C58.0833 52.9166 58.2094 52.6161 58.4089 52.3662C58.4089 52.3662 58.3552 51.6176 58.3099 51.6176Z" fill="#00814F"/>
<path opacity="0.1" d="M84.8366 48.442C84.8366 48.442 83.4702 52.2154 86.2919 52.5511C86.4216 52.6147 86.5681 52.6356 86.7104 52.6108C86.8527 52.5861 86.9835 52.517 87.0842 52.4135C87.0842 52.4135 86.8861 52.348 87.0691 51.9821C87.1332 51.8513 87.1811 51.7132 87.2118 51.5709C87.2548 51.3787 87.2341 51.1778 87.153 50.9985C87.153 50.9985 87.0271 49.7882 85.3889 48.8465C85.3889 48.8465 85.0951 48.4235 84.9927 48.4067L85.0783 49.1352C85.0783 49.1352 85.6104 49.053 85.9478 49.3417C85.9478 49.3417 85.1085 49.1151 85.085 49.2443C85.085 49.2712 85.1471 49.6287 85.1471 49.6287C85.1471 49.6287 86.0737 49.4894 86.5806 49.951C86.5806 49.951 85.6104 49.5465 85.1706 49.7647L85.3032 50.3002C85.3032 50.3002 86.2751 50.1038 86.871 50.609C86.871 50.609 85.8421 50.2196 85.3385 50.4143L85.5382 50.9179C85.5382 50.9179 86.49 50.75 86.9835 51.168C86.9835 51.168 85.7497 50.8323 85.592 51.032C85.6806 51.2282 85.7934 51.4126 85.9277 51.5809C85.9277 51.5809 86.6125 51.4718 86.8777 51.7488C86.8777 51.7488 86.0301 51.6162 85.9998 51.7051C85.9998 51.7051 86.4329 52.2238 86.7921 52.3766C86.455 52.2577 86.1551 52.0522 85.9226 51.7807C85.9004 52 85.9424 52.221 86.0435 52.4169C86.0435 52.4169 85.6792 52.249 85.8186 51.6548C85.8186 51.6548 85.4963 51.2351 85.4946 51.1512C85.4946 51.1512 85.2747 51.7186 85.3267 52.1164C85.3267 52.1164 85.0582 51.7001 85.4375 51.0186L85.226 50.515C85.226 50.515 84.8903 51.2486 84.9138 51.6061C84.9138 51.6061 84.7057 51.1395 85.1824 50.3824L85.0481 49.8587C84.8724 50.1758 84.7387 50.5143 84.6503 50.8658C84.6503 50.8658 84.5512 50.3908 85.0162 49.7009L84.9675 49.3417C84.9675 49.3417 84.7325 49.7916 84.6755 49.9275C84.6184 50.0635 84.5781 50.0585 84.5781 50.0585C84.6178 49.741 84.7445 49.4407 84.944 49.1906C84.944 49.1906 84.8836 48.4437 84.8366 48.442Z" fill="#00814F"/>
<path opacity="0.1" d="M46.9173 79.2404C46.9173 79.2404 45.5493 83.0088 48.3726 83.3529C48.502 83.4165 48.6483 83.4375 48.7903 83.4128C48.9324 83.388 49.0629 83.3189 49.1632 83.2152C49.1632 83.2152 48.9668 83.1498 49.1481 82.7838C49.2126 82.6531 49.2611 82.515 49.2925 82.3726C49.3358 82.1803 49.3146 81.9792 49.232 81.8002C49.232 81.8002 49.1061 80.59 47.4679 79.65C47.4679 79.65 47.1758 79.2253 47.0734 79.2085L47.1573 79.937C47.1573 79.937 47.6911 79.8547 48.0268 80.1435C48.0268 80.1435 47.1875 79.9168 47.1657 80.0461C47.1657 80.073 47.2278 80.4305 47.2278 80.4305C47.2278 80.4305 48.1544 80.2912 48.6596 80.7528C48.6596 80.7528 47.6894 80.3482 47.2513 80.5665L47.3823 81.1019C47.3823 81.1019 48.3541 80.9055 48.95 81.4108C48.95 81.4108 47.9228 81.0214 47.4192 81.2161L47.6189 81.7196C47.6189 81.7196 48.5707 81.5518 49.0642 81.9697C49.0642 81.9697 47.8304 81.634 47.6726 81.8338C47.7586 82.0292 47.868 82.2135 47.9983 82.3827C47.9983 82.3827 48.6848 82.2736 48.95 82.5505C48.95 82.5505 48.1007 82.4179 48.0705 82.5069C48.0705 82.5069 48.5052 83.0256 48.8644 83.1783C48.527 83.0599 48.2266 82.855 47.9933 82.5841C47.971 82.803 48.0137 83.0237 48.1158 83.2186C48.1158 83.2186 47.7499 83.0507 47.8892 82.4565C47.8892 82.4565 47.5686 82.0369 47.5669 81.9529C47.5669 81.9529 47.3453 82.5203 47.399 82.9181C47.399 82.9181 47.1305 82.5018 47.5098 81.8203L47.2983 81.3168C47.2983 81.3168 46.9626 82.0503 46.9878 82.4078C46.9878 82.4078 46.7796 81.9412 47.2564 81.1842L47.1221 80.6621C46.9461 80.979 46.8123 81.3176 46.7243 81.6693C46.7243 81.6693 46.6235 81.1926 47.0885 80.5044L47.0398 80.1435C47.0398 80.1435 46.8048 80.5933 46.7494 80.7293C46.694 80.8652 46.6521 80.8602 46.6521 80.8602C46.6909 80.5425 46.8176 80.2419 47.018 79.9924C47.018 79.9924 46.9626 79.2404 46.9173 79.2404Z" fill="#00814F"/>
<path opacity="0.1" d="M41.4889 43.7235C41.4889 43.7235 40.1226 47.4902 42.9443 47.8343C43.0739 47.8978 43.2202 47.9188 43.3624 47.8944C43.5046 47.87 43.6355 47.8014 43.7365 47.6984C43.7365 47.6984 43.5385 47.6329 43.7214 47.2653C43.7847 47.1342 43.8326 46.9962 43.8641 46.8541C43.9071 46.6625 43.8865 46.4621 43.8054 46.2833C43.8054 46.2833 43.6795 45.0731 42.0395 44.1314C42.0395 44.1314 41.7474 43.7067 41.645 43.6899L41.7307 44.4201C41.7307 44.4201 42.2628 44.3362 42.5985 44.6249C42.5985 44.6249 41.7592 44.3983 41.7374 44.5292C41.7374 44.5544 41.7995 44.9136 41.7995 44.9136C41.7995 44.9136 42.726 44.7726 43.233 45.2359C43.233 45.2359 42.2628 44.8297 41.823 45.0496L41.9539 45.5834C41.9539 45.5834 42.9258 45.387 43.5234 45.8922C43.5234 45.8922 42.4944 45.5028 41.9908 45.6992L42.1906 46.2028C42.1906 46.2028 43.1423 46.0349 43.6358 46.4545C43.6358 46.4545 42.4021 46.1188 42.2443 46.3169C42.3303 46.5124 42.4396 46.6967 42.5699 46.8658C42.5699 46.8658 43.2565 46.7584 43.5217 47.0337C43.5217 47.0337 42.674 46.901 42.6438 46.9883C42.6438 46.9883 43.0769 47.5087 43.4361 47.6598C43.099 47.54 42.7988 47.3346 42.5649 47.0639C42.5427 47.2834 42.5853 47.5045 42.6874 47.7001C42.6874 47.7001 42.3215 47.5322 42.4625 46.9363C42.4625 46.9363 42.1402 46.5183 42.1385 46.4327C42.1385 46.4327 41.9186 46.9984 41.9707 47.3979C41.9707 47.3979 41.7004 46.9799 42.0815 46.3001L41.8683 45.7966C41.8683 45.7966 41.5326 46.5301 41.5578 46.8893C41.5578 46.8893 41.3496 46.421 41.8263 45.6639L41.692 45.1419C41.5164 45.459 41.3826 45.7975 41.2942 46.149C41.2942 46.149 41.1952 45.674 41.6585 44.9841L41.6115 44.6249C41.6115 44.6249 41.3748 45.0748 41.3194 45.2091C41.264 45.3433 41.222 45.3417 41.222 45.3417C41.2608 45.024 41.3876 44.7234 41.588 44.4738C41.588 44.4738 41.5359 43.7235 41.4889 43.7235Z" fill="#00814F"/>
<path opacity="0.1" d="M51.6348 64.2358C51.6348 64.2358 52.6906 68.0965 55.195 66.7537C55.3373 66.731 55.4689 66.664 55.5708 66.562C55.6727 66.4601 55.7397 66.3286 55.7624 66.1863C55.7624 66.1863 55.5643 66.2467 55.5022 65.8422C55.4785 65.6986 55.438 65.5583 55.3813 65.4242C55.3069 65.242 55.1741 65.0897 55.0037 64.9911C55.0037 64.9911 54.203 64.0746 52.3179 64.2492C52.3179 64.2492 51.8345 64.073 51.7405 64.1183L52.2307 64.6638C52.2307 64.6638 52.6184 64.2895 53.0599 64.3281C53.0599 64.3281 52.2391 64.6303 52.2995 64.7461C52.3129 64.7696 52.5714 65.0247 52.5714 65.0247C52.5714 65.0247 53.2428 64.3751 53.9277 64.4607C53.9277 64.4607 52.9021 64.689 52.6704 65.1221L53.0851 65.483C53.0851 65.483 53.7666 64.7629 54.5454 64.83C54.5454 64.83 53.4795 65.1053 53.1807 65.5552L53.6373 65.8556C53.6373 65.8556 54.3087 65.1657 54.9634 65.2278C54.9634 65.2278 53.7649 65.6693 53.7464 65.9177C53.9298 66.028 54.1259 66.1154 54.3306 66.1779C54.3306 66.1779 54.8341 65.6945 55.2017 65.7633C55.2017 65.7633 54.4313 66.1443 54.4581 66.2333C54.4581 66.2333 55.1128 66.4012 55.4905 66.3206C55.1466 66.4181 54.7831 66.4239 54.4363 66.3374C54.5443 66.5295 54.7066 66.6854 54.903 66.7856C54.903 66.7856 54.5068 66.8577 54.2785 66.2921C54.2785 66.2921 53.7749 66.1359 53.7212 66.0654C53.7212 66.0654 53.8689 66.6563 54.1409 66.9517C54.1409 66.9517 53.681 66.7654 53.5987 65.9899L53.1337 65.6995C53.1337 65.6995 53.2865 66.4901 53.5081 66.7704C53.5081 66.7704 53.0683 66.5086 53.0213 65.6156L52.6117 65.2664C52.6516 65.6287 52.7385 65.9842 52.8702 66.3239C52.8702 66.3239 52.516 65.9882 52.4976 65.1624L52.2508 64.8955C52.2508 64.8955 52.3179 65.399 52.3498 65.5417C52.3817 65.6844 52.3498 65.7096 52.3498 65.7096C52.1986 65.4276 52.1289 65.1091 52.1484 64.7897C52.1484 64.7897 51.6734 64.2106 51.6348 64.2358Z" fill="#00814F"/>
<path opacity="0.1" d="M80.2783 67.6834C80.2783 67.6834 81.3341 71.5441 83.8369 70.2012C83.9796 70.1792 84.1116 70.1123 84.2139 70.0103C84.3162 69.9084 84.3834 69.7765 84.4059 69.6339C84.4059 69.6339 84.2062 69.6943 84.1441 69.2982C84.1217 69.1545 84.0817 69.0141 84.0249 68.8802C83.9493 68.6982 83.816 68.546 83.6455 68.4471C83.6455 68.4471 82.8449 67.5306 80.9598 67.7069C80.9598 67.7069 80.4764 67.529 80.3841 67.5743L80.8725 68.1198C80.8725 68.1198 81.2603 67.7455 81.7017 67.7841C81.7017 67.7841 80.8809 68.0862 80.943 68.2021C80.9548 68.2256 81.215 68.4807 81.215 68.4807C81.215 68.4807 81.8864 67.8311 82.5712 67.9167C82.5712 67.9167 81.544 68.145 81.3123 68.5781L81.7286 68.939C81.7286 68.939 82.4 68.2189 83.1873 68.286C83.1873 68.286 82.1231 68.5613 81.8243 69.0111L82.2809 69.3116C82.2809 69.3116 82.9523 68.6217 83.6052 68.6838C83.6052 68.6838 82.4067 69.1253 82.39 69.3737C82.5727 69.484 82.7683 69.5714 82.9724 69.6339C82.9724 69.6339 83.476 69.1505 83.8436 69.2193C83.8436 69.2193 83.0748 69.6003 83.1 69.6893C83.1 69.6893 83.7546 69.8571 84.134 69.7766C83.7895 69.874 83.4256 69.8798 83.0782 69.7933C83.1867 69.985 83.3489 70.1408 83.5448 70.2415C83.5448 70.2415 83.1487 70.3137 82.9204 69.748C82.9204 69.748 82.4168 69.5919 82.3648 69.5214C82.3648 69.5214 82.5108 70.1123 82.7827 70.4077C82.7827 70.4077 82.3228 70.2214 82.2406 69.4459L81.7756 69.1521C81.7756 69.1521 81.9283 69.9427 82.1516 70.2231C82.1516 70.2231 81.7118 69.9612 81.6648 69.0682L81.2536 68.7191C81.2934 69.0815 81.3809 69.437 81.5137 69.7766C81.5137 69.7766 81.1579 69.4408 81.1394 68.615L80.8927 68.3481C80.8927 68.3481 80.9598 68.8517 80.9917 68.9943C81.0236 69.137 80.9917 69.1622 80.9917 69.1622C80.8405 68.8802 80.7708 68.5617 80.7903 68.2424C80.7903 68.2424 80.3169 67.6582 80.2783 67.6834Z" fill="#00814F"/>
<path d="M69.532 106.455C69.532 106.455 78.2404 103.523 76.4376 93.1323L65.3758 90.2603L62.8076 98.7857L69.532 106.455Z" fill="#CED7E7"/>
<path opacity="0.1" d="M62.8076 98.7858L69.5303 106.455C69.5303 106.455 78.2387 103.523 76.4359 93.1323L62.8076 98.7858Z" fill="black"/>
<path d="M26.2144 22.0244C26.2144 22.0244 27.3894 23.9363 28.9958 22.9812C30.6022 22.026 29.0613 19.3873 29.0613 19.3873C29.0613 19.3873 25.9845 18.966 26.2144 22.0244Z" fill="#FED253"/>
<path opacity="0.1" d="M28.9959 22.9812C28.8064 23.1038 28.5939 23.1864 28.3713 23.2239C28.1488 23.2614 27.9209 23.2531 27.7017 23.1994C27.1125 23.05 26.6593 22.5968 26.4159 22.2997C26.3433 22.2126 26.276 22.1212 26.2145 22.0261C26.1322 20.935 26.4713 20.2854 26.9413 19.9027C27.5875 19.3773 28.4822 19.3554 28.8683 19.3722C28.9875 19.3722 29.0563 19.389 29.0563 19.389L29.0882 19.4427C29.1335 19.5283 29.2325 19.718 29.3383 19.9715C29.6975 20.8024 30.1256 22.3081 28.9959 22.9812Z" fill="black"/>
<path d="M70.3877 92.644L76.4306 93.1325L87.677 93.2248L78.8158 104.136C78.8158 104.136 76.0042 104.288 75.4251 104.684C74.846 105.081 66.715 104.869 66.715 104.869L65.4023 99.2761L70.3877 92.644Z" fill="#FFA2A2"/>
<path opacity="0.05" d="M70.3877 92.644L76.4306 93.1325L87.677 93.2248L78.8158 104.136C78.8158 104.136 76.0042 104.288 75.4251 104.684C74.846 105.081 66.715 104.869 66.715 104.869L65.4023 99.2761L70.3877 92.644Z" fill="black"/>
<path d="M64.2757 63.3089L65.6807 65.6925L65.9862 69.8487C65.9862 69.8487 66.9648 73.3921 67.6984 74.4312C68.4319 75.4702 68.7374 78.2214 68.7374 78.2214C68.7374 78.2214 69.0429 80.7879 69.4088 81.3368C69.7747 81.8857 70.2649 85.869 70.2649 85.869C70.2649 85.869 73.5045 92.3466 76.437 93.1405C76.437 93.1405 61.8922 97.9077 69.5314 106.463C69.5314 106.463 64.0928 107.806 62.8087 106.28C61.5246 104.755 58.1641 82.1409 58.1641 82.1409L59.2031 63.0723L64.2757 63.3089Z" fill="#CED7E7"/>
<path opacity="0.05" d="M64.2757 63.3089L65.6807 65.6925L65.9862 69.8487C65.9862 69.8487 66.9648 73.3921 67.6984 74.4312C68.4319 75.4702 68.7374 78.2214 68.7374 78.2214C68.7374 78.2214 69.0429 80.7879 69.4088 81.3368C69.7747 81.8857 70.2649 85.869 70.2649 85.869C70.2649 85.869 73.5045 92.3466 76.437 93.1405C76.437 93.1405 61.8922 97.9077 69.5314 106.463C69.5314 106.463 64.0928 107.806 62.8087 106.28C61.5246 104.755 58.1641 82.1409 58.1641 82.1409L59.2031 63.0723L64.2757 63.3089Z" fill="black"/>
<path d="M46.6289 40.0791C46.2208 42.1963 46.3419 44.3816 46.9814 46.4408L44.7187 52.9185C44.7187 52.9185 27.4848 43.3237 28.9519 41.0006C29.7828 39.6829 29.8885 36.1965 29.8214 33.4269C29.7727 31.3219 29.6233 29.6333 29.6233 29.6333C29.6233 29.6333 50.7733 31.7131 47.9584 36.5406C47.3214 37.6379 46.872 38.8338 46.6289 40.0791Z" fill="#FFA2A2"/>
<path opacity="0.1" d="M47.9591 36.5406C47.322 37.6379 46.8727 38.8338 46.6296 40.0791C43.4909 41.0832 40.1013 40.9692 37.0371 39.7564C33.973 38.5437 31.4235 36.307 29.8221 33.4269C29.7734 31.3219 29.624 29.6333 29.624 29.6333C29.624 29.6333 50.769 31.7131 47.9591 36.5406Z" fill="black"/>
<path d="M56.5142 26.1504C56.5157 28.3911 55.9884 30.6005 54.9753 32.599C53.9621 34.5976 52.4916 36.3288 50.6834 37.6521C48.8752 38.9753 46.7803 39.8532 44.5689 40.2144C42.3575 40.5756 40.0921 40.4099 37.9568 39.7308C35.8216 39.0516 33.8767 37.8782 32.2803 36.3059C30.6838 34.7336 29.481 32.8068 28.7694 30.6821C28.0578 28.5575 27.8577 26.2948 28.1852 24.0782C28.5127 21.8616 29.3586 19.7536 30.6542 17.9254C30.8556 17.6423 31.0676 17.3659 31.2903 17.0962C32.5592 15.554 34.1382 14.2958 35.9249 13.4033C36.8942 12.9184 37.9166 12.5477 38.9715 12.2988C40.8762 11.8476 42.8535 11.7931 44.7802 12.1388C46.7069 12.4845 48.5419 13.2229 50.171 14.3082C51.8001 15.3935 53.1884 16.8023 54.2497 18.4472C55.3109 20.092 56.0223 21.9376 56.3397 23.8692C56.4582 24.6238 56.5166 25.3866 56.5142 26.1504Z" fill="#FFA2A2"/>
<path d="M62.1352 84.7009C61.9221 85.8389 62.1889 87.9187 62.5935 90.0354C62.6103 90.1277 62.6287 90.22 62.6472 90.3123C62.6657 90.4047 62.6925 90.5473 62.716 90.6632C62.9023 91.5729 63.1054 92.4743 63.3035 93.2935C63.5016 94.1126 63.6795 94.8143 63.8306 95.3917C64.0589 96.2561 64.215 96.8 64.215 96.8C64.215 96.8 64.2351 97.3338 64.262 98.1832C64.2771 98.6733 64.2939 99.2709 64.3107 99.9305C64.3107 100.122 64.3224 100.317 64.3274 100.518C64.3358 100.869 64.3442 101.233 64.3526 101.606C64.3526 101.727 64.3526 101.847 64.361 101.97C64.361 102.371 64.3761 102.781 64.3828 103.189C64.3912 103.749 64.3979 104.31 64.4013 104.854C64.4013 105.062 64.4013 105.267 64.4013 105.468C64.4013 105.989 64.4013 106.487 64.4013 106.945C64.3828 108.246 64.3308 109.228 64.22 109.512C64.1814 109.609 64.1462 109.715 64.1126 109.826C63.967 110.347 63.8615 110.878 63.797 111.415L63.5117 111.182C62.9661 110.732 62.4256 110.272 61.8767 109.826C60.9644 109.061 59.9959 108.367 58.9795 107.748C58.9107 107.707 58.8419 107.667 58.7714 107.628C58.5834 107.519 58.392 107.417 58.1973 107.32C57.7962 107.117 57.3849 106.936 56.9652 106.776C55.0265 106.037 52.9501 105.769 50.8452 105.814C50.0059 106.135 49.4603 106.365 49.4603 106.365L48.3928 106.687L48.2148 106.741C47.0583 107.093 45.4318 107.593 44.8459 107.801C43.8992 108.137 35.6793 109.848 35.6793 109.848C34.9283 110.053 34.1612 110.193 33.3863 110.267C31.9754 110.664 30.5392 110.965 29.0875 111.167C25.7887 111.589 22.4382 111.319 19.2494 110.375C19.1542 110.38 19.0587 110.377 18.964 110.366C19.0228 110.366 19.0799 110.353 19.1319 110.343L18.9271 110.282L18.6468 110.195C18.1768 110.047 17.7107 109.886 17.2485 109.71L16.9682 109.602C16.5206 109.43 16.0825 109.245 15.6539 109.047L15.3736 108.919C14.926 108.711 14.4878 108.491 14.0593 108.26C13.9048 108.179 13.7521 108.092 13.601 108.01C13.1444 107.754 12.6968 107.487 12.2581 107.207C12.1843 106.574 12.1457 106.151 12.1457 106.151L11.491 102.892L11.4575 102.724L10.9875 100.374L10.9539 100.206L9.93165 95.0929L9.89807 94.925L9.42807 92.575L9.3945 92.4072L8.35882 87.2976L8.32525 87.1298L7.85525 84.7798L7.82168 84.6119L6.79439 79.4923L6.76082 79.3244L6.29082 76.9828L6.25725 76.8149L6.07093 75.8917L5.79061 74.4935C5.79061 74.4935 4.89593 73.2144 3.88879 71.702L3.77632 71.5341C3.48929 71.1095 3.19386 70.668 2.90682 70.2349C2.81114 70.0923 2.71882 69.9512 2.6265 69.8119C2.48662 69.6004 2.35121 69.394 2.22028 69.1925L2.12964 69.0532L2.11118 69.0247C0.66425 66.7855 1.63278 65.8119 1.63278 65.8119C1.63278 65.8119 2.24043 64.9894 3.02432 63.9017C3.06293 63.8463 3.10321 63.7909 3.14518 63.7338C3.48089 63.2638 3.85018 62.7502 4.21275 62.2365L4.49307 61.837C4.59882 61.6876 4.70289 61.5382 4.80361 61.3905C4.84389 61.3351 4.8825 61.2781 4.91943 61.2227C5.69325 60.1047 6.33111 59.1295 6.46204 58.7837C6.66682 58.2382 7.97275 56.6251 9.27365 55.21C10.2993 54.0921 11.3198 53.0984 11.7781 52.86C12.8171 52.3111 13.2451 50.5369 13.2451 50.5369C13.2451 50.5369 15.5062 49.7446 15.8117 49.1336C16.1172 48.5226 20.3959 45.7765 20.3959 45.7765C20.3959 45.7765 22.1265 44.6619 22.8264 43.9905C22.9255 43.9027 23.012 43.8015 23.0833 43.69C23.3267 43.2536 24.9163 42.8944 25.5625 42.7651C25.7304 42.7315 25.8344 42.7131 25.8344 42.7131C26.0953 42.239 26.4251 41.8062 26.813 41.429C27.0766 41.1956 27.4056 40.3916 27.6825 39.6127C27.983 38.7634 28.2163 37.9459 28.2163 37.9459C28.7065 36.2959 29.6834 36.7844 29.6834 36.7844C29.6821 37.0097 29.7034 37.2347 29.7472 37.4558C30.1551 39.4701 32.3708 40.3094 33.534 41.251C34.8181 42.2884 36.8341 44.9791 38.4237 45.528C39.7397 45.9829 41.2655 47.6984 41.749 48.2708L41.7859 48.3145C41.8665 48.4085 41.9068 48.4622 41.9068 48.4622C41.9068 48.4622 42.8082 48.4152 43.3571 48.4051H43.5568C43.6684 48.3939 43.7745 48.3508 43.8623 48.2809C44.4078 47.9099 45.2203 46.8222 45.5744 46.5721C46.0008 46.2649 46.4305 41.3148 46.4305 41.3148L46.4523 41.3047C47.9748 40.5914 49.6081 47.732 49.6081 47.732C49.6081 47.732 52.4801 48.5881 52.7252 49.1991C52.7722 49.3199 52.9887 49.5348 53.3143 49.795C54.7971 50.9281 56.3752 51.9306 58.0311 52.7912C58.0681 52.8097 58.1033 52.8281 58.1402 52.8432C58.1735 52.8612 58.2077 52.8774 58.2426 52.8919C58.3047 52.9221 58.3652 52.949 58.4222 52.9742C58.5129 53.0145 58.5968 53.048 58.674 53.0749L58.7747 53.1101C59.0153 53.1902 59.2419 53.3074 59.4462 53.4576C59.5066 53.5012 59.567 53.5466 59.6258 53.5952C59.8544 53.7855 60.0645 53.9968 60.2536 54.2264C60.2821 54.26 60.3089 54.2952 60.3358 54.3288C60.4634 54.4882 60.5775 54.646 60.6715 54.7921C60.8258 55.0174 60.9665 55.2517 61.0928 55.4937C61.0928 55.4937 63.5973 59.7724 64.3929 60.2592C65.1886 60.746 65.677 65.6994 65.677 65.6994L62.9913 75.655C62.9913 75.655 62.8654 78.1729 62.6304 80.7411C62.4995 82.1813 62.3333 83.6467 62.1352 84.7009Z" fill="#CED7E7"/>
<path d="M41.9078 48.7642C41.9078 48.7642 40.1067 49.7411 38.7 49.8334C38.5159 49.842 38.3314 49.8313 38.1495 49.8015C36.6757 49.5783 34.5137 48.3664 34.5137 48.3664L37.05 45.585L40.1352 47.1141L41.2699 48.17L41.9078 48.7642Z" fill="#63667E"/>
<path opacity="0.1" d="M56.3332 23.8693C56.2694 23.9595 56.1969 24.0433 56.1167 24.1194C55.2338 24.9587 53.666 24.6112 52.4625 24.4165C51.4166 24.2455 50.395 23.9502 49.4192 23.5369C48.5698 23.1744 47.551 22.7312 46.7872 23.2516C46.4935 23.4496 46.292 23.7669 45.9865 23.9415C45.681 24.116 45.2916 24.1278 44.9307 24.1328C43.7557 24.1328 42.5807 24.1463 41.4342 23.881C39.7238 23.4815 37.9546 22.4761 36.328 23.1391C35.0557 23.6561 34.3658 25.0409 34.0217 26.372C33.8538 27.025 33.7296 27.7149 33.3502 28.2688C32.9709 28.8228 32.2373 29.2155 31.6129 28.9554C30.6914 28.571 30.5554 27.0065 29.4442 26.9276C28.2239 26.842 28.239 28.1026 28.5948 29.0141C29.1219 30.357 29.8118 31.6998 29.842 33.0998C28.5305 30.7507 27.9108 28.0784 28.0545 25.3919C28.1983 22.7053 29.0997 20.1144 30.6544 17.9188C30.925 17.7512 31.1368 17.5036 31.2604 17.2104C31.2728 17.1707 31.2829 17.1304 31.2906 17.0895C31.3829 16.6212 31.1228 16.1294 31.1077 15.6393C31.0489 14.4424 32.3448 13.6082 33.5332 13.4571C34.3238 13.3564 35.1329 13.4336 35.9252 13.4084C36.3242 13.3996 36.7211 13.3467 37.1086 13.2506C37.777 13.0504 38.4028 12.7289 38.955 12.3023C40.8597 11.851 42.837 11.7965 44.7637 12.1422C46.6904 12.4879 48.5254 13.2263 50.1545 14.3116C51.7836 15.3969 53.1719 16.8058 54.2331 18.4506C55.2944 20.0954 56.0058 21.9411 56.3232 23.8726L56.3332 23.8693Z" fill="black"/>
<path d="M56.6202 22.8809C56.5366 23.2129 56.3622 23.5151 56.1167 23.7537C55.2337 24.593 53.666 24.2439 52.4624 24.0492C51.4165 23.8819 50.3947 23.5888 49.4192 23.1763C48.5698 22.8154 47.5509 22.3723 46.7872 22.8926C46.4934 23.0907 46.292 23.4079 45.9865 23.5825C45.681 23.7571 45.2916 23.7688 44.9307 23.7722C43.7557 23.7806 42.5807 23.7873 41.4342 23.5221C39.7237 23.1209 37.9545 22.1171 36.328 22.7785C35.0556 23.2955 34.3657 24.682 34.0216 26.0131C33.8538 26.666 33.7296 27.3559 33.3502 27.9082C32.9708 28.4604 32.2373 28.8566 31.6129 28.5964C30.6913 28.212 30.5554 26.6476 29.4442 26.5687C28.2238 26.4831 28.239 27.7437 28.5948 28.6552C29.2192 30.2448 30.0686 31.826 29.79 33.5113C29.513 33.5113 29.0547 33.5012 28.7828 33.4945C28.9943 33.1336 28.5915 32.7039 28.1903 32.5813C27.7891 32.4588 27.3208 32.4605 27.0153 32.1684C26.7098 31.8763 26.7081 31.4248 26.74 31.0203C26.8096 30.1556 27.0211 29.3084 27.3661 28.5125C27.586 28.0089 27.8697 27.4634 27.7018 26.9363C27.6011 26.6974 27.4797 26.4677 27.3392 26.2498C26.9901 25.5783 27.0723 24.739 27.3711 24.0458C27.4987 23.7504 27.591 23.4717 27.6968 23.2065C27.8303 22.8295 28.0236 22.4764 28.2692 22.1608C28.6536 21.6824 29.0296 20.9623 28.6049 20.5174C28.4975 20.405 28.7123 20.3278 28.6435 20.1817C28.6313 20.1568 28.6228 20.1302 28.6183 20.1028C28.5986 19.926 28.6413 19.7479 28.7392 19.5993C28.759 19.5606 28.7808 19.5231 28.8046 19.4868C28.8239 19.4484 28.8458 19.4114 28.8701 19.376C29.2418 18.7554 29.7358 18.2169 30.3221 17.7931C30.6863 17.5296 31.1127 17.2761 31.257 16.8498C31.4249 16.3462 31.1295 15.8107 31.1043 15.2786C31.0455 14.0818 32.3414 13.2475 33.5298 13.0965C34.7182 12.9454 35.9503 13.1955 37.1085 12.8883C38.7518 12.4553 39.9067 11.005 41.399 10.1909C42.2153 9.75437 43.1206 9.51021 44.0457 9.47704C44.9708 9.44388 45.8913 9.62258 46.7368 9.99951C48.4792 10.7952 49.7935 12.4032 51.6131 13.0075C52.2576 13.2224 52.9559 13.308 53.5367 13.6638C54.2081 14.0768 54.616 14.7985 54.9652 15.5103C55.4973 16.5896 55.6047 17.6739 55.9723 18.817C56.2644 19.7235 56.6689 20.9085 56.7025 21.9526C56.7214 22.2644 56.6936 22.5773 56.6202 22.8809Z" fill="#896363"/>
<g opacity="0.1">
<path opacity="0.1" d="M28.8235 20.7772C28.8504 20.6698 28.853 20.5577 28.8313 20.4491C28.8095 20.3406 28.7638 20.2382 28.6976 20.1494C28.7413 20.2803 28.5516 20.3559 28.6557 20.465C28.7386 20.5521 28.7966 20.66 28.8235 20.7772Z" fill="black"/>
<path opacity="0.1" d="M28.6925 19.7651C28.6727 19.8237 28.6608 19.8847 28.6572 19.9464C28.6891 19.8927 28.7328 19.8373 28.6925 19.7651Z" fill="black"/>
<path opacity="0.1" d="M56.164 23.3438C55.2794 24.1831 53.7133 23.8356 52.5064 23.6392C51.4612 23.4709 50.4404 23.1761 49.4665 22.7613C48.6154 22.3987 47.5982 21.9556 46.8328 22.476C46.5407 22.674 46.3393 22.9913 46.0321 23.1659C45.7249 23.3404 45.3372 23.3522 44.9763 23.3555C43.8013 23.3555 42.6263 23.3706 41.4781 23.1037C39.7694 22.7042 38.0001 21.7021 36.3736 22.3618C35.1012 22.8805 34.4114 24.2653 34.0673 25.5964C33.8994 26.2494 33.7769 26.9393 33.3958 27.4932C33.0148 28.0471 32.2812 28.4399 31.6585 28.1814C30.737 27.7954 30.601 26.2326 29.4898 26.1537C28.622 26.0916 28.3802 26.7127 28.439 27.4026C28.4894 26.8755 28.7747 26.4693 29.4898 26.5196C30.601 26.5985 30.737 28.163 31.6585 28.5474C32.2812 28.8075 33.0165 28.4164 33.3958 27.8591C33.7752 27.3019 33.8994 26.6153 34.0673 25.964C34.4114 24.6329 35.1012 23.2464 36.3736 22.7294C38.0001 22.0681 39.7694 23.0651 41.4781 23.4714C42.6196 23.7382 43.8046 23.7299 44.9763 23.7215C45.3372 23.7215 45.7182 23.7114 46.0321 23.5335C46.346 23.3555 46.5357 23.0416 46.8328 22.8419C47.5982 22.3232 48.6154 22.7664 49.4665 23.1272C50.4406 23.5419 51.4613 23.8372 52.5064 24.0068C53.7133 24.2015 55.2794 24.5524 56.164 23.7097C56.6441 23.2515 56.7884 22.5884 56.7565 21.8633C56.7297 22.439 56.5618 22.9611 56.164 23.3438Z" fill="black"/>
<path opacity="0.1" d="M31.1633 14.9746C31.154 15.0582 31.1506 15.1423 31.1532 15.2264C31.17 15.5755 31.3026 15.9247 31.3445 16.2654C31.4066 15.8475 31.2136 15.411 31.1633 14.9746Z" fill="black"/>
<path opacity="0.1" d="M27.7525 26.8842C27.7664 26.9344 27.777 26.9854 27.7844 27.0369C27.8116 26.8638 27.8008 26.6868 27.7525 26.5183C27.6525 26.2785 27.5311 26.0482 27.39 25.83C27.2639 25.5817 27.1891 25.3106 27.1701 25.0327C27.1359 25.4338 27.212 25.8366 27.39 26.1976C27.5314 26.415 27.6528 26.6448 27.7525 26.8842Z" fill="black"/>
<path opacity="0.1" d="M29.8354 33.0913L28.8535 33.0761C28.8764 33.1355 28.8855 33.1992 28.8803 33.2626C28.8751 33.3259 28.8556 33.3873 28.8232 33.4421C29.1002 33.4421 29.5601 33.4521 29.8304 33.4589C29.8773 33.1716 29.8937 32.8801 29.8791 32.5894C29.8753 32.7574 29.8607 32.9251 29.8354 33.0913Z" fill="black"/>
<path opacity="0.1" d="M28.2291 32.1631C27.828 32.0422 27.3613 32.0405 27.0625 31.7468C26.8866 31.5544 26.7875 31.3041 26.7839 31.0435C26.7587 31.4295 26.7839 31.8458 27.0625 32.1144C27.3613 32.4081 27.828 32.4098 28.2291 32.5307C28.3597 32.5686 28.4811 32.6329 28.5858 32.7195C28.6906 32.8061 28.7766 32.9132 28.8385 33.0342C29.008 32.6868 28.6186 32.2789 28.2291 32.1631Z" fill="black"/>
</g>
<path opacity="0.1" d="M58.7666 107.628C58.5786 107.519 58.3873 107.417 58.1926 107.32C57.7914 107.117 57.3802 106.936 56.9605 106.776C55.0218 106.037 52.9454 105.769 50.8404 105.814C50.0011 106.135 49.4556 106.364 49.4556 106.364L48.388 106.687L48.2101 106.74C48.1984 106.623 48.1849 106.505 48.1732 106.386C48.1614 106.267 48.148 106.153 48.1346 106.035C47.7586 102.475 47.4631 98.8176 47.4631 98.8176V95.6585V95.2909L47.443 85.9833L47.2751 82.9148L47.1962 81.5569L47.1811 81.2984L47.1509 80.7679L47.1341 80.4524C47.0971 80.3524 47.0657 80.2504 47.0401 80.1469C47.0284 80.1049 47.0166 80.0579 47.0066 80.0092C46.9646 79.8414 46.9193 79.6248 46.8723 79.3898C46.5651 77.8455 46.1807 75.2421 46.1572 74.7133C46.127 74.0083 45.516 69.7918 45.516 69.7918C45.4539 67.4703 43.5017 63.0993 43.0099 62.2751C42.5181 61.4509 41.9692 56.4991 42.1538 56.2323C42.2495 56.0896 42.3116 55.2453 42.3502 54.4664C42.3502 54.3774 42.3586 54.2901 42.362 54.2045C42.3871 53.5952 42.3989 53.0866 42.3989 53.0866L44.3192 52.7073L44.8345 52.6065L44.8748 52.5981L44.8916 52.6317C44.947 52.7341 45.1198 53.0614 45.323 53.4911C45.3465 53.5365 45.3683 53.5851 45.3918 53.6338C45.4018 53.6573 45.4136 53.6808 45.4254 53.7043C45.8014 54.5268 46.2361 55.6095 46.2176 56.2323C46.1874 57.3334 47.4413 59.9923 47.4413 59.9923C47.5622 60.6033 50.221 66.683 50.221 66.683C50.221 66.683 52.3914 72.642 52.2689 73.6206C52.1464 74.5992 53.3079 81.0768 53.3079 81.0768L54.4997 87.739C55.0788 89.0517 55.8426 92.0765 55.8426 92.0765L56.133 93.792L56.1884 94.1193L56.9622 98.6968L57.3415 100.939C57.3415 100.939 57.501 102.131 57.7427 103.457C57.7629 103.576 57.7864 103.697 57.8099 103.818C57.9588 104.691 58.1703 105.552 58.4427 106.395C58.5778 106.798 58.686 107.21 58.7666 107.628Z" fill="black"/>
<path d="M58.9752 107.748C58.9064 107.707 58.8375 107.667 58.767 107.628C58.579 107.519 58.3877 107.417 58.193 107.32C57.7918 107.117 57.3806 106.936 56.9609 106.776C55.0221 106.037 52.9457 105.769 50.8408 105.814C50.0015 106.134 49.456 106.364 49.456 106.364L48.3884 106.687C48.375 106.569 48.3632 106.452 48.3498 106.333C48.3364 106.213 48.3263 106.118 48.3162 106.01C47.9402 102.458 47.6448 98.8176 47.6448 98.8176V95.6283V95.2607L47.6247 85.9765L47.4568 83.0457L47.4232 82.4381L47.3997 82.0268L47.3695 81.4829L47.3393 80.9307L47.3175 80.5329V80.4456C47.3175 80.4372 47.3175 80.4271 47.3057 80.4171C47.2738 80.3264 47.2352 80.1888 47.1933 80.0142L47.1731 79.9303C47.1647 79.8917 47.1547 79.8497 47.1463 79.8077C46.8307 78.3759 46.3674 75.289 46.3422 74.7099C46.312 74.0049 45.701 69.7883 45.701 69.7883C45.6389 67.4669 43.6867 63.0959 43.1949 62.2717C42.7031 61.4475 42.1559 56.4957 42.3388 56.2288C42.4446 56.061 42.5067 55.0421 42.547 54.2011C42.547 54.134 42.547 54.0685 42.547 54.0064C42.5688 53.4877 42.5772 53.0832 42.5772 53.0832L44.3632 52.7307L44.8164 52.6417L44.8869 52.6283L45.0548 52.5947C45.0548 52.5947 45.2747 53.0009 45.5382 53.5599L45.5718 53.6304C45.9562 54.4596 46.4111 55.5876 46.3976 56.2288C46.3674 57.33 47.6213 59.9888 47.6213 59.9888C47.7422 60.5998 50.401 66.6796 50.401 66.6796C50.401 66.6796 52.5714 72.6386 52.4489 73.6172C52.3264 74.5958 53.4879 81.0734 53.4879 81.0734L54.6797 87.7356C55.2588 89.0483 56.0226 92.0731 56.0226 92.0731L56.2928 93.6711L56.3482 93.995L56.9575 97.6073L57.5199 100.936C57.5199 100.936 57.6877 102.123 57.9194 103.454C57.9412 103.575 57.963 103.695 57.9865 103.818C58.1352 104.695 58.3467 105.56 58.6193 106.406C58.7681 106.845 58.887 107.293 58.9752 107.748Z" fill="#63667E"/>
<path d="M57.4611 21.5377C57.4611 21.5377 56.8199 22.3635 56.2408 22.3635C55.6617 22.3635 53.4074 22.2712 52.2323 21.9053C51.0574 21.5393 45.2965 21.2624 45.2965 21.2624C45.2965 21.2624 37.1386 21.2926 36.8633 21.0173C36.5881 20.742 31.7907 19.275 31.3022 19.3673C31.1998 19.3874 30.9497 19.4311 30.6157 19.4865L30.233 19.5486C29.6539 19.6409 28.9304 19.7483 28.2691 19.8272C27.4516 19.9229 26.7332 19.9716 26.5049 19.8876V19.1843C26.5049 19.1843 27.4516 17.8079 27.512 17.4134C27.5725 17.019 28.3681 11.3001 30.4462 9.25388C31.3047 7.61275 32.694 6.31101 34.3875 5.56102C37.1991 4.33734 40.0107 3.29998 40.0107 3.29998L40.5025 3.22948L42.0887 2.99448C42.137 2.94648 42.1892 2.90268 42.2448 2.86355C42.6846 2.52784 44.0174 1.79766 45.7547 3.36713L46.0619 3.85727C46.0619 3.85727 51.4082 5.10948 53.8824 9.47881C56.3566 13.8481 56.4808 18.1268 56.6638 20.0823C56.6638 20.0823 56.5412 20.6329 56.7863 20.8461C56.875 20.9245 56.9596 21.0074 57.0398 21.0945C57.0616 21.1163 57.0834 21.1382 57.1036 21.1617C57.1741 21.2322 57.2395 21.306 57.2932 21.3665C57.2997 21.3712 57.3053 21.3768 57.31 21.3832C57.3231 21.3991 57.3371 21.4143 57.352 21.4286L57.4611 21.5377Z" fill="#FED253"/>
<path opacity="0.05" d="M57.4613 21.5375C57.4613 21.5375 56.8201 22.3634 56.241 22.3634C55.6619 22.3634 53.4076 22.2711 52.2326 21.9051C51.0576 21.5392 45.2967 21.2622 45.2967 21.2622C45.2967 21.2622 37.1389 21.2925 36.8636 21.0172C36.5883 20.7419 31.7909 19.2748 31.3025 19.3671C31.2001 19.3873 30.95 19.4309 30.6159 19.4863L30.5287 18.9492L30.5068 18.8166C30.5068 18.8166 39.7658 16.8308 45.9379 17.8715C52.1101 18.9122 56.664 20.0705 56.664 20.0705C56.664 20.0705 56.5415 20.621 56.7866 20.8342C56.8753 20.9126 56.9599 20.9955 57.04 21.0826C57.0618 21.1045 57.0837 21.1263 57.1038 21.1498C57.1743 21.2203 57.2398 21.2941 57.2935 21.3546C57.2999 21.3593 57.3056 21.3649 57.3103 21.3713C57.3234 21.3872 57.3374 21.4023 57.3522 21.4167L57.4613 21.5375Z" fill="black"/>
<path opacity="0.1" d="M56.6203 22.8808C55.4772 22.9697 53.3705 22.6911 52.449 22.5551C52.1872 22.5165 51.9303 22.4695 51.6718 22.4124C50.6831 22.1976 47.6433 21.595 45.7968 21.8736C43.566 22.2093 37.2714 21.5983 37.2714 21.5983C37.2714 21.5983 33.3905 20.8044 31.8311 20.1631C31.2587 19.9265 30.3019 19.8526 29.3502 19.9701C29.1075 20.0004 28.8665 20.0435 28.6284 20.0994C27.3292 20.4065 26.2331 21.1065 26.4227 22.3C26.3501 22.2129 26.2829 22.1216 26.2213 22.0264C26.1391 20.9353 26.4781 20.2857 26.9481 19.903L27.0589 19.8576C27.6331 19.6945 28.2174 19.5695 28.808 19.4833C28.9003 19.4682 28.996 19.4548 29.0933 19.443C30.7635 19.2181 33.179 19.1677 35.2168 20.1934C35.2168 20.1934 37.1102 21.0813 38.3943 21.0813C39.6784 21.0813 50.1275 21.1736 52.5732 21.8753C53.0601 22.016 53.5566 22.1209 54.0588 22.1892C54.9504 22.3041 55.8565 22.2187 56.7109 21.9391C56.7284 22.2557 56.6978 22.5732 56.6203 22.8808Z" fill="black"/>
<path opacity="0.1" d="M57.4611 21.5377C57.4611 21.5377 56.8199 22.3636 56.2408 22.3636C55.6617 22.3636 53.4074 22.2713 52.2323 21.9053C51.0574 21.5394 45.2965 21.2625 45.2965 21.2625C45.2965 21.2625 37.1386 21.2927 36.8633 21.0174C36.5881 20.7421 31.7907 19.275 31.3022 19.3674C31.1998 19.3875 30.9497 19.4311 30.6157 19.4865L30.233 19.5486C29.5683 19.5452 28.9066 19.6391 28.2691 19.8273C27.4516 19.923 26.7332 19.9716 26.5049 19.8877V19.7484C26.6809 19.6462 26.8644 19.5576 27.0538 19.4832C28.1865 19.166 29.3529 18.9845 30.5284 18.9427C31.9938 18.889 33.7076 19.0602 35.2133 19.8189C35.2133 19.8189 37.1067 20.7068 38.3909 20.7068C39.675 20.7068 50.1241 20.7975 52.5697 21.5008C53.0568 21.6402 53.5533 21.7445 54.0553 21.813C55.1568 21.9518 56.2753 21.7912 57.2932 21.3481C57.2997 21.3528 57.3053 21.3584 57.31 21.3649C57.3232 21.3807 57.3372 21.3959 57.352 21.4102L57.4611 21.5377Z" fill="black"/>
<path d="M26.4463 22.2714C26.4463 22.2714 24.3984 20.712 27.0573 19.6729C27.0573 19.6729 31.7019 18.2378 35.2168 20.0087C35.2168 20.0087 37.1103 20.8933 38.3944 20.8933C39.6785 20.8933 50.1276 20.9856 52.5733 21.6889C53.0604 21.8284 53.5568 21.9328 54.0588 22.0011C55.36 22.1589 56.678 21.9084 57.8306 21.2844C57.9984 21.192 58.1495 21.145 58.1948 21.1988C58.3476 21.3834 58.2267 22.4527 56.8822 22.6658C55.8331 22.8337 53.4495 22.5164 52.4474 22.3704C52.1872 22.3318 51.9287 22.2831 51.6719 22.2277C50.6832 22.0129 47.6433 21.4103 45.7885 21.6889C43.5594 22.0246 37.263 21.4136 37.263 21.4136C37.263 21.4136 33.3838 20.6197 31.8245 19.9768C30.2651 19.3339 25.8655 19.8878 26.4463 22.2714Z" fill="#FED253"/>
<path opacity="0.1" d="M43.7103 5.8867C43.5424 5.64498 41.3854 3.91773 40.5059 3.21944L42.0921 2.98444C42.1403 2.93644 42.1926 2.89264 42.2482 2.85352C43.4014 4.06377 43.7103 5.8867 43.7103 5.8867Z" fill="black"/>
<path opacity="0.1" d="M36.7141 15.1507L36.0107 16.1897L38.6998 16.0991L38.7602 14.9375L36.7141 15.1507Z" fill="black"/>
<path opacity="0.1" d="M53.1221 16.4048L53.4276 17.3515L55.1397 17.6268L54.4062 16.4954L53.1221 16.4048Z" fill="black"/>
<path opacity="0.1" d="M23.7266 48.187C23.9095 48.4925 29.9289 56.412 31.5185 56.1921C33.1081 55.9722 23.7266 48.187 23.7266 48.187Z" fill="black"/>
<path opacity="0.1" d="M43.8945 55.4248C43.8945 55.4248 45.3616 56.8314 45.1467 57.3803C44.9319 57.9292 43.8945 55.4248 43.8945 55.4248Z" fill="black"/>
<path opacity="0.1" d="M27.8823 65.0815C27.8823 65.0815 26.5982 71.1009 27.2713 71.2923C27.9444 71.4836 27.8823 65.0815 27.8823 65.0815Z" fill="black"/>
<path opacity="0.1" d="M44.3828 88.4575C44.596 89.0685 46.3686 93.0417 46.7664 93.2549C47.1642 93.4681 44.3828 88.4575 44.3828 88.4575Z" fill="black"/>
<path opacity="0.1" d="M64.9788 72.1401C64.9167 72.3533 63.3892 73.6072 63.7249 74.0655C64.0606 74.5237 64.9788 72.1401 64.9788 72.1401Z" fill="black"/>
<path opacity="0.1" d="M53.1218 83.2925C53.0916 83.4469 52.7861 86.6496 53.3668 87.2657C53.9476 87.8817 53.1218 83.2925 53.1218 83.2925Z" fill="black"/>
<path opacity="0.1" d="M68.7796 99.9303C68.3365 100.177 67.8782 100.415 67.4116 100.644C66.908 100.889 66.4044 101.122 65.8908 101.342C65.686 101.431 65.4812 101.518 65.2781 101.602C64.9693 101.73 64.6638 101.852 64.3616 101.97C63.4434 102.329 62.5588 102.641 61.7716 102.905C61.4661 103.007 61.174 103.101 60.9021 103.188C59.5324 103.623 58.6226 103.86 58.6226 103.86C58.4148 103.815 58.2021 103.798 57.9898 103.808C57.931 103.808 57.8706 103.808 57.8085 103.808C57.5242 103.828 57.2412 103.864 56.9608 103.915C55.0858 104.251 52.437 105.193 50.8407 105.809C50.0014 106.129 49.4559 106.359 49.4559 106.359L48.3883 106.682L48.2104 106.735C47.0539 107.088 45.4273 107.588 44.8415 107.796C43.8948 108.132 35.6748 109.842 35.6748 109.842C34.9239 110.047 34.1568 110.188 33.3819 110.262C31.4725 110.437 29.5532 110.481 27.6378 110.393C25.7142 110.517 22.6021 110.094 20.7909 109.809L20.5022 109.763C19.8022 109.649 19.3574 109.567 19.3574 109.567L19.5924 109.243L24.4116 102.594L24.4401 102.554L28.9303 96.3616L29.0982 96.1367L29.5061 95.5744C29.5061 95.5744 29.7511 95.2387 30.6945 95.2169C30.8053 95.2169 30.9261 95.2169 31.0587 95.2169C31.8512 95.2806 32.6329 95.4401 33.3869 95.6919L33.6051 95.7574C36.8565 96.689 41.8822 96.4556 41.8822 96.4556C41.8822 96.4556 45.0094 95.9521 47.4668 95.6499L47.6498 95.6264C48.4528 95.513 49.2614 95.4429 50.0719 95.4166C51.5692 95.4468 54.8089 94.6529 54.8089 94.6529C55.5055 94.5035 55.7992 94.3776 56.192 94.0973C56.244 94.0603 56.2994 94.02 56.3599 93.9764C56.5277 93.8505 56.7208 93.6961 56.9692 93.5047C57.4224 93.1572 58.0586 92.6856 59.059 92.0242C59.1463 91.9671 59.2386 91.9101 59.3377 91.8564C59.4367 91.8026 59.5626 91.7305 59.6834 91.67C60.6523 91.2112 61.6738 90.873 62.725 90.6629C63.597 90.4754 64.4819 90.3537 65.3721 90.2986H65.5047C68.0226 90.1644 70.5942 90.5958 72.0982 92.0108C72.3611 92.2595 72.5903 92.5416 72.7797 92.8501C72.8716 92.9966 72.9534 93.1491 73.0247 93.3066C73.1619 93.6072 73.2639 93.9226 73.3285 94.2466C73.3409 94.3071 73.3509 94.3675 73.3588 94.4279C73.3588 94.4464 73.3588 94.4632 73.3588 94.4816C73.3588 94.5303 73.3688 94.579 73.3722 94.6277C73.5065 96.6369 71.4217 98.4531 68.7796 99.9303Z" fill="black"/>
<path d="M19.3574 109.206C19.3574 109.206 24.796 110.213 27.6378 110.03C27.6378 110.03 32.8632 110.306 35.6748 109.481C35.6748 109.481 43.8998 107.769 44.8415 107.434C45.7832 107.098 49.4559 105.997 49.4559 105.997C49.4559 105.997 56.6066 103.002 58.6226 103.491C58.6226 103.491 74.4515 99.3965 73.3202 93.8656C72.1888 88.3347 62.1979 89.5886 59.0523 91.665C55.9067 93.7414 56.3666 93.958 54.8055 94.2937C54.8055 94.2937 51.5659 95.0876 50.0686 95.0574C48.5713 95.0272 41.8788 96.0965 41.8788 96.0965C41.8788 96.0965 36.6232 96.3415 33.3853 95.3327C30.1473 94.3239 29.5044 95.2102 29.5044 95.2102L19.3574 109.206Z" fill="#FFA2A2"/>
<path opacity="0.1" d="M31.1507 94.8511C31.1515 94.8578 31.1515 94.8646 31.1507 94.8712C31.139 94.996 31.1067 95.118 31.055 95.2321C30.4105 96.8134 26.7512 101.079 26.7512 101.079C26.5843 101.585 26.383 102.08 26.1486 102.559C25.6444 103.583 25.0636 104.568 24.4112 105.505C23.4443 106.907 22.3885 108.245 21.2505 109.512H21.2421C21.0973 109.619 20.9465 109.718 20.7906 109.809C20.3961 110.044 19.8036 110.334 19.2446 110.37C19.1494 110.375 19.0539 110.372 18.9592 110.361C19.018 110.361 19.0751 110.348 19.1271 110.338L18.9223 110.277L18.642 110.19C18.172 110.042 17.7059 109.88 17.2437 109.705L16.9634 109.597C16.5158 109.425 16.0777 109.24 15.6491 109.042L15.3688 108.914C14.9212 108.706 14.483 108.486 14.0545 108.255C13.9 108.174 13.7473 108.087 13.5962 108.004C13.1396 107.749 12.692 107.482 12.2533 107.202C11.7878 106.905 11.3324 106.596 10.887 106.274C10.5513 105.651 10.2743 105.099 10.1232 104.802C9.84795 104.249 9.82445 103.459 9.85802 102.886C9.85802 102.828 9.85802 102.772 9.86809 102.719C9.89663 102.359 9.94027 102.113 9.94027 102.113C9.69155 101.78 9.46715 101.43 9.26884 101.065C9.15491 100.884 9.09011 100.676 9.08084 100.463C9.08843 100.377 9.08047 100.29 9.05734 100.207C8.92809 99.677 8.37248 98.7655 7.85884 98.1931C7.47613 97.7718 7.45263 96.1973 7.48955 95.0811C7.51138 94.4096 7.55334 93.9161 7.55334 93.9161C7.47812 93.8676 7.42183 93.7947 7.39388 93.7097C7.2589 93.3423 7.16763 92.9603 7.12195 92.5716C7.12195 92.5162 7.10684 92.4608 7.09845 92.4037C6.99102 91.6333 6.94234 90.8595 6.94234 90.8595C5.7002 89.9547 5.10934 88.543 4.83405 87.2841L4.7988 87.1162C4.64762 86.3425 4.58343 85.5543 4.60745 84.7662C4.60745 84.6907 4.60745 84.6336 4.60745 84.5984C4.60745 84.5631 4.60745 84.5564 4.60745 84.5564C4.60745 84.5564 4.77195 80.9189 5.23187 79.4989C5.25034 79.4384 5.27048 79.3831 5.29062 79.331C5.32451 79.2418 5.36843 79.1568 5.42155 79.0776C5.58941 78.8543 5.70859 78.433 5.80762 77.9344C5.87645 77.5887 5.93352 77.2043 5.97548 76.8216C6.01409 76.5026 6.0443 76.1854 6.0678 75.8916C6.13327 75.1061 6.15341 74.4934 6.15341 74.4934L5.84287 72.9625C5.75727 72.5446 5.6918 72.1232 5.64648 71.7019C5.64648 71.6465 5.63305 71.5911 5.62634 71.5341C5.54783 70.756 5.5338 69.9728 5.58437 69.1924C5.58437 69.1354 5.58438 69.08 5.59445 69.0246C5.72551 67.2472 6.19018 65.5104 6.96416 63.9049L7.04809 63.7371C7.15999 63.5133 7.27749 63.2934 7.40059 63.0774C7.48955 62.9179 7.58355 62.7602 7.68091 62.6041C7.939 62.186 8.21916 61.782 8.5202 61.3938C8.56384 61.3367 8.60916 61.2813 8.65448 61.2259C9.17826 60.5766 9.76035 59.9765 10.3935 59.4332C12.0888 57.9762 13.6449 57.3434 15.0582 57.2947C21.2387 57.0765 24.705 68.0074 25.2656 69.9226C25.3194 70.1073 25.3462 70.208 25.3462 70.208C25.3462 70.208 27.8506 72.7141 27.1171 73.8136C26.9749 74.0556 26.8883 74.3262 26.8636 74.6058C26.6622 76.0847 27.2396 78.5203 27.2396 78.5203C27.2396 78.5203 27.4444 79.1917 28.042 80.7998L28.2182 81.2698C28.5926 82.2769 28.6799 83.9672 28.465 85.4813C28.2585 86.9316 27.7734 88.214 26.9962 88.543C25.4066 89.2145 25.8347 89.8859 26.2006 90.4381C26.418 90.834 26.5995 91.2486 26.7428 91.6769C26.9727 92.2963 27.1859 92.9476 27.2665 93.2011C27.29 93.2716 27.3017 93.3102 27.3017 93.3102C27.5244 93.224 27.7557 93.1621 27.9916 93.1255C28.2921 93.0836 28.5892 93.1138 28.6463 93.3706C28.6765 93.5082 28.8494 93.6711 29.0928 93.8339C29.8146 94.3307 31.1507 94.8511 31.1507 94.8511Z" fill="black"/>
<path d="M30.7847 94.8513C30.7744 94.979 30.742 95.104 30.689 95.2206C30.0478 96.8035 26.3851 101.079 26.3851 101.079C26.2176 101.585 26.0163 102.08 25.7825 102.559C25.3775 103.386 24.9194 104.187 24.4111 104.955C23.3589 106.542 22.1932 108.051 20.9231 109.47L20.8845 109.512C20.8845 109.512 20.7367 109.624 20.5017 109.769C20.0818 110.037 19.6191 110.231 19.1337 110.343L18.9289 110.282L18.6486 110.195C18.1786 110.047 17.7125 109.886 17.2503 109.71L16.97 109.603C16.5224 109.43 16.0843 109.245 15.6557 109.047L15.3754 108.919C14.9278 108.711 14.4897 108.491 14.0611 108.26C13.9066 108.179 13.7539 108.092 13.6028 108.01C13.1462 107.754 12.6986 107.487 12.2599 107.207C11.7944 106.911 11.339 106.601 10.8936 106.279C10.6877 106.131 10.484 105.98 10.2826 105.824C10.056 105.394 9.8747 105.032 9.76223 104.807C9.48695 104.255 9.46345 103.464 9.49702 102.892C9.49702 102.833 9.49702 102.778 9.50709 102.724C9.53563 102.365 9.57927 102.118 9.57927 102.118C9.57927 102.118 9.44331 101.935 9.27881 101.686C9.18648 101.549 9.08745 101.389 8.99848 101.232C8.83063 100.936 8.6997 100.637 8.72488 100.468C8.72828 100.439 8.72828 100.41 8.72488 100.381C8.72236 100.324 8.71392 100.268 8.6997 100.213C8.57045 99.6822 8.01316 98.7708 7.49952 98.1984C7.11681 97.7771 7.09331 96.2026 7.12856 95.0863C7.12856 95.0292 7.12856 94.9738 7.12856 94.9185C7.15206 94.3393 7.18731 93.9214 7.18731 93.9214C6.99763 93.8391 6.85159 93.2298 6.75759 92.5785L6.73241 92.4107C6.62498 91.6402 6.5763 90.8664 6.5763 90.8664C5.33416 89.9616 4.7433 88.55 4.4697 87.291C4.27908 86.4093 4.20571 85.5062 4.25148 84.6053C4.25148 84.5784 4.25148 84.5633 4.25148 84.5633C4.25148 84.5633 4.39584 80.9074 4.85577 79.4857C4.87423 79.4252 4.89438 79.3698 4.91452 79.3178C4.9548 79.2307 5.00492 79.1484 5.06391 79.0727C5.31905 78.7169 5.48859 77.8608 5.59938 76.9846L5.61952 76.8167C5.75884 75.6417 5.79745 74.4886 5.79745 74.4886L5.48523 72.9577C5.40019 72.538 5.33472 72.1178 5.28884 71.6971C5.28045 71.6417 5.27541 71.5846 5.2687 71.5292C5.19021 70.7512 5.17617 69.968 5.22673 69.1876C5.22673 69.1305 5.22673 69.0752 5.23848 69.0198C5.36875 67.2422 5.83346 65.5052 6.6082 63.9001C6.63505 63.843 6.66191 63.7876 6.69213 63.7323C6.90795 63.2963 7.14779 62.8726 7.41056 62.4633C7.5012 62.3206 7.59352 62.1796 7.69088 62.0403C7.84363 61.8187 8.00309 61.6005 8.16927 61.389L8.30356 61.2211C8.82285 60.5742 9.39986 59.9759 10.0274 59.4334C11.8739 57.8505 13.5525 57.2395 15.0632 57.2949C21.0137 57.5081 24.3541 68.0462 24.903 69.9228C24.9567 70.1075 24.9835 70.2082 24.9835 70.2082C24.9835 70.2082 27.4896 72.7143 26.7561 73.8138C26.6139 74.0558 26.5273 74.3264 26.5026 74.6061C26.2995 76.0849 26.8786 78.5205 26.8786 78.5205C26.8786 78.5205 27.0834 79.1919 27.681 80.8C27.7347 80.9494 27.7935 81.1055 27.8489 81.27C28.2232 82.2771 28.3105 83.9674 28.0956 85.4815C27.8891 86.9335 27.4057 88.2142 26.6269 88.5432C25.0389 89.2147 25.4653 89.8861 25.8329 90.4383C26.0503 90.8342 26.2318 91.2488 26.3751 91.6771C26.6655 92.4677 26.9323 93.3104 26.9323 93.3104C27.0422 93.268 27.1543 93.2316 27.2681 93.2013C27.5016 93.1245 27.7489 93.0987 27.9932 93.1257C28.0608 93.131 28.125 93.1575 28.1766 93.2016C28.2282 93.2456 28.2645 93.3048 28.2802 93.3708C28.3256 93.5722 28.673 93.8223 29.0944 94.059C29.6414 94.3567 30.2059 94.6213 30.7847 94.8513Z" fill="#CED7E7"/>
<path opacity="0.1" d="M8.69141 78.7097C9.27219 78.6795 15.5064 76.2657 16.7905 77.0899C18.0746 77.9141 26.0227 83.262 26.0227 83.262C26.0227 83.262 21.0423 76.7542 16.7032 75.2267C12.3641 73.6992 8.69141 78.7097 8.69141 78.7097Z" fill="black"/>
<path opacity="0.1" d="M17.6533 88.5498C17.6533 88.5498 23.8875 89.802 24.8342 90.6581L17.6533 88.5498Z" fill="black"/>
<path opacity="0.1" d="M16.4535 97.8726C16.3628 97.9649 14.1035 103.036 14.2848 103.036C14.466 103.036 16.3931 100.014 16.3931 100.014L16.4535 97.8726Z" fill="black"/>
<path opacity="0.1" d="M20.7015 91.7876C20.7015 91.7876 18.8685 92.4305 19.0817 92.4909C19.2949 92.5514 20.6394 92.0629 20.7015 91.7876Z" fill="black"/>
<path opacity="0.1" d="M18.8691 99.459C19.1746 100.1 20.1516 102.026 20.3664 101.72C20.5813 101.415 18.8691 99.459 18.8691 99.459Z" fill="black"/>
<path opacity="0.1" d="M41.7507 48.6347L41.4889 49.0074C41.4889 49.0074 39.4091 47.542 38.5547 46.8084C37.7003 46.0749 35.6827 49.4354 34.0931 50.3519C32.5035 51.2684 29.8161 51.5135 29.8161 51.5135C29.8161 51.5135 27.738 49.4354 27.8018 48.8278C27.8656 48.2201 26.8249 48.0338 26.7628 47.6058C26.7007 47.1777 26.3347 45.9557 25.8463 45.3447C25.5878 45.0224 25.5508 44.0136 25.5743 43.1357C25.7422 43.1021 25.8463 43.0837 25.8463 43.0837C26.1072 42.6096 26.437 42.1769 26.8249 41.7996C27.3754 41.3111 28.2298 38.3165 28.2298 38.3165C28.7183 36.6665 29.6952 37.155 29.6952 37.155C29.6952 39.6611 32.2634 40.5776 33.5459 41.6166C34.8283 42.6556 36.8459 45.3447 38.4356 45.8953C39.7398 46.3401 41.2656 48.0607 41.7507 48.6347Z" fill="black"/>
<path d="M41.7513 48.2675L41.4895 48.6418C41.4895 48.6418 39.4013 47.1798 38.5469 46.4412C37.6925 45.7026 35.6749 49.0682 34.0853 49.9847C32.4957 50.9012 29.8083 51.1479 29.8083 51.1479C29.8083 51.1479 27.7302 49.0682 27.794 48.4622C27.8578 47.8562 26.8171 47.6682 26.755 47.2385C26.6928 46.8088 26.3269 45.5885 25.8385 44.9775C25.58 44.6552 25.543 43.6464 25.5665 42.7685L25.8385 42.7181C26.0994 42.2441 26.4291 41.8113 26.8171 41.434C27.3676 40.9439 28.222 37.951 28.222 37.951C28.7105 36.3009 29.6874 36.7877 29.6874 36.7877C29.6874 39.2938 32.2556 40.212 33.5381 41.2511C34.8205 42.2901 36.8381 44.9775 38.4277 45.5281C39.7404 45.9796 41.2662 47.6934 41.7513 48.2675Z" fill="#CED7E7"/>
<path opacity="0.1" d="M41.9077 48.764C41.9077 48.764 40.1066 49.7409 38.7 49.8333C38.5159 49.8418 38.3313 49.8312 38.1494 49.8014C38.1494 49.8014 39.7021 48.6415 41.144 48.4048L41.9077 48.764Z" fill="black"/>
<path opacity="0.1" d="M45.5751 53.7446C45.5751 53.7446 43.304 52.86 42.5537 54.1911C42.5789 53.5801 42.589 53.0731 42.589 53.0731L45.0649 52.583C45.0649 52.583 45.3032 53.0245 45.5819 53.6187C45.5751 53.6976 45.5751 53.7446 45.5751 53.7446Z" fill="black"/>
<path d="M38.1494 49.8017C38.1494 49.8017 40.8704 48.1684 42.178 48.3061C43.5494 48.4488 46.2066 48.5495 46.2066 48.5495C46.2066 48.5495 45.2901 50.6276 45.4126 51.0556C45.5351 51.4836 45.5653 53.5617 45.5653 53.5617C45.5653 53.5617 42.8158 52.4924 42.3576 54.4782C42.3576 54.4782 40.8603 52.2474 39.8515 51.5743C39.1821 51.0906 38.6055 50.4902 38.1494 49.8017Z" fill="#63667E"/>
<path opacity="0.1" d="M53.5198 51.6983C52.7258 51.6983 49.9142 49.924 49.3032 48.7641C48.6922 47.6043 47.8361 48.885 47.0421 49.3147C46.5386 49.59 44.5428 49.0143 43.4668 48.5963C44.0123 48.2253 45.2209 47.1813 45.5751 46.9311C46.0014 46.624 46.4312 41.6739 46.4312 41.6739C47.9587 40.8799 49.6087 48.091 49.6087 48.091C49.6087 48.091 52.4824 48.9471 52.7258 49.5581C52.7728 49.679 52.9893 49.8938 53.315 50.154C53.6507 51 53.8353 51.6983 53.5198 51.6983Z" fill="black"/>
<path d="M53.5201 51.331C52.7261 51.331 49.9145 49.5584 49.3035 48.3985C48.6925 47.2386 47.8365 48.5193 47.0425 48.9474C46.5389 49.2227 44.9392 48.6906 43.8633 48.2759C44.4088 47.9067 45.2212 46.8189 45.5754 46.5672C46.0018 46.2617 46.4315 41.3115 46.4315 41.3115C47.959 40.5176 49.609 47.7287 49.609 47.7287C49.609 47.7287 52.4827 48.5848 52.7261 49.1958C52.7731 49.3167 52.9897 49.5315 53.3153 49.7917C53.651 50.6327 53.8357 51.331 53.5201 51.331Z" fill="#CED7E7"/>
<path d="M64.3784 104.872L90.9519 82.715C91.2171 82.491 91.555 82.3716 91.902 82.3793L101.816 82.6394C101.816 82.6394 102.502 83.143 101.495 84.2441L76.4272 104.815C76.1563 105.037 75.8201 105.163 75.4704 105.174L64.6302 105.533C64.5524 105.536 64.4757 105.514 64.4109 105.471C64.3461 105.428 64.2963 105.365 64.2686 105.293C64.2409 105.22 64.2366 105.14 64.2563 105.065C64.276 104.989 64.3187 104.922 64.3784 104.872Z" fill="#00814F"/>
<path d="M77.2324 102.146C77.2324 102.146 83.0369 110.458 89.486 102.727C95.9351 94.9954 94.0702 90.9332 92.1146 90.7184C90.1591 90.5035 79.1561 98.9686 77.2324 102.146Z" fill="#FFA2A2"/>
<path opacity="0.1" d="M116.382 9.17678C116.382 9.17678 123.863 -5.34286 132.706 2.14525C132.706 2.14525 134.636 2.84857 134.49 4.88971C134.49 4.88971 133.747 4.48182 133.156 6.04121C132.939 6.59453 132.657 7.12022 132.317 7.60732C131.864 8.26535 131.21 8.7589 130.453 9.01396C130.453 9.01396 126.485 11.9867 119.135 9.69378C119.135 9.69378 117.057 9.99257 116.721 9.73407L119.136 7.96821C119.136 7.96821 120.363 9.78946 122.158 9.99761C122.158 9.99761 119.136 8.10082 119.482 7.68957C119.553 7.60564 120.805 6.81168 120.805 6.81168C120.805 6.81168 122.952 9.96907 125.735 10.2024C125.735 10.2024 121.836 8.42478 121.277 6.50953L123.235 5.41678C123.235 5.41678 125.34 8.86625 128.501 9.25232C128.501 9.25232 124.489 7.25314 123.68 5.20696L125.753 4.39789C125.753 4.39789 127.873 7.72146 130.504 8.02528C130.504 8.02528 126.102 5.24725 126.24 4.24346C126.24 4.24346 128.189 3.61568 128.786 3.69793C128.786 3.69793 130.363 6.04793 131.907 6.08989C131.907 6.08989 129.162 3.92118 129.344 3.58714C129.344 3.58714 132.1 3.44446 133.54 4.11086C133.54 4.11086 131.492 2.97111 129.344 3.15575C129.344 3.15575 130.316 2.01264 131.583 1.76085C131.583 1.76085 130.064 1.13643 128.676 3.19771C128.676 3.19771 126.532 3.39411 126.267 3.63246C126.267 3.63246 127.351 1.40332 128.686 0.454926C128.686 0.454926 126.697 0.805748 125.711 3.82718L123.61 4.59428C123.61 4.59428 124.887 1.57285 126.013 0.639569C126.013 0.639569 124.039 1.311 123.096 4.836L121.162 5.88678C121.162 5.88678 122.064 3.20107 123.093 1.89011C123.093 1.89011 121.396 2.90732 120.619 6.20739L119.41 7.05843C119.41 7.05843 120.103 5.10793 120.353 4.56575C120.603 4.02357 120.478 3.91111 120.478 3.91111C119.637 4.90435 119.089 6.11127 118.895 7.3975C118.895 7.3975 116.521 9.31107 116.382 9.17678Z" fill="#00814F"/>
<path opacity="0.1" d="M147.323 16.9419C147.323 16.9419 150.704 10.3804 154.699 13.7644C154.699 13.7644 155.572 14.0817 155.505 15.0032C155.505 15.0032 155.169 14.8202 154.902 15.5252C154.805 15.7749 154.679 16.0122 154.526 16.2319C154.322 16.5285 154.027 16.7516 153.687 16.8681C153.687 16.8681 151.892 18.2109 148.57 17.1753C148.57 17.1753 147.632 17.3096 147.481 17.1937L148.572 16.3947C148.572 16.3947 149.126 17.2189 149.938 17.3112C149.938 17.3112 148.575 16.4552 148.73 16.2688C148.76 16.2319 149.326 15.8727 149.326 15.8727C149.326 15.8727 150.296 17.2995 151.555 17.4052C151.555 17.4052 149.792 16.6012 149.541 15.7267L150.427 15.2348C150.427 15.2348 151.377 16.7942 152.805 16.9688C152.805 16.9688 150.993 16.0657 150.623 15.1408L151.56 14.7749C151.56 14.7749 152.517 16.2772 153.705 16.4149C153.705 16.4149 151.716 15.1593 151.78 14.7061C151.78 14.7061 152.659 14.4224 152.93 14.4593C152.93 14.4593 153.641 15.5219 154.34 15.5387C154.34 15.5387 153.099 14.5601 153.181 14.409C153.181 14.409 154.427 14.3452 155.075 14.6457C155.075 14.6457 154.15 14.1303 153.181 14.2143C153.449 13.9104 153.799 13.6911 154.189 13.5831C154.189 13.5831 153.502 13.3011 152.874 14.2327C152.874 14.2327 151.906 14.3217 151.787 14.4291C151.787 14.4291 152.277 13.422 152.879 12.9939C152.879 12.9939 151.98 13.1517 151.536 14.5181L150.596 14.8706C150.596 14.8706 151.172 13.5059 151.682 13.0829C151.682 13.0829 150.789 13.3867 150.363 14.978L149.49 15.4514C149.49 15.4514 149.896 14.2361 150.361 13.6452C150.361 13.6452 149.594 14.1052 149.245 15.5957L148.698 15.9801C148.698 15.9801 149.012 15.0989 149.124 14.8538C149.237 14.6087 149.18 14.5584 149.18 14.5584C148.8 15.0087 148.553 15.5555 148.465 16.1379C148.465 16.1379 147.382 17.0024 147.323 16.9419Z" fill="#00814F"/>
<path opacity="0.1" d="M110.691 24.5762C110.691 24.5762 114.072 18.0147 118.077 21.3987C118.077 21.3987 118.948 21.7159 118.883 22.6392C118.883 22.6392 118.547 22.4545 118.28 23.1595C118.183 23.4089 118.057 23.6461 117.904 23.8662C117.698 24.1642 117.4 24.3874 117.057 24.5024C117.057 24.5024 115.264 25.8452 111.942 24.8095C111.942 24.8095 111.004 24.9455 110.853 24.828L111.944 24.029C111.944 24.029 112.498 24.8532 113.308 24.9472C113.308 24.9472 111.945 24.0894 112.1 23.9031C112.132 23.8662 112.697 23.507 112.697 23.507C112.697 23.507 113.668 24.9338 114.925 25.0395C114.925 25.0395 113.164 24.2355 112.91 23.3609L113.797 22.8708C113.797 22.8708 114.749 24.4285 116.177 24.6031C116.177 24.6031 114.364 23.7 113.995 22.7751L114.931 22.4092C114.931 22.4092 115.89 23.9115 117.078 24.0492C117.078 24.0492 115.089 22.7936 115.151 22.3404C115.151 22.3404 116.033 22.0567 116.303 22.0936C116.303 22.0936 117.015 23.1562 117.713 23.1746C117.713 23.1746 116.472 22.1943 116.555 22.0433C116.555 22.0433 117.798 21.9795 118.448 22.2799C118.448 22.2799 117.522 21.7646 116.553 21.8485C116.82 21.5447 117.17 21.3253 117.56 21.2174C117.56 21.2174 116.875 20.9354 116.247 21.867C116.247 21.867 115.279 21.956 115.16 22.0634C115.16 22.0634 115.648 21.0563 116.253 20.6282C116.253 20.6282 115.353 20.786 114.91 22.1524L113.958 22.5049C113.958 22.5049 114.535 21.1402 115.044 20.7189C115.044 20.7189 114.153 21.021 113.726 22.6123L112.852 23.0857C112.852 23.0857 113.26 21.8704 113.725 21.2795C113.725 21.2795 112.957 21.7394 112.607 23.23L112.059 23.6144C112.059 23.6144 112.373 22.7332 112.486 22.4881C112.598 22.243 112.543 22.1927 112.543 22.1927C112.162 22.6426 111.915 23.1895 111.828 23.7722C111.828 23.7722 110.75 24.6367 110.691 24.5762Z" fill="#00814F"/>
</g>
<defs>
<clipPath id="clip0_1025_762">
<rect width="180" height="130.952" fill="white"/>
</clipPath>
</defs>
</svg>
