<svg width="211" height="151" viewBox="0 0 211 151" fill="none" xmlns="http://www.w3.org/2000/svg">
<g clip-path="url(#clip0_1025_622)" filter="url(#filter0_d_1025_622)">
<path opacity="0.1" d="M206.571 97.7908C206.575 101.16 206.167 104.516 205.358 107.786C205.085 108.888 204.769 109.967 204.409 111.023C203.968 112.327 203.457 113.605 202.878 114.854C202.586 115.485 202.278 116.104 201.953 116.711C201.958 120.165 201.247 123.583 199.864 126.749C197.364 132.429 192.907 137.021 187.305 139.69C183.802 141.361 179.973 142.24 176.092 142.264H42.8018C36.8714 142.277 31.0435 140.719 25.9105 137.748L25.8315 137.704C25.1004 137.276 24.3876 136.823 23.6931 136.345C22.1305 135.265 20.6624 134.055 19.3047 132.727C17.467 130.931 15.8476 128.924 14.4803 126.749C11.2688 121.65 9.56758 115.745 9.57354 109.719C6.32126 104.012 4.4248 97.1764 4.4248 89.8309C4.4248 80.5632 7.43853 72.1089 12.3899 65.7091C13.4222 64.372 14.5529 63.1139 15.7726 61.9453C16.9761 60.789 18.2697 59.7301 19.641 58.7789C20.7382 58.0169 21.8849 57.3289 23.0735 56.7194C23.5695 56.4671 24.0672 56.2285 24.5735 56.0071C25.018 55.8097 25.4677 55.6261 25.9225 55.4528C26.4683 55.2457 27.0209 55.0552 27.5804 54.8813C28.1399 54.7073 28.692 54.5552 29.2366 54.4247C30.0375 54.2291 30.8521 54.07 31.6805 53.9476C32.367 53.8464 33.0535 53.776 33.74 53.7228C34.2858 53.6816 34.8367 53.6593 35.391 53.6524H35.6914C36.3024 53.6524 36.9099 53.6764 37.5123 53.7176C37.5758 53.5906 37.6445 53.4619 37.708 53.3366C37.9482 52.8784 38.1971 52.4219 38.4477 51.9756C38.4471 51.9717 38.4471 51.9676 38.4477 51.9636C38.4906 51.8847 38.5335 51.8075 38.5781 51.7319C38.7806 51.3664 38.9917 51.0043 39.208 50.6456C39.3075 50.4739 39.4053 50.3126 39.5066 50.1513C39.528 50.1112 39.5515 50.0722 39.577 50.0346C39.6799 49.863 39.7846 49.6913 39.891 49.5197C40.4208 48.673 40.9717 47.8412 41.5438 47.0243L41.6897 46.8149C41.7789 46.6879 41.8613 46.5643 41.9608 46.4373C42.1977 46.1061 42.4414 45.7731 42.6868 45.4471C42.8584 45.2136 43.03 44.9819 43.2154 44.7606C43.6616 44.1885 44.1193 43.6164 44.5884 43.0443C45.0575 42.4722 45.5449 41.9076 46.0506 41.3504C46.1193 41.2731 46.1879 41.1976 46.26 41.1221L46.9929 40.3223C47.0289 40.2846 47.0598 40.2503 47.0941 40.2159C47.1816 40.1215 47.2657 40.0271 47.3601 39.9362C47.7531 39.5191 48.1565 39.1107 48.5615 38.7039C50.6228 36.6509 52.8187 34.7376 55.1347 32.9768C55.2257 32.9047 55.3184 32.8361 55.4093 32.7674C55.8452 32.4396 56.288 32.1153 56.7308 31.796C59.1664 30.0488 61.7123 28.4608 64.3527 27.042C64.5346 26.9373 64.72 26.8395 64.907 26.7434C67.2742 25.4911 69.7087 24.3704 72.1994 23.3864C73.5569 22.8492 74.9453 22.3447 76.3424 21.883C77.2726 21.5775 78.2062 21.2875 79.1519 21.0146C80.6301 20.5889 82.1187 20.2074 83.6175 19.8698C88.0333 18.879 92.5256 18.267 97.0454 18.0403C98.4184 17.9705 99.8069 17.9345 101.211 17.9322C107.985 17.9232 114.732 18.7768 121.291 20.4722C121.359 20.5747 121.451 20.6583 121.56 20.715C121.669 20.7717 121.791 20.7998 121.914 20.7966H122.491C122.741 20.8653 122.99 20.9339 123.241 21.006C124.64 21.4087 126.019 21.8487 127.378 22.3258L127.722 22.4494C131.076 23.6423 134.341 25.0763 137.489 26.74C140.327 28.2361 143.059 29.9242 145.667 31.7926C146.068 32.0809 146.464 32.3715 146.854 32.6645C147.328 32.3613 147.81 32.0706 148.299 31.7926C150.191 30.7155 152.199 29.8593 154.286 29.2405C158.648 27.9496 163.264 27.7691 167.714 28.7154C173.42 29.9253 178.586 32.9288 182.758 37.2005C184.457 38.9483 185.969 40.8683 187.27 42.9293C187.365 43.0769 187.459 43.2262 187.55 43.3773C188.668 45.2014 189.629 47.1174 190.423 49.1044C190.452 49.1782 190.481 49.2468 190.507 49.3189C191.24 51.1795 191.831 53.0929 192.275 55.0426C192.295 55.1421 192.319 55.24 192.34 55.3395C192.755 57.2264 193.038 59.1401 193.184 61.0666C193.184 61.1353 193.184 61.2056 193.198 61.2777C193.27 62.2743 193.307 63.2811 193.308 64.2983C193.308 65.2079 193.277 66.1107 193.22 67.0065C193.22 67.1044 193.207 67.2056 193.198 67.3069C193.183 67.566 193.16 67.8218 193.138 68.0826C194.449 69.1399 195.676 70.2973 196.807 71.5443C197.307 72.0901 197.791 72.6564 198.259 73.2434C199.685 75.0298 200.937 76.9475 202.001 78.9705C204.903 84.4487 206.571 90.8932 206.571 97.7908Z" fill="#00814F"/>
<path opacity="0.1" d="M187.178 139.054C187.178 140.226 183.14 141.325 176.093 142.269H42.8023C36.8719 142.281 31.044 140.723 25.911 137.753L25.832 137.709C27.8572 136.971 31.5128 136.283 36.4882 135.661L36.7113 135.634C38.9424 135.361 41.4361 135.102 44.1615 134.856C44.2302 134.856 44.3006 134.846 44.3692 134.837C46.5317 134.645 48.832 134.465 51.2702 134.297C51.3475 134.297 51.423 134.283 51.5002 134.28C52.4407 134.212 53.4007 134.148 54.3801 134.087L54.7576 134.063C61.8886 133.621 69.9945 133.267 78.7851 133.034H78.7954C80.0265 132.999 81.2708 132.969 82.5282 132.943C83.9264 132.91 85.3417 132.88 86.7742 132.855C87.8675 132.831 88.9745 132.814 90.0849 132.797H90.1106C95.1203 132.721 100.297 132.684 105.589 132.684C118.678 132.684 131.048 132.922 142.01 133.351H142.041C143.726 133.416 145.381 133.489 146.994 133.562L148.367 133.628C150.187 133.714 151.961 133.808 153.687 133.907C173.99 135.062 187.178 136.938 187.178 139.054Z" fill="#00814F"/>
<g opacity="0.2">
<path opacity="0.2" d="M121.182 131.896C121.177 132.081 121.156 132.265 121.119 132.447C119.924 132.257 118.723 132.085 117.515 131.932C117.515 131.884 117.515 131.834 117.515 131.784C117.526 131.27 117.674 130.767 117.944 130.329C118.297 129.769 118.834 129.419 119.427 129.438C120.019 129.457 120.532 129.84 120.849 130.418C121.09 130.872 121.204 131.382 121.182 131.896V131.896Z" fill="#3F3D56"/>
<path opacity="0.2" d="M121.281 128.963C121.323 127.636 120.535 126.534 119.522 126.502C118.508 126.47 117.652 127.52 117.61 128.847C117.568 130.175 118.356 131.276 119.37 131.308C120.383 131.341 121.239 130.291 121.281 128.963Z" fill="#3F3D56"/>
<path opacity="0.2" d="M121.374 126.025C121.416 124.698 120.628 123.596 119.614 123.564C118.601 123.532 117.745 124.582 117.703 125.909C117.661 127.236 118.449 128.338 119.462 128.37C120.476 128.402 121.332 127.352 121.374 126.025Z" fill="#3F3D56"/>
<path opacity="0.2" d="M121.467 123.087C121.508 121.759 120.721 120.658 119.707 120.626C118.693 120.593 117.838 121.643 117.796 122.971C117.754 124.298 118.541 125.4 119.555 125.432C120.569 125.464 121.425 124.414 121.467 123.087Z" fill="#3F3D56"/>
<path opacity="0.2" d="M121.557 120.148C121.599 118.821 120.812 117.719 119.798 117.687C118.784 117.655 117.928 118.705 117.886 120.032C117.845 121.36 118.632 122.462 119.646 122.494C120.66 122.526 121.515 121.476 121.557 120.148Z" fill="#3F3D56"/>
<path opacity="0.2" d="M113.476 99.761C113.234 99.4338 113.016 99.0897 112.824 98.7313L117.674 98.0911L112.453 97.9658C111.987 96.8607 111.752 95.6722 111.761 94.4729C111.77 93.2737 112.024 92.0889 112.506 90.991L119.392 94.844L113.085 89.8943C113.721 88.8652 114.563 87.9784 115.557 87.2892C116.552 86.6 117.677 86.1232 118.864 85.8886C120.051 85.6541 121.274 85.6668 122.456 85.9259C123.637 86.1851 124.753 86.6852 125.733 87.3949C126.713 88.1046 127.536 89.0087 128.151 90.0508C128.765 91.0929 129.159 92.2505 129.306 93.4514C129.453 94.6523 129.351 95.8707 129.007 97.0304C128.662 98.1902 128.082 99.2664 127.302 100.192C127.678 100.701 127.998 101.249 128.255 101.827L121.889 104.882L128.639 102.852C129.064 104.255 129.133 105.741 128.838 107.177C128.544 108.613 127.896 109.952 126.954 111.075C127.934 112.404 128.52 113.983 128.645 115.63C128.77 117.277 128.429 118.926 127.661 120.388C126.893 121.85 125.729 123.067 124.302 123.899C122.875 124.731 121.243 125.145 119.592 125.093C117.941 125.041 116.338 124.525 114.966 123.605C113.595 122.685 112.51 121.397 111.835 119.889C111.161 118.381 110.924 116.714 111.153 115.078C111.382 113.442 112.066 111.904 113.128 110.639C111.957 109.05 111.354 107.113 111.416 105.14C111.479 103.168 112.202 101.273 113.471 99.761H113.476Z" fill="#00814F"/>
<path opacity="0.1" d="M129.013 105.696C128.953 107.669 128.227 109.565 126.954 111.074C127.934 112.404 128.52 113.982 128.645 115.629C128.77 117.277 128.429 118.925 127.661 120.388C126.893 121.85 125.729 123.067 124.302 123.899C122.875 124.731 121.243 125.144 119.592 125.092C117.941 125.04 116.338 124.525 114.966 123.605C113.595 122.684 112.51 121.397 111.835 119.889C111.161 118.381 110.924 116.714 111.153 115.078C111.382 113.442 112.066 111.904 113.128 110.638C112 109.106 129.044 104.709 129.013 105.696Z" fill="black"/>
</g>
<g opacity="0.2">
<path opacity="0.2" d="M95.0944 131.896C95.0889 132.081 95.0676 132.265 95.0309 132.447C93.8364 132.257 92.635 132.085 91.4268 131.932C91.4268 131.884 91.4268 131.834 91.4268 131.784C91.4379 131.27 91.586 130.767 91.8558 130.329C92.2094 129.769 92.7466 129.419 93.3387 129.438C93.9308 129.457 94.4439 129.84 94.7614 130.418C95.0016 130.872 95.1165 131.382 95.0944 131.896V131.896Z" fill="#3F3D56"/>
<path opacity="0.2" d="M95.1912 128.964C95.2332 127.637 94.4454 126.535 93.4317 126.503C92.418 126.471 91.5622 127.521 91.5203 128.848C91.4783 130.175 92.2661 131.277 93.2798 131.309C94.2935 131.342 95.1493 130.291 95.1912 128.964Z" fill="#3F3D56"/>
<path opacity="0.2" d="M95.284 126.026C95.3259 124.698 94.5382 123.597 93.5245 123.565C92.5108 123.532 91.655 124.582 91.6131 125.91C91.5711 127.237 92.3589 128.339 93.3726 128.371C94.3863 128.403 95.242 127.353 95.284 126.026Z" fill="#3F3D56"/>
<path opacity="0.2" d="M95.3768 123.087C95.4187 121.76 94.6309 120.658 93.6172 120.626C92.6035 120.594 91.7478 121.644 91.7058 122.971C91.6639 124.299 92.4517 125.4 93.4654 125.433C94.4791 125.465 95.3348 124.415 95.3768 123.087Z" fill="#3F3D56"/>
<path opacity="0.2" d="M95.4686 120.149C95.5105 118.822 94.7227 117.72 93.709 117.688C92.6953 117.656 91.8396 118.706 91.7976 120.033C91.7557 121.361 92.5434 122.462 93.5571 122.495C94.5708 122.527 95.4266 121.477 95.4686 120.149Z" fill="#3F3D56"/>
<path opacity="0.2" d="M87.3883 99.761C87.1466 99.4338 86.9286 99.0897 86.7361 98.7313L91.5862 98.0911L86.3654 97.9658C85.8995 96.8607 85.6639 95.6722 85.673 94.4729C85.6822 93.2737 85.9359 92.0889 86.4186 90.991L93.3042 94.844L86.9969 89.8943C87.6332 88.8652 88.4748 87.9784 89.4692 87.2892C90.4637 86.6 91.5895 86.1232 92.7764 85.8886C93.9634 85.6541 95.1859 85.6668 96.3678 85.9259C97.5496 86.1851 98.6653 86.6852 99.6452 87.3949C100.625 88.1046 101.448 89.0087 102.063 90.0508C102.678 91.0929 103.071 92.2505 103.218 93.4514C103.365 94.6523 103.263 95.8707 102.919 97.0304C102.574 98.1902 101.994 99.2664 101.214 100.192C101.59 100.701 101.91 101.249 102.167 101.827L95.8013 104.882L102.551 102.852C102.976 104.255 103.045 105.741 102.751 107.177C102.456 108.613 101.809 109.952 100.866 111.075C101.846 112.404 102.432 113.983 102.557 115.63C102.682 117.277 102.341 118.926 101.573 120.388C100.805 121.85 99.6412 123.067 98.2142 123.899C96.7873 124.731 95.155 125.145 93.504 125.093C91.8531 125.041 90.2501 124.525 88.8784 123.605C87.5067 122.685 86.4217 121.397 85.7473 119.889C85.073 118.381 84.8366 116.714 85.0651 115.078C85.2937 113.442 85.978 111.904 87.0399 110.639C85.869 109.05 85.2663 107.113 85.3286 105.14C85.3908 103.168 86.1144 101.273 87.3831 99.761H87.3883Z" fill="#00814F"/>
<path opacity="0.1" d="M102.925 105.696C102.865 107.669 102.14 109.565 100.866 111.074C101.846 112.404 102.432 113.982 102.557 115.629C102.682 117.277 102.341 118.925 101.573 120.388C100.805 121.85 99.6412 123.067 98.2142 123.899C96.7873 124.731 95.155 125.144 93.504 125.092C91.8531 125.04 90.2501 124.525 88.8784 123.605C87.5067 122.684 86.4217 121.397 85.7473 119.889C85.073 118.381 84.8366 116.714 85.0651 115.078C85.2937 113.442 85.978 111.904 87.0399 110.638C85.9123 109.106 102.956 104.709 102.925 105.696Z" fill="black"/>
</g>
<g opacity="0.2">
<path opacity="0.2" d="M166.354 133.773C166.341 134.124 166.299 134.473 166.228 134.817C163.929 134.449 161.612 134.121 159.279 133.832C159.279 133.739 159.279 133.645 159.279 133.548C159.301 132.557 159.587 131.59 160.107 130.746C160.793 129.67 161.823 128.995 162.961 129.03C164.099 129.064 165.089 129.804 165.707 130.917C166.173 131.795 166.396 132.781 166.354 133.773V133.773Z" fill="#3F3D56"/>
<path opacity="0.2" d="M166.539 128.123C166.62 125.567 165.103 123.445 163.15 123.383C161.198 123.322 159.549 125.344 159.469 127.9C159.388 130.456 160.905 132.578 162.858 132.64C164.81 132.701 166.459 130.679 166.539 128.123Z" fill="#3F3D56"/>
<path opacity="0.2" d="M166.718 122.466C166.799 119.91 165.281 117.788 163.329 117.727C161.376 117.665 159.728 119.687 159.647 122.243C159.566 124.799 161.084 126.921 163.036 126.983C164.989 127.045 166.637 125.022 166.718 122.466Z" fill="#3F3D56"/>
<path opacity="0.2" d="M166.898 116.81C166.979 114.254 165.461 112.132 163.509 112.07C161.556 112.008 159.908 114.03 159.827 116.586C159.746 119.142 161.264 121.264 163.216 121.326C165.169 121.388 166.817 119.366 166.898 116.81Z" fill="#3F3D56"/>
<path opacity="0.2" d="M166.875 110.895C166.952 108.338 165.431 106.217 163.477 106.159C161.524 106.1 159.878 108.126 159.801 110.683C159.724 113.24 161.246 115.361 163.199 115.42C165.153 115.478 166.799 113.453 166.875 110.895Z" fill="#3F3D56"/>
<path opacity="0.2" d="M151.516 71.9098C151.053 71.2797 150.634 70.6185 150.261 69.9309L159.598 68.6987L149.549 68.4567C148.652 66.3294 148.197 64.0413 148.215 61.7325C148.232 59.4236 148.72 57.1425 149.649 55.0288L162.907 62.4447L150.766 52.9161C151.994 50.9396 153.615 49.2372 155.529 47.9149C157.444 46.5926 159.61 45.6788 161.893 45.2303C164.176 44.7819 166.527 44.8084 168.799 45.3083C171.071 45.8083 173.216 46.7708 175.1 48.136C176.984 49.5013 178.567 51.2399 179.749 53.2435C180.932 55.2472 181.689 57.473 181.974 59.7821C182.259 62.0912 182.065 64.4343 181.404 66.6652C180.744 68.8961 179.631 70.9671 178.135 72.749C178.858 73.7297 179.473 74.7856 179.97 75.8983L167.714 81.7833L180.708 77.8703C181.526 80.5672 181.66 83.4259 181.096 86.1873C180.531 88.9488 179.287 91.526 177.476 93.6855C179.362 96.2453 180.49 99.2842 180.731 102.455C180.971 105.625 180.315 108.8 178.836 111.615C177.357 114.43 175.117 116.772 172.37 118.373C169.623 119.975 166.481 120.771 163.302 120.671C160.124 120.57 157.039 119.578 154.398 117.807C151.757 116.035 149.668 113.557 148.37 110.654C147.072 107.752 146.617 104.542 147.056 101.393C147.496 98.2439 148.813 95.2821 150.857 92.8462C148.604 89.7873 147.445 86.0602 147.564 82.2631C147.684 78.4661 149.075 74.8193 151.516 71.908V71.9098Z" fill="#00814F"/>
<path opacity="0.1" d="M181.43 83.3331C181.317 87.1309 179.927 90.7797 177.483 93.6889C179.369 96.2487 180.497 99.2876 180.737 102.458C180.978 105.629 180.321 108.803 178.843 111.618C177.364 114.433 175.123 116.775 172.376 118.377C169.63 119.978 166.487 120.774 163.309 120.674C160.131 120.574 157.045 119.581 154.405 117.81C151.764 116.039 149.675 113.56 148.377 110.658C147.079 107.755 146.623 104.546 147.063 101.396C147.503 98.2474 148.82 95.2855 150.864 92.8497C148.677 89.896 181.49 81.4332 181.43 83.3331Z" fill="black"/>
</g>
<path d="M26.209 134.51L108.563 140.812L108.633 140.817L188.334 135.916L188.394 135.912V132.547L100.574 130.935L27.3057 130.865H26.7702L26.7118 131.242L26.209 134.51Z" fill="#F1C0C0"/>
<path opacity="0.1" d="M26.209 134.51L108.563 140.812L108.633 140.817L188.334 135.916L188.394 135.85V132.617H188.324L108.563 135.281L27.3057 130.865H27.2937L27.1495 130.959L26.7118 131.242L26.209 134.51Z" fill="black"/>
<path opacity="0.1" d="M26.209 134.51L108.563 140.812V135.28L27.1495 130.959L26.7118 131.242L26.209 134.51Z" fill="black"/>
<path opacity="0.1" d="M136.023 100.417L179.697 109.02L181.696 108.219L181.689 108.078L136.023 100.417Z" fill="black"/>
<path d="M146.499 32.2767C146.915 32.494 147.313 32.7425 147.688 33.0197C148.132 33.3934 148.531 33.8139 148.877 34.2734C150.577 36.3881 152.147 38.8459 151.981 41.5132C151.984 41.9012 151.908 42.2862 151.756 42.6458C151.604 43.0055 151.38 43.3328 151.097 43.6089C150.395 44.1843 149.388 44.2109 148.469 44.2109C147.47 44.2109 146.42 44.211 145.556 43.7156C144.692 43.2202 143.97 42.2562 142.948 42.2791C142.803 42.302 142.656 42.302 142.512 42.2791C142.159 42.1686 142.088 41.7227 141.858 41.4408C141.461 40.934 140.625 41.0597 140.003 41.2807C139.38 41.5017 138.691 41.8332 138.076 41.5779C137.72 41.397 137.428 41.1168 137.24 40.7739C135.77 38.4877 135.457 35.7404 135.179 33.0845C135.009 31.4689 133.709 25.959 137.296 27.2127C138.881 27.7614 140.363 28.8588 141.806 29.6628L146.499 32.2767Z" fill="#3F3D56"/>
<path d="M143.602 32.2081C143.912 32.4374 144.288 32.5534 144.669 32.5377C145.051 32.522 145.416 32.3754 145.707 32.1214C146.278 31.5908 146.642 30.8649 146.731 30.0789C147.115 29.9567 147.31 30.4732 147.556 30.7886C147.985 31.3249 148.86 31.317 149.251 31.8887C149.523 32.283 149.462 32.8311 149.653 33.2767C149.903 33.8524 150.52 34.152 150.942 34.6173C151.34 35.1256 151.628 35.7159 151.785 36.3483L152.414 38.2882C152.715 39.095 152.909 39.9399 152.989 40.7999C153.029 41.2299 152.985 41.6636 152.86 42.0759C152.735 42.4882 152.531 42.8707 152.261 43.2012C151.417 44.1357 150.033 44.2343 148.81 44.2067C148.401 44.2156 147.993 44.1665 147.598 44.0608C146.513 43.7138 145.819 42.5901 145.531 41.4584C145.243 40.3268 145.274 39.1399 145.105 37.9807C144.923 36.842 144.601 35.7317 144.147 34.6764C143.809 33.8563 142.881 32.634 142.897 31.7626C143.173 31.7626 143.372 32.0228 143.602 32.2081Z" fill="#3F3D56"/>
<path d="M145.101 29.146C144.922 28.5788 144.817 27.9888 144.79 27.3923C144.79 26.1938 145.316 25.0672 145.846 23.9966L141.458 24.6158C140.928 24.6917 140.337 24.8035 140.037 25.263C139.924 25.4906 139.864 25.7434 139.864 26C139.864 26.2566 139.924 26.5094 140.037 26.7371C140.257 27.1929 140.432 27.6707 140.559 28.1633C140.569 28.5943 140.617 29.0235 140.702 29.4456C140.838 29.7557 141.03 30.0363 141.266 30.2726C142.521 31.7188 143.462 33.4246 144.399 35.1144C144.372 35.0665 147.044 32.9132 146.936 32.2101C146.875 31.8106 146.103 31.3313 145.857 30.9477C145.518 30.3911 145.263 29.7834 145.101 29.146V29.146Z" fill="#BE6F72"/>
<path d="M182.314 13.8892V17.8258L117.444 30.9745L114.079 33.0927H102.468V30.8746L166.203 14.8723L182.314 13.8892Z" fill="#F1C0C0"/>
<path opacity="0.1" d="M182.314 16.9214L117.444 30.8491L114.079 33.0928H102.468L166.676 17.967L182.314 16.9214Z" fill="black"/>
<path d="M130.393 121.878C129.675 120.985 128.682 120.367 127.578 120.126C126.474 119.885 125.323 120.035 124.313 120.551C124.096 120.656 123.906 120.809 123.754 120.999C123.372 121.548 123.617 122.306 123.651 122.985C123.739 124.642 122.454 125.988 121.299 127.146C120.68 127.767 120.049 128.43 119.769 129.274C119.49 130.118 119.697 131.19 120.446 131.63C120.773 131.798 121.129 131.899 121.494 131.928C122.717 132.173 123.97 132.209 125.204 132.034C126.424 131.794 127.621 131.084 128.148 129.93C128.25 129.617 128.419 129.331 128.642 129.094C129.315 128.548 130.347 129.188 131.112 128.799C131.743 128.477 131.77 127.971 131.778 127.303C131.801 125.458 131.533 123.37 130.393 121.878Z" fill="#00814F"/>
<path d="M139.306 121.222C139.734 122.372 139.793 123.625 139.849 124.853C139.88 125.562 139.901 126.322 139.525 126.922C139.15 127.522 138.416 127.837 137.714 127.987C136.263 128.292 134.584 128.004 133.649 126.829C132.932 125.932 132.783 124.7 132.915 123.536C133.026 122.581 133.263 121.463 132.592 120.785C132.418 120.604 132.192 120.477 132.032 120.281C131.684 119.848 131.74 119.195 131.927 118.663C132.172 118.154 132.355 117.616 132.473 117.062C132.501 116.8 137.181 117.247 137.613 117.463C138.2 117.758 138.11 118.251 138.287 118.847C138.534 119.678 139.007 120.427 139.306 121.222Z" fill="#00814F"/>
<path d="M140.128 65.6307C141.126 66.2978 141.511 67.6086 141.666 68.8258C142.093 72.1614 141.345 75.532 141.288 78.8988C141.235 83.6153 142.558 88.4177 141.428 92.9861C140.752 95.7169 141.326 98.8379 140.691 101.596C140.502 102.415 140.155 103.188 139.974 104.007C139.596 105.782 139.992 107.639 140.525 109.375C140.695 109.843 140.803 110.332 140.846 110.83C140.821 111.597 140.632 112.348 140.295 113.031L138.028 118.566C137.775 119.187 136.777 119.288 136.139 119.37C134.937 119.518 133.596 119.624 132.641 118.855C131.685 118.086 131.454 116.799 131.307 115.598C131.024 113.291 130.898 110.967 130.929 108.642C130.971 108.035 130.918 107.425 130.774 106.835C130.566 106.168 130.109 105.591 129.985 104.885C129.826 103.972 130.276 103.075 130.442 102.154C130.556 101.313 130.543 100.459 130.404 99.622C130.257 98.3736 130.087 97.1253 129.894 95.8847C129.622 94.1486 130.011 92.436 130.272 90.696C130.517 89.0614 130.204 87.3956 129.894 85.7727C129.921 87.0899 129.762 88.4041 129.422 89.6739C129.221 90.2942 128.934 90.8872 128.761 91.5192C127.986 94.3554 129.637 97.332 129.403 100.27C129.293 101.643 128.772 103 128.919 104.354C129.021 105.345 129.467 106.254 129.773 107.198C130.079 108.142 130.238 109.223 129.773 110.105C128.545 112.5 129.463 115.757 130.563 118.215C130.786 118.651 130.98 119.102 131.144 119.565C131.469 120.673 131.197 121.863 131.284 123.018C130.968 123.071 130.644 123.049 130.337 122.954C130.03 122.859 129.748 122.692 129.512 122.468C129.346 122.288 129.21 122.077 129.048 121.89C128.594 121.443 128.056 121.097 127.468 120.872C127.123 120.672 126.73 120.579 126.335 120.603C125.92 120.723 125.546 120.962 125.258 121.293C124.885 121.633 124.488 121.944 124.072 122.226C123.895 122.366 123.688 122.461 123.468 122.503C123.357 122.52 123.244 122.502 123.144 122.449C123.044 122.397 122.963 122.313 122.912 122.21C122.889 122.145 122.875 122.077 122.871 122.007C122.73 120.829 122.656 119.644 122.648 118.457C122.648 116.417 120.283 115.012 119.984 112.995C119.746 111.369 120.188 109.711 120.041 108.072C119.969 107.229 119.743 106.402 119.758 105.56C119.758 105.014 119.879 104.479 119.92 103.937C119.955 103.335 119.946 102.731 119.894 102.131L119.777 100.246C119.663 98.3853 119.539 96.4854 118.828 94.7845C117.986 92.7984 117.487 90.6752 117.355 88.5114C117.279 87.1459 117.328 85.7805 117.177 84.4112C117.041 83.1745 116.739 81.9456 116.826 80.705C116.898 79.7453 117.204 78.8168 117.276 77.8571C117.423 76.0118 116.743 74.2173 116.21 72.45C115.677 70.6828 115.285 68.7244 115.984 67.0195C116.083 66.7397 116.25 66.4902 116.467 66.2939C116.735 66.1108 117.04 65.9934 117.359 65.9506C123.841 64.5445 130.485 64.107 137.087 64.6515C138.163 64.7145 139.208 65.0509 140.128 65.6307Z" fill="#3F3D56"/>
<path d="M118.639 25.007C121.989 25.007 124.704 22.2919 124.704 18.9427C124.704 15.5935 121.989 12.8784 118.639 12.8784C115.29 12.8784 112.575 15.5935 112.575 18.9427C112.575 22.2919 115.29 25.007 118.639 25.007Z" fill="#BE6F72"/>
<path d="M117.052 27.262C117.144 27.6293 117.144 28.0138 117.052 28.3811C116.952 28.6378 116.811 28.8762 116.635 29.0871C116.019 29.8895 115.337 30.6382 114.597 31.3253C114.974 32.1757 115.653 32.8527 116.5 33.2226C117.341 33.584 118.223 33.8387 119.126 33.9808C119.577 34.1004 120.046 34.1331 120.509 34.077C120.936 33.9688 121.339 33.784 121.701 33.5315L125.237 31.3935C125.771 31.1018 126.265 30.7418 126.708 30.3225C127.356 29.6496 127.723 28.7504 127.733 27.8115C127.749 27.6433 127.704 27.4749 127.605 27.3382C127.47 27.2191 127.3 27.1473 127.121 27.1336C125.877 26.8568 124.896 25.838 124.339 24.6828C123.837 23.4985 123.511 22.2453 123.374 20.9644L119.603 22.97C119.043 23.2708 118.487 23.5716 117.906 23.8324C117.537 24.0008 116.79 24.1412 116.528 24.4822C116.027 25.112 116.921 26.5038 117.052 27.262Z" fill="#BE6F72"/>
<path d="M114.914 29.0827C114.375 29.525 113.954 30.0944 113.689 30.7398C113.442 31.5384 113.689 32.3809 113.912 33.1715C114.96 36.5412 115.76 39.9829 116.306 43.4692C116.642 45.8649 116.765 48.2966 116.929 50.7203C117.264 55.6635 117.751 63.5455 118.401 68.4568C120.795 68.5646 123.129 67.8659 125.503 67.6103C129.94 67.1392 134.509 68.2173 138.854 67.211C137.8 63.0464 136.747 55.935 135.694 51.7744C135.228 50.1352 134.905 48.4585 134.728 46.7633C134.636 45.5455 134.692 44.3237 134.708 43.0978C134.744 40.7021 134.612 38.3063 134.481 35.9106C134.329 33.1156 134.178 30.3205 133.515 27.5854C133.469 27.2369 133.306 26.9144 133.052 26.671C132.653 26.3795 132.135 26.4833 131.66 26.5472C130.206 26.732 128.735 26.383 127.518 25.565C126.992 25.2056 126.285 24.7664 125.795 25.1657C125.585 25.4065 125.447 25.7011 125.396 26.0162C125.178 26.581 124.843 27.093 124.413 27.5179C123.982 27.9427 123.465 28.2707 122.898 28.4798C121.761 28.8919 120.57 29.1367 119.363 29.2065C118.993 29.2859 118.608 29.2424 118.266 29.0827C117.699 28.7353 117.659 27.4856 116.945 27.4017C116.318 27.3298 115.337 28.6794 114.914 29.0827Z" fill="#3F3D56"/>
<path d="M124.612 38.3471C123.203 36.9606 122.584 34.9497 121.556 33.2411C120.856 32.0922 119.962 31.0813 118.916 30.2561C118.39 29.899 117.908 29.4784 117.48 29.0032C117.117 28.5436 116.842 27.9309 116.291 27.7542C116.064 27.7033 115.828 27.71 115.604 27.7736C115.38 27.8372 115.174 27.9559 115.004 28.1194C114.667 28.4494 114.348 28.7982 114.049 29.1642C112.429 30.8884 109.583 31.128 108.299 33.1233C107.953 33.5463 107.717 34.0533 107.615 34.5962C107.246 37.5002 107.976 40.4392 109.655 42.805C109.981 43.3534 110.48 43.7696 111.069 43.9833C110.989 44.7157 111.083 45.457 111.344 46.1435C112.051 48.6294 112.921 51.0635 113.946 53.4294C113.701 54.3548 113.529 55.2993 113.434 56.2534C113.166 58.6532 113.415 61.0883 113.163 63.4921C112.956 65.4559 112.398 67.3687 112.379 69.3365C112.379 69.6507 112.406 70.0238 112.67 70.1848C112.81 70.2589 112.967 70.2928 113.124 70.283L117.823 70.4284C120.551 70.5108 123.306 70.5933 125.991 70.0749C126.349 70.0205 126.696 69.9078 127.019 69.741C127.928 69.2186 128.23 68.0403 128.375 66.9916C128.565 65.6314 128.64 64.2568 128.601 62.8833C129.17 64.7332 129.846 66.646 131.565 67.4473C132.475 67.8714 133.514 67.84 134.511 67.8125C136.66 67.7141 138.802 67.4872 140.925 67.133C141.056 67.1497 141.189 67.1347 141.313 67.0891C141.437 67.0436 141.55 66.9687 141.641 66.8706C141.732 66.7724 141.799 66.6538 141.837 66.5241C141.876 66.3944 141.884 66.2572 141.861 66.1236L141.884 63.9791C141.93 59.6233 140.88 55.46 140.471 51.1238C140.341 49.757 140.352 48.3744 140.028 47.0351C139.894 46.4735 139.699 45.9236 139.581 45.358C139.479 44.8043 139.415 44.2438 139.39 43.6809L139.092 39.3604C138.95 37.3613 138.748 35.4328 138.599 33.4375C138.517 31.4946 138.243 29.5654 137.781 27.6795C137.449 26.5012 136.757 25.1658 135.562 25.0205C134.924 24.9459 134.305 25.2326 133.697 25.4329C132.204 25.9161 130.602 25.9093 129.113 25.4133C128.653 25.2265 128.173 25.0947 127.684 25.0205C127.438 24.986 127.187 25.0195 126.957 25.1175C126.728 25.2155 126.527 25.3745 126.377 25.5782C126.229 25.8851 126.159 26.2257 126.175 26.568C125.995 30.4917 125.663 34.5333 124.612 38.3471Z" fill="#00814F"/>
<path d="M118.106 39.4129C116.348 37.6576 114.544 35.8698 112.279 34.7538C111.386 34.3132 110.372 33.9809 109.384 34.1471C108.396 34.3132 107.477 35.1258 107.523 36.0757C107.554 36.6644 107.931 37.1845 108.049 37.7624C108.187 38.4125 107.988 39.1059 108.202 39.7343C108.376 40.1484 108.635 40.5255 108.965 40.8431L111.665 43.8733C112.809 45.1374 113.953 46.4196 115.425 47.2936C116.897 48.1676 118.804 48.5758 120.421 47.9545C121.572 47.4481 122.528 46.6167 123.159 45.5744C123.831 44.5632 124.303 43.458 124.933 42.4142C125.912 40.7464 127.205 39.2618 128.746 38.0332C127.953 37.8382 126.958 37.5637 126.458 36.9497C126.316 36.7545 126.195 36.5464 126.096 36.3285L125.478 35.0644C125.268 35.0541 125.058 35.085 124.861 35.1552C124.664 35.2254 124.485 35.3335 124.334 35.4726C124.069 35.7626 123.785 36.0364 123.484 36.2924C122.946 36.6752 122.217 36.78 121.729 37.217C121.54 37.4046 121.369 37.6076 121.218 37.8238C120.849 38.2833 120.38 38.6629 119.844 38.9369C119.307 39.211 118.715 39.3733 118.106 39.4129V39.4129Z" fill="#3F3D56"/>
<path d="M128.538 30.8445C129.788 28.4194 129.73 25.5116 130.087 22.7724C130.126 22.047 130.365 21.3499 130.775 20.7688C131.495 19.903 132.767 19.8915 133.855 20.0026C134.175 20.0409 134.575 20.2018 134.557 20.5427C134.532 20.6649 134.476 20.7775 134.395 20.8684C133.341 22.3157 132.721 24.0672 132.616 25.8947C133.181 26.3123 134.057 25.4542 134.6 25.8947C134.961 26.2165 134.795 26.8525 134.579 27.3122C134.077 28.3773 133.559 29.4346 133.026 30.4843C132.601 31.4096 132.046 32.2608 131.38 33.009C130.923 33.4764 130.386 33.8442 129.921 34.3039C128.841 35.3804 128.189 36.9014 127.072 37.9511C126.978 38.0598 126.85 38.1291 126.712 38.1465C126.57 38.1357 126.436 38.0719 126.334 37.9664C125.776 37.4838 125.313 36.8889 124.972 36.2156C124.547 35.3804 124.612 35.1352 125.282 34.5453C126.535 33.4917 127.756 32.3616 128.538 30.8445Z" fill="#BE6F72"/>
<path d="M116.277 36.9654C116.525 37.0725 116.831 37.1942 117.103 37.1044C117.214 37.0572 117.309 36.9928 117.38 36.9162C117.852 36.4744 118.246 35.994 118.553 35.4857C118.605 35.4138 118.635 35.3347 118.639 35.254C118.639 35.0687 118.404 34.9326 118.185 34.8254C117.012 34.3013 115.751 33.8811 114.431 33.5744C113.341 33.2849 112.201 33.0329 111.045 33.1053C110.61 33.1258 110.186 33.2076 109.798 33.346C109.41 33.4843 109.065 33.6763 108.786 33.9104C107.96 34.6546 109.343 34.8804 110.21 35.1497C112.218 35.7897 114.39 36.1604 116.277 36.9654Z" fill="#00814F"/>
<path opacity="0.1" d="M114.601 43.8411C114.591 43.9081 114.597 43.9765 114.619 44.0407C114.641 44.1049 114.679 44.1632 114.728 44.2109C114.815 43.7942 114.701 43.354 114.791 42.9343C114.924 42.3034 115.553 41.8281 115.607 41.1942C114.454 40.9741 114.61 43.1603 114.601 43.8411Z" fill="black"/>
<path opacity="0.2" d="M182.314 13.8892V17.1215L167.598 17.932L167.153 14.6964L182.314 13.8892Z" fill="black"/>
<path d="M113.399 19.7734C114.352 18.9933 113.8 17.3577 114.446 16.31C114.822 15.7372 115.456 15.4357 116.079 15.1795C116.831 14.8262 117.637 14.602 118.463 14.5162C118.877 14.4763 119.294 14.5304 119.684 14.6746C120.074 14.8188 120.426 15.0493 120.715 15.349C120.959 15.6279 121.125 15.9671 121.354 16.2573C121.637 16.5958 122.007 16.851 122.423 16.9956C122.84 17.1403 123.287 17.169 123.719 17.0788C124.218 16.9658 124.736 16.5851 124.702 16.0726C124.646 15.7609 124.487 15.477 124.252 15.2661L123.178 14.0715C121.958 12.7148 120.603 11.2752 118.812 10.936C117.566 10.6986 116.289 11.034 115.088 11.4372C114.604 11.5993 114.059 11.8405 113.924 12.3341C113.834 12.6733 113.969 13.0426 113.891 13.3856C113.737 14.0677 112.866 14.2976 112.46 14.8704C112.055 15.4433 112.179 16.1216 112.062 16.7547C111.946 17.3879 111.608 18.0059 111.567 18.6616C111.54 19.0574 111.739 19.7922 112.182 19.9354C112.625 20.0786 113.125 19.3023 113.399 19.7734Z" fill="#3F3D56"/>
<path d="M124.704 15.5261C124.386 13.8821 123.701 12.3296 122.7 10.9825C121.809 9.7239 120.57 8.748 119.132 8.17272C118.413 7.89415 117.64 7.7807 116.871 7.84089C116.102 7.90107 115.356 8.13332 114.69 8.5202C113.702 9.21996 112.933 10.1823 112.471 11.2964C111.496 13.3813 111.134 15.9296 112.268 17.9323C112.72 17.3868 113.496 17.6334 114.182 17.4354C115.041 17.1925 115.768 16.6246 116.585 16.2696C119.053 15.1898 122.067 16.0641 124.704 15.5261Z" fill="#FED253"/>
<path opacity="0.1" d="M112.646 15.8455C112.588 15.1947 112.55 14.4389 112.873 13.9761C112.889 13.9478 112.91 13.9252 112.933 13.9101C112.956 13.895 112.982 13.8879 113.007 13.8893C113.03 13.8998 113.051 13.9168 113.068 13.9391C113.086 13.9615 113.101 13.9889 113.111 14.0195C113.298 14.4411 113.457 14.8866 113.586 15.3501C113.398 15.288 113.201 15.3082 113.02 15.4082C112.84 15.5081 112.685 15.6831 112.575 15.9106" fill="black"/>
<path opacity="0.1" d="M120.856 13.6374L120.707 11.6405C120.683 11.4759 120.693 11.3056 120.736 11.1482C120.798 11.0165 120.895 10.9207 121.007 10.8794C121.119 10.8381 121.238 10.8541 121.342 10.9245C121.546 11.077 121.714 11.3037 121.828 11.5789C122.173 12.2937 122.46 13.0571 122.683 13.8555C122.014 13.682 121.326 13.6934 120.661 13.8891" fill="black"/>
<path opacity="0.1" d="M124.704 69.4785V72.3489L121.959 72.5107H107.521V69.4785H124.704Z" fill="black"/>
<path d="M124.703 69.2067V72.5106H108.119L64.0605 17.4985V14.8999H73.2967L124.703 69.2067Z" fill="#F1C0C0"/>
<path opacity="0.1" d="M124.703 69.2067V72.5106H108.119L64.0605 17.4985V14.8999H73.2967L124.703 69.2067Z" fill="black"/>
<path opacity="0.1" d="M124.703 69.2067V72.5106H108.119L64.0605 17.4985V14.8999L108.357 69.2067H124.703Z" fill="black"/>
<path d="M69.5835 125.391C69.612 125.531 69.6086 125.676 69.5734 125.815C69.5383 125.954 69.4722 126.085 69.3794 126.2C69.2865 126.315 69.1688 126.411 69.0337 126.482C68.8986 126.553 68.7489 126.598 68.594 126.614C67.544 126.94 66.4298 127.262 65.6858 128C64.9418 128.738 64.7945 130.106 65.6858 130.706C66.1414 130.958 66.6645 131.088 67.1965 131.083C68.9075 131.191 70.6902 131.17 72.2424 130.505C73.3528 130.034 74.399 129.23 75.619 129.302C76.2497 129.337 76.922 129.607 77.4847 129.344C78.0475 129.081 78.2061 128.346 78.2099 127.733C78.2242 126.453 78.0138 125.179 77.5867 123.96C77.5301 123.794 75.128 123.665 74.8409 123.614L71.929 123.267C71.3775 123.201 70.1878 122.82 69.7535 123.243C69.3191 123.665 69.5835 124.889 69.5835 125.391Z" fill="#00814F"/>
<path d="M87.4114 115.32C87.5381 115.976 87.7439 116.617 88.0248 117.23C88.4402 118.221 88.9721 119.274 89.9893 119.755C90.9132 120.189 92.0469 120.032 92.9864 119.621C93.3785 119.468 93.7222 119.223 93.9841 118.91C94.2872 118.414 94.4226 117.843 94.3724 117.273C94.3724 115.863 94.2831 114.405 93.5959 113.151C93.0058 112.058 91.977 111.117 91.9615 109.907L88.4247 110.549C88.2354 110.566 88.055 110.633 87.9045 110.742C87.7924 110.853 87.7146 110.99 87.6793 111.139C87.3017 112.503 87.2107 113.923 87.4114 115.32V115.32Z" fill="#00814F"/>
<path d="M44.9278 78.2209C44.7712 79.5313 44.8371 80.9353 45.5294 82.0666C46.2218 83.198 47.6807 83.9468 48.9417 83.495C49.0063 83.4788 49.067 83.4498 49.1201 83.41C49.1732 83.3701 49.2176 83.3202 49.2508 83.2631C49.2844 83.1255 49.2653 82.9806 49.1972 82.8561C48.6405 81.389 48.6864 79.7651 49.325 78.3308C49.4074 78.1436 49.5846 77.9239 49.7783 77.9971C49.8593 78.0376 49.9245 78.1035 49.9638 78.1843C50.1633 78.5252 50.2631 78.914 50.2523 79.3075C50.1941 79.664 50.183 80.0266 50.2193 80.3859C50.2976 80.7359 50.6767 81.0655 51.0064 80.915C51.1017 80.8572 51.1841 80.7808 51.2486 80.6906C51.3131 80.6003 51.3583 80.498 51.3814 80.39C52.3005 77.7652 51.8842 74.8961 51.4639 72.1492C51.4674 72.0861 51.4568 72.0231 51.4329 71.9645C51.409 71.9059 51.3724 71.8532 51.3257 71.8101C51.2789 71.767 51.2231 71.7346 51.1622 71.7151C51.1014 71.6957 51.0369 71.6897 50.9735 71.6975C49.0283 71.5062 47.965 71.0464 46.8523 72.8329C45.8962 74.3386 44.9278 76.41 44.9278 78.2209Z" fill="#00814F"/>
<path d="M66.1911 72.6078C65.6505 74.8532 65.106 77.1255 65.0713 79.4325C65.0808 80.8695 65.1892 82.3042 65.3956 83.7264L65.8011 87.0673C65.9401 88.1938 66.0753 89.3165 66.2722 90.4314C66.3978 91.0058 66.4664 91.5912 66.4769 92.1791C66.439 92.7586 66.3472 93.3333 66.2027 93.8958C65.9599 95.0772 65.8242 96.278 65.7972 97.4837C65.7548 99.4127 65.9942 101.342 66.1448 103.271C66.4454 107.114 66.4002 110.978 66.0096 114.813C65.8537 115.849 66.0787 116.906 66.6429 117.788C66.8718 118.066 67.0603 118.375 67.2028 118.706C67.4924 119.59 66.8167 120.473 66.6429 121.38C66.5317 122.087 66.706 122.809 67.1274 123.387C67.5488 123.966 68.1828 124.354 68.8902 124.466C71.9794 124.832 75.1535 124.667 77.9376 126.079C78.231 125.222 77.59 124.25 77.8835 123.378C78.0689 122.838 78.5786 122.487 78.9261 122.032C79.393 121.338 79.6257 120.513 79.5903 119.678C79.6039 118.588 79.41 117.505 79.0188 116.488C78.6905 115.639 78.2195 114.802 78.2465 113.891C78.2465 113.444 78.4048 112.973 78.2233 112.56C78.0989 112.323 77.9297 112.112 77.7252 111.939C76.5711 110.676 75.8619 109.071 75.7057 107.368C75.5551 105.678 75.6095 103.975 75.8678 102.298C76.0571 100.701 76.3119 99.0153 77.3275 97.7692C76.8565 93.9907 77.1333 90.1566 78.1422 86.4848C78.2426 86.1453 78.4009 85.7518 78.7485 85.6707C78.8865 85.6566 79.026 85.6759 79.155 85.7269C79.284 85.7779 79.3989 85.8592 79.4899 85.964C80.0961 86.5311 80.3857 87.3528 80.6483 88.1398C80.9379 88.9924 81.2314 89.9029 81.0113 90.7748C80.9186 91.1606 80.7332 91.5001 80.6251 91.8704C80.3902 92.6147 80.4313 93.4186 80.741 94.135C80.8919 94.3969 80.9866 94.6872 81.019 94.9876C80.9832 95.2456 80.9049 95.4959 80.7873 95.7283C80.6441 96.1849 80.5986 96.6664 80.6538 97.1416C80.709 97.6168 80.8637 98.0751 81.1078 98.4867C81.6 99.306 82.2073 100.05 82.9111 100.697C82.5748 102.178 82.6618 103.723 83.1621 105.157C83.1982 105.222 83.2212 105.293 83.2298 105.366C83.2384 105.44 83.2325 105.514 83.2123 105.585C83.1428 105.732 82.9652 105.786 82.8261 105.89C82.44 106.206 82.6794 106.804 82.9381 107.217C83.6472 108.35 84.4302 109.435 85.282 110.466C86.0543 111.388 85.9848 113.166 87.1355 113.498C87.619 113.602 88.1193 113.602 88.6028 113.498C89.7381 113.324 91.0046 112.996 91.5607 111.993C91.7885 111.581 91.8812 111.079 92.2364 110.77C92.5917 110.462 93.0512 110.408 93.2481 110.037C93.4451 109.667 93.225 109.181 93.2906 108.753C93.3563 108.324 93.7308 107.981 93.8505 107.53C94.1363 106.488 92.9199 105.632 92.7539 104.567C92.5145 103.024 94.4606 101.866 94.3795 100.323C94.2096 96.9706 94.1015 93.6026 93.9278 90.2501C93.7097 87.247 93.6787 84.2333 93.8351 81.2264C93.9702 79.3553 94.2212 77.3955 93.5339 75.6556C92.5454 73.202 89.8192 71.8247 87.1818 71.5623C84.5445 71.3 81.9148 71.925 79.3007 72.3339C74.962 73.002 70.5539 73.0941 66.1911 72.6078V72.6078Z" fill="#3F3D56"/>
<path d="M74.1678 36.1251C77.517 36.1251 80.2321 33.1838 80.2321 29.5555C80.2321 25.9272 77.517 22.9858 74.1678 22.9858C70.8186 22.9858 68.1035 25.9272 68.1035 29.5555C68.1035 33.1838 70.8186 36.1251 74.1678 36.1251Z" fill="#FBBEBE"/>
<path d="M72.6671 36.7268C72.4595 37.1837 72.1104 37.5705 71.6658 37.8362C71.2212 38.102 70.7019 38.2343 70.1763 38.2158C69.955 39.0811 70.4852 39.9535 71.0917 40.6349C72.3511 42.0201 73.9786 43.0627 75.8064 43.6552C77.6341 44.2477 79.596 44.3688 81.4898 44.0058C82.2267 43.8811 82.9259 43.6055 83.5381 43.1983C84.3635 42.5468 84.9177 41.6398 85.1021 40.6385C85.2776 39.6442 85.3276 38.6336 85.2508 37.6282C85.2722 37.4296 85.2121 37.2309 85.083 37.0729C84.9304 36.9613 84.7419 36.9027 84.549 36.9071C83.2597 36.799 81.9132 36.7521 80.7803 36.1536C79.6474 35.5551 78.8426 34.2032 79.3881 33.0928C79.3003 33.2658 77.0727 33.3487 76.779 33.3848C75.8597 33.5074 74.9405 33.6444 74.025 33.803C73.5851 33.8258 73.1503 33.9034 72.7319 34.0337C72.1788 34.3041 72.3848 34.1707 72.5145 34.6611C72.709 35.4109 72.9951 35.9481 72.6671 36.7268Z" fill="#FBBEBE"/>
<path d="M77.0122 40.6321C76.1692 40.6417 75.3283 40.5496 74.5079 40.3577C73.6796 40.1662 72.9495 39.6842 72.4529 39.0009C72.1638 38.568 71.9763 38.0229 71.5153 37.7794C70.7613 37.3929 69.9018 38.0461 69.3001 38.6453C68.7523 39.2362 68.1175 39.7418 67.417 40.1451C66.581 40.5819 65.6043 40.7365 64.8151 41.2506C64.1986 41.7115 63.6695 42.2769 63.2524 42.9205L57.7164 50.3808C55.4934 53.3804 53.5596 56.6003 51.5788 59.7661C49.8637 62.5067 48.9651 65.6609 47.672 68.618C47.5696 68.799 47.5272 69.0072 47.5509 69.2133C47.5978 69.4143 47.8439 69.5766 48.0158 69.4607C47.4337 70.0328 47.9455 71.0069 47.8087 71.8109C47.6533 72.3735 47.3291 72.8762 46.8789 73.2527C47.7388 73.1417 48.6118 73.1823 49.4574 73.3725C50.3313 73.6176 51.156 74.0099 51.8953 74.5321C52.368 74.4587 52.325 73.6276 52.6766 73.3184C52.8876 73.1367 53.2001 73.1599 53.4775 73.1058C54.5206 72.9048 54.9348 71.664 55.7357 70.9643C56.4037 70.3807 57.3492 70.1912 58.0563 69.6423C59.2049 68.7494 59.451 67.1607 60.0527 65.8426C60.5645 64.7255 61.3693 63.7514 61.8186 62.6072C62.1116 61.8651 62.2522 61.061 62.6702 60.3769C63.3383 59.2713 64.5963 58.6838 65.7957 58.1542C66.5536 57.8179 67.3584 57.47 68.1749 57.5241C68.132 59.3216 67.9015 61.092 68.2961 62.8469C68.4328 63.4654 68.6242 64.0684 68.7883 64.683C69.5345 67.4506 69.7103 70.3343 69.7455 73.187C71.5405 72.7806 73.3738 72.5629 75.215 72.5376C76.6645 72.4951 78.11 72.6806 79.5594 72.6535C81.2784 72.6226 82.9779 72.294 84.6969 72.1781C86.4159 72.0621 88.213 72.1781 89.7327 72.9512C89.6093 70.5014 89.6786 68.0459 89.9398 65.6068L90.3539 61.7646C90.4474 60.6482 90.621 59.5399 90.8735 58.448C91.1001 57.5667 91.4283 56.7163 91.6783 55.8388C92.5574 52.7465 92.3972 49.4454 92.2292 46.2254C92.1432 44.571 91.4986 42.9437 90.7407 41.4709C90.4664 40.9239 90.153 40.3968 89.8031 39.8938C88.8872 38.6453 87.6666 37.6466 86.2552 36.991C84.8438 36.3353 83.2875 36.044 81.7316 36.1443C81.5329 36.1504 81.3369 36.1923 81.1534 36.268C80.8236 36.4769 80.5661 36.7803 80.415 37.1377C79.6067 38.5752 78.4339 39.7795 77.0122 40.6321Z" fill="#3F3D56"/>
<path d="M68.9882 31.2573C69.1621 30.8806 69.6298 30.7412 69.9158 30.4399C70.4647 29.8673 70.2173 28.9519 70.3023 28.1797C70.4415 27.0496 71.4039 26.1041 72.5055 25.701C73.6289 25.3497 74.8243 25.2759 75.9842 25.4863C76.5425 25.526 77.0819 25.7008 77.5535 25.9949C77.7545 26.138 77.94 26.3226 78.1294 26.4544C78.4746 26.6578 78.8878 26.7216 79.2806 26.6322C79.6735 26.5428 80.0149 26.3073 80.2321 25.976C78.8638 24.3713 77.3486 22.6762 75.2691 22.1827C74.5557 22.0408 73.8288 21.9738 73.1008 21.9831C72.1383 21.9642 71.145 21.9492 70.256 22.307C69.0462 22.793 68.1958 23.9117 67.759 25.1172C67.3771 26.339 67.1728 27.607 67.1522 28.8841C67.073 29.7362 67.073 30.5935 67.1522 31.4456C67.3016 32.6093 67.7452 33.7186 68.4432 34.6739C68.5375 34.8223 68.671 34.9433 68.8297 35.0242C70.5922 35.7776 68.8452 31.5699 68.9882 31.2573Z" fill="#3F3D56"/>
<path d="M80.232 24.7297C80.0206 22.992 78.7288 21.5568 77.3564 20.402C76.2501 19.4007 74.9324 18.6394 73.4926 18.1699C72.0433 17.7604 70.3748 17.8489 69.133 18.679C68.1334 19.3468 67.4991 20.4094 67.0108 21.4793C66.3694 22.7419 66.0518 24.1333 66.0843 25.5377C66.1804 26.9323 66.8878 28.3453 68.1488 29.05C68.6024 28.408 69.3906 28.076 70.1479 27.814C73.4489 26.6121 76.8152 25.5825 80.232 24.7297V24.7297Z" fill="#FED253"/>
<path opacity="0.1" d="M67.9454 23.9969C68.1963 23.9969 68.3609 24.2039 68.4864 24.3732C69.1247 25.1689 69.6731 26.0085 70.1249 26.8822C69.2077 27.039 67.6318 27.2146 67.1771 26.5686C66.9341 26.2424 67.2242 23.9655 67.9454 23.9969Z" fill="black"/>
<path opacity="0.1" d="M77.4368 22.9735C77.3278 23.02 77.2007 22.9249 77.2007 22.8562V22.0717C77.1977 22.0499 77.2087 22.0282 77.2325 22.0091C77.2513 21.9995 77.2743 21.9917 77.3 21.9861C77.3258 21.9805 77.3538 21.9774 77.3823 21.9767C77.7502 21.9585 78.0545 22.098 78.2906 22.2315C78.649 22.4477 78.9607 22.6786 79.2216 22.9209L77.3006 22.8946" fill="black"/>
<path d="M97.6552 48.6395C98.0105 48.2829 98.3899 47.9541 98.7903 47.6557C99.8598 46.9005 101.153 46.6025 102.354 46.1209C103.555 45.6392 104.775 44.8595 105.242 43.5941C105.476 42.8028 105.552 41.9688 105.466 41.1448C105.477 40.7998 105.419 40.4563 105.296 40.1366C105.149 39.8541 104.94 39.6132 104.686 39.4345C103.057 38.1608 100.871 38.0588 98.8483 38.1894C94.3878 38.4819 90.0158 39.6357 85.9486 41.5939C85.7335 41.669 85.545 41.8113 85.408 42.0021C85.3289 42.179 85.293 42.3741 85.3038 42.5695C85.2319 43.7733 85.38 44.9804 85.7401 46.125C86.2729 47.5782 87.3695 48.7497 87.8289 50.2315C88.0374 50.8969 88.1069 51.6031 88.2884 52.2725C88.4373 52.9639 88.824 53.5721 89.3733 53.9788C90.8984 54.9422 92.3386 53.6482 93.3965 52.644L97.6552 48.6395Z" fill="#3F3D56"/>
<path d="M77.5666 53.6045L75.6557 49.3206C75.3755 48.7269 75.1338 48.1149 74.932 47.4885C74.7134 46.741 74.6079 45.9663 74.4044 45.2149C73.7335 42.7127 72.0412 40.6289 71.2158 38.1771C71.1636 37.9557 71.0573 37.7517 70.9068 37.5845C70.7863 37.4969 70.6486 37.4376 70.5033 37.4108C70.3581 37.3841 70.2089 37.3904 70.0663 37.4295C68.913 37.6348 68.0122 38.5373 66.9569 39.0486C66.4669 39.281 65.9393 39.4359 65.4493 39.7032C65.2044 39.8224 64.9874 39.9944 64.8131 40.2077C64.6387 40.4209 64.5112 40.6703 64.4392 40.9387C64.3224 41.5314 64.6088 42.1007 64.85 42.6779C65.8752 45.0561 66.1089 47.7132 66.1541 50.3161C66.188 52.0668 66.1013 53.9454 65.095 55.3514C63.1615 58.0627 64.3977 62.0445 65.1214 65.3252C65.2081 65.7125 65.3098 66.1308 65.3701 66.5414C65.4339 67.0552 65.4629 67.5729 65.4568 68.0907C65.4568 69.8299 65.3626 71.6232 64.654 73.1996C65.3536 73.5821 66.1246 73.8066 66.9154 73.8581C69.1039 74.1447 71.3013 74.3461 73.5074 74.4623C74.1986 74.5291 74.8955 74.4926 75.5765 74.3539C76.3853 74.1293 77.0981 73.6342 77.6025 72.9468C78.1069 72.2594 78.3741 71.4189 78.3618 70.558C78.4824 71.6309 78.7048 72.7968 79.4624 73.5405C80.2199 74.2842 81.3242 74.3965 82.3532 74.4546C85.2571 74.6129 88.1688 74.5287 91.0595 74.2028C91.244 74.1943 91.4254 74.1509 91.5947 74.075C92.1525 73.7884 92.1827 72.9982 92.1374 72.363C92.0545 71.1739 91.9678 69.9848 91.8284 68.8034C91.7101 68.0503 91.6496 67.2888 91.6474 66.5259C91.7049 65.7412 91.8311 64.9634 92.0243 64.2019C92.5294 61.785 92.9289 59.3176 92.7593 56.8426C92.6923 56.2397 92.6683 55.6325 92.6877 55.026C92.7857 53.6587 93.4867 52.3573 93.3548 50.9978C92.9779 47.0005 92.6726 42.8986 91.5871 39.0408C91.3912 38.3514 91.1424 37.6116 90.5582 37.2165C89.8044 36.6975 88.7453 36.9686 87.8822 36.6394C87.4773 36.4457 87.0922 36.2108 86.7327 35.9383C85.9517 35.4363 85.0564 35.1532 84.1359 35.1171C83.4424 35.09 82.6697 35.2488 82.2514 35.8221C82.0577 36.1448 81.9295 36.5045 81.8745 36.8795C81.328 39.2422 80.6873 41.5778 80.0465 43.9134L79.4322 46.1522L77.7852 52.1636C77.6231 52.8027 77.7324 53.0003 77.5666 53.6045Z" fill="#00814F"/>
<path d="M87.5624 30.0605L124.704 69.1922V72.5105H108.143L80.2324 35.989" fill="#F1C0C0"/>
<path opacity="0.1" d="M87.5624 30.0605L124.704 69.1922V72.5105H108.143L80.2324 35.989" fill="black"/>
<path opacity="0.1" d="M80.8237 36.125L80.9428 36.1666L108.381 69.2507H124.704V72.5107H108.143L80.2324 36.6318L80.8237 36.125Z" fill="black"/>
<path d="M84.6726 36.6823C83.2829 37.2563 81.7384 37.9917 81.3214 39.3725C81.2391 39.6148 81.2214 39.8726 81.2698 40.1229C81.3714 40.4173 81.565 40.6756 81.8252 40.8639C82.0853 41.0521 82.3998 41.1614 82.727 41.1772C83.3809 41.1922 84.031 41.0798 84.6369 40.847L92.836 38.2881C93.0584 38.2206 93.3125 38.1193 93.3681 37.9129C93.3823 37.7831 93.3547 37.6523 93.2887 37.5377C93.0346 36.9524 92.7844 35.7555 92.2524 35.3465C91.8156 35.0163 90.95 35.1327 90.4219 35.1402C88.389 35.1552 86.4792 35.9318 84.6726 36.6823Z" fill="#00814F"/>
<path d="M92.0866 38.3531C93.4645 38.3493 94.8346 38.5502 96.1465 38.9482C97.4644 39.3525 98.6316 40.1059 99.5093 41.1189C99.7649 41.4021 99.9467 41.7379 100.04 42.0995C100.119 42.4738 101.411 42.6983 101.125 42.9528C101.993 42.8218 101.787 43.2073 102.666 43.1998C103.545 43.1924 104.496 42.979 105.023 42.3166C105.389 41.7724 105.552 41.1282 105.486 40.4864C105.498 40.0421 105.409 39.6006 105.225 39.1915C104.829 38.4055 103.918 37.9826 103.078 37.6196L96.0039 34.5619C95.5936 34.3556 95.1531 34.208 94.6968 34.124C94.3129 34.0897 93.926 34.0985 93.5442 34.1502L90.3398 34.4982C91.0406 34.9267 91.6111 35.5204 91.9952 36.2206C92.3793 36.9208 92.5637 37.7036 92.5302 38.4916" fill="#3F3D56"/>
</g>
<defs>
<filter id="filter0_d_1025_622" x="0.428711" y="0.75" width="210.143" height="149.5" filterUnits="userSpaceOnUse" color-interpolation-filters="sRGB">
<feFlood flood-opacity="0" result="BackgroundImageFix"/>
<feColorMatrix in="SourceAlpha" type="matrix" values="0 0 0 0 0 0 0 0 0 0 0 0 0 0 0 0 0 0 127 0" result="hardAlpha"/>
<feOffset dy="4"/>
<feGaussianBlur stdDeviation="2"/>
<feComposite in2="hardAlpha" operator="out"/>
<feColorMatrix type="matrix" values="0 0 0 0 0 0 0 0 0 0 0 0 0 0 0 0 0 0 0.25 0"/>
<feBlend mode="normal" in2="BackgroundImageFix" result="effect1_dropShadow_1025_622"/>
<feBlend mode="normal" in="SourceGraphic" in2="effect1_dropShadow_1025_622" result="shape"/>
</filter>
<clipPath id="clip0_1025_622">
<rect width="202.143" height="141.5" fill="white" transform="translate(4.42871 0.75)"/>
</clipPath>
</defs>
</svg>
