<svg width="200" height="171" viewBox="0 0 200 171" fill="none" xmlns="http://www.w3.org/2000/svg">
<g clip-path="url(#clip0_1025_1148)">
<path d="M20.1155 167.359L12.0288 154.526L20.1192 168.757L20.1236 170.219C20.7005 170.213 21.2716 170.191 21.8368 170.153L21.1773 151.369L21.186 151.223L21.1711 151.196L21.1083 149.421L29.5636 135.355L21.0996 148.091L21.0742 148.467L20.576 134.275L27.8449 119.723L20.5192 131.781L20.1784 102.364L20.1768 102.266L20.1757 102.362L20.0097 125.556L13.0639 116.276L20.0159 127.553L20.0481 140.257L13.6034 127.988L20.0517 142.124L20.0695 149.188L10.708 132.105L20.0769 151.652L20.1155 167.359Z" fill="#E2E2E2"/>
<path d="M188.889 167.359L180.802 154.526L188.893 168.757L188.897 170.219C189.474 170.213 190.045 170.191 190.61 170.153L189.951 151.369L189.959 151.223L189.945 151.196L189.882 149.421L198.337 135.355L189.873 148.091L189.848 148.467L189.349 134.275L196.618 119.723L189.293 131.781L188.952 102.364L188.95 102.266L188.949 102.362L188.783 125.556L181.837 116.276L188.789 127.553L188.822 140.257L182.377 127.988L188.825 142.124L188.843 149.188L179.481 132.105L188.85 151.652L188.889 167.359Z" fill="#E2E2E2"/>
<path d="M13.0634 45.1911C14.4536 45.1895 15.7975 45.6902 16.8477 46.6011C17.6774 46.3745 18.5474 46.3363 19.3938 46.4892C20.0945 45.4723 21.1021 44.7061 22.2692 44.3026C23.4364 43.8991 24.702 43.8794 25.8812 44.2464C27.0604 44.6134 28.0913 45.3478 28.8233 46.3424C29.5554 47.337 29.9502 48.5397 29.9501 49.7746H7.40039C7.67689 48.4777 8.39008 47.315 9.4208 46.4808C10.4515 45.6465 11.7374 45.1913 13.0634 45.1911Z" fill="#E2E2E2"/>
<path d="M173.777 61.4453C175.145 61.4437 176.467 61.9363 177.5 62.8322C178.316 62.6093 179.172 62.5717 180.004 62.7222C180.694 61.7219 181.685 60.9683 182.833 60.5714C183.981 60.1744 185.226 60.155 186.386 60.516C187.546 60.877 188.56 61.5995 189.28 62.5778C190 63.5561 190.388 64.7391 190.388 65.9539H168.207C168.479 64.6782 169.181 63.5345 170.194 62.7139C171.208 61.8932 172.473 61.4454 173.777 61.4453Z" fill="#E2E2E2"/>
<path d="M91.6816 90.6414V136.817H109.639V90L105.47 90.1489V80.7007H102.447L101.949 59.7751C103.169 58.9801 104.027 57.0919 104.027 54.8871C104.029 54.2542 103.955 53.6233 103.808 53.0077C104.385 52.3829 104.739 51.5842 104.814 50.7368C104.889 49.8894 104.681 49.041 104.222 48.3246C104.606 48.6599 105.052 48.9156 105.535 49.0769C106.019 49.2383 106.529 49.302 107.037 49.2644C107.545 49.2269 108.041 49.0887 108.495 48.8581C108.95 48.6274 109.354 48.3088 109.684 47.9207C110.014 47.5326 110.264 47.0829 110.419 46.5975C110.574 46.1121 110.631 45.6007 110.586 45.0931C110.542 44.5855 110.398 44.0918 110.161 43.6405C109.924 43.1893 109.6 42.7896 109.208 42.4645C109.868 42.221 110.448 41.8014 110.886 41.2512C111.324 40.7011 111.603 40.0414 111.693 39.3438C111.782 38.6463 111.679 37.9375 111.394 37.2946C111.109 36.6517 110.653 36.0991 110.076 35.697C109.499 35.2949 108.823 35.0586 108.121 35.0137C107.419 34.9688 106.719 35.1172 106.095 35.4425C105.472 35.7679 104.949 36.2579 104.585 36.8593C104.22 37.4607 104.027 38.1505 104.027 38.8538C104.027 38.9102 104.029 38.9661 104.031 39.0218C103.503 38.8604 102.946 38.8146 102.399 38.8875C101.851 38.9603 101.325 39.1502 100.858 39.4442C100.39 39.7382 99.991 40.1293 99.6878 40.5912C99.3846 41.053 99.1844 41.5746 99.1006 42.1207C98.6208 41.8352 98.0845 41.6575 97.5291 41.6001C96.9736 41.5426 96.4124 41.6067 95.8842 41.7879C95.356 41.9691 94.8736 42.2631 94.4705 42.6495C94.0674 43.0359 93.7531 43.5053 93.5496 44.0253C93.3461 44.5453 93.2582 45.1034 93.2921 45.6607C93.3259 46.2181 93.4806 46.7614 93.7455 47.253C94.0103 47.7446 94.379 48.1726 94.8259 48.5074C95.2728 48.8422 95.7872 49.0757 96.3334 49.1917C96.3327 49.2197 96.3312 49.2474 96.3312 49.2755C96.6886 50.354 97.1435 51.3977 97.6903 52.3936C97.423 53.1976 97.2889 54.0399 97.2934 54.8871C97.2934 57.0919 98.1519 58.9801 99.3719 59.7751L98.8737 80.7007H95.8504V90.4925L91.6816 90.6414ZM102.895 46.5496L102.905 46.5498C102.96 46.5498 103.016 46.548 103.07 46.5456C103.105 46.6594 103.145 46.7707 103.189 46.8797C103.098 46.7641 102.999 46.6539 102.895 46.5496Z" fill="#E2E2E2"/>
<path d="M81.7944 169.686H136.308V106.621H81.7944V169.686Z" fill="#3F3D56"/>
<path d="M101.702 169.686H116.399V156.859H101.702V169.686Z" fill="#E2E2E2"/>
<path d="M63.6266 23.6432C63.6256 23.6898 63.6231 23.7359 63.6231 23.7827C63.6222 24.6404 63.7939 25.4894 64.128 26.2794C64.4621 27.0693 64.9517 27.7839 65.5676 28.3807C65.6638 28.5859 65.7708 28.7858 65.8882 28.9797C65.4425 30.3196 65.219 31.7234 65.2265 33.1355C65.2265 38.0057 67.7388 41.9538 70.8381 41.9538C73.9374 41.9538 76.4498 38.0057 76.4498 33.1355C76.4521 32.0805 76.3293 31.029 76.084 30.003C77.0463 28.9616 77.6361 27.6306 77.761 26.2182C77.8858 24.8059 77.5388 23.392 76.7741 22.1979C77.4136 22.7567 78.1577 23.1828 78.9632 23.4517C79.7687 23.7206 80.6195 23.8267 81.4664 23.7641C82.3133 23.7014 83.1393 23.4712 83.8964 23.0868C84.6536 22.7023 85.3269 22.1713 85.8771 21.5246C86.4274 20.8778 86.8438 20.1282 87.102 19.3192C87.3603 18.5103 87.4553 17.6581 87.3815 16.8121C87.3077 15.9661 87.0667 15.1432 86.6723 14.3912C86.278 13.6391 85.7381 12.9729 85.0842 12.4312C86.1838 12.0254 87.1513 11.326 87.8814 10.409C88.6114 9.49205 89.0763 8.39254 89.2254 7.22994C89.3746 6.06735 89.2022 4.88611 88.7272 3.81456C88.2522 2.74301 87.4926 1.82211 86.531 1.15191C85.5694 0.481711 84.4425 0.0878345 83.2728 0.013065C82.1031 -0.0617046 80.9352 0.185494 79.8961 0.727808C78.857 1.27012 77.9863 2.08681 77.3787 3.08916C76.7711 4.09152 76.4499 5.2412 76.4498 6.41332C76.4498 6.50722 76.4529 6.60038 76.4568 6.69328C75.5762 6.42429 74.6481 6.34794 73.7354 6.46941C72.8227 6.59088 71.9468 6.90733 71.1672 7.39727C70.3876 7.88721 69.7226 8.53916 69.2173 9.30887C68.712 10.0786 68.3782 10.948 68.2387 11.8581C67.4389 11.3822 66.5451 11.0861 65.6194 10.9904C64.6937 10.8946 63.7582 11.0014 62.8779 11.3034C61.9977 11.6055 61.1936 12.0955 60.5217 12.7394C59.8498 13.3833 59.3261 14.1658 58.987 15.0325C58.6478 15.8991 58.5013 16.8292 58.5577 17.7582C58.614 18.6871 58.8719 19.5927 59.3134 20.4119C59.7548 21.2312 60.3693 21.9446 61.1141 22.5026C61.8589 23.0606 62.7163 23.4498 63.6266 23.6432ZM74.5792 19.24C74.6717 19.24 74.7636 19.2369 74.8552 19.233C74.9127 19.4225 74.9787 19.6081 75.0532 19.7897C74.9003 19.5971 74.7365 19.4134 74.5626 19.2395L74.5792 19.24Z" fill="#E2E2E2"/>
<path d="M67.6309 85.7779H74.045L73.8159 76.1587V76.155L72.9765 40.8833C72.3326 41.2768 71.5925 41.485 70.8379 41.485C70.0833 41.485 69.3433 41.2768 68.6993 40.8833L67.8601 76.155V76.1587L67.6309 85.7779Z" fill="#00814F"/>
<path d="M55.875 92.7243V169.686H85.8014V91.6559L78.8547 91.9036V76.1587H62.8214V92.4766L55.875 92.7243Z" fill="#00814F"/>
<path d="M140.052 23.6432C140.051 23.6898 140.049 23.7359 140.049 23.7827C140.048 24.6404 140.22 25.4894 140.554 26.2794C140.888 27.0693 141.377 27.7839 141.993 28.3807C142.09 28.5859 142.197 28.7858 142.314 28.9797C141.868 30.3196 141.645 31.7234 141.652 33.1355C141.652 38.0057 144.165 41.9538 147.264 41.9538C150.363 41.9538 152.876 38.0057 152.876 33.1355C152.878 32.0805 152.755 31.029 152.51 30.003C153.472 28.9616 154.062 27.6306 154.187 26.2182C154.312 24.8059 153.965 23.392 153.2 22.1979C153.839 22.7567 154.583 23.1829 155.389 23.4517C156.194 23.7206 157.045 23.8268 157.892 23.7642C158.739 23.7015 159.565 23.4713 160.322 23.0868C161.079 22.7024 161.753 22.1714 162.303 21.5246C162.853 20.8779 163.27 20.1282 163.528 19.3193C163.786 18.5103 163.881 17.6581 163.807 16.8121C163.734 15.9661 163.493 15.1432 163.098 14.3912C162.704 13.6391 162.164 12.9729 161.51 12.4312C162.61 12.0254 163.577 11.326 164.307 10.409C165.037 9.49205 165.502 8.39254 165.651 7.22995C165.8 6.06735 165.628 4.88612 165.153 3.81456C164.678 2.74301 163.918 1.82211 162.957 1.15191C161.995 0.481711 160.868 0.0878347 159.699 0.013065C158.529 -0.0617047 157.361 0.185494 156.322 0.727808C155.283 1.27012 154.412 2.08681 153.805 3.08916C153.197 4.09152 152.876 5.2412 152.876 6.41332C152.876 6.50722 152.879 6.60038 152.883 6.69328C152.002 6.42429 151.074 6.34794 150.161 6.46941C149.248 6.59088 148.373 6.90733 147.593 7.39727C146.813 7.88721 146.148 8.53916 145.643 9.30887C145.138 10.0786 144.804 10.948 144.664 11.8581C143.865 11.3822 142.971 11.0861 142.045 10.9904C141.119 10.8946 140.184 11.0014 139.304 11.3034C138.423 11.6055 137.619 12.0955 136.948 12.7394C136.276 13.3833 135.752 14.1658 135.413 15.0325C135.074 15.8991 134.927 16.8292 134.983 17.7582C135.04 18.6871 135.298 19.5927 135.739 20.4119C136.181 21.2312 136.795 21.9446 137.54 22.5026C138.285 23.0606 139.142 23.4498 140.052 23.6432ZM151.005 19.24C151.098 19.24 151.189 19.2369 151.281 19.233C151.338 19.4225 151.405 19.6081 151.479 19.7897C151.326 19.5971 151.162 19.4134 150.988 19.2395L151.005 19.24Z" fill="#E2E2E2"/>
<path d="M144.057 85.778H150.47L149.401 40.8848C148.019 41.3813 146.507 41.3813 145.126 40.8848L144.057 85.778Z" fill="#00814F"/>
<path d="M132.3 92.7243V169.686H162.23V91.6559L159.771 91.7446L155.279 91.9036V76.1587H139.246V92.4766L132.3 92.7243Z" fill="#00814F"/>
<path d="M117.184 121.626H124.578V114.233H117.184V121.626Z" fill="white"/>
<path d="M105.354 121.626H112.748V114.233H105.354V121.626Z" fill="white"/>
<path d="M93.5243 121.626H100.918V114.233H93.5243V121.626Z" fill="white"/>
<path d="M117.184 133.457H124.578V126.063H117.184V133.457Z" fill="white"/>
<path d="M105.354 133.457H112.748V126.063H105.354V133.457Z" fill="white"/>
<path d="M93.5243 133.457H100.918V126.063H93.5243V133.457Z" fill="white"/>
<path d="M117.184 145.287H124.578V137.893H117.184V145.287Z" fill="white"/>
<path d="M105.354 145.287H112.748V137.893H105.354V145.287Z" fill="white"/>
<path d="M93.5243 145.287H100.918V137.893H93.5243V145.287Z" fill="white"/>
<path d="M67.1414 118.669H74.5352V111.275H67.1414V118.669Z" fill="white"/>
<path d="M67.1414 130.499H74.5352V123.105H67.1414V130.499Z" fill="white"/>
<path d="M67.1414 142.329H74.5352V134.935H67.1414V142.329Z" fill="white"/>
<path d="M67.1414 154.159H74.5352V146.765H67.1414V154.159Z" fill="white"/>
<path d="M143.505 118.669H150.898V111.275H143.505V118.669Z" fill="white"/>
<path d="M143.505 130.499H150.898V123.105H143.505V130.499Z" fill="white"/>
<path d="M143.505 142.329H150.898V134.935H143.505V142.329Z" fill="white"/>
<path d="M143.505 154.159H150.898V146.765H143.505V154.159Z" fill="white"/>
<path d="M200 169.316H7.39355V170.055H200V169.316Z" fill="#3F3D56"/>
</g>
<defs>
<clipPath id="clip0_1025_1148">
<rect width="200" height="170.425" fill="white"/>
</clipPath>
</defs>
</svg>
