<svg width="180" height="141" viewBox="0 0 180 141" fill="none" xmlns="http://www.w3.org/2000/svg">
<g clip-path="url(#clip0_1025_1185)">
<path d="M158.59 130.283C158.576 130.225 157.308 124.44 159.899 119.635C162.49 114.831 168.02 112.712 168.076 112.691L168.328 112.596L168.388 112.86C168.401 112.917 169.67 118.702 167.079 123.507C164.488 128.312 158.958 130.431 158.902 130.452L158.649 130.546L158.59 130.283ZM167.982 113.239C166.874 113.716 162.502 115.801 160.314 119.859C158.125 123.917 158.785 128.717 158.996 129.904C160.103 129.428 164.474 127.346 166.664 123.284C168.852 119.225 168.192 114.427 167.982 113.239Z" fill="#3F3D56"/>
<path d="M165.099 121.822C160.444 124.623 158.65 130.187 158.65 130.187C158.65 130.187 164.406 131.209 169.062 128.408C173.718 125.607 175.511 120.043 175.511 120.043C175.511 120.043 169.755 119.021 165.099 121.822Z" fill="#D0CDE1"/>
<path d="M63.9414 104.967C63.3878 104.967 62.8284 104.958 62.2795 104.941L62.2919 104.542C63.0802 104.567 63.8847 104.574 64.6767 104.563L64.6821 104.962C64.4356 104.965 64.1887 104.967 63.9414 104.967ZM67.0834 104.874L67.0601 104.476C67.8495 104.429 68.6491 104.364 69.4366 104.281L69.4783 104.678C68.6848 104.761 67.8791 104.827 67.0834 104.874ZM59.8803 104.812C59.0842 104.751 58.2798 104.671 57.4891 104.574L57.5379 104.178C58.3224 104.274 59.1207 104.354 59.9107 104.414L59.8803 104.812ZM71.8615 104.373L71.8017 103.979C72.5861 103.86 73.3765 103.722 74.1504 103.568L74.2281 103.959C73.4482 104.114 72.6519 104.253 71.8615 104.373ZM55.1117 104.227C54.3253 104.094 53.5314 103.941 52.7523 103.772L52.837 103.381C53.6102 103.549 54.3979 103.701 55.1784 103.834L55.1117 104.227ZM76.5737 103.437L76.4778 103.049C77.2478 102.859 78.022 102.648 78.7791 102.424L78.8926 102.807C78.1296 103.033 77.3495 103.245 76.5737 103.437ZM50.4166 103.208C49.6451 103.003 48.8688 102.777 48.1092 102.537L48.2294 102.156C48.9833 102.395 49.7537 102.618 50.5191 102.822L50.4166 103.208ZM81.1799 102.07L81.0489 101.693C81.7961 101.433 82.5475 101.153 83.2828 100.858L83.4309 101.229C82.6902 101.525 81.9329 101.808 81.1799 102.07ZM45.8293 101.758C45.0801 101.482 44.3262 101.185 43.5888 100.874L43.7437 100.506C44.4755 100.815 45.2235 101.11 45.9671 101.383L45.8293 101.758ZM85.6358 100.287L85.4705 99.9239C86.1881 99.5979 86.9093 99.2498 87.6142 98.8895L87.7958 99.2449C87.0855 99.608 86.3588 99.9586 85.6358 100.287ZM89.906 98.1043L89.7084 97.7578C90.3965 97.3651 91.0834 96.9524 91.7497 96.5308L91.9629 96.868C91.2916 97.2928 90.5996 97.7089 89.906 98.1043ZM93.9616 95.5385L93.7332 95.2115C94.3812 94.7588 95.0278 94.2847 95.6551 93.8025L95.8983 94.119C95.2663 94.6048 94.6147 95.0825 93.9616 95.5385ZM33.1316 94.9765C32.4875 94.5086 31.844 94.0185 31.2189 93.5194L31.4679 93.2076C32.0882 93.7028 32.7269 94.1892 33.3661 94.6534L33.1316 94.9765ZM97.7686 92.6126L97.5114 92.3074C98.1153 91.7978 98.7163 91.2668 99.298 90.7289L99.5689 91.022C98.9829 91.5639 98.3772 92.0991 97.7686 92.6126ZM29.375 91.9769C28.775 91.4515 28.179 90.9051 27.6035 90.3526L27.8798 90.0645C28.451 90.6129 29.0425 91.1553 29.6378 91.6768L29.375 91.9769ZM101.295 89.3505L101.011 89.0703C101.568 88.5061 102.119 87.9222 102.648 87.3351L102.944 87.602C102.411 88.1939 101.856 88.782 101.295 89.3505ZM25.9082 88.6497C25.3578 88.0709 24.8142 87.4726 24.2925 86.8716L24.594 86.6101C25.1117 87.2066 25.6511 87.8002 26.1974 88.3745L25.9082 88.6497ZM104.512 85.7801L104.204 85.5268C104.707 84.9147 105.202 84.2831 105.676 83.6491L105.996 83.888C105.518 84.5268 105.019 85.1635 104.512 85.7801ZM22.7597 85.0224C22.2653 84.3978 21.7786 83.753 21.313 83.1058L21.6369 82.8727C22.099 83.5148 22.582 84.1548 23.0726 84.7749L22.7597 85.0224ZM107.392 81.9299L107.061 81.7058C107.507 81.0504 107.942 80.3759 108.357 79.7007L108.697 79.9096C108.279 80.5899 107.84 81.2696 107.392 81.9299ZM19.9556 81.1258C19.5208 80.4591 19.0951 79.7731 18.6905 79.0864L19.0342 78.8837C19.4359 79.5652 19.8583 80.2461 20.2899 80.9075L19.9556 81.1258ZM109.909 77.831L109.56 77.638C109.943 76.9447 110.315 76.2326 110.666 75.5215L111.024 75.6984C110.67 76.4148 110.295 77.1323 109.909 77.831H109.909ZM112.04 73.5163L111.675 73.3562C111.993 72.6298 112.298 71.886 112.583 71.1454L112.955 71.2885C112.669 72.0349 112.361 72.7844 112.04 73.5163H112.04ZM15.4745 72.6552C15.1685 71.9209 14.8755 71.1696 14.6037 70.4221L14.9788 70.2856C15.2485 71.0275 15.5393 71.7729 15.8428 72.5016L15.4745 72.6552ZM113.766 69.0201L113.387 68.8946C113.636 68.1441 113.871 67.3771 114.086 66.6145L114.47 66.7225C114.254 67.4909 114.017 68.264 113.766 69.0201ZM13.8349 68.1455C13.5974 67.3848 13.3743 66.6079 13.1717 65.8358L13.5577 65.7344C13.7588 66.5007 13.9802 67.2718 14.2159 68.0266L13.8349 68.1455ZM115.067 64.3948L114.678 64.3044C114.857 63.5352 115.02 62.7496 115.164 61.9699L115.556 62.042C115.412 62.828 115.247 63.6194 115.067 64.3948ZM12.6159 63.498C12.4495 62.7185 12.2988 61.9243 12.1683 61.1372L12.5619 61.0717C12.6916 61.853 12.8411 62.6411 13.0062 63.4146L12.6159 63.498ZM115.937 59.6698L115.541 59.6156C115.649 58.8339 115.739 58.0369 115.811 57.2464L116.208 57.2823C116.136 58.079 116.045 58.8821 115.937 59.6698ZM11.8294 58.7585C11.7352 57.9685 11.658 57.1638 11.5996 56.3669L11.9977 56.3377C12.0555 57.1287 12.1323 57.9272 12.2257 58.7113L11.8294 58.7585ZM116.371 54.8853L115.972 54.8673C116.008 54.0765 116.026 53.2744 116.026 52.4834H116.425C116.425 53.2804 116.407 54.0886 116.371 54.8853ZM11.4787 53.967C11.465 53.4777 11.4581 52.9784 11.458 52.4834C11.458 52.1763 11.4606 51.8697 11.4659 51.5638L11.865 51.5708C11.8598 51.8744 11.8571 52.1786 11.8571 52.4834C11.8572 52.9747 11.8641 53.4703 11.8776 53.9561L11.4787 53.967ZM11.9597 49.1881L11.5614 49.1631C11.6112 48.3657 11.68 47.5602 11.7656 46.7691L12.1624 46.8121C12.0773 47.5973 12.0092 48.3966 11.9597 49.1881H11.9597ZM115.768 46.7532C115.688 45.9663 115.579 45.5827 115.463 44.7993L115.858 44.741C115.974 45.5304 116.074 46.1329 116.155 46.9257L115.768 46.7532ZM12.4731 44.448L12.0787 44.387C12.201 43.5975 12.3431 42.8017 12.501 42.0215L12.8921 42.1006C12.7354 42.8749 12.5945 43.6646 12.4731 44.448H12.4731ZM115.06 42.4493C114.908 41.6708 114.736 40.8871 114.549 40.12L114.937 40.0257C115.125 40.7986 115.298 41.5884 115.452 42.3727L115.06 42.4493ZM13.4185 39.775L13.0314 39.678C13.2252 38.905 13.4398 38.1255 13.6694 37.3612L14.0516 37.476C13.8239 38.2345 13.6108 39.008 13.4185 39.775ZM113.932 37.8167C113.71 37.0567 113.466 36.2923 113.209 35.5444L113.587 35.4146C113.846 36.1683 114.091 36.9387 114.315 37.7044L113.932 37.8167ZM14.7924 35.2024L14.4159 35.0701C14.6811 34.3156 14.9675 33.5576 15.267 32.8169L15.6371 32.9666C15.3398 33.7015 15.0556 34.4538 14.7924 35.2024ZM112.382 33.3077C112.091 32.5732 111.779 31.8361 111.455 31.1167L111.819 30.9528C112.146 31.6778 112.46 32.4205 112.753 33.1606L112.382 33.3077ZM16.5837 30.7728L16.2211 30.6062C16.5544 29.8803 16.9092 29.1523 17.2756 28.4426L17.6302 28.6255C17.2666 29.3299 16.9145 30.0524 16.5837 30.7728ZM110.429 28.9697C110.072 28.2651 109.693 27.5591 109.304 26.8714L109.651 26.6748C110.044 27.3678 110.425 28.0792 110.785 28.7892L110.429 28.9697ZM18.7743 26.5292L18.4284 26.3301C18.8265 25.6387 19.2464 24.9467 19.6764 24.2734L20.0127 24.4882C19.5861 25.1564 19.1693 25.8432 18.7743 26.5292ZM108.084 24.826C107.662 24.1546 107.221 23.4858 106.772 22.838L107.099 22.6106C107.552 23.2633 107.997 23.9372 108.422 24.6138L108.084 24.826ZM21.3432 22.5064L21.017 22.2765C21.4771 21.6239 21.9581 20.9735 22.4471 20.3433L22.7624 20.5878C22.2772 21.2134 21.7997 21.8588 21.3432 22.5064ZM105.369 20.9115C104.888 20.2816 104.387 19.6553 103.88 19.0502L104.186 18.7939C104.697 19.4037 105.202 20.0346 105.687 20.6693L105.369 20.9115ZM24.2673 18.7366L23.9635 18.4778C24.4799 17.8713 25.018 17.2677 25.563 16.6836L25.8547 16.9559C25.3139 17.5355 24.7799 18.1347 24.2673 18.7366ZM102.308 17.2582C101.772 16.6747 101.216 16.0963 100.655 15.5393L100.937 15.2561C101.501 15.8175 102.062 16.4002 102.602 16.9881L102.308 17.2582ZM27.5211 15.2499L27.242 14.9646C27.8127 14.4063 28.4033 13.8543 28.9972 13.324L29.263 13.6218C28.6736 14.148 28.0875 14.6958 27.5211 15.2499V15.2499ZM98.926 13.8969C98.3384 13.364 97.7317 12.8385 97.1229 12.3348L97.3775 12.0273C97.9907 12.5347 98.6021 13.0643 99.1941 13.6013L98.926 13.8969ZM31.0768 12.0746L30.8248 11.7652C31.4421 11.2625 32.08 10.7667 32.721 10.2916L32.9588 10.6122C32.3226 11.0838 31.6894 11.5757 31.0768 12.0746H31.0768ZM34.9047 9.23748L34.682 8.90638C35.3426 8.46185 36.0228 8.02659 36.7036 7.61237L36.9109 7.95341C36.2354 8.36441 35.5604 8.79646 34.9047 9.23748H34.9047ZM38.9732 6.7627L38.7817 6.4125C39.4806 6.03005 40.1973 5.659 40.9117 5.30948L41.0871 5.66806C40.3781 6.01485 39.6669 6.38307 38.9732 6.7627ZM87.1403 5.838C86.4301 5.48419 85.7026 5.14237 84.9781 4.82209L85.1394 4.45708C85.8696 4.7798 86.6028 5.12425 87.3184 5.48078L87.1403 5.838ZM43.2481 4.67174L43.0895 4.30556C43.8199 3.98898 44.5671 3.68535 45.3101 3.40307L45.4518 3.77627C44.7144 4.05631 43.973 4.35759 43.2481 4.67174ZM82.7707 3.90654C82.0317 3.61998 81.2754 3.34656 80.5225 3.09399L80.6496 2.71554C81.4081 2.97015 82.1702 3.24561 82.9149 3.53452L82.7707 3.90654ZM47.7 2.98126L47.5756 2.60202C48.3341 2.35336 49.108 2.11921 49.8756 1.9063L49.9823 2.2908C49.2205 2.50214 48.4526 2.73445 47.7 2.98126H47.7ZM78.2448 2.38785C77.4836 2.17085 76.7072 1.96876 75.9372 1.78723L76.0288 1.39884C76.8048 1.58173 77.5871 1.78538 78.3543 2.00394L78.2448 2.38785ZM52.2941 1.70626L52.2053 1.31718C52.9828 1.13955 53.7749 0.977699 54.5594 0.836217L54.6304 1.2289C53.8517 1.36941 53.0658 1.52999 52.2941 1.70626ZM73.6043 1.29379C72.8271 1.14792 72.0355 1.01814 71.2513 0.908031L71.3067 0.512813C72.0969 0.623799 72.8948 0.754563 73.678 0.901502L73.6043 1.29379ZM56.9862 0.859506L56.9333 0.4639C57.7234 0.35847 58.5269 0.2698 59.3214 0.200618L59.3561 0.598172C58.5676 0.666963 57.7704 0.754846 56.9862 0.859506ZM68.883 0.630522C68.0968 0.556467 67.2966 0.499367 66.5045 0.461074L66.5239 0.0623508C67.322 0.101035 68.1282 0.158524 68.9204 0.233172L68.883 0.630522ZM61.736 0.445094L61.7192 0.0463798C62.4527 0.0157838 63.2003 0.000195566 63.9414 0L64.1221 0.000290797L64.1209 0.399404L63.9414 0.399113C63.2059 0.399299 62.4638 0.41479 61.736 0.445094Z" fill="#3F3D56"/>
<path d="M180.001 130.169H33.7256V130.569H180.001V130.169Z" fill="#3F3D56"/>
<path d="M119.337 63.0651L121.333 93.9964C121.333 93.9964 126.122 106.169 125.923 117.744C125.923 117.744 124.127 122.333 125.523 123.132C126.92 123.93 127.719 124.529 126.92 125.127C126.122 125.726 125.523 127.123 126.122 127.522C126.721 127.921 126.92 128.52 126.721 128.52H120.734C120.734 128.52 121.931 125.526 120.135 124.728C118.339 123.93 119.337 121.934 119.337 121.934L105.967 82.8212L95.3904 118.741C95.3904 118.741 97.1864 119.939 95.7895 120.537C94.3926 121.136 93.7939 119.939 94.3926 121.136C94.9913 122.333 94.193 122.932 94.193 123.132C94.193 123.331 88.2063 122.533 88.2063 122.533C88.2063 122.533 91.1997 119.939 89.8028 119.34C88.4059 118.741 87.8072 118.143 88.2063 117.744C88.6055 117.345 90.2019 113.553 90.2019 113.553C90.2019 113.553 91.0001 99.1849 91.1997 98.5862C91.3992 97.9875 91.1997 95.1937 91.1997 93.7968C91.1997 92.3999 91.0001 86.8124 91.5988 85.4155C92.1975 84.0186 92.7961 66.8567 95.9891 64.8611C99.182 62.8656 119.337 63.0651 119.337 63.0651Z" fill="#2F2E41"/>
<path d="M93.9936 122.134C93.9936 122.134 97.9847 130.316 95.1909 131.313C92.3971 132.311 88.8051 131.513 88.0069 132.71C87.2086 133.908 78.4282 135.305 78.2286 132.311C78.029 129.318 87.8073 123.73 87.8073 123.73L89.0811 121.679L93.9936 122.134Z" fill="#2F2E41"/>
<path d="M126.322 128.121C126.322 128.121 130.313 136.302 127.519 137.3C124.725 138.298 121.133 137.5 120.335 138.697C119.537 139.894 110.756 141.291 110.557 138.298C110.357 135.305 120.135 129.717 120.135 129.717L121.409 127.666L126.322 128.121Z" fill="#2F2E41"/>
<path d="M107.863 25.4486C111.5 25.4486 114.448 22.5002 114.448 18.8632C114.448 15.2262 111.5 12.2778 107.863 12.2778C104.226 12.2778 101.277 15.2262 101.277 18.8632C101.277 22.5002 104.226 25.4486 107.863 25.4486Z" fill="#A0616A"/>
<path d="M112.353 22.3555L111.555 28.1426L105.568 32.7324L103.972 30.5373V22.9541L112.353 22.3555Z" fill="#A0616A"/>
<path d="M102.973 29.739C102.973 29.739 109.159 30.3377 112.352 28.1426L118.738 65.8588C118.738 65.8588 96.1882 67.6548 95.1904 66.4575V54.6836L99.1816 35.5262L102.973 29.739Z" fill="#3F3D56"/>
<path d="M111.804 26.3394L113.949 28.1426C113.949 28.1426 122.73 29.5395 122.131 31.9342L119.737 60.2712L120.535 69.8499C120.535 69.8499 113.75 68.0539 108.561 69.8499C103.373 71.6459 107.495 31.255 107.495 31.255C107.495 31.255 112.252 26.9308 111.804 26.3394Z" fill="#D0CDE1"/>
<path d="M103.971 28.5234C103.971 28.5234 97.5852 33.1313 96.787 36.1247C95.9888 39.118 93.3945 70.6479 93.3945 70.6479C93.3945 70.6479 94.5919 70.0493 95.1905 71.0471C95.7892 72.0448 104.969 30.1018 103.971 28.5234Z" fill="#D0CDE1"/>
<path d="M101.28 18.5761C101.28 18.5761 100.567 17.5067 100.841 16.3551C101.005 15.7013 101.07 15.0265 101.033 14.3535C101.033 14.3535 101.609 12.4889 102.185 11.447C102.76 10.4051 102.486 9.96635 104.296 9.63732C106.106 9.30828 105.365 6.95021 110.136 9.50022C110.297 9.72496 110.521 9.89699 110.78 9.99458C111.038 10.0922 111.32 10.111 111.59 10.0486C112.577 9.85667 112.933 11.2276 112.933 11.2276C112.933 11.2276 113.591 10.8438 113.838 11.3922C114.085 11.9405 115.844 11.063 115.844 14.7647C115.844 18.4663 113.842 21.7728 113.842 21.7728C113.842 21.7728 113.989 15.5462 110.726 14.9156C107.463 14.2849 103.953 12.4478 103.103 14.8059C102.644 16.1294 102.032 17.3947 101.28 18.5761Z" fill="#2F2E41"/>
<path d="M113.914 20.0566C114.27 20.0566 114.558 19.6724 114.558 19.1985C114.558 18.7245 114.27 18.3403 113.914 18.3403C113.559 18.3403 113.271 18.7245 113.271 19.1985C113.271 19.6724 113.559 20.0566 113.914 20.0566Z" fill="#A0616A"/>
<path d="M86.867 80.9101C85.288 79.9605 83.384 80.033 82.6602 80.1055C82.9358 80.7785 83.7629 82.495 85.3419 83.4451C86.9248 84.3971 88.8263 84.3224 89.549 84.2503C89.2735 83.5776 88.4463 81.8603 86.867 80.9101Z" fill="#D0CDE1"/>
<path d="M94.2871 99.7529H84.4178C83.8289 99.7529 83.2641 99.9869 82.8477 100.403C82.4312 100.82 82.1973 101.385 82.1973 101.974C82.1973 102.562 82.4312 103.127 82.8477 103.544C83.2641 103.96 83.8289 104.194 84.4178 104.194H94.2871C94.8757 104.194 95.44 103.959 95.8559 103.543C96.2719 103.127 96.5056 102.562 96.5056 101.974C96.5056 101.385 96.2719 100.82 95.8559 100.404C95.44 99.9877 94.8757 99.7535 94.2871 99.7529Z" fill="#D0CDE1"/>
<path d="M138.979 76.3135H83.6448C83.0011 76.3135 82.3637 76.4403 81.769 76.6866C81.1743 76.9329 80.634 77.294 80.1788 77.7491C79.7236 78.2043 79.3626 78.7446 79.1163 79.3393C78.8699 79.934 78.7432 80.5714 78.7432 81.2151V108.175C78.7432 109.475 79.2596 110.722 80.1788 111.641C81.098 112.56 82.3448 113.076 83.6448 113.076H138.979C139.622 113.076 140.26 112.95 140.854 112.703C141.449 112.457 141.989 112.096 142.445 111.641C142.9 111.186 143.261 110.645 143.507 110.051C143.754 109.456 143.88 108.819 143.88 108.175V81.2151C143.88 80.5714 143.754 79.934 143.507 79.3393C143.261 78.7446 142.9 78.2043 142.445 77.7491C141.989 77.294 141.449 76.9329 140.854 76.6866C140.26 76.4403 139.622 76.3135 138.979 76.3135ZM82.2757 79.6571C82.385 79.6374 84.976 79.1964 87.1215 80.4874C89.267 81.7782 90.0912 84.2742 90.1252 84.3797L90.212 84.6489L89.9335 84.6983C89.5363 84.7603 89.1348 84.7897 88.7328 84.7864C87.7584 84.7864 86.3464 84.6252 85.0876 83.8677C82.9422 82.5772 82.118 80.0812 82.084 79.9757L81.9973 79.7065L82.2757 79.6571ZM94.2873 104.688H84.418C83.6982 104.688 83.0079 104.402 82.4989 103.893C81.9899 103.384 81.704 102.693 81.704 101.974C81.704 101.254 81.9899 100.563 82.4989 100.054C83.0079 99.5455 83.6982 99.2595 84.418 99.2595H94.2873C95.0071 99.2595 95.6974 99.5455 96.2064 100.054C96.7154 100.563 97.0013 101.254 97.0013 101.974C97.0013 102.693 96.7154 103.384 96.2064 103.893C95.6974 104.402 95.0071 104.688 94.2873 104.688ZM139.192 104.194C139.19 104.979 138.877 105.73 138.323 106.285C137.768 106.84 137.016 107.153 136.232 107.155H128.83C128.045 107.153 127.293 106.84 126.739 106.285C126.184 105.73 125.871 104.979 125.869 104.194V99.753C125.871 98.9684 126.184 98.2167 126.739 97.6619C127.293 97.1072 128.045 96.7945 128.83 96.7922H136.232C137.016 96.7945 137.768 97.1072 138.323 97.6619C138.877 98.2167 139.19 98.9684 139.192 99.753L139.192 104.194Z" fill="#D0CDE1"/>
<path d="M131.174 103.331H127.966C127.737 103.331 127.517 103.422 127.355 103.584C127.194 103.745 127.103 103.965 127.103 104.194C127.103 104.423 127.194 104.643 127.355 104.805C127.517 104.967 127.737 105.058 127.966 105.058H131.174C131.403 105.058 131.622 104.967 131.784 104.805C131.946 104.643 132.037 104.423 132.037 104.194C132.037 103.965 131.946 103.745 131.784 103.584C131.622 103.422 131.403 103.331 131.174 103.331ZM131.174 104.564H127.966C127.917 104.564 127.869 104.555 127.824 104.536C127.779 104.518 127.738 104.491 127.704 104.456C127.669 104.422 127.642 104.381 127.623 104.336C127.605 104.291 127.595 104.243 127.595 104.194C127.595 104.145 127.605 104.097 127.623 104.052C127.642 104.007 127.669 103.967 127.704 103.932C127.738 103.898 127.779 103.871 127.824 103.852C127.869 103.833 127.917 103.824 127.966 103.824H131.174C131.222 103.824 131.27 103.833 131.315 103.852C131.36 103.871 131.401 103.898 131.436 103.932C131.47 103.967 131.498 104.007 131.516 104.052C131.535 104.097 131.545 104.145 131.545 104.194C131.545 104.243 131.535 104.291 131.516 104.336C131.498 104.381 131.47 104.422 131.436 104.456C131.401 104.491 131.36 104.518 131.315 104.536C131.27 104.555 131.222 104.564 131.174 104.564Z" fill="#D0CDE1"/>
<path d="M137.095 103.331H133.887C133.774 103.33 133.661 103.353 133.556 103.396C133.452 103.439 133.356 103.503 133.276 103.583C133.196 103.663 133.132 103.759 133.088 103.863C133.045 103.968 133.022 104.081 133.022 104.194C133.022 104.308 133.045 104.42 133.088 104.525C133.132 104.63 133.196 104.725 133.276 104.805C133.356 104.885 133.452 104.949 133.556 104.992C133.661 105.036 133.774 105.058 133.887 105.058H137.095C137.324 105.058 137.544 104.967 137.705 104.805C137.867 104.643 137.958 104.423 137.958 104.194C137.958 103.965 137.867 103.745 137.705 103.584C137.544 103.422 137.324 103.331 137.095 103.331ZM137.095 104.564H133.887C133.839 104.564 133.79 104.555 133.745 104.536C133.7 104.518 133.66 104.491 133.625 104.456C133.591 104.422 133.563 104.381 133.545 104.336C133.526 104.291 133.516 104.243 133.516 104.194C133.516 104.145 133.526 104.097 133.545 104.052C133.563 104.007 133.591 103.967 133.625 103.932C133.66 103.898 133.7 103.871 133.745 103.852C133.79 103.833 133.839 103.824 133.887 103.824H137.095C137.193 103.824 137.287 103.863 137.356 103.933C137.425 104.002 137.464 104.096 137.464 104.194C137.464 104.292 137.425 104.386 137.356 104.456C137.287 104.525 137.193 104.564 137.095 104.564Z" fill="#D0CDE1"/>
<path d="M131.174 101.11H127.966C127.737 101.11 127.517 101.201 127.355 101.363C127.194 101.525 127.103 101.744 127.103 101.973C127.103 102.202 127.194 102.422 127.355 102.584C127.517 102.746 127.737 102.837 127.966 102.837H131.174C131.287 102.837 131.4 102.815 131.504 102.772C131.609 102.728 131.705 102.665 131.785 102.585C131.865 102.504 131.929 102.409 131.973 102.304C132.016 102.199 132.038 102.087 132.038 101.973C132.038 101.86 132.016 101.748 131.973 101.643C131.929 101.538 131.865 101.443 131.785 101.362C131.705 101.282 131.609 101.219 131.504 101.175C131.4 101.132 131.287 101.11 131.174 101.11ZM131.174 102.344H127.966C127.868 102.344 127.774 102.305 127.704 102.235C127.635 102.166 127.596 102.072 127.596 101.973C127.596 101.875 127.635 101.781 127.704 101.712C127.774 101.642 127.868 101.603 127.966 101.603H131.174C131.272 101.603 131.366 101.642 131.435 101.712C131.505 101.781 131.544 101.875 131.544 101.973C131.544 102.072 131.505 102.166 131.435 102.235C131.366 102.305 131.272 102.344 131.174 102.344Z" fill="#D0CDE1"/>
<path d="M137.095 101.11H133.887C133.774 101.11 133.661 101.132 133.556 101.175C133.452 101.219 133.356 101.282 133.276 101.362C133.196 101.443 133.132 101.538 133.088 101.643C133.045 101.748 133.022 101.86 133.022 101.973C133.022 102.087 133.045 102.199 133.088 102.304C133.132 102.409 133.196 102.504 133.276 102.585C133.356 102.665 133.452 102.728 133.556 102.772C133.661 102.815 133.774 102.837 133.887 102.837H137.095C137.324 102.837 137.544 102.746 137.705 102.584C137.867 102.422 137.958 102.202 137.958 101.973C137.958 101.744 137.867 101.525 137.705 101.363C137.544 101.201 137.324 101.11 137.095 101.11ZM137.095 102.344H133.887C133.789 102.344 133.695 102.305 133.626 102.235C133.556 102.166 133.517 102.072 133.517 101.973C133.517 101.875 133.556 101.781 133.626 101.712C133.695 101.642 133.789 101.603 133.887 101.603H137.095C137.193 101.603 137.287 101.642 137.357 101.712C137.426 101.781 137.465 101.875 137.465 101.973C137.465 102.072 137.426 102.166 137.357 102.235C137.287 102.305 137.193 102.344 137.095 102.344Z" fill="#D0CDE1"/>
<path d="M131.174 98.8896H127.966C127.737 98.8896 127.517 98.9806 127.355 99.1426C127.194 99.3045 127.103 99.5242 127.103 99.7532C127.103 99.9822 127.194 100.202 127.355 100.364C127.517 100.526 127.737 100.617 127.966 100.617H131.174C131.403 100.617 131.622 100.526 131.784 100.364C131.946 100.202 132.037 99.9822 132.037 99.7532C132.037 99.5242 131.946 99.3045 131.784 99.1426C131.622 98.9806 131.403 98.8896 131.174 98.8896ZM131.174 100.123H127.966C127.868 100.123 127.774 100.084 127.704 100.015C127.635 99.9455 127.596 99.8514 127.596 99.7532C127.596 99.6551 127.635 99.5609 127.704 99.4915C127.774 99.4221 127.868 99.3831 127.966 99.3831H131.174C131.272 99.3831 131.366 99.4221 131.435 99.4915C131.505 99.5609 131.544 99.6551 131.544 99.7532C131.544 99.8514 131.505 99.9455 131.435 100.015C131.366 100.084 131.272 100.123 131.174 100.123Z" fill="#D0CDE1"/>
<path d="M137.095 98.8896H133.887C133.774 98.8895 133.661 98.9117 133.556 98.955C133.452 98.9983 133.356 99.0619 133.276 99.1421C133.196 99.2223 133.132 99.3176 133.088 99.4224C133.045 99.5273 133.022 99.6397 133.022 99.7532C133.022 99.8667 133.045 99.9791 133.088 100.084C133.132 100.189 133.196 100.284 133.276 100.364C133.356 100.445 133.452 100.508 133.556 100.551C133.661 100.595 133.774 100.617 133.887 100.617H137.095C137.324 100.616 137.543 100.525 137.705 100.363C137.866 100.201 137.957 99.982 137.957 99.7532C137.957 99.5244 137.866 99.305 137.705 99.143C137.543 98.9811 137.324 98.89 137.095 98.8896ZM137.095 100.123H133.887C133.789 100.123 133.695 100.084 133.626 100.015C133.556 99.9455 133.517 99.8514 133.517 99.7532C133.517 99.6551 133.556 99.5609 133.626 99.4915C133.695 99.4221 133.789 99.3831 133.887 99.3831H137.095C137.193 99.3831 137.287 99.4221 137.357 99.4915C137.426 99.5609 137.465 99.6551 137.465 99.7532C137.465 99.8514 137.426 99.9455 137.357 100.015C137.287 100.084 137.193 100.123 137.095 100.123Z" fill="#D0CDE1"/>
<path d="M121.533 70.2489L120.102 74.9169C120.102 74.9169 119.737 83.6192 114.947 82.4219C110.158 81.2246 116.344 71.0472 116.344 71.0472L117.741 68.8521L121.533 70.2489Z" fill="#A0616A"/>
<path d="M94.392 70.2489L92.9615 74.9169C92.9615 74.9169 92.596 83.6192 87.8066 82.4219C83.0173 81.2246 89.2035 71.0472 89.2035 71.0472L90.6004 68.8521L94.392 70.2489Z" fill="#A0616A"/>
<path d="M120.534 30.5373C120.534 30.5373 123.727 29.7391 124.725 35.1271C125.723 40.5151 126.92 55.881 126.92 55.881L122.131 72.0451C122.131 72.0451 117.342 69.4509 116.344 69.85L120.113 55.817L116.942 41.5129C116.942 41.5129 119.736 30.5373 120.534 30.5373Z" fill="#D0CDE1"/>
<path opacity="0.15" d="M115.892 41.7856L120.082 55.7546L115.892 69.9231L118.286 55.7546L115.892 41.7856Z" fill="black"/>
<path d="M96.7866 41.5127L89.6025 69.8497C89.6025 69.8497 93.392 71.1004 94.7889 72.0982L96.7866 41.5127Z" fill="#D0CDE1"/>
<path d="M21.4254 112.727C32.4466 112.727 41.3811 103.792 41.3811 92.7711C41.3811 81.7499 32.4466 72.8154 21.4254 72.8154C10.4042 72.8154 1.46973 81.7499 1.46973 92.7711C1.46973 103.792 10.4042 112.727 21.4254 112.727Z" fill="#3F3D56"/>
<path opacity="0.1" d="M21.4246 109.933C30.9028 109.933 38.5864 102.249 38.5864 92.7708C38.5864 83.2925 30.9028 75.6089 21.4246 75.6089C11.9463 75.6089 4.2627 83.2925 4.2627 92.7708C4.2627 102.249 11.9463 109.933 21.4246 109.933Z" fill="black"/>
<path d="M20.6023 102.898V100.4C19.3396 100.375 18.0334 99.9299 17.2715 99.3117L17.7939 97.6547C18.6994 98.3333 19.7974 98.7057 20.9288 98.7181C22.4746 98.7181 23.5195 97.7041 23.5195 96.2945C23.5195 94.9342 22.6705 94.0934 21.0595 93.3514C18.8389 92.3622 17.4674 91.2245 17.4674 89.0729C17.4674 87.0201 18.7518 85.4621 20.7547 85.0911V82.5933H22.1044V84.9922C23.1109 85.006 24.0926 85.3062 24.9346 85.8578L24.3903 87.4901C23.5828 86.9373 22.6259 86.644 21.6473 86.6492C19.971 86.6492 19.3396 87.7868 19.3396 88.7761C19.3396 90.0621 20.1451 90.7051 22.0392 91.5955C24.2815 92.6342 25.4136 93.9202 25.4136 96.1213C25.4136 98.0751 24.2162 99.9053 21.9738 100.326V102.898H20.6023Z" fill="#00814F"/>
<path d="M42.5056 133.362C28.415 135.464 14.0906 135.464 0 133.362V128.573C14.1056 130.462 28.4 130.462 42.5056 128.573V133.362Z" fill="#3F3D56"/>
<path d="M42.5056 125.978C28.415 128.08 14.0906 128.08 0 125.978V121.189C14.1056 123.078 28.4 123.078 42.5056 121.189V125.978Z" fill="#3F3D56"/>
<path d="M42.5056 118.595C28.415 120.696 14.0906 120.696 0 118.595V113.806C14.1056 115.695 28.4 115.695 42.5056 113.806V118.595Z" fill="#3F3D56"/>
</g>
<defs>
<clipPath id="clip0_1025_1185">
<rect width="180" height="140.09" fill="white"/>
</clipPath>
</defs>
</svg>
