<svg width="180" height="114" viewBox="0 0 180 114" fill="none" xmlns="http://www.w3.org/2000/svg">
<g clip-path="url(#clip0_1025_1056)">
<path d="M145.547 67.1591C143.893 67.7686 140.987 68.2698 137.625 68.6728C128.482 69.7699 115.953 70.1593 115.953 70.1593C115.953 70.1593 51.5452 75.5011 3.27281 55.6341C3.27281 55.6341 -3.74853 51.9533 2.76488 46.9992C3.76785 46.2589 4.83413 45.6085 5.95132 45.0555L6.0309 44.9759C6.77177 44.2912 7.57242 43.6742 8.42327 43.1321C10.924 41.5152 15.1466 39.5986 20.2869 40.4672L147.071 60.9725C147.071 60.9725 151.701 64.8853 145.547 67.1591Z" fill="#3F3D56"/>
<path d="M120.286 57.8655L146.827 39.0347L158.525 41.0579L147.071 60.9724C147.071 60.9724 120.591 61.184 120.286 57.8655Z" fill="#3F3D56"/>
<path d="M53.4648 46.4252L106.332 31.5986L114.854 33.3798L90.9724 44.1226L83.5091 52.473L53.4648 46.4252Z" fill="#3F3D56"/>
<path d="M137.625 68.6726C128.482 69.7697 115.953 70.1591 115.953 70.1591C115.953 70.1591 51.5452 75.5009 3.27281 55.6339C3.27281 55.6339 -3.74853 51.9531 2.76488 46.999L2.78689 47.0905C2.78689 47.0905 13.2029 54.1304 62.9703 60.0072L137.625 68.6726Z" fill="#00814F"/>
<path d="M129.127 68.2664L152.763 77.9171L158.7 77.2585L144.563 66.6325C144.563 66.6325 127.462 62.9839 129.127 68.2664Z" fill="#3F3D56"/>
<path d="M11.3571 48.1219C10.2295 48.1406 7.64583 46.2494 6.03906 44.9761C6.77993 44.2914 7.58058 43.6743 8.43143 43.1323C9.72666 44.1262 12.031 45.7346 13.3127 45.672C15.1633 45.5958 13.0553 48.0915 11.3571 48.1219Z" fill="#00814F"/>
<path d="M118.736 101.626L103.561 102.42L60.8941 73.6503L52.9737 68.3086L49.127 65.713C56.3447 59.6178 85.793 68.0241 85.793 68.0241C86.3568 68.4999 86.5363 69.2906 86.5109 70.1642C86.4618 71.7997 85.6931 73.7197 85.3968 74.4105C85.3257 74.5798 85.2817 74.6696 85.2817 74.6696L118.736 101.626Z" fill="#3F3D56"/>
<path d="M68.7588 86.7095L66.126 88.3755L67.7209 85.4752C67.2693 85.1149 66.7105 84.9153 66.1328 84.908H66.0905C65.9079 84.9116 65.7253 84.898 65.5453 84.8674L64.6547 85.4329L65.0357 84.7387C64.4047 84.5173 63.8597 84.1026 63.478 83.5536L61.8848 84.5694L62.8905 82.7375C61.9593 81.6183 60.703 80.9326 59.3197 80.9326C57.6621 80.9326 56.1857 81.918 55.2325 83.4553C54.9499 83.9157 54.5503 84.293 54.0744 84.5488C53.5986 84.8045 53.0635 84.9297 52.5235 84.9114H52.4355C50.6052 84.9114 49.1221 86.9855 49.1221 89.5455C49.1221 92.1055 50.6052 94.1795 52.4355 94.1795C52.8377 94.1783 53.2334 94.0789 53.5885 93.89C54.2117 93.5877 54.893 93.4242 55.5854 93.4107C56.2779 93.3973 56.9651 93.5342 57.5995 93.8121C58.136 94.0516 58.7169 94.1753 59.3045 94.1753C59.892 94.1753 60.4729 94.0516 61.0094 93.8121C61.6386 93.5394 62.319 93.4051 63.0046 93.4183C63.6902 93.4314 64.3649 93.5917 64.9832 93.8883C65.3361 94.0725 65.728 94.1694 66.126 94.1711C67.9563 94.1711 69.4394 92.097 69.4394 89.537C69.4526 88.5524 69.2186 87.5803 68.7588 86.7095Z" fill="#F2F2F2"/>
<path opacity="0.03" d="M63.8063 93.4904C62.8503 93.3095 61.862 93.4168 60.967 93.7986C60.4309 94.0386 59.8502 94.1626 59.2629 94.1626C58.6755 94.1626 58.0948 94.0386 57.5587 93.7986C56.9245 93.5199 56.2373 93.3825 55.5447 93.396C54.8521 93.4094 54.1707 93.5734 53.5477 93.8764C53.1919 94.0647 52.7957 94.1641 52.393 94.166C50.7676 94.166 49.4148 92.527 49.1338 90.3666C49.459 90.1304 49.7351 89.8331 49.9465 89.4913C50.8997 87.9556 52.3761 86.9702 54.0337 86.9702C55.6912 86.9702 57.1524 87.9353 58.1039 89.4591C58.3879 89.9184 58.7858 90.2965 59.2589 90.5566C59.7321 90.8168 60.2645 90.9502 60.8044 90.944H60.8468C62.1403 90.9406 63.2611 91.9768 63.8063 93.4904Z" fill="black"/>
<path d="M143.087 84.5083L140.454 86.1744L142.049 83.2741C141.597 82.9137 141.039 82.7142 140.461 82.7069H140.419C140.236 82.7104 140.053 82.6968 139.873 82.6662L138.983 83.2317L139.364 82.5376C138.733 82.3161 138.188 81.9014 137.806 81.3524L136.213 82.3682L137.219 80.5363C136.287 79.4172 135.031 78.7314 133.648 78.7314C131.99 78.7314 130.514 79.7168 129.561 81.2542C129.278 81.7146 128.878 82.0918 128.403 82.3476C127.927 82.6034 127.392 82.7285 126.852 82.7103H126.764C124.933 82.7103 123.45 84.7843 123.45 87.3443C123.45 89.9043 124.933 91.9784 126.764 91.9784C127.166 91.9771 127.562 91.8777 127.917 91.6888C128.54 91.3865 129.221 91.223 129.914 91.2096C130.606 91.1961 131.293 91.3331 131.928 91.611C132.464 91.8504 133.045 91.9741 133.633 91.9741C134.22 91.9741 134.801 91.8504 135.338 91.611C135.967 91.3383 136.647 91.204 137.333 91.2171C138.018 91.2302 138.693 91.3905 139.311 91.6871C139.664 91.8713 140.056 91.9683 140.454 91.9699C142.284 91.9699 143.768 89.8958 143.768 87.3358C143.781 86.3513 143.547 85.3791 143.087 84.5083Z" fill="#F2F2F2"/>
<path opacity="0.03" d="M138.134 91.2892C137.178 91.1083 136.19 91.2156 135.295 91.5974C134.759 91.8374 134.178 91.9615 133.591 91.9615C133.004 91.9615 132.423 91.8374 131.887 91.5974C131.253 91.3187 130.565 91.1813 129.873 91.1948C129.18 91.2082 128.499 91.3722 127.876 91.6753C127.52 91.8636 127.124 91.9629 126.721 91.9648C125.096 91.9648 123.743 90.3258 123.462 88.1654C123.787 87.9293 124.063 87.6319 124.275 87.2901C125.228 85.7544 126.704 84.769 128.362 84.769C130.019 84.769 131.48 85.7341 132.432 87.2579C132.717 87.7184 133.116 88.0973 133.591 88.3575C134.066 88.6178 134.6 88.7505 135.141 88.7428H135.183C136.468 88.7394 137.589 89.7756 138.134 91.2892Z" fill="black"/>
<path d="M143.087 28.9742L140.454 30.6402L142.049 27.7399C141.597 27.3796 141.039 27.18 140.461 27.1727H140.419C140.236 27.1763 140.053 27.1627 139.873 27.1321L138.983 27.6976L139.364 27.0034C138.733 26.7819 138.188 26.3672 137.806 25.8182L136.213 26.8341L137.219 25.0021C136.287 23.883 135.031 23.1973 133.648 23.1973C131.99 23.1973 130.514 24.1827 129.561 25.72C129.278 26.1804 128.878 26.5576 128.403 26.8134C127.927 27.0692 127.392 27.1943 126.852 27.1761H126.764C124.933 27.1761 123.45 29.2502 123.45 31.8101C123.45 34.3701 124.933 36.4442 126.764 36.4442C127.166 36.4429 127.562 36.3435 127.917 36.1547C128.54 35.8524 129.221 35.6888 129.914 35.6754C130.606 35.662 131.293 35.7989 131.928 36.0768C132.464 36.3175 133.044 36.4427 133.632 36.4442C134.219 36.4457 134.8 36.3234 135.338 36.0853C135.967 35.8126 136.647 35.6782 137.333 35.6914C138.018 35.7045 138.693 35.8648 139.311 36.1614C139.664 36.3456 140.056 36.4426 140.454 36.4442C142.284 36.4442 143.768 34.3701 143.768 31.8101C143.782 30.8227 143.548 29.8474 143.087 28.9742Z" fill="#F2F2F2"/>
<path opacity="0.03" d="M138.134 35.755C137.178 35.5741 136.19 35.6814 135.295 36.0632C134.759 36.3032 134.178 36.4273 133.591 36.4273C133.004 36.4273 132.423 36.3032 131.887 36.0632C131.253 35.7845 130.565 35.6471 129.873 35.6606C129.18 35.674 128.499 35.838 127.876 36.1411C127.52 36.3294 127.124 36.4287 126.721 36.4306C125.096 36.4306 123.743 34.7917 123.462 32.6312C123.787 32.3951 124.063 32.0977 124.275 31.7559C125.228 30.2203 126.704 29.2349 128.362 29.2349C130.019 29.2349 131.48 30.1999 132.432 31.7237C132.717 32.1843 133.116 32.5631 133.591 32.8234C134.066 33.0836 134.6 33.2163 135.141 33.2086H135.183C136.468 33.2052 137.589 34.2414 138.134 35.755Z" fill="black"/>
<path d="M34.3854 22.9826L33.0732 23.8139L33.869 22.368C33.6441 22.1872 33.3651 22.0871 33.0766 22.0835H33.0563C32.965 22.0845 32.8738 22.0777 32.7837 22.0632L32.3401 22.3443L32.5297 22.0057C32.2149 21.8954 31.943 21.6886 31.7526 21.4148L30.9585 21.9227L31.4664 21.0101C31.2552 20.737 30.9857 20.5144 30.6776 20.3585C30.3695 20.2027 30.0305 20.1176 29.6853 20.1094C28.859 20.1094 28.1225 20.6004 27.6535 21.3674C27.5124 21.5976 27.3126 21.7862 27.0746 21.9138C26.8366 22.0414 26.5689 22.1035 26.299 22.0937H26.255C25.3424 22.0937 24.6025 23.1299 24.6025 24.4065C24.6025 25.6831 25.3424 26.7176 26.255 26.7176C26.4557 26.7169 26.6533 26.6676 26.8307 26.5737C27.1415 26.4224 27.4814 26.3405 27.827 26.3338C28.1726 26.3271 28.5155 26.3957 28.8319 26.5347C29.0984 26.6532 29.3868 26.7144 29.6785 26.7144C29.9701 26.7144 30.2585 26.6532 30.5251 26.5347C30.839 26.3986 31.1785 26.3316 31.5206 26.3383C31.8627 26.345 32.1994 26.4253 32.5077 26.5737C32.6836 26.6647 32.8785 26.7129 33.0766 26.7142C33.9892 26.7142 34.7291 25.6797 34.7291 24.4031C34.7355 23.9083 34.6173 23.4198 34.3854 22.9826Z" fill="#F2F2F2"/>
<path opacity="0.03" d="M31.9148 26.3652C31.4376 26.2738 30.944 26.3275 30.4976 26.5193C30.2309 26.6371 29.9426 26.6982 29.6511 26.6988C29.3562 26.6987 29.0647 26.6358 28.7961 26.5142C28.4794 26.3757 28.1365 26.3076 27.791 26.3147C27.4454 26.3217 27.1056 26.4036 26.7948 26.5549C26.618 26.6487 26.421 26.6981 26.2208 26.6988C25.4098 26.6988 24.7343 25.881 24.5938 24.8042C24.7555 24.6855 24.8934 24.5373 25.0001 24.3674C25.4742 23.6004 26.2107 23.1094 27.0318 23.1094C27.853 23.1094 28.5861 23.5953 29.0636 24.3521C29.2059 24.5823 29.4055 24.7715 29.643 24.9012C29.8804 25.0309 30.1475 25.0966 30.4181 25.092H30.4401C31.0784 25.092 31.6422 25.6101 31.9148 26.3652Z" fill="black"/>
<path d="M151.211 105.776L149.898 106.607L150.694 105.161C150.469 104.98 150.19 104.88 149.902 104.877H149.881C149.79 104.877 149.699 104.871 149.609 104.856L149.165 105.137L149.355 104.799C149.04 104.688 148.768 104.482 148.578 104.208L147.784 104.716L148.292 103.803C148.08 103.53 147.811 103.307 147.503 103.151C147.195 102.996 146.856 102.911 146.51 102.902C145.684 102.902 144.948 103.393 144.479 104.16C144.338 104.391 144.138 104.579 143.9 104.707C143.662 104.834 143.394 104.896 143.124 104.887H143.08C142.168 104.887 141.428 105.923 141.428 107.199C141.428 108.476 142.168 109.511 143.08 109.511C143.281 109.51 143.478 109.461 143.656 109.367C143.967 109.215 144.307 109.134 144.652 109.127C144.998 109.12 145.341 109.189 145.657 109.328C145.924 109.446 146.212 109.507 146.504 109.507C146.795 109.507 147.084 109.446 147.35 109.328C147.664 109.192 148.004 109.125 148.346 109.131C148.688 109.138 149.025 109.218 149.333 109.367C149.509 109.458 149.704 109.506 149.902 109.507C150.814 109.507 151.554 108.473 151.554 107.196C151.561 106.701 151.442 106.213 151.211 105.776Z" fill="#F2F2F2"/>
<path opacity="0.03" d="M148.74 109.158C148.263 109.067 147.769 109.12 147.323 109.312C147.056 109.43 146.768 109.491 146.476 109.492C146.181 109.492 145.89 109.429 145.621 109.307C145.305 109.169 144.962 109.101 144.616 109.108C144.271 109.115 143.931 109.197 143.62 109.348C143.443 109.442 143.246 109.491 143.046 109.492C142.235 109.492 141.559 108.674 141.419 107.597C141.581 107.478 141.719 107.33 141.825 107.16C142.299 106.393 143.036 105.902 143.857 105.902C144.678 105.902 145.411 106.388 145.889 107.145C146.031 107.375 146.231 107.564 146.468 107.694C146.706 107.824 146.973 107.89 147.243 107.885H147.265C147.904 107.885 148.467 108.403 148.74 109.158Z" fill="black"/>
<path d="M29.3063 110.178L27.9941 111.009L28.7899 109.563C28.565 109.383 28.286 109.282 27.9975 109.279H27.9772C27.8859 109.28 27.7947 109.273 27.7046 109.259L27.261 109.54L27.4506 109.201C27.1358 109.091 26.8639 108.884 26.6735 108.61L25.8794 109.118L26.3873 108.205C26.1761 107.932 25.9066 107.71 25.5985 107.554C25.2904 107.398 24.9514 107.313 24.6062 107.305C23.7799 107.305 23.0434 107.796 22.5744 108.563C22.4333 108.793 22.2335 108.981 21.9955 109.109C21.7575 109.237 21.4898 109.299 21.2199 109.289H21.1759C20.2633 109.289 19.5234 110.325 19.5234 111.602C19.5234 112.878 20.2633 113.913 21.1759 113.913C21.3766 113.912 21.5742 113.863 21.7516 113.769C22.0624 113.618 22.4023 113.536 22.7479 113.529C23.0935 113.522 23.4364 113.591 23.7528 113.73C24.0193 113.848 24.3077 113.91 24.5994 113.91C24.891 113.91 25.1794 113.848 25.446 113.73C25.7599 113.594 26.0994 113.527 26.4415 113.534C26.7836 113.54 27.1203 113.621 27.4286 113.769C27.6045 113.86 27.7994 113.908 27.9975 113.91C28.9101 113.91 29.65 112.875 29.65 111.598C29.6564 111.104 29.5382 110.615 29.3063 110.178Z" fill="#F2F2F2"/>
<path opacity="0.03" d="M26.8357 113.561C26.3585 113.469 25.8649 113.523 25.4185 113.715C25.1518 113.832 24.8635 113.894 24.572 113.894C24.2771 113.894 23.9856 113.831 23.717 113.71C23.4003 113.571 23.0574 113.503 22.7119 113.51C22.3663 113.517 22.0265 113.599 21.7157 113.75C21.5389 113.844 21.3419 113.893 21.1417 113.894C20.3307 113.894 19.6552 113.076 19.5146 111.999C19.6764 111.881 19.8143 111.733 19.921 111.563C20.3951 110.796 21.1316 110.305 21.9527 110.305C22.7739 110.305 23.507 110.791 23.9845 111.547C24.1268 111.778 24.3264 111.967 24.5639 112.096C24.8013 112.226 25.0684 112.292 25.339 112.287H25.361C25.9993 112.287 26.5631 112.805 26.8357 113.561Z" fill="black"/>
<path d="M89.9229 5.77886L87.2901 7.44488L88.885 4.54458C88.4334 4.18424 87.8746 3.98467 87.2969 3.97738H87.2545C87.0719 3.98095 86.8894 3.96735 86.7093 3.93675L85.8188 4.50225L86.1997 3.80807C85.5688 3.58662 85.0237 3.17191 84.6421 2.62289L83.0488 3.63876L84.0545 1.80681C83.1233 0.687665 81.867 0.00195312 80.4838 0.00195312C78.8262 0.00195312 77.3498 0.987344 76.3966 2.52469C76.1139 2.98507 75.7143 3.36233 75.2385 3.6181C74.7626 3.87387 74.2275 3.999 73.6876 3.98077H73.5996C71.7693 3.98077 70.2861 6.05483 70.2861 8.61482C70.2861 11.1748 71.7693 13.2489 73.5996 13.2489C74.0017 13.2476 74.3975 13.1482 74.7526 12.9594C75.3757 12.657 76.057 12.4935 76.7495 12.4801C77.442 12.4666 78.1291 12.6036 78.7636 12.8815C79.2995 13.1222 79.8801 13.2474 80.4676 13.2489C81.0551 13.2503 81.6364 13.128 82.1735 12.8899C82.8027 12.6173 83.4831 12.4829 84.1686 12.4961C84.8542 12.5092 85.529 12.6695 86.1472 12.9661C86.5001 13.1503 86.892 13.2472 87.2901 13.2489C89.1203 13.2489 90.6035 11.1748 90.6035 8.61482C90.6181 7.62738 90.384 6.65213 89.9229 5.77886Z" fill="#F2F2F2"/>
<path opacity="0.03" d="M84.9704 12.5597C84.0143 12.3788 83.026 12.4861 82.131 12.8679C81.595 13.1079 81.0142 13.232 80.4269 13.232C79.8396 13.232 79.2588 13.1079 78.7228 12.8679C78.0886 12.5892 77.4013 12.4518 76.7087 12.4653C76.0161 12.4787 75.3347 12.6427 74.7118 12.9458C74.3559 13.1341 73.9597 13.2334 73.5571 13.2353C71.9317 13.2353 70.5789 11.5964 70.2979 9.43594C70.6231 9.19976 70.8991 8.90243 71.1105 8.5606C72.0638 7.02494 73.5402 6.03955 75.1977 6.03955C76.8553 6.03955 78.3164 7.00463 79.268 8.52843C79.5527 8.98895 79.9519 9.36782 80.4267 9.62806C80.9014 9.88829 81.4356 10.021 81.9769 10.0133H82.0193C83.3043 10.0099 84.4252 11.0461 84.9704 12.5597Z" fill="black"/>
<path d="M179.655 34.8342L178.343 35.6655L179.138 34.2196C178.914 34.0388 178.635 33.9387 178.346 33.9351H178.326C178.235 33.9361 178.143 33.9293 178.053 33.9148L177.61 34.1959L177.799 33.8572C177.484 33.7469 177.212 33.5402 177.022 33.2663L176.228 33.7743L176.736 32.8617C176.525 32.5885 176.255 32.3659 175.947 32.2101C175.639 32.0543 175.3 31.9691 174.955 31.9609C174.129 31.9609 173.392 32.4519 172.923 33.2189C172.782 33.4492 172.582 33.6377 172.344 33.7654C172.106 33.893 171.838 33.9551 171.569 33.9453H171.525C170.612 33.9453 169.872 34.9815 169.872 36.2581C169.872 37.5347 170.612 38.5692 171.525 38.5692C171.725 38.5685 171.923 38.5191 172.1 38.4252C172.411 38.274 172.751 38.1921 173.097 38.1854C173.442 38.1787 173.785 38.2472 174.101 38.3863C174.368 38.5048 174.656 38.566 174.948 38.566C175.24 38.566 175.528 38.5048 175.795 38.3863C176.108 38.2501 176.448 38.1831 176.79 38.1898C177.132 38.1966 177.469 38.2768 177.777 38.4252C177.953 38.5163 178.148 38.5644 178.346 38.5658C179.259 38.5658 179.999 37.5313 179.999 36.2547C180.005 35.7598 179.887 35.2713 179.655 34.8342Z" fill="#F2F2F2"/>
<path opacity="0.03" d="M177.185 38.2168C176.707 38.1254 176.214 38.1791 175.767 38.3709C175.501 38.4886 175.212 38.5498 174.921 38.5503C174.629 38.5491 174.34 38.4862 174.074 38.3658C173.758 38.2273 173.415 38.1592 173.069 38.1662C172.724 38.1732 172.384 38.2552 172.073 38.4064C171.896 38.5003 171.699 38.5497 171.499 38.5503C170.688 38.5503 170.013 37.7326 169.872 36.6557C170.034 36.5371 170.172 36.3888 170.278 36.2189C170.752 35.4519 171.489 34.9609 172.31 34.9609C173.131 34.9609 173.864 35.4469 174.342 36.2037C174.483 36.4326 174.682 36.621 174.918 36.7506C175.153 36.8803 175.419 36.9467 175.688 36.9436H175.71C176.348 36.9436 176.912 37.4617 177.185 38.2168Z" fill="black"/>
</g>
<defs>
<clipPath id="clip0_1025_1056">
<rect width="180" height="113.903" fill="white"/>
</clipPath>
</defs>
</svg>
